<?xml version="1.0" encoding="UTF-8"?>
<svg xmlns="http://www.w3.org/2000/svg" width="1820" height="1680" viewBox="0 0 1820 1680">
  <defs>
  </defs>
  <g id="container-shells">
  </g>
  <g id="node-shadows">
    <rect x="760" y="120" width="120" height="60" rx="6" ry="6" fill="#000000" stroke="#000000" stroke-width="2" opacity="0.25" transform="translate(2,3)"/>
    <rect x="1300" y="660" width="120" height="60" rx="6" ry="6" fill="#000000" stroke="#000000" stroke-width="2" opacity="0.25" transform="translate(2,3)"/>
    <rect x="1300" y="760" width="120" height="60" rx="6" ry="6" fill="#000000" stroke="#000000" stroke-width="2" opacity="0.25" transform="translate(2,3)"/>
    <rect x="940" y="1130" width="120" height="60" rx="6" ry="6" fill="#000000" stroke="#000000" stroke-width="2" opacity="0.25" transform="translate(2,3)"/>
    <rect x="1120" y="1130" width="120" height="60" rx="6" ry="6" fill="#000000" stroke="#000000" stroke-width="2" opacity="0.25" transform="translate(2,3)"/>
    <rect x="1300" y="1030" width="120" height="60" rx="6" ry="6" fill="#000000" stroke="#000000" stroke-width="2" opacity="0.25" transform="translate(2,3)"/>
    <rect x="1480" y="980" width="120" height="60" rx="6" ry="6" fill="#000000" stroke="#000000" stroke-width="2" opacity="0.25" transform="translate(2,3)"/>
    <rect x="1660" y="880" width="120" height="60" rx="6" ry="6" fill="#000000" stroke="#000000" stroke-width="2" opacity="0.25" transform="translate(2,3)"/>
    <rect x="1300" y="1280" width="120" height="60" rx="6" ry="6" fill="#000000" stroke="#000000" stroke-width="2" opacity="0.25" transform="translate(2,3)"/>
    <rect x="1300" y="1380" width="120" height="60" rx="6" ry="6" fill="#000000" stroke="#000000" stroke-width="2" opacity="0.25" transform="translate(2,3)"/>
    <rect x="1480" y="1180" width="120" height="60" rx="6" ry="6" fill="#000000" stroke="#000000" stroke-width="2" opacity="0.25" transform="translate(2,3)"/>
    <rect x="760" y="430" width="120" height="200" rx="6" ry="6" fill="#000000" stroke="#000000" stroke-width="2" opacity="0.25" transform="translate(2,3)"/>
    <rect x="1660" y="980" width="120" height="60" rx="6" ry="6" fill="#000000" stroke="#000000" stroke-width="2" opacity="0.25" transform="translate(2,3)"/>
    <rect x="1660" y="1080" width="120" height="60" rx="6" ry="6" fill="#000000" stroke="#000000" stroke-width="2" opacity="0.25" transform="translate(2,3)"/>
    <rect x="1120" y="240" width="120" height="60" rx="6" ry="6" fill="#000000" stroke="#000000" stroke-width="2" opacity="0.25" transform="translate(2,3)"/>
    <rect x="1120" y="340" width="120" height="60" rx="6" ry="6" fill="#000000" stroke="#000000" stroke-width="2" opacity="0.25" transform="translate(2,3)"/>
    <rect x="800" y="40" width="40" height="40" rx="4" ry="4" fill="#000000" stroke="#000000" stroke-width="2" opacity="0.25" transform="translate(2,3)"/>
    <rect x="800" y="1600" width="40" height="40" rx="4" ry="4" fill="#000000" stroke="#000000" stroke-width="2" opacity="0.25" transform="translate(2,3)"/>
    <rect x="760" y="1500" width="120" height="60" rx="6" ry="6" fill="#000000" stroke="#000000" stroke-width="2" opacity="0.25" transform="translate(2,3)"/>
    <rect x="940" y="380" width="120" height="80" rx="6" ry="6" fill="#000000" stroke="#000000" stroke-width="2" opacity="0.25" transform="translate(2,3)"/>
    <rect x="1120" y="490" width="120" height="60" rx="6" ry="6" fill="#000000" stroke="#000000" stroke-width="2" opacity="0.25" transform="translate(2,3)"/>
    <rect x="1300" y="440" width="120" height="60" rx="6" ry="6" fill="#000000" stroke="#000000" stroke-width="2" opacity="0.25" transform="translate(2,3)"/>
    <rect x="1300" y="540" width="120" height="60" rx="6" ry="6" fill="#000000" stroke="#000000" stroke-width="2" opacity="0.25" transform="translate(2,3)"/>
    <rect x="940" y="690" width="120" height="100" rx="6" ry="6" fill="#000000" stroke="#000000" stroke-width="2" opacity="0.25" transform="translate(2,3)"/>
    <rect x="1120" y="710" width="120" height="60" rx="6" ry="6" fill="#000000" stroke="#000000" stroke-width="2" opacity="0.25" transform="translate(2,3)"/>
  </g>
  <g id="edges">
    <line x1="820.00" y1="184.00" x2="820.00" y2="419.25" stroke="#ff8000" stroke-width="3" />
    <path d="M 820.00 426.00 L 815.50 417.00 L 820.00 419.25 L 824.50 417.00 Z" fill="#ff8000" stroke="#ff8000" stroke-width="3" stroke-miterlimit="10"/>
    <text x="820" y="293" text-anchor="middle" font-family="Helvetica,Inter,Segoe UI,Arial" font-size="11" fill="#000000">then</text>
    <line x1="1063.98" y1="1171.60" x2="1109.30" y2="1167.07" stroke="#6c8ebf" stroke-width="3" stroke-dasharray="9 6" />
    <path d="M 1116.02 1166.40 L 1107.51 1171.77 L 1109.30 1167.07 L 1106.62 1162.82 Z" fill="#6c8ebf" stroke="#6c8ebf" stroke-width="3" stroke-miterlimit="10"/>
    <text x="1086" y="1161" text-anchor="middle" font-family="Helvetica,Inter,Segoe UI,Arial" font-size="11" fill="#000000">
      <title>example of</title>exam...
    </text>
    <line x1="990.33" y1="1126.15" x2="851.52" y2="640.34" stroke="#82b366" stroke-width="3" />
    <path d="M 849.67 633.85 L 856.47 641.26 L 851.52 640.34 L 847.82 643.74 Z" fill="#82b366" stroke="#82b366" stroke-width="3" stroke-miterlimit="10"/>
    <text x="920" y="875" text-anchor="middle" font-family="Helvetica,Inter,Segoe UI,Arial" font-size="11" fill="#000000">
      <title>contains</title>cont...
    </text>
    <line x1="1060.75" y1="1144.07" x2="1172.25" y2="560.56" stroke="#6c8ebf" stroke-width="3" stroke-dasharray="9 6" />
    <path d="M 1173.52 553.93 L 1176.25 563.61 L 1172.25 560.56 L 1167.41 561.92 Z" fill="#6c8ebf" stroke="#6c8ebf" stroke-width="3" stroke-miterlimit="10"/>
    <line x1="1237.50" y1="1128.06" x2="1296.60" y2="1095.22" stroke="#6c8ebf" stroke-width="3" stroke-dasharray="9 6" />
    <path d="M 1302.50 1091.94 L 1296.82 1100.25 L 1296.60 1095.22 L 1292.45 1092.38 Z" fill="#6c8ebf" stroke="#6c8ebf" stroke-width="3" stroke-miterlimit="10"/>
    <text x="1266" y="1103" text-anchor="middle" font-family="Helvetica,Inter,Segoe UI,Arial" font-size="11" fill="#000000">
      <title>example of</title>exam...
    </text>
    <line x1="1219.07" y1="1192.56" x2="1315.74" y2="1273.12" stroke="#6c8ebf" stroke-width="3" stroke-dasharray="9 6" />
    <path d="M 1320.93 1277.44 L 1311.13 1275.13 L 1315.74 1273.12 L 1316.89 1268.22 Z" fill="#6c8ebf" stroke="#6c8ebf" stroke-width="3" stroke-miterlimit="10"/>
    <text x="1267" y="1224" text-anchor="middle" font-family="Helvetica,Inter,Segoe UI,Arial" font-size="11" fill="#000000">
      <title>answers question</title>answ...
    </text>
    <line x1="1203.94" y1="1193.25" x2="1332.12" y2="1371.28" stroke="#6c8ebf" stroke-width="3" stroke-dasharray="9 6" />
    <path d="M 1336.06 1376.75 L 1327.15 1372.08 L 1332.12 1371.28 L 1334.46 1366.82 Z" fill="#6c8ebf" stroke="#6c8ebf" stroke-width="3" stroke-miterlimit="10"/>
    <text x="1267" y="1274" text-anchor="middle" font-family="Helvetica,Inter,Segoe UI,Arial" font-size="11" fill="#000000">
      <title>involves</title>invo...
    </text>
    <line x1="1423.85" y1="1042.26" x2="1469.64" y2="1029.54" stroke="#6c8ebf" stroke-width="3" stroke-dasharray="9 6" />
    <path d="M 1476.15 1027.74 L 1468.68 1034.48 L 1469.64 1029.54 L 1466.27 1025.81 Z" fill="#6c8ebf" stroke="#6c8ebf" stroke-width="3" stroke-miterlimit="10"/>
    <text x="1446" y="1027" text-anchor="middle" font-family="Helvetica,Inter,Segoe UI,Arial" font-size="11" fill="#000000">
      <title>involves</title>invo...
    </text>
    <line x1="1399.07" y1="1092.56" x2="1495.74" y2="1173.12" stroke="#6c8ebf" stroke-width="3" stroke-dasharray="9 6" />
    <path d="M 1500.93 1177.44 L 1491.13 1175.13 L 1495.74 1173.12 L 1496.89 1168.22 Z" fill="#6c8ebf" stroke="#6c8ebf" stroke-width="3" stroke-miterlimit="10"/>
    <text x="1447" y="1124" text-anchor="middle" font-family="Helvetica,Inter,Segoe UI,Arial" font-size="11" fill="#000000">
      <title>answers question</title>answ...
    </text>
    <line x1="1597.50" y1="978.06" x2="1656.60" y2="945.22" stroke="#6c8ebf" stroke-width="3" stroke-dasharray="9 6" />
    <path d="M 1662.50 941.94 L 1656.82 950.25 L 1656.60 945.22 L 1652.45 942.38 Z" fill="#6c8ebf" stroke="#6c8ebf" stroke-width="3" stroke-miterlimit="10"/>
    <text x="1626" y="953" text-anchor="middle" font-family="Helvetica,Inter,Segoe UI,Arial" font-size="11" fill="#000000">
      <title>kind of</title>kind...
    </text>
    <line x1="1604.00" y1="1010.00" x2="1649.25" y2="1010.00" stroke="#6c8ebf" stroke-width="3" stroke-dasharray="9 6" />
    <path d="M 1656.00 1010.00 L 1647.00 1014.50 L 1649.25 1010.00 L 1647.00 1005.50 Z" fill="#6c8ebf" stroke="#6c8ebf" stroke-width="3" stroke-miterlimit="10"/>
    <text x="1626" y="1002" text-anchor="middle" font-family="Helvetica,Inter,Segoe UI,Arial" font-size="11" fill="#000000">
      <title>used for</title>used...
    </text>
    <line x1="1597.50" y1="1041.94" x2="1656.60" y2="1074.78" stroke="#6c8ebf" stroke-width="3" stroke-dasharray="9 6" />
    <path d="M 1662.50 1078.06 L 1652.45 1077.62 L 1656.60 1074.78 L 1656.82 1069.75 Z" fill="#6c8ebf" stroke="#6c8ebf" stroke-width="3" stroke-miterlimit="10"/>
    <text x="1626" y="1049" text-anchor="middle" font-family="Helvetica,Inter,Segoe UI,Arial" font-size="11" fill="#000000">
      <title>used for</title>used...
    </text>
    <line x1="820.00" y1="634.00" x2="820.00" y2="1489.25" stroke="#ff8000" stroke-width="3" />
    <path d="M 820.00 1496.00 L 815.50 1487.00 L 820.00 1489.25 L 824.50 1487.00 Z" fill="#ff8000" stroke="#ff8000" stroke-width="3" stroke-miterlimit="10"/>
    <text x="820" y="1053" text-anchor="middle" font-family="Helvetica,Inter,Segoe UI,Arial" font-size="11" fill="#000000">then</text>
    <line x1="1175.36" y1="303.96" x2="1061.46" y2="1137.35" stroke="#82b366" stroke-width="3" />
    <path d="M 1060.54 1144.04 L 1057.30 1134.51 L 1061.46 1137.35 L 1066.22 1135.73 Z" fill="#82b366" stroke="#82b366" stroke-width="3" stroke-miterlimit="10"/>
    <line x1="1150.47" y1="302.98" x2="1067.17" y2="395.99" stroke="#82b366" stroke-width="3" />
    <path d="M 1062.67 401.02 L 1065.32 391.31 L 1067.17 395.99 L 1072.02 397.32 Z" fill="#82b366" stroke="#82b366" stroke-width="3" stroke-miterlimit="10"/>
    <line x1="1170.97" y1="303.86" x2="1062.77" y2="709.61" stroke="#82b366" stroke-width="3" />
    <path d="M 1061.03 716.14 L 1059.00 706.28 L 1062.77 709.61 L 1067.70 708.60 Z" fill="#82b366" stroke="#82b366" stroke-width="3" stroke-miterlimit="10"/>
    <line x1="1184.45" y1="303.97" x2="1238.60" y2="717.34" stroke="#82b366" stroke-width="3" />
    <path d="M 1239.48 724.03 L 1233.85 715.69 L 1238.60 717.34 L 1242.77 714.53 Z" fill="#82b366" stroke="#82b366" stroke-width="3" stroke-miterlimit="10"/>
    <line x1="1174.92" y1="403.96" x2="1061.59" y2="1161.37" stroke="#82b366" stroke-width="3" />
    <path d="M 1060.59 1168.04 L 1057.47 1158.48 L 1061.59 1161.37 L 1066.37 1159.81 Z" fill="#82b366" stroke="#82b366" stroke-width="3" stroke-miterlimit="10"/>
    <line x1="1121.95" y1="401.93" x2="1069.42" y2="430.82" stroke="#82b366" stroke-width="3" />
    <path d="M 1063.50 434.07 L 1069.22 425.79 L 1069.42 430.82 L 1073.56 433.68 Z" fill="#82b366" stroke="#82b366" stroke-width="3" stroke-miterlimit="10"/>
    <line x1="1169.59" y1="403.82" x2="1063.16" y2="749.73" stroke="#82b366" stroke-width="3" />
    <path d="M 1061.18 756.18 L 1059.52 746.25 L 1063.16 749.73 L 1068.12 748.90 Z" fill="#82b366" stroke="#82b366" stroke-width="3" stroke-miterlimit="10"/>
    <line x1="1185.33" y1="403.95" x2="1238.33" y2="741.38" stroke="#82b366" stroke-width="3" />
    <path d="M 1239.38 748.05 L 1233.54 739.86 L 1238.33 741.38 L 1242.43 738.46 Z" fill="#82b366" stroke="#82b366" stroke-width="3" stroke-miterlimit="10"/>
    <line x1="820.00" y1="84.00" x2="820.00" y2="109.25" stroke="#ff8000" stroke-width="3" />
    <path d="M 820.00 116.00 L 815.50 107.00 L 820.00 109.25 L 824.50 107.00 Z" fill="#ff8000" stroke="#ff8000" stroke-width="3" stroke-miterlimit="10"/>
    <line x1="820.00" y1="1564.00" x2="820.00" y2="1589.25" stroke="#ff8000" stroke-width="3" />
    <path d="M 820.00 1596.00 L 815.50 1587.00 L 820.00 1589.25 L 824.50 1587.00 Z" fill="#ff8000" stroke="#ff8000" stroke-width="3" stroke-miterlimit="10"/>
    <line x1="936.59" y1="458.75" x2="889.17" y2="487.73" stroke="#82b366" stroke-width="3" />
    <path d="M 883.41 491.25 L 888.75 482.71 L 889.17 487.73 L 893.44 490.39 Z" fill="#82b366" stroke="#82b366" stroke-width="3" stroke-miterlimit="10"/>
    <text x="912" y="464" text-anchor="middle" font-family="Helvetica,Inter,Segoe UI,Arial" font-size="11" fill="#000000">
      <title>involves</title>invo...
    </text>
    <line x1="1063.07" y1="422.56" x2="1135.74" y2="483.12" stroke="#6c8ebf" stroke-width="3" stroke-dasharray="9 6" />
    <path d="M 1140.93 487.44 L 1131.13 485.13 L 1135.74 483.12 L 1136.89 478.22 Z" fill="#6c8ebf" stroke="#6c8ebf" stroke-width="3" stroke-miterlimit="10"/>
    <line x1="1000.00" y1="464.00" x2="1000.00" y2="679.25" stroke="#ff8000" stroke-width="3" />
    <path d="M 1000.00 686.00 L 995.50 677.00 L 1000.00 679.25 L 1004.50 677.00 Z" fill="#ff8000" stroke="#ff8000" stroke-width="3" stroke-miterlimit="10"/>
    <line x1="1243.85" y1="502.26" x2="1289.64" y2="489.54" stroke="#6c8ebf" stroke-width="3" stroke-dasharray="9 6" />
    <path d="M 1296.15 487.74 L 1288.68 494.48 L 1289.64 489.54 L 1286.27 485.81 Z" fill="#6c8ebf" stroke="#6c8ebf" stroke-width="3" stroke-miterlimit="10"/>
    <text x="1266" y="487" text-anchor="middle" font-family="Helvetica,Inter,Segoe UI,Arial" font-size="11" fill="#000000">
      <title>answers question</title>answ...
    </text>
    <line x1="1243.85" y1="537.74" x2="1289.64" y2="550.46" stroke="#6c8ebf" stroke-width="3" stroke-dasharray="9 6" />
    <path d="M 1296.15 552.26 L 1286.27 554.19 L 1289.64 550.46 L 1288.68 545.52 Z" fill="#6c8ebf" stroke="#6c8ebf" stroke-width="3" stroke-miterlimit="10"/>
    <text x="1266" y="535" text-anchor="middle" font-family="Helvetica,Inter,Segoe UI,Arial" font-size="11" fill="#000000">
      <title>involves</title>invo...
    </text>
    <line x1="1000.00" y1="794.00" x2="1000.00" y2="1119.25" stroke="#ff8000" stroke-width="3" />
    <path d="M 1000.00 1126.00 L 995.50 1117.00 L 1000.00 1119.25 L 1004.50 1117.00 Z" fill="#ff8000" stroke="#ff8000" stroke-width="3" stroke-miterlimit="10"/>
    <line x1="954.54" y1="686.96" x2="887.00" y2="608.16" stroke="#82b366" stroke-width="3" />
    <path d="M 882.60 603.04 L 891.88 606.94 L 887.00 608.16 L 885.04 612.80 Z" fill="#82b366" stroke="#82b366" stroke-width="3" stroke-miterlimit="10"/>
    <text x="920" y="639" text-anchor="middle" font-family="Helvetica,Inter,Segoe UI,Arial" font-size="11" fill="#000000">
      <title>contains</title>cont...
    </text>
    <line x1="1061.92" y1="736.49" x2="1158.49" y2="559.44" stroke="#6c8ebf" stroke-width="3" stroke-dasharray="9 6" />
    <path d="M 1161.72 553.51 L 1161.36 563.57 L 1158.49 559.44 L 1153.46 559.26 Z" fill="#6c8ebf" stroke="#6c8ebf" stroke-width="3" stroke-miterlimit="10"/>
    <line x1="1243.81" y1="726.79" x2="1289.75" y2="712.25" stroke="#6c8ebf" stroke-width="3" stroke-dasharray="9 6" />
    <path d="M 1296.19 710.21 L 1288.97 717.21 L 1289.75 712.25 L 1286.25 708.63 Z" fill="#6c8ebf" stroke="#6c8ebf" stroke-width="3" stroke-miterlimit="10"/>
    <line x1="1243.81" y1="753.21" x2="1289.75" y2="767.75" stroke="#6c8ebf" stroke-width="3" stroke-dasharray="9 6" />
    <path d="M 1296.19 769.79 L 1286.25 771.37 L 1289.75 767.75 L 1288.97 762.79 Z" fill="#6c8ebf" stroke="#6c8ebf" stroke-width="3" stroke-miterlimit="10"/>
    <line x1="1116.00" y1="740.00" x2="1070.75" y2="740.00" stroke="#82b366" stroke-width="3" />
    <path d="M 1064.00 740.00 L 1073.00 735.50 L 1070.75 740.00 L 1073.00 744.50 Z" fill="#82b366" stroke="#82b366" stroke-width="3" stroke-miterlimit="10"/>
  </g>
  <g id="nodes">
    <rect x="760" y="120" width="120" height="60" rx="6" ry="6" fill="#ffe6cc" stroke="#ff8000" stroke-width="2"/>
    <text x="820" y="131" text-anchor="middle" dominant-baseline="middle" font-family="Helvetica,Inter,Segoe UI,Arial" font-size="16" font-weight="bold" fill="#ff8000">get the</text>
    <text x="820" y="150" text-anchor="middle" dominant-baseline="middle" font-family="Helvetica,Inter,Segoe UI,Arial" font-size="16" font-weight="bold" fill="#ff8000">party</text>
    <text x="820" y="169" text-anchor="middle" dominant-baseline="middle" font-family="Helvetica,Inter,Segoe UI,Arial" font-size="16" font-weight="bold" fill="#ff8000">started</text>
    <rect x="1300" y="660" width="120" height="60" rx="6" ry="6" fill="#dae8fc" stroke="#6c8ebf" stroke-width="2"/>
    <text x="1360" y="690" text-anchor="middle" dominant-baseline="middle" font-family="Helvetica,Inter,Segoe UI,Arial" font-size="16" font-weight="normal" fill="#3399ff">marriage</text>
    <rect x="1300" y="760" width="120" height="60" rx="6" ry="6" fill="#dae8fc" stroke="#6c8ebf" stroke-width="2"/>
    <text x="1360" y="790" text-anchor="middle" dominant-baseline="middle" font-family="Helvetica,Inter,Segoe UI,Arial" font-size="16" font-weight="normal" fill="#3399ff">refusal</text>
    <rect x="940" y="1130" width="120" height="60" rx="6" ry="6" fill="#ffe6cc" stroke="#ff8000" stroke-width="2"/>
    <text x="1000" y="1141" text-anchor="middle" dominant-baseline="middle" font-family="Helvetica,Inter,Segoe UI,Arial" font-size="16" font-weight="bold" fill="#ff8000">Prof Plum</text>
    <text x="1000" y="1160" text-anchor="middle" dominant-baseline="middle" font-family="Helvetica,Inter,Segoe UI,Arial" font-size="16" font-weight="bold" fill="#ff8000">murders Miss</text>
    <text x="1000" y="1179" text-anchor="middle" dominant-baseline="middle" font-family="Helvetica,Inter,Segoe UI,Arial" font-size="16" font-weight="bold" fill="#ff8000">Scarlet</text>
    <rect x="1120" y="1130" width="120" height="60" rx="6" ry="6" fill="#dae8fc" stroke="#6c8ebf" stroke-width="2"/>
    <text x="1180" y="1150" text-anchor="middle" dominant-baseline="middle" font-family="Helvetica,Inter,Segoe UI,Arial" font-size="16" font-weight="normal" fill="#3399ff">murder by</text>
    <text x="1180" y="1170" text-anchor="middle" dominant-baseline="middle" font-family="Helvetica,Inter,Segoe UI,Arial" font-size="16" font-weight="normal" fill="#3399ff">subtle knife</text>
    <rect x="1300" y="1030" width="120" height="60" rx="6" ry="6" fill="#dae8fc" stroke="#6c8ebf" stroke-width="2"/>
    <text x="1360" y="1050" text-anchor="middle" dominant-baseline="middle" font-family="Helvetica,Inter,Segoe UI,Arial" font-size="16" font-weight="normal" fill="#3399ff">use of</text>
    <text x="1360" y="1070" text-anchor="middle" dominant-baseline="middle" font-family="Helvetica,Inter,Segoe UI,Arial" font-size="16" font-weight="normal" fill="#3399ff">subtle knife</text>
    <rect x="1480" y="980" width="120" height="60" rx="6" ry="6" fill="#dae8fc" stroke="#6c8ebf" stroke-width="2"/>
    <text x="1540" y="1010" text-anchor="middle" dominant-baseline="middle" font-family="Helvetica,Inter,Segoe UI,Arial" font-size="16" font-weight="normal" fill="#3399ff">subtle knife</text>
    <rect x="1660" y="880" width="120" height="60" rx="6" ry="6" fill="#dae8fc" stroke="#6c8ebf" stroke-width="2"/>
    <text x="1720" y="910" text-anchor="middle" dominant-baseline="middle" font-family="Helvetica,Inter,Segoe UI,Arial" font-size="16" font-weight="normal" fill="#3399ff">knife</text>
    <rect x="1300" y="1280" width="120" height="60" rx="6" ry="6" fill="#dae8fc" stroke="#6c8ebf" stroke-width="2"/>
    <text x="1360" y="1310" text-anchor="middle" dominant-baseline="middle" font-family="Helvetica,Inter,Segoe UI,Arial" font-size="16" font-weight="normal" fill="#3399ff">what action</text>
    <rect x="1300" y="1380" width="120" height="60" rx="6" ry="6" fill="#dae8fc" stroke="#6c8ebf" stroke-width="2"/>
    <text x="1360" y="1410" text-anchor="middle" dominant-baseline="middle" font-family="Helvetica,Inter,Segoe UI,Arial" font-size="16" font-weight="normal" fill="#3399ff">murder</text>
    <rect x="1480" y="1180" width="120" height="60" rx="6" ry="6" fill="#dae8fc" stroke="#6c8ebf" stroke-width="2"/>
    <text x="1540" y="1210" text-anchor="middle" dominant-baseline="middle" font-family="Helvetica,Inter,Segoe UI,Arial" font-size="16" font-weight="normal" fill="#3399ff">how</text>
    <rect x="760" y="430" width="120" height="200" rx="6" ry="6" fill="#ffe6cc" stroke="#ff8000" stroke-width="2"/>
    <text x="820" y="471" text-anchor="middle" dominant-baseline="middle" font-family="Helvetica,Inter,Segoe UI,Arial" font-size="14" font-weight="bold" fill="#ff8000">Professor Plum</text>
    <text x="820" y="488" text-anchor="middle" dominant-baseline="middle" font-family="Helvetica,Inter,Segoe UI,Arial" font-size="14" font-weight="bold" fill="#ff8000">murders Miss</text>
    <text x="820" y="505" text-anchor="middle" dominant-baseline="middle" font-family="Helvetica,Inter,Segoe UI,Arial" font-size="14" font-weight="bold" fill="#ff8000">Scarlet in the</text>
    <text x="820" y="522" text-anchor="middle" dominant-baseline="middle" font-family="Helvetica,Inter,Segoe UI,Arial" font-size="14" font-weight="bold" fill="#ff8000">library with</text>
    <text x="820" y="538" text-anchor="middle" dominant-baseline="middle" font-family="Helvetica,Inter,Segoe UI,Arial" font-size="14" font-weight="bold" fill="#ff8000">the bread</text>
    <text x="820" y="555" text-anchor="middle" dominant-baseline="middle" font-family="Helvetica,Inter,Segoe UI,Arial" font-size="14" font-weight="bold" fill="#ff8000">knife because</text>
    <text x="820" y="572" text-anchor="middle" dominant-baseline="middle" font-family="Helvetica,Inter,Segoe UI,Arial" font-size="14" font-weight="bold" fill="#ff8000">she refused to</text>
    <text x="820" y="589" text-anchor="middle" dominant-baseline="middle" font-family="Helvetica,Inter,Segoe UI,Arial" font-size="14" font-weight="bold" fill="#ff8000">marry him</text>
    <rect x="1660" y="980" width="120" height="60" rx="6" ry="6" fill="#dae8fc" stroke="#6c8ebf" stroke-width="2"/>
    <text x="1720" y="993" text-anchor="middle" dominant-baseline="middle" font-family="Helvetica,Inter,Segoe UI,Arial" font-size="14" font-weight="normal" fill="#3399ff">cutting</text>
    <text x="1720" y="1010" text-anchor="middle" dominant-baseline="middle" font-family="Helvetica,Inter,Segoe UI,Arial" font-size="14" font-weight="normal" fill="#3399ff">interdimensi</text>
    <text x="1720" y="1027" text-anchor="middle" dominant-baseline="middle" font-family="Helvetica,Inter,Segoe UI,Arial" font-size="14" font-weight="normal" fill="#3399ff">onal rifts</text>
    <rect x="1660" y="1080" width="120" height="60" rx="6" ry="6" fill="#dae8fc" stroke="#6c8ebf" stroke-width="2"/>
    <text x="1720" y="1100" text-anchor="middle" dominant-baseline="middle" font-family="Helvetica,Inter,Segoe UI,Arial" font-size="16" font-weight="normal" fill="#3399ff">cutting</text>
    <text x="1720" y="1120" text-anchor="middle" dominant-baseline="middle" font-family="Helvetica,Inter,Segoe UI,Arial" font-size="16" font-weight="normal" fill="#3399ff">bread</text>
    <rect x="1120" y="240" width="120" height="60" rx="6" ry="6" fill="#d5e8d4" stroke="#82b366" stroke-width="2"/>
    <text x="1180" y="260" text-anchor="middle" dominant-baseline="middle" font-family="Helvetica,Inter,Segoe UI,Arial" font-size="16" font-weight="normal" fill="#009900">Professor</text>
    <text x="1180" y="280" text-anchor="middle" dominant-baseline="middle" font-family="Helvetica,Inter,Segoe UI,Arial" font-size="16" font-weight="normal" fill="#009900">Plum</text>
    <rect x="1120" y="340" width="120" height="60" rx="6" ry="6" fill="#d5e8d4" stroke="#82b366" stroke-width="2"/>
    <text x="1180" y="370" text-anchor="middle" dominant-baseline="middle" font-family="Helvetica,Inter,Segoe UI,Arial" font-size="16" font-weight="normal" fill="#009900">Miss Scarlet</text>
    <rect x="800" y="40" width="40" height="40" rx="4" ry="4" fill="#ffe6cc" stroke="#ff8000" stroke-width="2"/>
    <text x="820" y="60" text-anchor="middle" dominant-baseline="middle" font-family="Helvetica,Inter,Segoe UI,Arial" font-size="16" font-weight="bold" fill="#ff8000">S</text>
    <rect x="800" y="1600" width="40" height="40" rx="4" ry="4" fill="#ffe6cc" stroke="#ff8000" stroke-width="2"/>
    <text x="820" y="1620" text-anchor="middle" dominant-baseline="middle" font-family="Helvetica,Inter,Segoe UI,Arial" font-size="16" font-weight="bold" fill="#ff8000">E</text>
    <rect x="760" y="1500" width="120" height="60" rx="6" ry="6" fill="#ffe6cc" stroke="#ff8000" stroke-width="2"/>
    <text x="820" y="1520" text-anchor="middle" dominant-baseline="middle" font-family="Helvetica,Inter,Segoe UI,Arial" font-size="16" font-weight="bold" fill="#ff8000">investigatio</text>
    <text x="820" y="1540" text-anchor="middle" dominant-baseline="middle" font-family="Helvetica,Inter,Segoe UI,Arial" font-size="16" font-weight="bold" fill="#ff8000">n begins</text>
    <rect x="940" y="380" width="120" height="80" rx="6" ry="6" fill="#ffe6cc" stroke="#ff8000" stroke-width="2"/>
    <text x="1000" y="395" text-anchor="middle" dominant-baseline="middle" font-family="Helvetica,Inter,Segoe UI,Arial" font-size="14" font-weight="bold" fill="#ff8000">Prof Plum</text>
    <text x="1000" y="412" text-anchor="middle" dominant-baseline="middle" font-family="Helvetica,Inter,Segoe UI,Arial" font-size="14" font-weight="bold" fill="#ff8000">&amp; Miss</text>
    <text x="1000" y="428" text-anchor="middle" dominant-baseline="middle" font-family="Helvetica,Inter,Segoe UI,Arial" font-size="14" font-weight="bold" fill="#ff8000">Scarlett in</text>
    <text x="1000" y="445" text-anchor="middle" dominant-baseline="middle" font-family="Helvetica,Inter,Segoe UI,Arial" font-size="14" font-weight="bold" fill="#ff8000">the library</text>
    <rect x="1120" y="490" width="120" height="60" rx="6" ry="6" fill="#dae8fc" stroke="#6c8ebf" stroke-width="2"/>
    <text x="1180" y="510" text-anchor="middle" dominant-baseline="middle" font-family="Helvetica,Inter,Segoe UI,Arial" font-size="16" font-weight="normal" fill="#3399ff">In the</text>
    <text x="1180" y="530" text-anchor="middle" dominant-baseline="middle" font-family="Helvetica,Inter,Segoe UI,Arial" font-size="16" font-weight="normal" fill="#3399ff">library</text>
    <rect x="1300" y="440" width="120" height="60" rx="6" ry="6" fill="#dae8fc" stroke="#6c8ebf" stroke-width="2"/>
    <text x="1360" y="470" text-anchor="middle" dominant-baseline="middle" font-family="Helvetica,Inter,Segoe UI,Arial" font-size="16" font-weight="normal" fill="#3399ff">where</text>
    <rect x="1300" y="540" width="120" height="60" rx="6" ry="6" fill="#dae8fc" stroke="#6c8ebf" stroke-width="2"/>
    <text x="1360" y="570" text-anchor="middle" dominant-baseline="middle" font-family="Helvetica,Inter,Segoe UI,Arial" font-size="16" font-weight="normal" fill="#3399ff">library</text>
    <rect x="940" y="690" width="120" height="100" rx="6" ry="6" fill="#ffe6cc" stroke="#ff8000" stroke-width="2"/>
    <text x="1000" y="715" text-anchor="middle" dominant-baseline="middle" font-family="Helvetica,Inter,Segoe UI,Arial" font-size="14" font-weight="bold" fill="#ff8000">Miss Scarlet</text>
    <text x="1000" y="732" text-anchor="middle" dominant-baseline="middle" font-family="Helvetica,Inter,Segoe UI,Arial" font-size="14" font-weight="bold" fill="#ff8000">refuses to</text>
    <text x="1000" y="748" text-anchor="middle" dominant-baseline="middle" font-family="Helvetica,Inter,Segoe UI,Arial" font-size="14" font-weight="bold" fill="#ff8000">marry</text>
    <text x="1000" y="765" text-anchor="middle" dominant-baseline="middle" font-family="Helvetica,Inter,Segoe UI,Arial" font-size="14" font-weight="bold" fill="#ff8000">Professor Plum</text>
    <rect x="1120" y="710" width="120" height="60" rx="6" ry="6" fill="#ffe6cc" stroke="#ff8000" stroke-width="2"/>
    <text x="1180" y="730" text-anchor="middle" dominant-baseline="middle" font-family="Helvetica,Inter,Segoe UI,Arial" font-size="16" font-weight="bold" fill="#ff8000">refusal</text>
    <text x="1180" y="750" text-anchor="middle" dominant-baseline="middle" font-family="Helvetica,Inter,Segoe UI,Arial" font-size="16" font-weight="bold" fill="#ff8000">marriage</text>
  </g>
</svg>
