<?xml version="1.0" encoding="UTF-8"?>
<svg xmlns="http://www.w3.org/2000/svg" width="920" height="1370" viewBox="0 0 920 1370">
  <defs>
  </defs>
  <g id="container-shells">
    <rect x="200" y="220" width="520" height="850" rx="10" ry="10" fill="#fff5eb" stroke="#ff8000" stroke-width="2" stroke-dasharray="8 4" opacity="0.6"/>
  </g>
  <g id="node-shadows">
    <rect x="220" y="120" width="120" height="60" rx="6" ry="6" fill="#000000" stroke="#000000" stroke-width="2" opacity="0.25" transform="translate(2,3)"/>
    <rect x="760" y="520" width="120" height="60" rx="6" ry="6" fill="#000000" stroke="#000000" stroke-width="2" opacity="0.25" transform="translate(2,3)"/>
    <rect x="760" y="620" width="120" height="60" rx="6" ry="6" fill="#000000" stroke="#000000" stroke-width="2" opacity="0.25" transform="translate(2,3)"/>
    <rect x="400" y="990" width="120" height="60" rx="6" ry="6" fill="#000000" stroke="#000000" stroke-width="2" opacity="0.25" transform="translate(2,3)"/>
    <rect x="580" y="1090" width="120" height="60" rx="6" ry="6" fill="#000000" stroke="#000000" stroke-width="2" opacity="0.25" transform="translate(2,3)"/>
    <rect x="220" y="290" width="120" height="200" rx="6" ry="6" fill="#000000" stroke="#000000" stroke-width="2" opacity="0.25" transform="translate(2,3)"/>
    <rect x="40" y="317" width="120" height="60" rx="6" ry="6" fill="#000000" stroke="#000000" stroke-width="2" opacity="0.25" transform="translate(2,3)"/>
    <rect x="40" y="397" width="120" height="60" rx="6" ry="6" fill="#000000" stroke="#000000" stroke-width="2" opacity="0.25" transform="translate(2,3)"/>
    <rect x="260" y="40" width="40" height="40" rx="4" ry="4" fill="#000000" stroke="#000000" stroke-width="2" opacity="0.25" transform="translate(2,3)"/>
    <rect x="260" y="1290" width="40" height="40" rx="4" ry="4" fill="#000000" stroke="#000000" stroke-width="2" opacity="0.25" transform="translate(2,3)"/>
    <rect x="220" y="1190" width="120" height="60" rx="6" ry="6" fill="#000000" stroke="#000000" stroke-width="2" opacity="0.25" transform="translate(2,3)"/>
    <rect x="400" y="240" width="120" height="80" rx="6" ry="6" fill="#000000" stroke="#000000" stroke-width="2" opacity="0.25" transform="translate(2,3)"/>
    <rect x="40" y="477" width="120" height="60" rx="6" ry="6" fill="#000000" stroke="#000000" stroke-width="2" opacity="0.25" transform="translate(2,3)"/>
    <rect x="400" y="550" width="120" height="100" rx="6" ry="6" fill="#000000" stroke="#000000" stroke-width="2" opacity="0.25" transform="translate(2,3)"/>
    <rect x="580" y="570" width="120" height="60" rx="6" ry="6" fill="#000000" stroke="#000000" stroke-width="2" opacity="0.25" transform="translate(2,3)"/>
  </g>
  <g id="edges">
    <line x1="280.00" y1="184.00" x2="280.00" y2="279.25" stroke="#ff8000" stroke-width="3" />
    <path d="M 280.00 286.00 L 275.50 277.00 L 280.00 279.25 L 284.50 277.00 Z" fill="#ff8000" stroke="#ff8000" stroke-width="3" stroke-miterlimit="10"/>
    <text x="280" y="223" text-anchor="middle" font-family="Helvetica,Inter,Segoe UI,Arial" font-size="11" fill="#000000">then</text>
    <line x1="523.07" y1="1022.56" x2="595.74" y2="1083.12" stroke="#6c8ebf" stroke-width="3" stroke-dasharray="9 6" />
    <path d="M 600.93 1087.44 L 591.13 1085.13 L 595.74 1083.12 L 596.89 1078.22 Z" fill="#6c8ebf" stroke="#6c8ebf" stroke-width="3" stroke-miterlimit="10"/>
    <text x="559" y="1044" text-anchor="middle" font-family="Helvetica,Inter,Segoe UI,Arial" font-size="11" fill="#000000">
      <title>example of</title>exam...
    </text>
    <line x1="450.33" y1="986.15" x2="311.52" y2="500.34" stroke="#82b366" stroke-width="3" />
    <path d="M 309.67 493.85 L 316.47 501.26 L 311.52 500.34 L 307.82 503.74 Z" fill="#82b366" stroke="#82b366" stroke-width="3" stroke-miterlimit="10"/>
    <text x="380" y="735" text-anchor="middle" font-family="Helvetica,Inter,Segoe UI,Arial" font-size="11" fill="#000000">
      <title>contains</title>cont...
    </text>
    <line x1="280.00" y1="494.00" x2="280.00" y2="1179.25" stroke="#ff8000" stroke-width="3" />
    <path d="M 280.00 1186.00 L 275.50 1177.00 L 280.00 1179.25 L 284.50 1177.00 Z" fill="#ff8000" stroke="#ff8000" stroke-width="3" stroke-miterlimit="10"/>
    <text x="280" y="828" text-anchor="middle" font-family="Helvetica,Inter,Segoe UI,Arial" font-size="11" fill="#000000">then</text>
    <line x1="280.00" y1="84.00" x2="280.00" y2="109.25" stroke="#ff8000" stroke-width="3" />
    <path d="M 280.00 116.00 L 275.50 107.00 L 280.00 109.25 L 284.50 107.00 Z" fill="#ff8000" stroke="#ff8000" stroke-width="3" stroke-miterlimit="10"/>
    <line x1="280.00" y1="1254.00" x2="280.00" y2="1279.25" stroke="#ff8000" stroke-width="3" />
    <path d="M 280.00 1286.00 L 275.50 1277.00 L 280.00 1279.25 L 284.50 1277.00 Z" fill="#ff8000" stroke="#ff8000" stroke-width="3" stroke-miterlimit="10"/>
    <line x1="396.59" y1="318.75" x2="349.17" y2="347.73" stroke="#82b366" stroke-width="3" />
    <path d="M 343.41 351.25 L 348.75 342.71 L 349.17 347.73 L 353.44 350.39 Z" fill="#82b366" stroke="#82b366" stroke-width="3" stroke-miterlimit="10"/>
    <text x="372" y="324" text-anchor="middle" font-family="Helvetica,Inter,Segoe UI,Arial" font-size="11" fill="#000000">
      <title>involves</title>invo...
    </text>
    <line x1="460.00" y1="324.00" x2="460.00" y2="539.25" stroke="#ff8000" stroke-width="3" />
    <path d="M 460.00 546.00 L 455.50 537.00 L 460.00 539.25 L 464.50 537.00 Z" fill="#ff8000" stroke="#ff8000" stroke-width="3" stroke-miterlimit="10"/>
    <line x1="460.00" y1="654.00" x2="460.00" y2="979.25" stroke="#ff8000" stroke-width="3" />
    <path d="M 460.00 986.00 L 455.50 977.00 L 460.00 979.25 L 464.50 977.00 Z" fill="#ff8000" stroke="#ff8000" stroke-width="3" stroke-miterlimit="10"/>
    <line x1="414.54" y1="546.96" x2="347.00" y2="468.16" stroke="#82b366" stroke-width="3" />
    <path d="M 342.60 463.04 L 351.88 466.94 L 347.00 468.16 L 345.04 472.80 Z" fill="#82b366" stroke="#82b366" stroke-width="3" stroke-miterlimit="10"/>
    <text x="380" y="499" text-anchor="middle" font-family="Helvetica,Inter,Segoe UI,Arial" font-size="11" fill="#000000">
      <title>contains</title>cont...
    </text>
    <line x1="703.81" y1="586.79" x2="749.75" y2="572.25" stroke="#6c8ebf" stroke-width="3" stroke-dasharray="9 6" />
    <path d="M 756.19 570.21 L 748.97 577.21 L 749.75 572.25 L 746.25 568.63 Z" fill="#6c8ebf" stroke="#6c8ebf" stroke-width="3" stroke-miterlimit="10"/>
    <line x1="703.81" y1="613.21" x2="749.75" y2="627.75" stroke="#6c8ebf" stroke-width="3" stroke-dasharray="9 6" />
    <path d="M 756.19 629.79 L 746.25 631.37 L 749.75 627.75 L 748.97 622.79 Z" fill="#6c8ebf" stroke="#6c8ebf" stroke-width="3" stroke-miterlimit="10"/>
    <line x1="576.00" y1="600.00" x2="530.75" y2="600.00" stroke="#82b366" stroke-width="3" />
    <path d="M 524.00 600.00 L 533.00 595.50 L 530.75 600.00 L 533.00 604.50 Z" fill="#82b366" stroke="#82b366" stroke-width="3" stroke-miterlimit="10"/>
    <line x1="197.88" y1="350.39" x2="124.45" y2="467.88" stroke="#6c8ebf" stroke-width="3" stroke-dasharray="9 6" />
    <path d="M 120.87 473.61 L 121.82 463.59 L 124.45 467.88 L 129.46 468.36 Z" fill="#6c8ebf" stroke="#6c8ebf" stroke-width="3" stroke-miterlimit="10"/>
    <line x1="164.00" y1="347.00" x2="189.25" y2="347.00" stroke="#82b366" stroke-width="3" />
    <path d="M 196.00 347.00 L 187.00 351.50 L 189.25 347.00 L 187.00 342.50 Z" fill="#82b366" stroke="#82b366" stroke-width="3" stroke-miterlimit="10"/>
    <line x1="140.62" y1="394.50" x2="191.61" y2="353.72" stroke="#82b366" stroke-width="3" />
    <path d="M 196.88 349.50 L 192.66 358.63 L 191.61 353.72 L 187.04 351.61 Z" fill="#82b366" stroke="#82b366" stroke-width="3" stroke-miterlimit="10"/>
  </g>
  <g id="nodes">
    <rect x="220" y="120" width="120" height="60" rx="6" ry="6" fill="#ffe6cc" stroke="#ff8000" stroke-width="2"/>
    <text x="280" y="131" text-anchor="middle" dominant-baseline="middle" font-family="Helvetica,Inter,Segoe UI,Arial" font-size="16" font-weight="bold" fill="#ff8000">get the</text>
    <text x="280" y="150" text-anchor="middle" dominant-baseline="middle" font-family="Helvetica,Inter,Segoe UI,Arial" font-size="16" font-weight="bold" fill="#ff8000">party</text>
    <text x="280" y="169" text-anchor="middle" dominant-baseline="middle" font-family="Helvetica,Inter,Segoe UI,Arial" font-size="16" font-weight="bold" fill="#ff8000">started</text>
    <rect x="760" y="520" width="120" height="60" rx="6" ry="6" fill="#dae8fc" stroke="#6c8ebf" stroke-width="2"/>
    <text x="820" y="550" text-anchor="middle" dominant-baseline="middle" font-family="Helvetica,Inter,Segoe UI,Arial" font-size="16" font-weight="normal" fill="#3399ff">marriage</text>
    <rect x="760" y="620" width="120" height="60" rx="6" ry="6" fill="#dae8fc" stroke="#6c8ebf" stroke-width="2"/>
    <text x="820" y="650" text-anchor="middle" dominant-baseline="middle" font-family="Helvetica,Inter,Segoe UI,Arial" font-size="16" font-weight="normal" fill="#3399ff">refusal</text>
    <rect x="400" y="990" width="120" height="60" rx="6" ry="6" fill="#ffe6cc" stroke="#ff8000" stroke-width="2"/>
    <text x="460" y="1001" text-anchor="middle" dominant-baseline="middle" font-family="Helvetica,Inter,Segoe UI,Arial" font-size="16" font-weight="bold" fill="#ff8000">Prof Plum</text>
    <text x="460" y="1020" text-anchor="middle" dominant-baseline="middle" font-family="Helvetica,Inter,Segoe UI,Arial" font-size="16" font-weight="bold" fill="#ff8000">murders Miss</text>
    <text x="460" y="1039" text-anchor="middle" dominant-baseline="middle" font-family="Helvetica,Inter,Segoe UI,Arial" font-size="16" font-weight="bold" fill="#ff8000">Scarlet</text>
    <rect x="580" y="1090" width="120" height="60" rx="6" ry="6" fill="#dae8fc" stroke="#6c8ebf" stroke-width="2"/>
    <text x="640" y="1110" text-anchor="middle" dominant-baseline="middle" font-family="Helvetica,Inter,Segoe UI,Arial" font-size="16" font-weight="normal" fill="#3399ff">murder by</text>
    <text x="640" y="1130" text-anchor="middle" dominant-baseline="middle" font-family="Helvetica,Inter,Segoe UI,Arial" font-size="16" font-weight="normal" fill="#3399ff">subtle knife</text>
    <rect x="220" y="290" width="120" height="200" rx="6" ry="6" fill="#ffe6cc" stroke="#ff8000" stroke-width="2"/>
    <text x="280" y="331" text-anchor="middle" dominant-baseline="middle" font-family="Helvetica,Inter,Segoe UI,Arial" font-size="14" font-weight="bold" fill="#ff8000">Professor Plum</text>
    <text x="280" y="348" text-anchor="middle" dominant-baseline="middle" font-family="Helvetica,Inter,Segoe UI,Arial" font-size="14" font-weight="bold" fill="#ff8000">murders Miss</text>
    <text x="280" y="365" text-anchor="middle" dominant-baseline="middle" font-family="Helvetica,Inter,Segoe UI,Arial" font-size="14" font-weight="bold" fill="#ff8000">Scarlet in the</text>
    <text x="280" y="382" text-anchor="middle" dominant-baseline="middle" font-family="Helvetica,Inter,Segoe UI,Arial" font-size="14" font-weight="bold" fill="#ff8000">library with</text>
    <text x="280" y="398" text-anchor="middle" dominant-baseline="middle" font-family="Helvetica,Inter,Segoe UI,Arial" font-size="14" font-weight="bold" fill="#ff8000">the bread</text>
    <text x="280" y="415" text-anchor="middle" dominant-baseline="middle" font-family="Helvetica,Inter,Segoe UI,Arial" font-size="14" font-weight="bold" fill="#ff8000">knife because</text>
    <text x="280" y="432" text-anchor="middle" dominant-baseline="middle" font-family="Helvetica,Inter,Segoe UI,Arial" font-size="14" font-weight="bold" fill="#ff8000">she refused to</text>
    <text x="280" y="449" text-anchor="middle" dominant-baseline="middle" font-family="Helvetica,Inter,Segoe UI,Arial" font-size="14" font-weight="bold" fill="#ff8000">marry him</text>
    <rect x="40" y="317" width="120" height="60" rx="6" ry="6" fill="#d5e8d4" stroke="#82b366" stroke-width="2"/>
    <text x="100" y="337" text-anchor="middle" dominant-baseline="middle" font-family="Helvetica,Inter,Segoe UI,Arial" font-size="16" font-weight="normal" fill="#009900">Professor</text>
    <text x="100" y="357" text-anchor="middle" dominant-baseline="middle" font-family="Helvetica,Inter,Segoe UI,Arial" font-size="16" font-weight="normal" fill="#009900">Plum</text>
    <rect x="40" y="397" width="120" height="60" rx="6" ry="6" fill="#d5e8d4" stroke="#82b366" stroke-width="2"/>
    <text x="100" y="427" text-anchor="middle" dominant-baseline="middle" font-family="Helvetica,Inter,Segoe UI,Arial" font-size="16" font-weight="normal" fill="#009900">Miss Scarlet</text>
    <rect x="260" y="40" width="40" height="40" rx="4" ry="4" fill="#ffe6cc" stroke="#ff8000" stroke-width="2"/>
    <text x="280" y="60" text-anchor="middle" dominant-baseline="middle" font-family="Helvetica,Inter,Segoe UI,Arial" font-size="16" font-weight="bold" fill="#ff8000">S</text>
    <rect x="260" y="1290" width="40" height="40" rx="4" ry="4" fill="#ffe6cc" stroke="#ff8000" stroke-width="2"/>
    <text x="280" y="1310" text-anchor="middle" dominant-baseline="middle" font-family="Helvetica,Inter,Segoe UI,Arial" font-size="16" font-weight="bold" fill="#ff8000">E</text>
    <rect x="220" y="1190" width="120" height="60" rx="6" ry="6" fill="#ffe6cc" stroke="#ff8000" stroke-width="2"/>
    <text x="280" y="1210" text-anchor="middle" dominant-baseline="middle" font-family="Helvetica,Inter,Segoe UI,Arial" font-size="16" font-weight="bold" fill="#ff8000">investigatio</text>
    <text x="280" y="1230" text-anchor="middle" dominant-baseline="middle" font-family="Helvetica,Inter,Segoe UI,Arial" font-size="16" font-weight="bold" fill="#ff8000">n begins</text>
    <rect x="400" y="240" width="120" height="80" rx="6" ry="6" fill="#ffe6cc" stroke="#ff8000" stroke-width="2"/>
    <text x="460" y="255" text-anchor="middle" dominant-baseline="middle" font-family="Helvetica,Inter,Segoe UI,Arial" font-size="14" font-weight="bold" fill="#ff8000">Prof Plum</text>
    <text x="460" y="272" text-anchor="middle" dominant-baseline="middle" font-family="Helvetica,Inter,Segoe UI,Arial" font-size="14" font-weight="bold" fill="#ff8000">&amp; Miss</text>
    <text x="460" y="288" text-anchor="middle" dominant-baseline="middle" font-family="Helvetica,Inter,Segoe UI,Arial" font-size="14" font-weight="bold" fill="#ff8000">Scarlett in</text>
    <text x="460" y="305" text-anchor="middle" dominant-baseline="middle" font-family="Helvetica,Inter,Segoe UI,Arial" font-size="14" font-weight="bold" fill="#ff8000">the library</text>
    <rect x="40" y="477" width="120" height="60" rx="6" ry="6" fill="#dae8fc" stroke="#6c8ebf" stroke-width="2"/>
    <text x="100" y="497" text-anchor="middle" dominant-baseline="middle" font-family="Helvetica,Inter,Segoe UI,Arial" font-size="16" font-weight="normal" fill="#3399ff">In the</text>
    <text x="100" y="517" text-anchor="middle" dominant-baseline="middle" font-family="Helvetica,Inter,Segoe UI,Arial" font-size="16" font-weight="normal" fill="#3399ff">library</text>
    <rect x="400" y="550" width="120" height="100" rx="6" ry="6" fill="#ffe6cc" stroke="#ff8000" stroke-width="2"/>
    <text x="460" y="575" text-anchor="middle" dominant-baseline="middle" font-family="Helvetica,Inter,Segoe UI,Arial" font-size="14" font-weight="bold" fill="#ff8000">Miss Scarlet</text>
    <text x="460" y="592" text-anchor="middle" dominant-baseline="middle" font-family="Helvetica,Inter,Segoe UI,Arial" font-size="14" font-weight="bold" fill="#ff8000">refuses to</text>
    <text x="460" y="608" text-anchor="middle" dominant-baseline="middle" font-family="Helvetica,Inter,Segoe UI,Arial" font-size="14" font-weight="bold" fill="#ff8000">marry</text>
    <text x="460" y="625" text-anchor="middle" dominant-baseline="middle" font-family="Helvetica,Inter,Segoe UI,Arial" font-size="14" font-weight="bold" fill="#ff8000">Professor Plum</text>
    <rect x="580" y="570" width="120" height="60" rx="6" ry="6" fill="#ffe6cc" stroke="#ff8000" stroke-width="2"/>
    <text x="640" y="590" text-anchor="middle" dominant-baseline="middle" font-family="Helvetica,Inter,Segoe UI,Arial" font-size="16" font-weight="bold" fill="#ff8000">refusal</text>
    <text x="640" y="610" text-anchor="middle" dominant-baseline="middle" font-family="Helvetica,Inter,Segoe UI,Arial" font-size="16" font-weight="bold" fill="#ff8000">marriage</text>
  </g>
  <rect x="508" y="552" width="10" height="10" rx="2" ry="2" fill="#ffffff" fill-opacity="0.5" stroke="#555555" stroke-opacity="0.6" stroke-width="1"/>
  <text x="513" y="557" font-size="9" fill="#333333" fill-opacity="0.8" text-anchor="middle" dominant-baseline="central">↑</text>
  <circle cx="693" cy="1097" r="5" fill="#ffffff" fill-opacity="0.5" stroke="#555555" stroke-opacity="0.6" stroke-width="1"/>
  <text x="693" y="1097" font-size="9" fill="#333333" fill-opacity="0.8" text-anchor="middle" dominant-baseline="central">+</text>
  <rect x="328" y="292" width="10" height="10" rx="2" ry="2" fill="#ffffff" fill-opacity="0.5" stroke="#555555" stroke-opacity="0.6" stroke-width="1"/>
  <text x="333" y="297" font-size="9" fill="#333333" fill-opacity="0.8" text-anchor="middle" dominant-baseline="central">↑</text>
  <circle cx="153" cy="484" r="5" fill="#ffffff" fill-opacity="0.5" stroke="#555555" stroke-opacity="0.6" stroke-width="1"/>
  <text x="153" y="484" font-size="9" fill="#333333" fill-opacity="0.8" text-anchor="middle" dominant-baseline="central">+</text>
</svg>
