<?xml version="1.0" encoding="UTF-8"?>
<svg xmlns="http://www.w3.org/2000/svg" width="870" height="700" viewBox="188 8 870 700" role="img" aria-label="The infinite.pm laboratory: an Erlenmeyer flask whose conical body holds the ipm γ(3,4) etc-LPXN triangle (event, thing, concept), flanked by lab glassware, with rising bubbles.">
  <title>lab.infinite.pm — the γ(3,4) flask</title>

  <!--
    Laboratory hero for lab.infinite.pm.
    The flask's conical (triangular) body holds the ipm etc-LPXN triangle.
    The triangle graphics are inlined from docs/etc-LPXN.svg (generated by cmd/etc-triangle-gen)
    so this file still renders when used as <img>; re-sync if etc-LPXN.svg is regenerated.
    Palette: event #ff8000 · thing #4d8a3a/#82b366 · concept #6c8ebf/#3a78c2.
  -->

  <defs>
    <linearGradient id="glass" x1="0" y1="0" x2="0" y2="1">
      <stop offset="0"   stop-color="#ffffff" stop-opacity="0.5"/>
      <stop offset="0.6" stop-color="#eef2f8" stop-opacity="0.5"/>
      <stop offset="1"   stop-color="#e3e9f2" stop-opacity="0.55"/>
    </linearGradient>
    <radialGradient id="glowO" cx="0.5" cy="0.5" r="0.5">
      <stop offset="0" stop-color="#ff8000" stop-opacity="0.14"/><stop offset="1" stop-color="#ff8000" stop-opacity="0"/>
    </radialGradient>
    <radialGradient id="glowG" cx="0.5" cy="0.5" r="0.5">
      <stop offset="0" stop-color="#4d8a3a" stop-opacity="0.14"/><stop offset="1" stop-color="#4d8a3a" stop-opacity="0"/>
    </radialGradient>
    <radialGradient id="glowB" cx="0.5" cy="0.5" r="0.5">
      <stop offset="0" stop-color="#6c8ebf" stop-opacity="0.14"/><stop offset="1" stop-color="#6c8ebf" stop-opacity="0"/>
    </radialGradient>
    <clipPath id="clipFlask">
      <path d="M566 250 L566 178 L556 168 L556 152 L644 152 L644 168 L634 178 L634 250 L790 560 Q792 590 762 590 L438 590 Q408 590 410 560 Z"/>
    </clipPath>
  </defs>

  <!-- ambient tri-colour halo behind the flask -->
  <g>
    <circle cx="600" cy="330" r="280" fill="url(#glowO)"/>
    <circle cx="500" cy="540" r="240" fill="url(#glowG)"/>
    <circle cx="700" cy="540" r="240" fill="url(#glowB)"/>
  </g>

  <!-- ===== LEFT: test tube (green-tinted glassware) ===== -->
  <g stroke-linejoin="round" stroke-linecap="round">
    <clipPath id="clipTube"><path d="M214 206 L214 498 Q214 522 238 522 Q262 522 262 498 L262 206 Z"/></clipPath>
    <g clip-path="url(#clipTube)">
      <path d="M210 372 Q238 362 266 372 L266 526 L210 526 Z" fill="#d5e8d4" opacity="0.85"/>
      <path d="M210 372 Q238 362 266 372" fill="none" stroke="#82b366" stroke-width="2.5" opacity="0.8"/>
    </g>
    <path d="M214 206 L214 498 Q214 522 238 522 Q262 522 262 498 L262 206 Z" fill="url(#glass)" stroke="#aab2c2" stroke-width="3"/>
    <line x1="206" y1="206" x2="270" y2="206" stroke="#aab2c2" stroke-width="5" stroke-linecap="round"/>
    <circle cx="240" cy="350" r="5" fill="#82b366" opacity="0.55"/>
    <circle cx="231" cy="322" r="3.5" fill="#82b366" opacity="0.45"/>
    <circle cx="245" cy="300" r="2.6" fill="#82b366" opacity="0.35"/>
  </g>

  <!-- ===== RIGHT: beaker (blue-tinted glassware) ===== -->
  <g stroke-linejoin="round" stroke-linecap="round">
    <clipPath id="clipBeaker"><path d="M918 320 L928 516 Q930 524 940 524 L1016 524 Q1026 524 1028 516 L1038 320 Z"/></clipPath>
    <g clip-path="url(#clipBeaker)">
      <path d="M915 408 Q978 398 1041 408 L1041 528 L915 528 Z" fill="#dae8fc" opacity="0.85"/>
      <path d="M915 408 Q978 398 1041 408" fill="none" stroke="#6c8ebf" stroke-width="2.5" opacity="0.8"/>
    </g>
    <path d="M912 318 L908 312 L922 318 L1034 318 L1048 312 L1044 318 L1028 516 Q1026 524 1016 524 L940 524 Q930 524 928 516 Z" fill="url(#glass)" stroke="#aab2c2" stroke-width="3"/>
    <line x1="932" y1="372" x2="950" y2="372" stroke="#b6bdcb" stroke-width="2"/>
    <line x1="930" y1="430" x2="948" y2="430" stroke="#b6bdcb" stroke-width="2"/>
    <line x1="929" y1="478" x2="947" y2="478" stroke="#b6bdcb" stroke-width="2"/>
    <circle cx="978" cy="386" r="5" fill="#6c8ebf" opacity="0.55"/>
    <circle cx="990" cy="358" r="3.5" fill="#6c8ebf" opacity="0.45"/>
    <circle cx="970" cy="338" r="2.6" fill="#6c8ebf" opacity="0.35"/>
  </g>

  <!-- ===== CENTRE: Erlenmeyer flask holding the etc-LPXN triangle ===== -->
  <g stroke-linejoin="round" stroke-linecap="round">
    <!-- glass body fill (back) -->
    <path d="M566 250 L566 178 L556 168 L556 152 L644 152 L644 168 L634 178 L634 250 L790 560 Q792 590 762 590 L438 590 Q408 590 410 560 Z" fill="url(#glass)"/>

    <!-- the ipm etc-LPXN triangle, scaled to sit fully inside the lower cone (clip kept as a safety net) -->
    <g clip-path="url(#clipFlask)">
      <g transform="translate(401.28 238.84) scale(0.36)">
        <g id="lpxn-edges">
          <ellipse cx="552.00" cy="312.00" rx="168.00" ry="150.00" transform="rotate(-90.00 552.00 312.00)" fill="none" stroke="#aaaaaa" stroke-width="5.50" stroke-linecap="round" stroke-dasharray="1 9"/>
          <ellipse cx="316.44" cy="783.00" rx="105.00" ry="95.00" transform="rotate(150.00 316.44 783.00)" fill="none" stroke="#aaaaaa" stroke-width="5.50" stroke-linecap="round" stroke-dasharray="1 9"/>
          <ellipse cx="787.56" cy="783.00" rx="105.00" ry="95.00" transform="rotate(30.00 787.56 783.00)" fill="none" stroke="#aaaaaa" stroke-width="5.50" stroke-linecap="round" stroke-dasharray="1 9"/>
          <line x1="418.37" y1="711.45" x2="533.77" y2="511.57" stroke="#4d8a3a" stroke-width="5.00"/>
          <line x1="429.37" y1="730.50" x2="660.18" y2="730.50" stroke="#6c8ebf" stroke-width="5.00" stroke-dasharray="14 9"/>
          <line x1="563.00" y1="499.05" x2="678.40" y2="698.93" stroke="#6c8ebf" stroke-width="5.00" stroke-dasharray="14 9"/>
          <path d="M 525.07 473.82 A 64.13 66.80 0.00 1 1 578.93 473.82" fill="none" stroke="#ff8000" stroke-width="5.00"/>
          <path d="M 510.25 470.43 A 99.40 103.54 0.00 1 1 593.75 470.43" fill="none" stroke="#4d8a3a" stroke-width="5.00"/>
          <path d="M 495.44 467.03 A 134.67 140.28 0.00 1 1 608.56 467.03" fill="none" stroke="#6c8ebf" stroke-width="5.00" stroke-dasharray="14 9"/>
          <path d="M 414.68 754.27 A 57.72 60.12 -120.00 1 1 390.44 712.29" fill="none" stroke="#4d8a3a" stroke-width="5.00"/>
          <path d="M 713.56 712.29 A 57.72 60.12 120.00 1 1 689.32 754.27" fill="none" stroke="#6c8ebf" stroke-width="5.00" stroke-dasharray="14 9"/>
        </g>
        <g id="lpxn-text-bg">
          <rect x="523.49" y="121.14" width="57.02" height="52.18" rx="15.65" fill="#f7f7f7"/>
          <rect x="197.00" y="812.64" width="57.02" height="52.18" rx="15.65" fill="#f7f7f7"/>
          <rect x="849.98" y="812.64" width="57.02" height="52.18" rx="15.65" fill="#f7f7f7"/>
          <rect x="428.57" y="586.19" width="95.00" height="53.98" rx="16.19" fill="#edf3eb"/>
          <rect x="497.27" y="705.18" width="95.00" height="53.98" rx="16.19" fill="#f0f4f9"/>
          <rect x="573.20" y="573.67" width="95.00" height="53.98" rx="16.19" fill="#f0f4f9"/>
          <rect x="529.40" y="321.08" width="45.20" height="50.64" rx="15.19" fill="#fff2e6"/>
          <rect x="504.50" y="247.60" width="95.00" height="53.98" rx="16.19" fill="#edf3eb"/>
          <rect x="504.50" y="174.12" width="95.00" height="53.98" rx="16.19" fill="#f0f4f9"/>
          <rect x="255.74" y="765.30" width="95.00" height="53.98" rx="16.19" fill="#edf3eb"/>
          <rect x="753.26" y="765.30" width="95.00" height="53.98" rx="16.19" fill="#f0f4f9"/>
          <rect x="527.00" y="451.40" width="50.00" height="57.20" rx="17.16" fill="#fff2e6"/>
          <rect x="382.37" y="701.90" width="50.00" height="57.20" rx="17.16" fill="#edf3eb"/>
          <rect x="671.63" y="701.90" width="50.00" height="57.20" rx="17.16" fill="#f0f4f9"/>
        </g>
        <g id="lpxn-arrows">
          <path d="M 541.00 499.05 L 538.56 517.27 L 526.44 510.27 Z" fill="#4d8a3a"/>
          <path d="M 674.63 730.50 L 657.63 737.50 L 657.63 723.50 Z" fill="#6c8ebf"/>
          <path d="M 685.63 711.45 L 671.06 700.23 L 683.19 693.23 Z" fill="#6c8ebf"/>
          <path d="M 578.93 473.82 L 593.94 463.20 L 597.07 476.85 Z" fill="#ff8000"/>
          <path d="M 510.25 470.43 L 492.12 473.45 L 495.25 459.80 Z" fill="#4d8a3a"/>
          <path d="M 608.56 467.03 L 623.57 456.40 L 626.70 470.05 Z" fill="#6c8ebf"/>
          <path d="M 390.44 712.29 L 373.74 704.60 L 383.99 695.07 Z" fill="#4d8a3a"/>
          <path d="M 713.56 712.29 L 720.01 695.07 L 730.26 704.60 Z" fill="#6c8ebf"/>
        </g>
        <g id="lpxn-text" font-family="Helvetica,Arial,sans-serif" font-weight="bold" stroke="#ffffff" stroke-width="4.00" stroke-linejoin="round" paint-order="stroke">
          <text x="544.29" y="144.00" text-anchor="middle" dominant-baseline="central" font-size="46.00" fill="#aaaaaa">N</text>
          <text x="561.09" y="158.00" text-anchor="start" dominant-baseline="central" font-size="27.60" fill="#aaaaaa">e</text>
          <text x="217.80" y="835.50" text-anchor="middle" dominant-baseline="central" font-size="46.00" fill="#aaaaaa">N</text>
          <text x="234.60" y="849.50" text-anchor="start" dominant-baseline="central" font-size="27.60" fill="#aaaaaa">t</text>
          <text x="870.78" y="835.50" text-anchor="middle" dominant-baseline="central" font-size="46.00" fill="#aaaaaa">N</text>
          <text x="887.58" y="849.50" text-anchor="start" dominant-baseline="central" font-size="27.60" fill="#aaaaaa">c</text>
          <text x="451.17" y="611.51" text-anchor="middle" dominant-baseline="central" font-size="52.00" fill="#4d8a3a">P</text>
          <text x="469.77" y="625.51" text-anchor="start" dominant-baseline="central" font-size="26.00" fill="#4d8a3a">(-C)</text>
          <text x="519.88" y="730.50" text-anchor="middle" dominant-baseline="central" font-size="52.00" fill="#6c8ebf">X</text>
          <text x="538.48" y="744.50" text-anchor="start" dominant-baseline="central" font-size="26.00" fill="#6c8ebf">(+E)</text>
          <text x="595.80" y="598.99" text-anchor="middle" dominant-baseline="central" font-size="52.00" fill="#6c8ebf">X</text>
          <text x="614.40" y="612.99" text-anchor="start" dominant-baseline="central" font-size="26.00" fill="#6c8ebf">(+E)</text>
          <text x="552.00" y="346.40" text-anchor="middle" dominant-baseline="central" font-size="52.00" fill="#ff8000">L</text>
          <text x="527.10" y="272.92" text-anchor="middle" dominant-baseline="central" font-size="52.00" fill="#4d8a3a">P</text>
          <text x="545.70" y="286.92" text-anchor="start" dominant-baseline="central" font-size="26.00" fill="#4d8a3a">(-C)</text>
          <text x="527.10" y="199.44" text-anchor="middle" dominant-baseline="central" font-size="52.00" fill="#6c8ebf">X</text>
          <text x="545.70" y="213.44" text-anchor="start" dominant-baseline="central" font-size="26.00" fill="#6c8ebf">(+E)</text>
          <text x="278.34" y="790.62" text-anchor="middle" dominant-baseline="central" font-size="52.00" fill="#4d8a3a">P</text>
          <text x="296.94" y="804.62" text-anchor="start" dominant-baseline="central" font-size="26.00" fill="#4d8a3a">(-C)</text>
          <text x="775.86" y="790.62" text-anchor="middle" dominant-baseline="central" font-size="52.00" fill="#6c8ebf">X</text>
          <text x="794.46" y="804.62" text-anchor="start" dominant-baseline="central" font-size="26.00" fill="#6c8ebf">(+E)</text>
          <text x="552.00" y="480.00" text-anchor="middle" dominant-baseline="central" font-size="60.00" fill="#ff8000">e</text>
          <text x="407.37" y="730.50" text-anchor="middle" dominant-baseline="central" font-size="60.00" fill="#4d8a3a">t</text>
          <text x="696.63" y="730.50" text-anchor="middle" dominant-baseline="central" font-size="60.00" fill="#6c8ebf">c</text>
        </g>
      </g>
    </g>

    <!-- glass outline + rim (on top, framing the contents) -->
    <path d="M566 250 L566 178 L556 168 L556 152 L644 152 L644 168 L634 178 L634 250 L790 560 Q792 590 762 590 L438 590 Q408 590 410 560 Z" fill="none" stroke="#8d97a8" stroke-width="3.5"/>
    <line x1="552" y1="152" x2="648" y2="152" stroke="#8d97a8" stroke-width="6" stroke-linecap="round"/>
  </g>

  <!-- e/t/c node-bubbles rising out of the neck, shrinking linearly as they go up -->
  <g font-family="Helvetica,Inter,Segoe UI,Arial" font-weight="bold" text-anchor="middle">
    <!-- e — event / orange -->
    <g opacity="1">
      <circle cx="600" cy="133" r="15" fill="#ffe6cc" stroke="#ff8000" stroke-width="2"/>
      <text x="600" y="133" dominant-baseline="central" font-size="19" fill="#ff8000">e</text>
    </g>
    <!-- t — thing / green -->
    <g opacity="0.96">
      <circle cx="579" cy="102" r="12.5" fill="#d5e8d4" stroke="#82b366" stroke-width="2"/>
      <text x="579" y="102" dominant-baseline="central" font-size="16" fill="#4d8a3a">t</text>
    </g>
    <!-- c — concept / blue -->
    <g opacity="0.9">
      <circle cx="618" cy="74" r="10" fill="#dae8fc" stroke="#6c8ebf" stroke-width="2"/>
      <text x="618" y="74" dominant-baseline="central" font-size="13" fill="#3a78c2">c</text>
    </g>
    <!-- textless bubbles continuing the plume -->
    <circle cx="596" cy="49" r="7.5" fill="#ffe6cc" stroke="#ff8000" stroke-width="1.8" opacity="0.7"/>
    <circle cx="612" cy="27" r="5"   fill="#d5e8d4" stroke="#82b366" stroke-width="1.6" opacity="0.55"/>
  </g>

  <!-- ipmt token chips (echo of the code highlighting) -->
  <g font-family="'SFMono-Regular',Menlo,Consolas,'Liberation Mono',monospace" font-size="22">
    <rect x="356" y="652" width="156" height="44" rx="22" fill="#ffe6cc" opacity="0.55"/>
    <text x="378" y="681" fill="#ff8000" font-weight="bold">event<tspan fill="#9aa3b2" font-weight="normal"> ::</tspan><tspan fill="#ff8000">e</tspan></text>
    <rect x="528" y="652" width="146" height="44" rx="22" fill="#d5e8d4" opacity="0.55"/>
    <text x="550" y="681" fill="#4d8a3a" font-weight="bold">thing<tspan fill="#9aa3b2" font-weight="normal"> ::</tspan><tspan fill="#4d8a3a">t</tspan></text>
    <rect x="690" y="652" width="178" height="44" rx="22" fill="#dae8fc" opacity="0.55"/>
    <text x="712" y="681" fill="#3a78c2" font-weight="bold">concept<tspan fill="#9aa3b2" font-weight="normal"> ::</tspan><tspan fill="#3a78c2">c</tspan></text>
  </g>
</svg>
