<?xml version="1.0" encoding="UTF-8"?>
<svg xmlns="http://www.w3.org/2000/svg" width="870" height="700" viewBox="188 8 870 700" role="img" aria-label="The infinite.pm laboratory: an Erlenmeyer flask whose conical body holds the ipm γ(3,4) etc-LPXN triangle (event, thing, concept), flanked by lab glassware, with rising bubbles.">
  <title>lab.infinite.pm — the γ(3,4) flask</title>

  <!--
    Laboratory hero for lab.infinite.pm.
    The flask's conical (triangular) body holds the ipm etc-LPXN triangle.
    The triangle graphics are inlined (between the etc-LPXN:begin/end markers below) so this file
    still renders when used as <img>. Re-sync with: ipm-drawio $ go run ./cmd-dev/etc-triangle-dist
    (it replaces the body between the markers, keeping the wrapper transform). See
    ipm-drawio/docs/etc-triangle-dist.md.
    Palette: event #ff8000 · thing #4d8a3a/#82b366 · concept #6c8ebf/#3a78c2.
  -->

  <defs>
    <linearGradient id="glass" x1="0" y1="0" x2="0" y2="1">
      <stop offset="0"   stop-color="#ffffff" stop-opacity="0.5"/>
      <stop offset="0.6" stop-color="#eef2f8" stop-opacity="0.5"/>
      <stop offset="1"   stop-color="#e3e9f2" stop-opacity="0.55"/>
    </linearGradient>
    <radialGradient id="glowO" cx="0.5" cy="0.5" r="0.5">
      <stop offset="0" stop-color="#ff8000" stop-opacity="0.14"/><stop offset="1" stop-color="#ff8000" stop-opacity="0"/>
    </radialGradient>
    <radialGradient id="glowG" cx="0.5" cy="0.5" r="0.5">
      <stop offset="0" stop-color="#4d8a3a" stop-opacity="0.14"/><stop offset="1" stop-color="#4d8a3a" stop-opacity="0"/>
    </radialGradient>
    <radialGradient id="glowB" cx="0.5" cy="0.5" r="0.5">
      <stop offset="0" stop-color="#6c8ebf" stop-opacity="0.14"/><stop offset="1" stop-color="#6c8ebf" stop-opacity="0"/>
    </radialGradient>
    <clipPath id="clipFlask">
      <path d="M566 250 L566 178 L556 168 L556 152 L644 152 L644 168 L634 178 L634 250 L790 560 Q792 590 762 590 L438 590 Q408 590 410 560 Z"/>
    </clipPath>
  </defs>

  <!-- ambient tri-colour halo behind the flask -->
  <g>
    <circle cx="600" cy="330" r="280" fill="url(#glowO)"/>
    <circle cx="500" cy="540" r="240" fill="url(#glowG)"/>
    <circle cx="700" cy="540" r="240" fill="url(#glowB)"/>
  </g>

  <!-- ===== LEFT: test tube (green-tinted glassware) ===== -->
  <g stroke-linejoin="round" stroke-linecap="round">
    <clipPath id="clipTube"><path d="M214 206 L214 498 Q214 522 238 522 Q262 522 262 498 L262 206 Z"/></clipPath>
    <g clip-path="url(#clipTube)">
      <path d="M210 372 Q238 362 266 372 L266 526 L210 526 Z" fill="#d5e8d4" opacity="0.85"/>
      <path d="M210 372 Q238 362 266 372" fill="none" stroke="#82b366" stroke-width="2.5" opacity="0.8"/>
    </g>
    <path d="M214 206 L214 498 Q214 522 238 522 Q262 522 262 498 L262 206 Z" fill="url(#glass)" stroke="#aab2c2" stroke-width="3"/>
    <line x1="206" y1="206" x2="270" y2="206" stroke="#aab2c2" stroke-width="5" stroke-linecap="round"/>
    <circle cx="240" cy="350" r="5" fill="#82b366" opacity="0.55"/>
    <circle cx="231" cy="322" r="3.5" fill="#82b366" opacity="0.45"/>
    <circle cx="245" cy="300" r="2.6" fill="#82b366" opacity="0.35"/>
  </g>

  <!-- ===== RIGHT: beaker (blue-tinted glassware) ===== -->
  <g stroke-linejoin="round" stroke-linecap="round">
    <clipPath id="clipBeaker"><path d="M918 320 L928 516 Q930 524 940 524 L1016 524 Q1026 524 1028 516 L1038 320 Z"/></clipPath>
    <g clip-path="url(#clipBeaker)">
      <path d="M915 408 Q978 398 1041 408 L1041 528 L915 528 Z" fill="#dae8fc" opacity="0.85"/>
      <path d="M915 408 Q978 398 1041 408" fill="none" stroke="#6c8ebf" stroke-width="2.5" opacity="0.8"/>
    </g>
    <path d="M912 318 L908 312 L922 318 L1034 318 L1048 312 L1044 318 L1028 516 Q1026 524 1016 524 L940 524 Q930 524 928 516 Z" fill="url(#glass)" stroke="#aab2c2" stroke-width="3"/>
    <line x1="932" y1="372" x2="950" y2="372" stroke="#b6bdcb" stroke-width="2"/>
    <line x1="930" y1="430" x2="948" y2="430" stroke="#b6bdcb" stroke-width="2"/>
    <line x1="929" y1="478" x2="947" y2="478" stroke="#b6bdcb" stroke-width="2"/>
    <circle cx="978" cy="386" r="5" fill="#6c8ebf" opacity="0.55"/>
    <circle cx="990" cy="358" r="3.5" fill="#6c8ebf" opacity="0.45"/>
    <circle cx="970" cy="338" r="2.6" fill="#6c8ebf" opacity="0.35"/>
  </g>

  <!-- ===== CENTRE: Erlenmeyer flask holding the etc-LPXN triangle ===== -->
  <g stroke-linejoin="round" stroke-linecap="round">
    <!-- glass body fill (back) -->
    <path d="M566 250 L566 178 L556 168 L556 152 L644 152 L644 168 L634 178 L634 250 L790 560 Q792 590 762 590 L438 590 Q408 590 410 560 Z" fill="url(#glass)"/>

    <!-- the ipm etc-LPXN triangle, scaled to sit fully inside the lower cone (clip kept as a safety net) -->
    <g clip-path="url(#clipFlask)">
      <g transform="translate(401.28 238.84) scale(0.36)">
        <!-- etc-LPXN:begin (regenerate with: ipm-drawio $ go run ./cmd-dev/etc-triangle-dist; do not hand-edit) -->
        <g id="lpxn-edges">
            <line x1="434.06" y1="684.28" x2="516.81" y2="540.95" stroke="#4d8a3a" stroke-width="5.00" opacity="1.00"/>
            <line x1="450.12" y1="730.50" x2="636.88" y2="730.50" stroke="#6c8ebf" stroke-width="5.00" stroke-dasharray="14 9" opacity="1.00"/>
            <line x1="578.69" y1="526.22" x2="661.44" y2="669.55" stroke="#6c8ebf" stroke-width="5.00" stroke-dasharray="14 9" opacity="1.00"/>
            <path d="M 509.00 501.58 A 165.13 186.01 0.00 1 1 595.00 501.58" fill="none" stroke="#aaaaaa" stroke-width="5.50" stroke-dasharray="1 9" stroke-linecap="round" opacity="1.00"/>
            <path d="M 509.00 488.89 A 129.86 143.77 0.00 1 1 611.32 481.12" fill="none" stroke="#6c8ebf" stroke-width="5.00" stroke-dasharray="14 9" opacity="1.00"/>
            <path d="M 494.06 464.72 A 94.59 101.53 0.00 1 1 595.00 474.90" fill="none" stroke="#4d8a3a" stroke-width="5.00" opacity="1.00"/>
            <path d="M 509.00 456.55 A 59.32 59.29 0.00 1 1 605.25 441.84" fill="none" stroke="#ff8000" stroke-width="5.00" opacity="1.00"/>
            <path d="M 427.43 777.20 A 94.59 101.53 -120.00 1 1 373.28 684.86" fill="none" stroke="#aaaaaa" stroke-width="5.50" stroke-dasharray="1 9" stroke-linecap="round" opacity="1.00"/>
            <path d="M 408.57 779.46 A 59.32 59.29 -120.00 1 1 347.70 703.47" fill="none" stroke="#4d8a3a" stroke-width="5.00" opacity="1.00"/>
            <path d="M 730.72 684.86 A 94.59 101.53 120.00 1 1 676.57 777.20" fill="none" stroke="#aaaaaa" stroke-width="5.50" stroke-dasharray="1 9" stroke-linecap="round" opacity="1.00"/>
            <path d="M 756.30 703.47 A 59.32 59.29 120.00 1 1 695.43 779.46" fill="none" stroke="#6c8ebf" stroke-width="5.00" stroke-dasharray="14 9" opacity="1.00"/>
          </g>
        <g id="lpxn-text-bg">
            <rect x="432.19" y="579.93" width="95.00" height="53.98" rx="16.19" fill="#edf3eb" opacity="1.00"/>
            <rect x="504.50" y="705.18" width="95.00" height="53.98" rx="16.19" fill="#f0f4f9" opacity="1.00"/>
            <rect x="576.81" y="579.93" width="95.00" height="53.98" rx="16.19" fill="#f0f4f9" opacity="1.00"/>
            <rect x="522.05" y="110.66" width="59.90" height="53.98" rx="16.19" fill="#f7f7f7" opacity="1.00"/>
            <rect x="504.50" y="184.14" width="95.00" height="53.98" rx="16.19" fill="#f0f4f9" opacity="1.00"/>
            <rect x="504.50" y="257.62" width="95.00" height="53.98" rx="16.19" fill="#edf3eb" opacity="1.00"/>
            <rect x="529.40" y="331.10" width="45.20" height="50.64" rx="15.19" fill="#fff2e6" opacity="1.00"/>
            <rect x="230.88" y="830.70" width="59.90" height="53.98" rx="16.19" fill="#f7f7f7" opacity="1.00"/>
            <rect x="244.90" y="737.31" width="95.00" height="53.98" rx="16.19" fill="#edf3eb" opacity="1.00"/>
            <rect x="813.22" y="830.70" width="59.90" height="53.98" rx="16.19" fill="#f7f7f7" opacity="1.00"/>
            <rect x="764.10" y="737.31" width="95.00" height="53.98" rx="16.19" fill="#f0f4f9" opacity="1.00"/>
            <rect x="519.50" y="442.82" width="65.00" height="74.36" rx="22.31" fill="#fff2e6" stroke="#ff8000" stroke-width="2.50" opacity="1.00"/>
            <rect x="374.87" y="693.32" width="65.00" height="74.36" rx="22.31" fill="#edf3eb" stroke="#4d8a3a" stroke-width="2.50" opacity="1.00"/>
            <rect x="664.13" y="693.32" width="65.00" height="74.36" rx="22.31" fill="#f0f4f9" stroke="#6c8ebf" stroke-width="2.50" opacity="1.00"/>
          </g>
        <g id="lpxn-arrows">
            <path d="M 525.31 526.22 L 522.67 547.79 L 507.95 539.29 Z" fill="#4d8a3a" opacity="1.00"/>
            <path d="M 653.88 730.50 L 633.88 739.00 L 633.88 722.00 Z" fill="#6c8ebf" opacity="1.00"/>
            <path d="M 669.94 684.28 L 652.58 671.21 L 667.30 662.71 Z" fill="#6c8ebf" opacity="1.00"/>
            <path d="M 595.00 488.89 L 609.41 472.62 L 616.71 487.97 Z" fill="#6c8ebf" opacity="1.00"/>
            <path d="M 509.00 474.90 L 487.69 470.67 L 497.26 456.62 Z" fill="#4d8a3a" opacity="1.00"/>
            <path d="M 595.00 456.55 L 599.46 435.28 L 613.41 445.00 Z" fill="#ff8000" opacity="1.00"/>
            <path d="M 365.57 704.98 L 344.92 711.76 L 346.36 694.82 Z" fill="#4d8a3a" opacity="1.00"/>
            <path d="M 738.43 704.98 L 757.64 694.82 L 759.08 711.76 Z" fill="#6c8ebf" opacity="1.00"/>
          </g>
        <g id="lpxn-text">
            <text x="454.79" y="605.25" text-anchor="middle" dominant-baseline="central" font-family="Helvetica,Arial,sans-serif" font-weight="bold" font-size="52.00" fill="#4d8a3a" stroke="#ffffff" stroke-width="4.00" stroke-linejoin="round" paint-order="stroke" opacity="1.00">P</text>
            <text x="473.39" y="619.25" text-anchor="start" dominant-baseline="central" font-family="Helvetica,Arial,sans-serif" font-weight="bold" font-size="26.00" fill="#4d8a3a" stroke="#ffffff" stroke-width="4.00" stroke-linejoin="round" paint-order="stroke" opacity="1.00">(-C)</text>
            <text x="527.10" y="730.50" text-anchor="middle" dominant-baseline="central" font-family="Helvetica,Arial,sans-serif" font-weight="bold" font-size="52.00" fill="#6c8ebf" stroke="#ffffff" stroke-width="4.00" stroke-linejoin="round" paint-order="stroke" opacity="1.00">X</text>
            <text x="545.70" y="744.50" text-anchor="start" dominant-baseline="central" font-family="Helvetica,Arial,sans-serif" font-weight="bold" font-size="26.00" fill="#6c8ebf" stroke="#ffffff" stroke-width="4.00" stroke-linejoin="round" paint-order="stroke" opacity="1.00">(+E)</text>
            <text x="599.41" y="605.25" text-anchor="middle" dominant-baseline="central" font-family="Helvetica,Arial,sans-serif" font-weight="bold" font-size="52.00" fill="#6c8ebf" stroke="#ffffff" stroke-width="4.00" stroke-linejoin="round" paint-order="stroke" opacity="1.00">X</text>
            <text x="618.01" y="619.25" text-anchor="start" dominant-baseline="central" font-family="Helvetica,Arial,sans-serif" font-weight="bold" font-size="26.00" fill="#6c8ebf" stroke="#ffffff" stroke-width="4.00" stroke-linejoin="round" paint-order="stroke" opacity="1.00">(+E)</text>
            <text x="544.65" y="135.98" text-anchor="middle" dominant-baseline="central" font-family="Helvetica,Arial,sans-serif" font-weight="bold" font-size="52.00" fill="#aaaaaa" stroke="#ffffff" stroke-width="4.00" stroke-linejoin="round" paint-order="stroke" opacity="1.00">N</text>
            <text x="563.25" y="149.98" text-anchor="start" dominant-baseline="central" font-family="Helvetica,Arial,sans-serif" font-weight="bold" font-size="26.00" fill="#aaaaaa" stroke="#ffffff" stroke-width="4.00" stroke-linejoin="round" paint-order="stroke" opacity="1.00">e</text>
            <text x="527.10" y="209.46" text-anchor="middle" dominant-baseline="central" font-family="Helvetica,Arial,sans-serif" font-weight="bold" font-size="52.00" fill="#6c8ebf" stroke="#ffffff" stroke-width="4.00" stroke-linejoin="round" paint-order="stroke" opacity="1.00">X</text>
            <text x="545.70" y="223.46" text-anchor="start" dominant-baseline="central" font-family="Helvetica,Arial,sans-serif" font-weight="bold" font-size="26.00" fill="#6c8ebf" stroke="#ffffff" stroke-width="4.00" stroke-linejoin="round" paint-order="stroke" opacity="1.00">(+E)</text>
            <text x="527.10" y="282.94" text-anchor="middle" dominant-baseline="central" font-family="Helvetica,Arial,sans-serif" font-weight="bold" font-size="52.00" fill="#4d8a3a" stroke="#ffffff" stroke-width="4.00" stroke-linejoin="round" paint-order="stroke" opacity="1.00">P</text>
            <text x="545.70" y="296.94" text-anchor="start" dominant-baseline="central" font-family="Helvetica,Arial,sans-serif" font-weight="bold" font-size="26.00" fill="#4d8a3a" stroke="#ffffff" stroke-width="4.00" stroke-linejoin="round" paint-order="stroke" opacity="1.00">(-C)</text>
            <text x="552.00" y="356.42" text-anchor="middle" dominant-baseline="central" font-family="Helvetica,Arial,sans-serif" font-weight="bold" font-size="52.00" fill="#ff8000" stroke="#ffffff" stroke-width="4.00" stroke-linejoin="round" paint-order="stroke" opacity="1.00">L</text>
            <text x="253.48" y="856.02" text-anchor="middle" dominant-baseline="central" font-family="Helvetica,Arial,sans-serif" font-weight="bold" font-size="52.00" fill="#aaaaaa" stroke="#ffffff" stroke-width="4.00" stroke-linejoin="round" paint-order="stroke" opacity="1.00">N</text>
            <text x="272.08" y="870.02" text-anchor="start" dominant-baseline="central" font-family="Helvetica,Arial,sans-serif" font-weight="bold" font-size="26.00" fill="#aaaaaa" stroke="#ffffff" stroke-width="4.00" stroke-linejoin="round" paint-order="stroke" opacity="1.00">t</text>
            <text x="267.50" y="762.63" text-anchor="middle" dominant-baseline="central" font-family="Helvetica,Arial,sans-serif" font-weight="bold" font-size="52.00" fill="#4d8a3a" stroke="#ffffff" stroke-width="4.00" stroke-linejoin="round" paint-order="stroke" opacity="1.00">P</text>
            <text x="286.10" y="776.63" text-anchor="start" dominant-baseline="central" font-family="Helvetica,Arial,sans-serif" font-weight="bold" font-size="26.00" fill="#4d8a3a" stroke="#ffffff" stroke-width="4.00" stroke-linejoin="round" paint-order="stroke" opacity="1.00">(-C)</text>
            <text x="835.82" y="856.02" text-anchor="middle" dominant-baseline="central" font-family="Helvetica,Arial,sans-serif" font-weight="bold" font-size="52.00" fill="#aaaaaa" stroke="#ffffff" stroke-width="4.00" stroke-linejoin="round" paint-order="stroke" opacity="1.00">N</text>
            <text x="854.42" y="870.02" text-anchor="start" dominant-baseline="central" font-family="Helvetica,Arial,sans-serif" font-weight="bold" font-size="26.00" fill="#aaaaaa" stroke="#ffffff" stroke-width="4.00" stroke-linejoin="round" paint-order="stroke" opacity="1.00">c</text>
            <text x="786.70" y="762.63" text-anchor="middle" dominant-baseline="central" font-family="Helvetica,Arial,sans-serif" font-weight="bold" font-size="52.00" fill="#6c8ebf" stroke="#ffffff" stroke-width="4.00" stroke-linejoin="round" paint-order="stroke" opacity="1.00">X</text>
            <text x="805.30" y="776.63" text-anchor="start" dominant-baseline="central" font-family="Helvetica,Arial,sans-serif" font-weight="bold" font-size="26.00" fill="#6c8ebf" stroke="#ffffff" stroke-width="4.00" stroke-linejoin="round" paint-order="stroke" opacity="1.00">(+E)</text>
            <text x="552.00" y="480.00" text-anchor="middle" dominant-baseline="central" font-family="Helvetica,Arial,sans-serif" font-weight="bold" font-size="60.00" fill="#ff8000" stroke="#ffffff" stroke-width="4.00" stroke-linejoin="round" paint-order="stroke" opacity="1.00">e</text>
            <text x="407.37" y="730.50" text-anchor="middle" dominant-baseline="central" font-family="Helvetica,Arial,sans-serif" font-weight="bold" font-size="60.00" fill="#4d8a3a" stroke="#ffffff" stroke-width="4.00" stroke-linejoin="round" paint-order="stroke" opacity="1.00">t</text>
            <text x="696.63" y="730.50" text-anchor="middle" dominant-baseline="central" font-family="Helvetica,Arial,sans-serif" font-weight="bold" font-size="60.00" fill="#6c8ebf" stroke="#ffffff" stroke-width="4.00" stroke-linejoin="round" paint-order="stroke" opacity="1.00">c</text>
          </g>
        <!-- etc-LPXN:end -->
      </g>
    </g>

    <!-- glass outline + rim (on top, framing the contents) -->
    <path d="M566 250 L566 178 L556 168 L556 152 L644 152 L644 168 L634 178 L634 250 L790 560 Q792 590 762 590 L438 590 Q408 590 410 560 Z" fill="none" stroke="#8d97a8" stroke-width="3.5"/>
    <line x1="552" y1="152" x2="648" y2="152" stroke="#8d97a8" stroke-width="6" stroke-linecap="round"/>
  </g>

  <!-- e/t/c node-bubbles rising out of the neck, shrinking linearly as they go up -->
  <g font-family="Helvetica,Inter,Segoe UI,Arial" font-weight="bold" text-anchor="middle">
    <!-- e — event / orange -->
    <g opacity="1">
      <circle cx="600" cy="133" r="15" fill="#ffe6cc" stroke="#ff8000" stroke-width="2"/>
      <text x="600" y="133" dominant-baseline="central" font-size="19" fill="#ff8000">e</text>
    </g>
    <!-- t — thing / green -->
    <g opacity="0.96">
      <circle cx="579" cy="102" r="12.5" fill="#d5e8d4" stroke="#82b366" stroke-width="2"/>
      <text x="579" y="102" dominant-baseline="central" font-size="16" fill="#4d8a3a">t</text>
    </g>
    <!-- c — concept / blue -->
    <g opacity="0.9">
      <circle cx="618" cy="74" r="10" fill="#dae8fc" stroke="#6c8ebf" stroke-width="2"/>
      <text x="618" y="74" dominant-baseline="central" font-size="13" fill="#3a78c2">c</text>
    </g>
    <!-- textless bubbles continuing the plume -->
    <circle cx="596" cy="49" r="7.5" fill="#ffe6cc" stroke="#ff8000" stroke-width="1.8" opacity="0.7"/>
    <circle cx="612" cy="27" r="5"   fill="#d5e8d4" stroke="#82b366" stroke-width="1.6" opacity="0.55"/>
  </g>

  <!-- ipmt token chips (echo of the code highlighting) -->
  <g font-family="'SFMono-Regular',Menlo,Consolas,'Liberation Mono',monospace" font-size="22">
    <rect x="356" y="652" width="156" height="44" rx="22" fill="#ffe6cc" opacity="0.55"/>
    <text x="378" y="681" fill="#ff8000" font-weight="bold">event<tspan fill="#9aa3b2" font-weight="normal"> ::</tspan><tspan fill="#ff8000">e</tspan></text>
    <rect x="528" y="652" width="146" height="44" rx="22" fill="#d5e8d4" opacity="0.55"/>
    <text x="550" y="681" fill="#4d8a3a" font-weight="bold">thing<tspan fill="#9aa3b2" font-weight="normal"> ::</tspan><tspan fill="#4d8a3a">t</tspan></text>
    <rect x="690" y="652" width="178" height="44" rx="22" fill="#dae8fc" opacity="0.55"/>
    <text x="712" y="681" fill="#3a78c2" font-weight="bold">concept<tspan fill="#9aa3b2" font-weight="normal"> ::</tspan><tspan fill="#3a78c2">c</tspan></text>
  </g>
</svg>
