<?xml version="1.0" encoding="UTF-8"?>
<svg xmlns="http://www.w3.org/2000/svg" width="740" height="970" viewBox="0 0 740 970">
  <defs>
  </defs>
  <g id="container-shells">
  </g>
  <g id="node-shadows">
    <rect x="40" y="480" width="120" height="60" rx="6" ry="6" fill="#000000" stroke="#000000" stroke-width="2" opacity="0.25" transform="translate(2,3)"/>
    <rect x="400" y="600" width="120" height="60" rx="6" ry="6" fill="#000000" stroke="#000000" stroke-width="2" opacity="0.25" transform="translate(2,3)"/>
    <rect x="310" y="120" width="120" height="60" rx="6" ry="6" fill="#000000" stroke="#000000" stroke-width="2" opacity="0.25" transform="translate(2,3)"/>
    <rect x="130" y="360" width="120" height="60" rx="6" ry="6" fill="#000000" stroke="#000000" stroke-width="2" opacity="0.25" transform="translate(2,3)"/>
    <rect x="490" y="360" width="120" height="60" rx="6" ry="6" fill="#000000" stroke="#000000" stroke-width="2" opacity="0.25" transform="translate(2,3)"/>
    <rect x="350" y="40" width="40" height="40" rx="4" ry="4" fill="#000000" stroke="#000000" stroke-width="2" opacity="0.25" transform="translate(2,3)"/>
    <rect x="350" y="890" width="40" height="40" rx="4" ry="4" fill="#000000" stroke="#000000" stroke-width="2" opacity="0.25" transform="translate(2,3)"/>
    <rect x="400" y="720" width="120" height="60" rx="6" ry="6" fill="#000000" stroke="#000000" stroke-width="2" opacity="0.25" transform="translate(2,3)"/>
    <rect x="220" y="480" width="120" height="60" rx="6" ry="6" fill="#000000" stroke="#000000" stroke-width="2" opacity="0.25" transform="translate(2,3)"/>
    <rect x="400" y="480" width="120" height="60" rx="6" ry="6" fill="#000000" stroke="#000000" stroke-width="2" opacity="0.25" transform="translate(2,3)"/>
    <rect x="40" y="600" width="120" height="60" rx="6" ry="6" fill="#000000" stroke="#000000" stroke-width="2" opacity="0.25" transform="translate(2,3)"/>
    <rect x="310" y="240" width="120" height="60" rx="6" ry="6" fill="#000000" stroke="#000000" stroke-width="2" opacity="0.25" transform="translate(2,3)"/>
    <rect x="580" y="480" width="120" height="60" rx="6" ry="6" fill="#000000" stroke="#000000" stroke-width="2" opacity="0.25" transform="translate(2,3)"/>
    <rect x="580" y="790" width="120" height="60" rx="6" ry="6" fill="#000000" stroke="#000000" stroke-width="2" opacity="0.25" transform="translate(2,3)"/>
    <rect x="580" y="650" width="120" height="100" rx="6" ry="6" fill="#000000" stroke="#000000" stroke-width="2" opacity="0.25" transform="translate(2,3)"/>
  </g>
  <g id="edges">
    <g class="edge" data-edge-idx="0" data-edge-base="leadsto" data-edge-from="1" data-edge-to="5">
    <line x1="100.00" y1="545.00" x2="100.00" y2="588.25" stroke="#ff8000" stroke-width="3" />
    <path d="M 100.00 595.00 L 95.50 586.00 L 100.00 588.25 L 104.50 586.00 Z" fill="#ff8000" stroke="#ff8000" stroke-width="3" stroke-miterlimit="10"/>
    <text x="100" y="566" text-anchor="middle" dominant-baseline="middle" font-family="Helvetica,Inter,Segoe UI,Arial" font-size="11" paint-order="stroke" stroke="#ffffff" stroke-width="3" stroke-linejoin="round" fill="#ff8000">
      <title>leads to</title>lead...
    </text>
    </g>
    <g class="edge" data-edge-idx="1" data-edge-base="leadsto" data-edge-from="10" data-edge-to="2">
    <line x1="460.00" y1="665.00" x2="460.00" y2="708.25" stroke="#ff8000" stroke-width="3" />
    <path d="M 460.00 715.00 L 455.50 706.00 L 460.00 708.25 L 464.50 706.00 Z" fill="#ff8000" stroke="#ff8000" stroke-width="3" stroke-miterlimit="10"/>
    <text x="460" y="686" text-anchor="middle" dominant-baseline="middle" font-family="Helvetica,Inter,Segoe UI,Arial" font-size="11" paint-order="stroke" stroke="#ffffff" stroke-width="3" stroke-linejoin="round" fill="#ff8000">
      <title>thereafter</title>ther...
    </text>
    </g>
    <g class="edge" data-edge-idx="2" data-edge-base="leadsto" data-edge-from="11" data-edge-to="6">
    <line x1="370.00" y1="185.00" x2="370.00" y2="228.25" stroke="#ff8000" stroke-width="3" />
    <path d="M 370.00 235.00 L 365.50 226.00 L 370.00 228.25 L 374.50 226.00 Z" fill="#ff8000" stroke="#ff8000" stroke-width="3" stroke-miterlimit="10"/>
    <text x="370" y="206" text-anchor="middle" dominant-baseline="middle" font-family="Helvetica,Inter,Segoe UI,Arial" font-size="11" paint-order="stroke" stroke="#ffffff" stroke-width="3" stroke-linejoin="round" fill="#ff8000">
      <title>then followed by</title>then...
    </text>
    </g>
    <g class="edge" data-edge-idx="3" data-edge-base="leadsto" data-edge-from="12" data-edge-to="1">
    <line x1="166.00" y1="425.00" x2="111.19" y2="470.68" stroke="#ff8000" stroke-width="3" />
    <path d="M 106.00 475.00 L 110.03 465.78 L 111.19 470.68 L 115.79 472.70 Z" fill="#ff8000" stroke="#ff8000" stroke-width="3" stroke-miterlimit="10"/>
    <text x="138" y="447" text-anchor="middle" dominant-baseline="middle" font-family="Helvetica,Inter,Segoe UI,Arial" font-size="11" paint-order="stroke" stroke="#ffffff" stroke-width="3" stroke-linejoin="round" fill="#ff8000">
      <title>then followed by</title>then...
    </text>
    </g>
    <g class="edge" data-edge-idx="4" data-edge-base="leadsto" data-edge-from="12" data-edge-to="3">
    <line x1="214.00" y1="425.00" x2="268.81" y2="470.68" stroke="#ff8000" stroke-width="3" />
    <path d="M 274.00 475.00 L 264.21 472.70 L 268.81 470.68 L 269.97 465.78 Z" fill="#ff8000" stroke="#ff8000" stroke-width="3" stroke-miterlimit="10"/>
    <text x="241" y="447" text-anchor="middle" dominant-baseline="middle" font-family="Helvetica,Inter,Segoe UI,Arial" font-size="11" paint-order="stroke" stroke="#ffffff" stroke-width="3" stroke-linejoin="round" fill="#ff8000">
      <title>thereafter</title>ther...
    </text>
    </g>
    <g class="edge" data-edge-idx="5" data-edge-base="leadsto" data-edge-from="13" data-edge-to="4">
    <line x1="526.00" y1="425.00" x2="471.19" y2="470.68" stroke="#ff8000" stroke-width="3" />
    <path d="M 466.00 475.00 L 470.03 465.78 L 471.19 470.68 L 475.79 472.70 Z" fill="#ff8000" stroke="#ff8000" stroke-width="3" stroke-miterlimit="10"/>
    <text x="498" y="447" text-anchor="middle" dominant-baseline="middle" font-family="Helvetica,Inter,Segoe UI,Arial" font-size="11" paint-order="stroke" stroke="#ffffff" stroke-width="3" stroke-linejoin="round" fill="#ff8000">
      <title>thereafter</title>ther...
    </text>
    </g>
    <g class="edge" data-edge-idx="6" data-edge-base="leadsto" data-edge-from="13" data-edge-to="7">
    <line x1="574.00" y1="425.00" x2="628.81" y2="470.68" stroke="#ff8000" stroke-width="3" />
    <path d="M 634.00 475.00 L 624.21 472.70 L 628.81 470.68 L 629.97 465.78 Z" fill="#ff8000" stroke="#ff8000" stroke-width="3" stroke-miterlimit="10"/>
    <text x="601" y="447" text-anchor="middle" dominant-baseline="middle" font-family="Helvetica,Inter,Segoe UI,Arial" font-size="11" paint-order="stroke" stroke="#ffffff" stroke-width="3" stroke-linejoin="round" fill="#ff8000">
      <title>then followed by</title>then...
    </text>
    </g>
    <g class="edge" data-edge-idx="7" data-edge-base="leadsto" data-edge-from="14" data-edge-to="11">
    <line x1="370.00" y1="85.00" x2="370.00" y2="108.25" stroke="#ff8000" stroke-width="3" />
    <path d="M 370.00 115.00 L 365.50 106.00 L 370.00 108.25 L 374.50 106.00 Z" fill="#ff8000" stroke="#ff8000" stroke-width="3" stroke-miterlimit="10"/>
    </g>
    <g class="edge" data-edge-idx="8" data-edge-base="leadsto" data-edge-from="2" data-edge-to="15">
    <line x1="456.09" y1="785.00" x2="382.07" y2="879.68" stroke="#ff8000" stroke-width="3" />
    <path d="M 377.91 885.00 L 379.91 875.14 L 382.07 879.68 L 387.00 880.68 Z" fill="#ff8000" stroke="#ff8000" stroke-width="3" stroke-miterlimit="10"/>
    </g>
    <g class="edge" data-edge-idx="9" data-edge-base="expresses" data-edge-from="2" data-edge-to="8">
    <line x1="525.00" y1="759.50" x2="570.46" y2="809.51" stroke="#6c8ebf" stroke-width="3" stroke-dasharray="9 6" />
    <path d="M 575.00 814.50 L 565.62 810.87 L 570.46 809.51 L 572.28 804.81 Z" fill="#6c8ebf" stroke="#6c8ebf" stroke-width="3" stroke-miterlimit="10"/>
    <text x="547" y="784" text-anchor="middle" dominant-baseline="middle" font-family="Helvetica,Inter,Segoe UI,Arial" font-size="11" paint-order="stroke" stroke="#ffffff" stroke-width="3" stroke-linejoin="round" fill="#6c8ebf">
      <title>has URL</title>has...
    </text>
    </g>
    <g class="edge" data-edge-idx="10" data-edge-base="expresses" data-edge-from="2" data-edge-to="9">
    <line x1="525.00" y1="735.00" x2="568.25" y2="735.00" stroke="#6c8ebf" stroke-width="3" stroke-dasharray="9 6" />
    <path d="M 575.00 735.00 L 566.00 739.50 L 568.25 735.00 L 566.00 730.50 Z" fill="#6c8ebf" stroke="#6c8ebf" stroke-width="3" stroke-miterlimit="10"/>
    <text x="546" y="735" text-anchor="middle" dominant-baseline="middle" font-family="Helvetica,Inter,Segoe UI,Arial" font-size="11" paint-order="stroke" stroke="#ffffff" stroke-width="3" stroke-linejoin="round" fill="#6c8ebf">
      <title>has image</title>has...
    </text>
    </g>
    <g class="edge" data-edge-idx="11" data-edge-base="leadsto" data-edge-from="3" data-edge-to="15">
    <line x1="281.23" y1="545.00" x2="363.16" y2="878.44" stroke="#ff8000" stroke-width="3" />
    <path d="M 364.77 885.00 L 358.25 877.33 L 363.16 878.44 L 366.99 875.19 Z" fill="#ff8000" stroke="#ff8000" stroke-width="3" stroke-miterlimit="10"/>
    </g>
    <g class="edge" data-edge-idx="12" data-edge-base="leadsto" data-edge-from="4" data-edge-to="10">
    <line x1="460.00" y1="545.00" x2="460.00" y2="588.25" stroke="#ff8000" stroke-width="3" />
    <path d="M 460.00 595.00 L 455.50 586.00 L 460.00 588.25 L 464.50 586.00 Z" fill="#ff8000" stroke="#ff8000" stroke-width="3" stroke-miterlimit="10"/>
    <text x="460" y="566" text-anchor="middle" dominant-baseline="middle" font-family="Helvetica,Inter,Segoe UI,Arial" font-size="11" paint-order="stroke" stroke="#ffffff" stroke-width="3" stroke-linejoin="round" fill="#ff8000">
      <title>thereafter</title>ther...
    </text>
    </g>
    <g class="edge" data-edge-idx="13" data-edge-base="leadsto" data-edge-from="5" data-edge-to="15">
    <line x1="105.61" y1="665.00" x2="347.35" y2="880.51" stroke="#ff8000" stroke-width="3" />
    <path d="M 352.39 885.00 L 342.68 882.37 L 347.35 880.51 L 348.67 875.65 Z" fill="#ff8000" stroke="#ff8000" stroke-width="3" stroke-miterlimit="10"/>
    </g>
    <g class="edge" data-edge-idx="14" data-edge-base="leadsto" data-edge-from="6" data-edge-to="12">
    <line x1="338.50" y1="305.00" x2="209.83" y2="352.66" stroke="#ff8000" stroke-width="3" />
    <path d="M 203.50 355.00 L 210.38 347.65 L 209.83 352.66 L 213.50 356.09 Z" fill="#ff8000" stroke="#ff8000" stroke-width="3" stroke-miterlimit="10"/>
    <text x="273" y="328" text-anchor="middle" dominant-baseline="middle" font-family="Helvetica,Inter,Segoe UI,Arial" font-size="11" paint-order="stroke" stroke="#ffffff" stroke-width="3" stroke-linejoin="round" fill="#ff8000">
      <title>then followed by</title>then...
    </text>
    </g>
    <g class="edge" data-edge-idx="15" data-edge-base="leadsto" data-edge-from="6" data-edge-to="13">
    <line x1="401.50" y1="305.00" x2="530.17" y2="352.66" stroke="#ff8000" stroke-width="3" />
    <path d="M 536.50 355.00 L 526.50 356.09 L 530.17 352.66 L 529.62 347.65 Z" fill="#ff8000" stroke="#ff8000" stroke-width="3" stroke-miterlimit="10"/>
    <text x="465" y="328" text-anchor="middle" dominant-baseline="middle" font-family="Helvetica,Inter,Segoe UI,Arial" font-size="11" paint-order="stroke" stroke="#ffffff" stroke-width="3" stroke-linejoin="round" fill="#ff8000">
      <title>then followed by</title>then...
    </text>
    </g>
    <g class="edge" data-edge-idx="16" data-edge-base="leadsto" data-edge-from="7" data-edge-to="15">
    <polyline points="636.31,545.00 550,690 550,810 391.83,882.20" fill="none" stroke="#ff8000" stroke-width="3" />
    <path d="M 385.69 885.00 L 392.00 877.17 L 391.83 882.20 L 395.74 885.36 Z" fill="#ff8000" stroke="#ff8000" stroke-width="3" stroke-miterlimit="10"/>
    </g>
  </g>
  <g id="nodes">
    <rect x="40" y="480" width="120" height="60" rx="6" ry="6" fill="#ffe6cc" stroke="#ff8000" stroke-width="2"/>
    <text x="100" y="510" text-anchor="middle" dominant-baseline="middle" font-family="Helvetica,Inter,Segoe UI,Arial" font-size="16" font-weight="bold" fill="#ff8000">a doorway</text>
    <rect x="400" y="600" width="120" height="60" rx="6" ry="6" fill="#ffe6cc" stroke="#ff8000" stroke-width="2"/>
    <text x="460" y="630" text-anchor="middle" dominant-baseline="middle" font-family="Helvetica,Inter,Segoe UI,Arial" font-size="16" font-weight="bold" fill="#ff8000">mischief!</text>
    <rect x="310" y="120" width="120" height="60" rx="6" ry="6" fill="#ffe6cc" stroke="#ff8000" stroke-width="2"/>
    <text x="370" y="150" text-anchor="middle" dominant-baseline="middle" font-family="Helvetica,Inter,Segoe UI,Arial" font-size="16" font-weight="bold" fill="#ff8000">once upon</text>
    <rect x="130" y="360" width="120" height="60" rx="6" ry="6" fill="#ffe6cc" stroke="#ff8000" stroke-width="2"/>
    <text x="190" y="390" text-anchor="middle" dominant-baseline="middle" font-family="Helvetica,Inter,Segoe UI,Arial" font-size="16" font-weight="bold" fill="#ff8000">there lay</text>
    <rect x="490" y="360" width="120" height="60" rx="6" ry="6" fill="#ffe6cc" stroke="#ff8000" stroke-width="2"/>
    <text x="550" y="390" text-anchor="middle" dominant-baseline="middle" font-family="Helvetica,Inter,Segoe UI,Arial" font-size="16" font-weight="bold" fill="#ff8000">there was</text>
    <rect x="350" y="40" width="40" height="40" rx="4" ry="4" fill="#ffe6cc" stroke="#ff8000" stroke-width="2"/>
    <text x="370" y="60" text-anchor="middle" dominant-baseline="middle" font-family="Helvetica,Inter,Segoe UI,Arial" font-size="16" font-weight="bold" fill="#ff8000">S</text>
    <rect x="350" y="890" width="40" height="40" rx="4" ry="4" fill="#ffe6cc" stroke="#ff8000" stroke-width="2"/>
    <text x="370" y="910" text-anchor="middle" dominant-baseline="middle" font-family="Helvetica,Inter,Segoe UI,Arial" font-size="16" font-weight="bold" fill="#ff8000">E</text>
    <rect x="400" y="720" width="120" height="60" rx="6" ry="6" fill="#ffe6cc" stroke="#ff8000" stroke-width="2"/>
    <text x="460" y="740" text-anchor="middle" dominant-baseline="middle" font-family="Helvetica,Inter,Segoe UI,Arial" font-size="16" font-weight="bold" fill="#ff8000">a little</text>
    <text x="460" y="760" text-anchor="middle" dominant-baseline="middle" font-family="Helvetica,Inter,Segoe UI,Arial" font-size="16" font-weight="bold" fill="#ff8000">prince</text>
    <rect x="220" y="480" width="120" height="60" rx="6" ry="6" fill="#ffe6cc" stroke="#ff8000" stroke-width="2"/>
    <text x="280" y="500" text-anchor="middle" dominant-baseline="middle" font-family="Helvetica,Inter,Segoe UI,Arial" font-size="16" font-weight="bold" fill="#ff8000">a magic</text>
    <text x="280" y="520" text-anchor="middle" dominant-baseline="middle" font-family="Helvetica,Inter,Segoe UI,Arial" font-size="16" font-weight="bold" fill="#ff8000">carpet</text>
    <rect x="400" y="480" width="120" height="60" rx="6" ry="6" fill="#ffe6cc" stroke="#ff8000" stroke-width="2"/>
    <text x="460" y="510" text-anchor="middle" dominant-baseline="middle" font-family="Helvetica,Inter,Segoe UI,Arial" font-size="16" font-weight="bold" fill="#ff8000">a princess</text>
    <rect x="40" y="600" width="120" height="60" rx="6" ry="6" fill="#ffe6cc" stroke="#ff8000" stroke-width="2"/>
    <text x="100" y="620" text-anchor="middle" dominant-baseline="middle" font-family="Helvetica,Inter,Segoe UI,Arial" font-size="16" font-weight="bold" fill="#ff8000">a secret</text>
    <text x="100" y="640" text-anchor="middle" dominant-baseline="middle" font-family="Helvetica,Inter,Segoe UI,Arial" font-size="16" font-weight="bold" fill="#ff8000">room</text>
    <g>
      <title>it could be any time of day</title>
    <rect x="310" y="240" width="120" height="60" rx="6" ry="6" fill="#ffe6cc" stroke="#ff8000" stroke-width="2"/>
    <text x="370" y="270" text-anchor="middle" dominant-baseline="middle" font-family="Helvetica,Inter,Segoe UI,Arial" font-size="16" font-weight="bold" fill="#ff8000">a time</text>
    </g>
    <rect x="580" y="480" width="120" height="60" rx="6" ry="6" fill="#ffe6cc" stroke="#ff8000" stroke-width="2"/>
    <text x="640" y="510" text-anchor="middle" dominant-baseline="middle" font-family="Helvetica,Inter,Segoe UI,Arial" font-size="16" font-weight="bold" fill="#ff8000">a toad</text>
    <rect x="580" y="790" width="120" height="60" rx="6" ry="6" fill="#ececec" stroke="#9e9e9e" stroke-width="2" stroke-dasharray="6 4"/>
    <text x="640" y="810" text-anchor="middle" dominant-baseline="middle" font-family="Helvetica,Inter,Segoe UI,Arial" font-size="16" font-weight="normal" fill="#616161">https://chit</text>
    <text x="640" y="830" text-anchor="middle" dominant-baseline="middle" font-family="Helvetica,Inter,Segoe UI,Arial" font-size="16" font-weight="normal" fill="#616161">ek-i.org</text>
    <rect x="668" y="833" width="12" height="12" rx="2" ry="2" fill="#dae8fc" stroke="#6c8ebf" stroke-width="2"/>
    <text x="674.0" y="839.0" text-anchor="middle" dominant-baseline="central" font-size="8" fill="#3399ff">c</text>
    <rect x="683" y="833" width="12" height="12" rx="2" ry="2" fill="#ffe6cc" stroke="#ff8000" stroke-width="1"/>
    <text x="689.0" y="839.0" text-anchor="middle" dominant-baseline="central" font-size="8" fill="#ff8000">e</text>
    <rect x="580" y="650" width="120" height="100" rx="6" ry="6" fill="#ececec" stroke="#9e9e9e" stroke-width="2" stroke-dasharray="6 4"/>
    <text x="640" y="666" text-anchor="middle" dominant-baseline="middle" font-family="Helvetica,Inter,Segoe UI,Arial" font-size="14" font-weight="normal" fill="#616161">https://m.me</text>
    <text x="640" y="683" text-anchor="middle" dominant-baseline="middle" font-family="Helvetica,Inter,Segoe UI,Arial" font-size="14" font-weight="normal" fill="#616161">dia-amazon.c</text>
    <text x="640" y="700" text-anchor="middle" dominant-baseline="middle" font-family="Helvetica,Inter,Segoe UI,Arial" font-size="14" font-weight="normal" fill="#616161">om/images/I/</text>
    <text x="640" y="717" text-anchor="middle" dominant-baseline="middle" font-family="Helvetica,Inter,Segoe UI,Arial" font-size="14" font-weight="normal" fill="#616161">81yLt8OG7zL.</text>
    <text x="640" y="734" text-anchor="middle" dominant-baseline="middle" font-family="Helvetica,Inter,Segoe UI,Arial" font-size="14" font-weight="normal" fill="#616161">jpg</text>
    <rect x="668" y="733" width="12" height="12" rx="2" ry="2" fill="#dae8fc" stroke="#6c8ebf" stroke-width="2"/>
    <text x="674.0" y="739.0" text-anchor="middle" dominant-baseline="central" font-size="8" fill="#3399ff">c</text>
    <rect x="683" y="733" width="12" height="12" rx="2" ry="2" fill="#ffe6cc" stroke="#ff8000" stroke-width="1"/>
    <text x="689.0" y="739.0" text-anchor="middle" dominant-baseline="central" font-size="8" fill="#ff8000">e</text>
  </g>
</svg>
