<?xml version="1.0" encoding="UTF-8"?>
<svg xmlns="http://www.w3.org/2000/svg" width="1022" height="756" viewBox="0 0 1022 756">
  <defs>
  </defs>
  <g id="container-shells">
  </g>
  <g id="node-shadows">
    <rect x="400" y="404" width="120" height="60" rx="6" ry="6" fill="#000000" stroke="#000000" stroke-width="2" opacity="0.25" transform="translate(2,3)"/>
    <rect x="40" y="524" width="120" height="60" rx="6" ry="6" fill="#000000" stroke="#000000" stroke-width="2" opacity="0.25" transform="translate(2,3)"/>
    <rect x="220" y="524" width="120" height="60" rx="6" ry="6" fill="#000000" stroke="#000000" stroke-width="2" opacity="0.25" transform="translate(2,3)"/>
    <rect x="580" y="524" width="120" height="60" rx="6" ry="6" fill="#000000" stroke="#000000" stroke-width="2" opacity="0.25" transform="translate(2,3)"/>
    <rect x="760" y="404" width="120" height="60" rx="6" ry="6" fill="#000000" stroke="#000000" stroke-width="2" opacity="0.25" transform="translate(2,3)"/>
    <rect x="536" y="40" width="40" height="40" rx="4" ry="4" fill="#000000" stroke="#000000" stroke-width="2" opacity="0.25" transform="translate(2,3)"/>
    <rect x="536" y="676" width="40" height="40" rx="4" ry="4" fill="#000000" stroke="#000000" stroke-width="2" opacity="0.25" transform="translate(2,3)"/>
    <rect x="130" y="254" width="120" height="60" rx="6" ry="6" fill="#000000" stroke="#000000" stroke-width="2" opacity="0.25" transform="translate(2,3)"/>
    <rect x="400" y="254" width="120" height="60" rx="6" ry="6" fill="#000000" stroke="#000000" stroke-width="2" opacity="0.25" transform="translate(2,3)"/>
    <rect x="642" y="254" width="120" height="60" rx="6" ry="6" fill="#000000" stroke="#000000" stroke-width="2" opacity="0.25" transform="translate(2,3)"/>
    <rect x="40" y="404" width="120" height="60" rx="6" ry="6" fill="#000000" stroke="#000000" stroke-width="2" opacity="0.25" transform="translate(2,3)"/>
    <rect x="862" y="254" width="120" height="60" rx="6" ry="6" fill="#000000" stroke="#000000" stroke-width="2" opacity="0.25" transform="translate(2,3)"/>
    <rect x="580" y="404" width="120" height="60" rx="6" ry="6" fill="#000000" stroke="#000000" stroke-width="2" opacity="0.25" transform="translate(2,3)"/>
    <rect x="220" y="404" width="120" height="60" rx="6" ry="6" fill="#000000" stroke="#000000" stroke-width="2" opacity="0.25" transform="translate(2,3)"/>
    <rect x="496" y="120" width="120" height="60" rx="6" ry="6" fill="#000000" stroke="#000000" stroke-width="2" opacity="0.25" transform="translate(2,3)"/>
  </g>
  <g id="edges">
    <g class="edge" data-edge-idx="0" data-edge-base="leadsto" data-edge-from="1" data-edge-to="12">
    <line x1="463.69" y1="465.54" x2="594.08" y2="519.87" stroke="#ff8000" stroke-width="3" />
    <path d="M 600.31 522.46 L 590.27 523.15 L 594.08 519.87 L 593.73 514.85 Z" fill="#ff8000" stroke="#ff8000" stroke-width="3" stroke-miterlimit="10"/>
    <text x="528" y="492" text-anchor="middle" dominant-baseline="middle" font-family="Helvetica,Inter,Segoe UI,Arial" font-size="11" paint-order="stroke" stroke="#ffffff" stroke-width="3" stroke-linejoin="round" fill="#ff8000">
      <title>leads to</title>lead...
    </text>
    </g>
    <g class="edge" data-edge-idx="1" data-edge-base="leadsto" data-edge-from="10" data-edge-to="15">
    <line x1="103.92" y1="584.81" x2="533.47" y2="673.82" stroke="#ff8000" stroke-width="3" />
    <path d="M 540.08 675.19 L 530.36 677.77 L 533.47 673.82 L 532.18 668.96 Z" fill="#ff8000" stroke="#ff8000" stroke-width="3" stroke-miterlimit="10"/>
    </g>
    <g class="edge" data-edge-idx="2" data-edge-base="leadsto" data-edge-from="11" data-edge-to="15">
    <line x1="283.79" y1="585.26" x2="545.80" y2="672.60" stroke="#ff8000" stroke-width="3" />
    <path d="M 552.21 674.74 L 542.24 676.16 L 545.80 672.60 L 545.09 667.62 Z" fill="#ff8000" stroke="#ff8000" stroke-width="3" stroke-miterlimit="10"/>
    </g>
    <g class="edge" data-edge-idx="3" data-edge-base="leadsto" data-edge-from="12" data-edge-to="15">
    <line x1="637.53" y1="587.15" x2="574.63" y2="667.53" stroke="#ff8000" stroke-width="3" />
    <path d="M 570.47 672.85 L 572.47 662.99 L 574.63 667.53 L 579.56 668.54 Z" fill="#ff8000" stroke="#ff8000" stroke-width="3" stroke-miterlimit="10"/>
    </g>
    <g class="edge" data-edge-idx="4" data-edge-base="leadsto" data-edge-from="13" data-edge-to="12">
    <line x1="816.31" y1="465.54" x2="685.92" y2="519.87" stroke="#ff8000" stroke-width="3" />
    <path d="M 679.69 522.46 L 686.27 514.85 L 685.92 519.87 L 689.73 523.15 Z" fill="#ff8000" stroke="#ff8000" stroke-width="3" stroke-miterlimit="10"/>
    <text x="750" y="492" text-anchor="middle" dominant-baseline="middle" font-family="Helvetica,Inter,Segoe UI,Arial" font-size="11" paint-order="stroke" stroke="#ffffff" stroke-width="3" stroke-linejoin="round" fill="#ff8000">
      <title>leads to</title>lead...
    </text>
    </g>
    <g class="edge" data-edge-idx="5" data-edge-base="leadsto" data-edge-from="14" data-edge-to="9">
    <line x1="556.00" y1="84.00" x2="556.00" y2="109.25" stroke="#ff8000" stroke-width="3" />
    <path d="M 556.00 116.00 L 551.50 107.00 L 556.00 109.25 L 560.50 107.00 Z" fill="#ff8000" stroke="#ff8000" stroke-width="3" stroke-miterlimit="10"/>
    </g>
    <g class="edge" data-edge-idx="6" data-edge-base="leadsto" data-edge-from="2" data-edge-to="5">
    <line x1="151.94" y1="317.43" x2="105.53" y2="394.78" stroke="#ff8000" stroke-width="3" />
    <path d="M 102.06 400.57 L 102.83 390.54 L 105.53 394.78 L 110.55 395.17 Z" fill="#ff8000" stroke="#ff8000" stroke-width="3" stroke-miterlimit="10"/>
    <text x="128" y="355" text-anchor="middle" dominant-baseline="middle" font-family="Helvetica,Inter,Segoe UI,Arial" font-size="11" paint-order="stroke" stroke="#ffffff" stroke-width="3" stroke-linejoin="round" fill="#ff8000">
      <title>leads to</title>lead...
    </text>
    </g>
    <g class="edge" data-edge-idx="7" data-edge-base="leadsto" data-edge-from="2" data-edge-to="7">
    <line x1="229.90" y1="314.89" x2="611.52" y2="401.62" stroke="#ff8000" stroke-width="3" />
    <path d="M 618.10 403.11 L 608.33 405.51 L 611.52 401.62 L 610.32 396.73 Z" fill="#ff8000" stroke="#ff8000" stroke-width="3" stroke-miterlimit="10"/>
    <text x="420" y="357" text-anchor="middle" dominant-baseline="middle" font-family="Helvetica,Inter,Segoe UI,Arial" font-size="11" paint-order="stroke" stroke="#ffffff" stroke-width="3" stroke-linejoin="round" fill="#ff8000">
      <title>leads to</title>lead...
    </text>
    </g>
    <g class="edge" data-edge-idx="8" data-edge-base="leadsto" data-edge-from="2" data-edge-to="8">
    <line x1="192.83" y1="316.83" x2="272.40" y2="396.40" stroke="#ff8000" stroke-width="3" />
    <path d="M 277.17 401.17 L 267.63 397.99 L 272.40 396.40 L 273.99 391.63 Z" fill="#ff8000" stroke="#ff8000" stroke-width="3" stroke-miterlimit="10"/>
    <text x="232" y="356" text-anchor="middle" dominant-baseline="middle" font-family="Helvetica,Inter,Segoe UI,Arial" font-size="11" paint-order="stroke" stroke="#ffffff" stroke-width="3" stroke-linejoin="round" fill="#ff8000">
      <title>leads to</title>lead...
    </text>
    </g>
    <g class="edge" data-edge-idx="9" data-edge-base="leadsto" data-edge-from="3" data-edge-to="1">
    <line x1="442.78" y1="317.92" x2="457.89" y2="393.46" stroke="#ff8000" stroke-width="3" />
    <path d="M 459.22 400.08 L 453.04 392.13 L 457.89 393.46 L 461.86 390.37 Z" fill="#ff8000" stroke="#ff8000" stroke-width="3" stroke-miterlimit="10"/>
    <text x="449" y="355" text-anchor="middle" dominant-baseline="middle" font-family="Helvetica,Inter,Segoe UI,Arial" font-size="11" paint-order="stroke" stroke="#ffffff" stroke-width="3" stroke-linejoin="round" fill="#ff8000">
      <title>leads to</title>lead...
    </text>
    </g>
    <g class="edge" data-edge-idx="10" data-edge-base="leadsto" data-edge-from="3" data-edge-to="13">
    <line x1="481.84" y1="315.13" x2="773.69" y2="400.97" stroke="#ff8000" stroke-width="3" />
    <path d="M 780.16 402.87 L 770.26 404.65 L 773.69 400.97 L 772.80 396.01 Z" fill="#ff8000" stroke="#ff8000" stroke-width="3" stroke-miterlimit="10"/>
    <text x="627" y="357" text-anchor="middle" dominant-baseline="middle" font-family="Helvetica,Inter,Segoe UI,Arial" font-size="11" paint-order="stroke" stroke="#ffffff" stroke-width="3" stroke-linejoin="round" fill="#ff8000">
      <title>leads to</title>lead...
    </text>
    </g>
    <g class="edge" data-edge-idx="11" data-edge-base="leadsto" data-edge-from="4" data-edge-to="13">
    <line x1="705.18" y1="316.43" x2="811.45" y2="397.48" stroke="#ff8000" stroke-width="3" />
    <path d="M 816.82 401.57 L 806.93 399.69 L 811.45 397.48 L 812.39 392.54 Z" fill="#ff8000" stroke="#ff8000" stroke-width="3" stroke-miterlimit="10"/>
    <text x="758" y="356" text-anchor="middle" dominant-baseline="middle" font-family="Helvetica,Inter,Segoe UI,Arial" font-size="11" paint-order="stroke" stroke="#ffffff" stroke-width="3" stroke-linejoin="round" fill="#ff8000">
      <title>leads to</title>lead...
    </text>
    </g>
    <g class="edge" data-edge-idx="12" data-edge-base="leadsto" data-edge-from="5" data-edge-to="10">
    <line x1="100.00" y1="468.00" x2="100.00" y2="513.25" stroke="#ff8000" stroke-width="3" />
    <path d="M 100.00 520.00 L 95.50 511.00 L 100.00 513.25 L 104.50 511.00 Z" fill="#ff8000" stroke="#ff8000" stroke-width="3" stroke-miterlimit="10"/>
    <text x="100" y="490" text-anchor="middle" dominant-baseline="middle" font-family="Helvetica,Inter,Segoe UI,Arial" font-size="11" paint-order="stroke" stroke="#ffffff" stroke-width="3" stroke-linejoin="round" fill="#ff8000">
      <title>leads to</title>lead...
    </text>
    </g>
    <g class="edge" data-edge-idx="13" data-edge-base="leadsto" data-edge-from="6" data-edge-to="13">
    <line x1="937.27" y1="316.92" x2="863.33" y2="396.14" stroke="#ff8000" stroke-width="3" />
    <path d="M 858.73 401.08 L 861.58 391.43 L 863.33 396.14 L 868.16 397.57 Z" fill="#ff8000" stroke="#ff8000" stroke-width="3" stroke-miterlimit="10"/>
    <text x="900" y="356" text-anchor="middle" dominant-baseline="middle" font-family="Helvetica,Inter,Segoe UI,Arial" font-size="11" paint-order="stroke" stroke="#ffffff" stroke-width="3" stroke-linejoin="round" fill="#ff8000">
      <title>leads to</title>lead...
    </text>
    </g>
    <g class="edge" data-edge-idx="14" data-edge-base="leadsto" data-edge-from="6" data-edge-to="7">
    <line x1="900.24" y1="315.37" x2="668.10" y2="400.31" stroke="#ff8000" stroke-width="3" />
    <path d="M 661.76 402.63 L 668.66 395.31 L 668.10 400.31 L 671.75 403.76 Z" fill="#ff8000" stroke="#ff8000" stroke-width="3" stroke-miterlimit="10"/>
    <text x="784" y="357" text-anchor="middle" dominant-baseline="middle" font-family="Helvetica,Inter,Segoe UI,Arial" font-size="11" paint-order="stroke" stroke="#ffffff" stroke-width="3" stroke-linejoin="round" fill="#ff8000">
      <title>leads to</title>lead...
    </text>
    </g>
    <g class="edge" data-edge-idx="15" data-edge-base="leadsto" data-edge-from="7" data-edge-to="12">
    <line x1="640.00" y1="468.00" x2="640.00" y2="513.25" stroke="#ff8000" stroke-width="3" />
    <path d="M 640.00 520.00 L 635.50 511.00 L 640.00 513.25 L 644.50 511.00 Z" fill="#ff8000" stroke="#ff8000" stroke-width="3" stroke-miterlimit="10"/>
    <text x="640" y="490" text-anchor="middle" dominant-baseline="middle" font-family="Helvetica,Inter,Segoe UI,Arial" font-size="11" paint-order="stroke" stroke="#ffffff" stroke-width="3" stroke-linejoin="round" fill="#ff8000">
      <title>leads to</title>lead...
    </text>
    </g>
    <g class="edge" data-edge-idx="16" data-edge-base="leadsto" data-edge-from="8" data-edge-to="11">
    <line x1="280.00" y1="468.00" x2="280.00" y2="513.25" stroke="#ff8000" stroke-width="3" />
    <path d="M 280.00 520.00 L 275.50 511.00 L 280.00 513.25 L 284.50 511.00 Z" fill="#ff8000" stroke="#ff8000" stroke-width="3" stroke-miterlimit="10"/>
    <text x="280" y="490" text-anchor="middle" dominant-baseline="middle" font-family="Helvetica,Inter,Segoe UI,Arial" font-size="11" paint-order="stroke" stroke="#ffffff" stroke-width="3" stroke-linejoin="round" fill="#ff8000">
      <title>leads to</title>lead...
    </text>
    </g>
    <g class="edge" data-edge-idx="17" data-edge-base="leadsto" data-edge-from="9" data-edge-to="2">
    <line x1="516.10" y1="180.88" x2="200.49" y2="251.65" stroke="#ff8000" stroke-width="3" />
    <path d="M 193.90 253.12 L 201.70 246.76 L 200.49 251.65 L 203.67 255.55 Z" fill="#ff8000" stroke="#ff8000" stroke-width="3" stroke-miterlimit="10"/>
    <text x="358" y="215" text-anchor="middle" dominant-baseline="middle" font-family="Helvetica,Inter,Segoe UI,Arial" font-size="11" paint-order="stroke" stroke="#ffffff" stroke-width="3" stroke-linejoin="round" fill="#ff8000">
      <title>leads to</title>lead...
    </text>
    </g>
    <g class="edge" data-edge-idx="18" data-edge-base="leadsto" data-edge-from="9" data-edge-to="3">
    <line x1="541.00" y1="182.64" x2="468.07" y2="246.89" stroke="#ff8000" stroke-width="3" />
    <path d="M 463.00 251.36 L 466.78 242.03 L 468.07 246.89 L 472.73 248.78 Z" fill="#ff8000" stroke="#ff8000" stroke-width="3" stroke-miterlimit="10"/>
    <text x="504" y="214" text-anchor="middle" dominant-baseline="middle" font-family="Helvetica,Inter,Segoe UI,Arial" font-size="11" paint-order="stroke" stroke="#ffffff" stroke-width="3" stroke-linejoin="round" fill="#ff8000">
      <title>leads to</title>lead...
    </text>
    </g>
    <g class="edge" data-edge-idx="19" data-edge-base="leadsto" data-edge-from="9" data-edge-to="4">
    <line x1="571.50" y1="181.93" x2="692.59" y2="248.80" stroke="#ff8000" stroke-width="3" />
    <path d="M 698.50 252.07 L 688.44 251.65 L 692.59 248.80 L 692.80 243.78 Z" fill="#ff8000" stroke="#ff8000" stroke-width="3" stroke-miterlimit="10"/>
    <text x="631" y="214" text-anchor="middle" dominant-baseline="middle" font-family="Helvetica,Inter,Segoe UI,Arial" font-size="11" paint-order="stroke" stroke="#ffffff" stroke-width="3" stroke-linejoin="round" fill="#ff8000">
      <title>leads to</title>lead...
    </text>
    </g>
    <g class="edge" data-edge-idx="20" data-edge-base="leadsto" data-edge-from="9" data-edge-to="6">
    <line x1="595.90" y1="180.88" x2="911.51" y2="251.65" stroke="#ff8000" stroke-width="3" />
    <path d="M 918.10 253.12 L 908.33 255.55 L 911.51 251.65 L 910.30 246.76 Z" fill="#ff8000" stroke="#ff8000" stroke-width="3" stroke-miterlimit="10"/>
    <text x="753" y="215" text-anchor="middle" dominant-baseline="middle" font-family="Helvetica,Inter,Segoe UI,Arial" font-size="11" paint-order="stroke" stroke="#ffffff" stroke-width="3" stroke-linejoin="round" fill="#ff8000">
      <title>leads to</title>lead...
    </text>
    </g>
  </g>
  <g id="nodes">
    <rect x="400" y="404" width="120" height="60" rx="6" ry="6" fill="#ffe6cc" stroke="#ff8000" stroke-width="2"/>
    <text x="460" y="434" text-anchor="middle" dominant-baseline="middle" font-family="Helvetica,Inter,Segoe UI,Arial" font-size="16" font-weight="bold" fill="#ff8000">bike</text>
    <rect x="40" y="524" width="120" height="60" rx="6" ry="6" fill="#ffe6cc" stroke="#ff8000" stroke-width="2"/>
    <text x="100" y="554" text-anchor="middle" dominant-baseline="middle" font-family="Helvetica,Inter,Segoe UI,Arial" font-size="16" font-weight="bold" fill="#ff8000">target 1</text>
    <rect x="220" y="524" width="120" height="60" rx="6" ry="6" fill="#ffe6cc" stroke="#ff8000" stroke-width="2"/>
    <text x="280" y="554" text-anchor="middle" dominant-baseline="middle" font-family="Helvetica,Inter,Segoe UI,Arial" font-size="16" font-weight="bold" fill="#ff8000">target 2</text>
    <rect x="580" y="524" width="120" height="60" rx="6" ry="6" fill="#ffe6cc" stroke="#ff8000" stroke-width="2"/>
    <text x="640" y="554" text-anchor="middle" dominant-baseline="middle" font-family="Helvetica,Inter,Segoe UI,Arial" font-size="16" font-weight="bold" fill="#ff8000">target 3</text>
    <rect x="760" y="404" width="120" height="60" rx="6" ry="6" fill="#ffe6cc" stroke="#ff8000" stroke-width="2"/>
    <text x="820" y="434" text-anchor="middle" dominant-baseline="middle" font-family="Helvetica,Inter,Segoe UI,Arial" font-size="16" font-weight="bold" fill="#ff8000">tram</text>
    <rect x="536" y="40" width="40" height="40" rx="4" ry="4" fill="#ffe6cc" stroke="#ff8000" stroke-width="2"/>
    <text x="556" y="60" text-anchor="middle" dominant-baseline="middle" font-family="Helvetica,Inter,Segoe UI,Arial" font-size="16" font-weight="bold" fill="#ff8000">S</text>
    <rect x="536" y="676" width="40" height="40" rx="4" ry="4" fill="#ffe6cc" stroke="#ff8000" stroke-width="2"/>
    <text x="556" y="696" text-anchor="middle" dominant-baseline="middle" font-family="Helvetica,Inter,Segoe UI,Arial" font-size="16" font-weight="bold" fill="#ff8000">E</text>
    <rect x="130" y="254" width="120" height="60" rx="6" ry="6" fill="#ffe6cc" stroke="#ff8000" stroke-width="2"/>
    <text x="190" y="284" text-anchor="middle" dominant-baseline="middle" font-family="Helvetica,Inter,Segoe UI,Arial" font-size="16" font-weight="bold" fill="#ff8000">door</text>
    <rect x="400" y="254" width="120" height="60" rx="6" ry="6" fill="#ffe6cc" stroke="#ff8000" stroke-width="2"/>
    <text x="460" y="284" text-anchor="middle" dominant-baseline="middle" font-family="Helvetica,Inter,Segoe UI,Arial" font-size="16" font-weight="bold" fill="#ff8000">gate</text>
    <rect x="642" y="254" width="120" height="60" rx="6" ry="6" fill="#ffe6cc" stroke="#ff8000" stroke-width="2"/>
    <text x="702" y="284" text-anchor="middle" dominant-baseline="middle" font-family="Helvetica,Inter,Segoe UI,Arial" font-size="16" font-weight="bold" fill="#ff8000">hole</text>
    <rect x="40" y="404" width="120" height="60" rx="6" ry="6" fill="#ffe6cc" stroke="#ff8000" stroke-width="2"/>
    <text x="100" y="434" text-anchor="middle" dominant-baseline="middle" font-family="Helvetica,Inter,Segoe UI,Arial" font-size="16" font-weight="bold" fill="#ff8000">passage</text>
    <rect x="862" y="254" width="120" height="60" rx="6" ry="6" fill="#ffe6cc" stroke="#ff8000" stroke-width="2"/>
    <text x="922" y="284" text-anchor="middle" dominant-baseline="middle" font-family="Helvetica,Inter,Segoe UI,Arial" font-size="16" font-weight="bold" fill="#ff8000">port</text>
    <rect x="580" y="404" width="120" height="60" rx="6" ry="6" fill="#ffe6cc" stroke="#ff8000" stroke-width="2"/>
    <text x="640" y="434" text-anchor="middle" dominant-baseline="middle" font-family="Helvetica,Inter,Segoe UI,Arial" font-size="16" font-weight="bold" fill="#ff8000">river</text>
    <rect x="220" y="404" width="120" height="60" rx="6" ry="6" fill="#ffe6cc" stroke="#ff8000" stroke-width="2"/>
    <text x="280" y="434" text-anchor="middle" dominant-baseline="middle" font-family="Helvetica,Inter,Segoe UI,Arial" font-size="16" font-weight="bold" fill="#ff8000">road</text>
    <rect x="496" y="120" width="120" height="60" rx="6" ry="6" fill="#ffe6cc" stroke="#ff8000" stroke-width="2"/>
    <text x="556" y="150" text-anchor="middle" dominant-baseline="middle" font-family="Helvetica,Inter,Segoe UI,Arial" font-size="16" font-weight="bold" fill="#ff8000">start</text>
  </g>
</svg>
