<?xml version="1.0" encoding="UTF-8"?>
<svg xmlns="http://www.w3.org/2000/svg" width="938" height="738" viewBox="0 0 938 738">
  <defs>
  </defs>
  <g id="container-shells">
  </g>
  <g id="node-shadows">
    <rect x="400" y="395" width="120" height="60" rx="6" ry="6" fill="#000000" stroke="#000000" stroke-width="2" opacity="0.25" transform="translate(2,3)"/>
    <rect x="40" y="515" width="120" height="60" rx="6" ry="6" fill="#000000" stroke="#000000" stroke-width="2" opacity="0.25" transform="translate(2,3)"/>
    <rect x="220" y="515" width="120" height="60" rx="6" ry="6" fill="#000000" stroke="#000000" stroke-width="2" opacity="0.25" transform="translate(2,3)"/>
    <rect x="580" y="515" width="120" height="60" rx="6" ry="6" fill="#000000" stroke="#000000" stroke-width="2" opacity="0.25" transform="translate(2,3)"/>
    <rect x="760" y="395" width="120" height="60" rx="6" ry="6" fill="#000000" stroke="#000000" stroke-width="2" opacity="0.25" transform="translate(2,3)"/>
    <rect x="494" y="40" width="40" height="40" rx="4" ry="4" fill="#000000" stroke="#000000" stroke-width="2" opacity="0.25" transform="translate(2,3)"/>
    <rect x="494" y="658" width="40" height="40" rx="4" ry="4" fill="#000000" stroke="#000000" stroke-width="2" opacity="0.25" transform="translate(2,3)"/>
    <rect x="130" y="245" width="120" height="60" rx="6" ry="6" fill="#000000" stroke="#000000" stroke-width="2" opacity="0.25" transform="translate(2,3)"/>
    <rect x="400" y="245" width="120" height="60" rx="6" ry="6" fill="#000000" stroke="#000000" stroke-width="2" opacity="0.25" transform="translate(2,3)"/>
    <rect x="598" y="245" width="120" height="60" rx="6" ry="6" fill="#000000" stroke="#000000" stroke-width="2" opacity="0.25" transform="translate(2,3)"/>
    <rect x="40" y="395" width="120" height="60" rx="6" ry="6" fill="#000000" stroke="#000000" stroke-width="2" opacity="0.25" transform="translate(2,3)"/>
    <rect x="778" y="245" width="120" height="60" rx="6" ry="6" fill="#000000" stroke="#000000" stroke-width="2" opacity="0.25" transform="translate(2,3)"/>
    <rect x="580" y="395" width="120" height="60" rx="6" ry="6" fill="#000000" stroke="#000000" stroke-width="2" opacity="0.25" transform="translate(2,3)"/>
    <rect x="220" y="395" width="120" height="60" rx="6" ry="6" fill="#000000" stroke="#000000" stroke-width="2" opacity="0.25" transform="translate(2,3)"/>
    <rect x="454" y="120" width="120" height="60" rx="6" ry="6" fill="#000000" stroke="#000000" stroke-width="2" opacity="0.25" transform="translate(2,3)"/>
  </g>
  <g id="edges">
    <g class="edge" data-edge-idx="0" data-edge-base="leadsto" data-edge-from="1" data-edge-to="12">
    <line x1="463.69" y1="456.54" x2="594.08" y2="510.87" stroke="#ff8000" stroke-width="3" />
    <path d="M 600.31 513.46 L 590.27 514.15 L 594.08 510.87 L 593.73 505.85 Z" fill="#ff8000" stroke="#ff8000" stroke-width="3" stroke-miterlimit="10"/>
    <text x="528" y="483" text-anchor="middle" dominant-baseline="middle" font-family="Helvetica,Inter,Segoe UI,Arial" font-size="11" paint-order="stroke" stroke="#ffffff" stroke-width="3" stroke-linejoin="round" fill="#ff8000">
      <title>leads to</title>lead...
    </text>
    </g>
    <g class="edge" data-edge-idx="1" data-edge-base="leadsto" data-edge-from="10" data-edge-to="15">
    <line x1="103.92" y1="575.81" x2="491.47" y2="655.83" stroke="#ff8000" stroke-width="3" />
    <path d="M 498.08 657.19 L 488.36 659.78 L 491.47 655.83 L 490.18 650.96 Z" fill="#ff8000" stroke="#ff8000" stroke-width="3" stroke-miterlimit="10"/>
    </g>
    <g class="edge" data-edge-idx="2" data-edge-base="leadsto" data-edge-from="11" data-edge-to="15">
    <line x1="283.77" y1="576.34" x2="503.87" y2="654.41" stroke="#ff8000" stroke-width="3" />
    <path d="M 510.23 656.66 L 500.24 657.90 L 503.87 654.41 L 503.25 649.41 Z" fill="#ff8000" stroke="#ff8000" stroke-width="3" stroke-miterlimit="10"/>
    </g>
    <g class="edge" data-edge-idx="3" data-edge-base="leadsto" data-edge-from="12" data-edge-to="15">
    <line x1="636.77" y1="577.35" x2="534.69" y2="651.67" stroke="#ff8000" stroke-width="3" />
    <path d="M 529.23 655.65 L 533.86 646.71 L 534.69 651.67 L 539.16 653.99 Z" fill="#ff8000" stroke="#ff8000" stroke-width="3" stroke-miterlimit="10"/>
    </g>
    <g class="edge" data-edge-idx="4" data-edge-base="leadsto" data-edge-from="13" data-edge-to="12">
    <line x1="816.31" y1="456.54" x2="685.92" y2="510.87" stroke="#ff8000" stroke-width="3" />
    <path d="M 679.69 513.46 L 686.27 505.85 L 685.92 510.87 L 689.73 514.15 Z" fill="#ff8000" stroke="#ff8000" stroke-width="3" stroke-miterlimit="10"/>
    <text x="750" y="483" text-anchor="middle" dominant-baseline="middle" font-family="Helvetica,Inter,Segoe UI,Arial" font-size="11" paint-order="stroke" stroke="#ffffff" stroke-width="3" stroke-linejoin="round" fill="#ff8000">
      <title>leads to</title>lead...
    </text>
    </g>
    <g class="edge" data-edge-idx="5" data-edge-base="leadsto" data-edge-from="14" data-edge-to="9">
    <line x1="514.00" y1="84.00" x2="514.00" y2="109.25" stroke="#ff8000" stroke-width="3" />
    <path d="M 514.00 116.00 L 509.50 107.00 L 514.00 109.25 L 518.50 107.00 Z" fill="#ff8000" stroke="#ff8000" stroke-width="3" stroke-miterlimit="10"/>
    </g>
    <g class="edge" data-edge-idx="6" data-edge-base="leadsto" data-edge-from="2" data-edge-to="5">
    <line x1="151.94" y1="308.43" x2="105.53" y2="385.78" stroke="#ff8000" stroke-width="3" />
    <path d="M 102.06 391.57 L 102.83 381.54 L 105.53 385.78 L 110.55 386.17 Z" fill="#ff8000" stroke="#ff8000" stroke-width="3" stroke-miterlimit="10"/>
    <text x="128" y="346" text-anchor="middle" dominant-baseline="middle" font-family="Helvetica,Inter,Segoe UI,Arial" font-size="11" paint-order="stroke" stroke="#ffffff" stroke-width="3" stroke-linejoin="round" fill="#ff8000">
      <title>leads to</title>lead...
    </text>
    </g>
    <g class="edge" data-edge-idx="7" data-edge-base="leadsto" data-edge-from="2" data-edge-to="7">
    <line x1="229.90" y1="305.89" x2="611.52" y2="392.62" stroke="#ff8000" stroke-width="3" />
    <path d="M 618.10 394.11 L 608.33 396.51 L 611.52 392.62 L 610.32 387.73 Z" fill="#ff8000" stroke="#ff8000" stroke-width="3" stroke-miterlimit="10"/>
    <text x="420" y="348" text-anchor="middle" dominant-baseline="middle" font-family="Helvetica,Inter,Segoe UI,Arial" font-size="11" paint-order="stroke" stroke="#ffffff" stroke-width="3" stroke-linejoin="round" fill="#ff8000">
      <title>leads to</title>lead...
    </text>
    </g>
    <g class="edge" data-edge-idx="8" data-edge-base="leadsto" data-edge-from="2" data-edge-to="8">
    <line x1="192.83" y1="307.83" x2="272.40" y2="387.40" stroke="#ff8000" stroke-width="3" />
    <path d="M 277.17 392.17 L 267.63 388.99 L 272.40 387.40 L 273.99 382.63 Z" fill="#ff8000" stroke="#ff8000" stroke-width="3" stroke-miterlimit="10"/>
    <text x="232" y="347" text-anchor="middle" dominant-baseline="middle" font-family="Helvetica,Inter,Segoe UI,Arial" font-size="11" paint-order="stroke" stroke="#ffffff" stroke-width="3" stroke-linejoin="round" fill="#ff8000">
      <title>leads to</title>lead...
    </text>
    </g>
    <g class="edge" data-edge-idx="9" data-edge-base="leadsto" data-edge-from="3" data-edge-to="1">
    <line x1="442.78" y1="308.92" x2="457.89" y2="384.46" stroke="#ff8000" stroke-width="3" />
    <path d="M 459.22 391.08 L 453.04 383.13 L 457.89 384.46 L 461.86 381.37 Z" fill="#ff8000" stroke="#ff8000" stroke-width="3" stroke-miterlimit="10"/>
    <text x="449" y="346" text-anchor="middle" dominant-baseline="middle" font-family="Helvetica,Inter,Segoe UI,Arial" font-size="11" paint-order="stroke" stroke="#ffffff" stroke-width="3" stroke-linejoin="round" fill="#ff8000">
      <title>leads to</title>lead...
    </text>
    </g>
    <g class="edge" data-edge-idx="10" data-edge-base="leadsto" data-edge-from="3" data-edge-to="13">
    <line x1="481.84" y1="306.13" x2="773.69" y2="391.97" stroke="#ff8000" stroke-width="3" />
    <path d="M 780.16 393.87 L 770.26 395.65 L 773.69 391.97 L 772.80 387.01 Z" fill="#ff8000" stroke="#ff8000" stroke-width="3" stroke-miterlimit="10"/>
    <text x="627" y="348" text-anchor="middle" dominant-baseline="middle" font-family="Helvetica,Inter,Segoe UI,Arial" font-size="11" paint-order="stroke" stroke="#ffffff" stroke-width="3" stroke-linejoin="round" fill="#ff8000">
      <title>leads to</title>lead...
    </text>
    </g>
    <g class="edge" data-edge-idx="11" data-edge-base="leadsto" data-edge-from="4" data-edge-to="13">
    <line x1="661.50" y1="306.94" x2="810.60" y2="389.78" stroke="#ff8000" stroke-width="3" />
    <path d="M 816.50 393.06 L 806.45 392.62 L 810.60 389.78 L 810.82 384.75 Z" fill="#ff8000" stroke="#ff8000" stroke-width="3" stroke-miterlimit="10"/>
    <text x="735" y="347" text-anchor="middle" dominant-baseline="middle" font-family="Helvetica,Inter,Segoe UI,Arial" font-size="11" paint-order="stroke" stroke="#ffffff" stroke-width="3" stroke-linejoin="round" fill="#ff8000">
      <title>leads to</title>lead...
    </text>
    </g>
    <g class="edge" data-edge-idx="12" data-edge-base="leadsto" data-edge-from="5" data-edge-to="10">
    <line x1="100.00" y1="459.00" x2="100.00" y2="504.25" stroke="#ff8000" stroke-width="3" />
    <path d="M 100.00 511.00 L 95.50 502.00 L 100.00 504.25 L 104.50 502.00 Z" fill="#ff8000" stroke="#ff8000" stroke-width="3" stroke-miterlimit="10"/>
    <text x="100" y="481" text-anchor="middle" dominant-baseline="middle" font-family="Helvetica,Inter,Segoe UI,Arial" font-size="11" paint-order="stroke" stroke="#ffffff" stroke-width="3" stroke-linejoin="round" fill="#ff8000">
      <title>leads to</title>lead...
    </text>
    </g>
    <g class="edge" data-edge-idx="13" data-edge-base="leadsto" data-edge-from="6" data-edge-to="13">
    <line x1="856.00" y1="309.00" x2="856.00" y2="384.25" stroke="#ff8000" stroke-width="3" />
    <path d="M 856.00 391.00 L 851.50 382.00 L 856.00 384.25 L 860.50 382.00 Z" fill="#ff8000" stroke="#ff8000" stroke-width="3" stroke-miterlimit="10"/>
    <text x="856" y="346" text-anchor="middle" dominant-baseline="middle" font-family="Helvetica,Inter,Segoe UI,Arial" font-size="11" paint-order="stroke" stroke="#ffffff" stroke-width="3" stroke-linejoin="round" fill="#ff8000">
      <title>leads to</title>lead...
    </text>
    </g>
    <g class="edge" data-edge-idx="14" data-edge-base="leadsto" data-edge-from="6" data-edge-to="7">
    <line x1="816.50" y1="306.94" x2="667.40" y2="389.78" stroke="#ff8000" stroke-width="3" />
    <path d="M 661.50 393.06 L 667.18 384.75 L 667.40 389.78 L 671.55 392.62 Z" fill="#ff8000" stroke="#ff8000" stroke-width="3" stroke-miterlimit="10"/>
    <text x="741" y="347" text-anchor="middle" dominant-baseline="middle" font-family="Helvetica,Inter,Segoe UI,Arial" font-size="11" paint-order="stroke" stroke="#ffffff" stroke-width="3" stroke-linejoin="round" fill="#ff8000">
      <title>leads to</title>lead...
    </text>
    </g>
    <g class="edge" data-edge-idx="15" data-edge-base="leadsto" data-edge-from="7" data-edge-to="12">
    <line x1="640.00" y1="459.00" x2="640.00" y2="504.25" stroke="#ff8000" stroke-width="3" />
    <path d="M 640.00 511.00 L 635.50 502.00 L 640.00 504.25 L 644.50 502.00 Z" fill="#ff8000" stroke="#ff8000" stroke-width="3" stroke-miterlimit="10"/>
    <text x="640" y="481" text-anchor="middle" dominant-baseline="middle" font-family="Helvetica,Inter,Segoe UI,Arial" font-size="11" paint-order="stroke" stroke="#ffffff" stroke-width="3" stroke-linejoin="round" fill="#ff8000">
      <title>leads to</title>lead...
    </text>
    </g>
    <g class="edge" data-edge-idx="16" data-edge-base="leadsto" data-edge-from="8" data-edge-to="11">
    <line x1="280.00" y1="459.00" x2="280.00" y2="504.25" stroke="#ff8000" stroke-width="3" />
    <path d="M 280.00 511.00 L 275.50 502.00 L 280.00 504.25 L 284.50 502.00 Z" fill="#ff8000" stroke="#ff8000" stroke-width="3" stroke-miterlimit="10"/>
    <text x="280" y="481" text-anchor="middle" dominant-baseline="middle" font-family="Helvetica,Inter,Segoe UI,Arial" font-size="11" paint-order="stroke" stroke="#ffffff" stroke-width="3" stroke-linejoin="round" fill="#ff8000">
      <title>leads to</title>lead...
    </text>
    </g>
    <g class="edge" data-edge-idx="17" data-edge-base="leadsto" data-edge-from="9" data-edge-to="2">
    <line x1="474.10" y1="180.88" x2="200.49" y2="242.63" stroke="#ff8000" stroke-width="3" />
    <path d="M 193.90 244.12 L 201.69 237.75 L 200.49 242.63 L 203.67 246.53 Z" fill="#ff8000" stroke="#ff8000" stroke-width="3" stroke-miterlimit="10"/>
    <text x="337" y="211" text-anchor="middle" dominant-baseline="middle" font-family="Helvetica,Inter,Segoe UI,Arial" font-size="11" paint-order="stroke" stroke="#ffffff" stroke-width="3" stroke-linejoin="round" fill="#ff8000">
      <title>leads to</title>lead...
    </text>
    </g>
    <g class="edge" data-edge-idx="18" data-edge-base="leadsto" data-edge-from="9" data-edge-to="3">
    <line x1="499.83" y1="183.36" x2="465.83" y2="235.97" stroke="#ff8000" stroke-width="3" />
    <path d="M 462.17 241.64 L 463.28 231.64 L 465.83 235.97 L 470.83 236.52 Z" fill="#ff8000" stroke="#ff8000" stroke-width="3" stroke-miterlimit="10"/>
    <text x="482" y="209" text-anchor="middle" dominant-baseline="middle" font-family="Helvetica,Inter,Segoe UI,Arial" font-size="11" paint-order="stroke" stroke="#ffffff" stroke-width="3" stroke-linejoin="round" fill="#ff8000">
      <title>leads to</title>lead...
    </text>
    </g>
    <g class="edge" data-edge-idx="19" data-edge-base="leadsto" data-edge-from="9" data-edge-to="4">
    <line x1="529.59" y1="181.77" x2="648.36" y2="240.25" stroke="#ff8000" stroke-width="3" />
    <path d="M 654.41 243.23 L 644.35 243.29 L 648.36 240.25 L 648.33 235.22 Z" fill="#ff8000" stroke="#ff8000" stroke-width="3" stroke-miterlimit="10"/>
    <text x="588" y="210" text-anchor="middle" dominant-baseline="middle" font-family="Helvetica,Inter,Segoe UI,Arial" font-size="11" paint-order="stroke" stroke="#ffffff" stroke-width="3" stroke-linejoin="round" fill="#ff8000">
      <title>leads to</title>lead...
    </text>
    </g>
    <g class="edge" data-edge-idx="20" data-edge-base="leadsto" data-edge-from="9" data-edge-to="6">
    <line x1="553.90" y1="180.88" x2="827.51" y2="242.63" stroke="#ff8000" stroke-width="3" />
    <path d="M 834.10 244.12 L 824.33 246.53 L 827.51 242.63 L 826.31 237.75 Z" fill="#ff8000" stroke="#ff8000" stroke-width="3" stroke-miterlimit="10"/>
    <text x="690" y="211" text-anchor="middle" dominant-baseline="middle" font-family="Helvetica,Inter,Segoe UI,Arial" font-size="11" paint-order="stroke" stroke="#ffffff" stroke-width="3" stroke-linejoin="round" fill="#ff8000">
      <title>leads to</title>lead...
    </text>
    </g>
  </g>
  <g id="nodes">
    <rect x="400" y="395" width="120" height="60" rx="6" ry="6" fill="#ffe6cc" stroke="#ff8000" stroke-width="2"/>
    <text x="460" y="425" text-anchor="middle" dominant-baseline="middle" font-family="Helvetica,Inter,Segoe UI,Arial" font-size="16" font-weight="bold" fill="#ff8000">bike</text>
    <rect x="40" y="515" width="120" height="60" rx="6" ry="6" fill="#ffe6cc" stroke="#ff8000" stroke-width="2"/>
    <text x="100" y="545" text-anchor="middle" dominant-baseline="middle" font-family="Helvetica,Inter,Segoe UI,Arial" font-size="16" font-weight="bold" fill="#ff8000">target 1</text>
    <rect x="220" y="515" width="120" height="60" rx="6" ry="6" fill="#ffe6cc" stroke="#ff8000" stroke-width="2"/>
    <text x="280" y="545" text-anchor="middle" dominant-baseline="middle" font-family="Helvetica,Inter,Segoe UI,Arial" font-size="16" font-weight="bold" fill="#ff8000">target 2</text>
    <rect x="580" y="515" width="120" height="60" rx="6" ry="6" fill="#ffe6cc" stroke="#ff8000" stroke-width="2"/>
    <text x="640" y="545" text-anchor="middle" dominant-baseline="middle" font-family="Helvetica,Inter,Segoe UI,Arial" font-size="16" font-weight="bold" fill="#ff8000">target 3</text>
    <rect x="760" y="395" width="120" height="60" rx="6" ry="6" fill="#ffe6cc" stroke="#ff8000" stroke-width="2"/>
    <text x="820" y="425" text-anchor="middle" dominant-baseline="middle" font-family="Helvetica,Inter,Segoe UI,Arial" font-size="16" font-weight="bold" fill="#ff8000">tram</text>
    <rect x="494" y="40" width="40" height="40" rx="4" ry="4" fill="#ffe6cc" stroke="#ff8000" stroke-width="2"/>
    <text x="514" y="60" text-anchor="middle" dominant-baseline="middle" font-family="Helvetica,Inter,Segoe UI,Arial" font-size="16" font-weight="bold" fill="#ff8000">S</text>
    <rect x="494" y="658" width="40" height="40" rx="4" ry="4" fill="#ffe6cc" stroke="#ff8000" stroke-width="2"/>
    <text x="514" y="678" text-anchor="middle" dominant-baseline="middle" font-family="Helvetica,Inter,Segoe UI,Arial" font-size="16" font-weight="bold" fill="#ff8000">E</text>
    <rect x="130" y="245" width="120" height="60" rx="6" ry="6" fill="#ffe6cc" stroke="#ff8000" stroke-width="2"/>
    <text x="190" y="275" text-anchor="middle" dominant-baseline="middle" font-family="Helvetica,Inter,Segoe UI,Arial" font-size="16" font-weight="bold" fill="#ff8000">door</text>
    <rect x="400" y="245" width="120" height="60" rx="6" ry="6" fill="#ffe6cc" stroke="#ff8000" stroke-width="2"/>
    <text x="460" y="275" text-anchor="middle" dominant-baseline="middle" font-family="Helvetica,Inter,Segoe UI,Arial" font-size="16" font-weight="bold" fill="#ff8000">gate</text>
    <rect x="598" y="245" width="120" height="60" rx="6" ry="6" fill="#ffe6cc" stroke="#ff8000" stroke-width="2"/>
    <text x="658" y="275" text-anchor="middle" dominant-baseline="middle" font-family="Helvetica,Inter,Segoe UI,Arial" font-size="16" font-weight="bold" fill="#ff8000">hole</text>
    <rect x="40" y="395" width="120" height="60" rx="6" ry="6" fill="#ffe6cc" stroke="#ff8000" stroke-width="2"/>
    <text x="100" y="425" text-anchor="middle" dominant-baseline="middle" font-family="Helvetica,Inter,Segoe UI,Arial" font-size="16" font-weight="bold" fill="#ff8000">passage</text>
    <rect x="778" y="245" width="120" height="60" rx="6" ry="6" fill="#ffe6cc" stroke="#ff8000" stroke-width="2"/>
    <text x="838" y="275" text-anchor="middle" dominant-baseline="middle" font-family="Helvetica,Inter,Segoe UI,Arial" font-size="16" font-weight="bold" fill="#ff8000">port</text>
    <rect x="580" y="395" width="120" height="60" rx="6" ry="6" fill="#ffe6cc" stroke="#ff8000" stroke-width="2"/>
    <text x="640" y="425" text-anchor="middle" dominant-baseline="middle" font-family="Helvetica,Inter,Segoe UI,Arial" font-size="16" font-weight="bold" fill="#ff8000">river</text>
    <rect x="220" y="395" width="120" height="60" rx="6" ry="6" fill="#ffe6cc" stroke="#ff8000" stroke-width="2"/>
    <text x="280" y="425" text-anchor="middle" dominant-baseline="middle" font-family="Helvetica,Inter,Segoe UI,Arial" font-size="16" font-weight="bold" fill="#ff8000">road</text>
    <rect x="454" y="120" width="120" height="60" rx="6" ry="6" fill="#ffe6cc" stroke="#ff8000" stroke-width="2"/>
    <text x="514" y="150" text-anchor="middle" dominant-baseline="middle" font-family="Helvetica,Inter,Segoe UI,Arial" font-size="16" font-weight="bold" fill="#ff8000">start</text>
  </g>
</svg>
