<?xml version="1.0" encoding="UTF-8"?>
<svg xmlns="http://www.w3.org/2000/svg" width="4340" height="540" viewBox="0 0 4340 540">
  <defs>
  </defs>
  <g id="container-shells">
  </g>
  <g id="node-shadows">
    <rect x="3280" y="340" width="120" height="60" rx="6" ry="6" fill="#000000" stroke="#000000" stroke-width="2" opacity="0.25" transform="translate(2,3)"/>
    <rect x="400" y="140" width="120" height="60" rx="6" ry="6" fill="#000000" stroke="#000000" stroke-width="2" opacity="0.25" transform="translate(2,3)"/>
    <rect x="580" y="140" width="120" height="60" rx="6" ry="6" fill="#000000" stroke="#000000" stroke-width="2" opacity="0.25" transform="translate(2,3)"/>
    <rect x="3460" y="440" width="120" height="60" rx="6" ry="6" fill="#000000" stroke="#000000" stroke-width="2" opacity="0.25" transform="translate(2,3)"/>
    <rect x="3640" y="77" width="120" height="60" rx="6" ry="6" fill="#000000" stroke="#000000" stroke-width="2" opacity="0.25" transform="translate(2,3)"/>
    <rect x="760" y="140" width="120" height="60" rx="6" ry="6" fill="#000000" stroke="#000000" stroke-width="2" opacity="0.25" transform="translate(2,3)"/>
    <rect x="940" y="140" width="120" height="60" rx="6" ry="6" fill="#000000" stroke="#000000" stroke-width="2" opacity="0.25" transform="translate(2,3)"/>
    <rect x="3100" y="240" width="120" height="60" rx="6" ry="6" fill="#000000" stroke="#000000" stroke-width="2" opacity="0.25" transform="translate(2,3)"/>
    <rect x="3100" y="340" width="120" height="60" rx="6" ry="6" fill="#000000" stroke="#000000" stroke-width="2" opacity="0.25" transform="translate(2,3)"/>
    <rect x="2740" y="340" width="120" height="60" rx="6" ry="6" fill="#000000" stroke="#000000" stroke-width="2" opacity="0.25" transform="translate(2,3)"/>
    <rect x="2560" y="240" width="120" height="60" rx="6" ry="6" fill="#000000" stroke="#000000" stroke-width="2" opacity="0.25" transform="translate(2,3)"/>
    <rect x="2380" y="240" width="120" height="60" rx="6" ry="6" fill="#000000" stroke="#000000" stroke-width="2" opacity="0.25" transform="translate(2,3)"/>
    <rect x="1120" y="140" width="120" height="60" rx="6" ry="6" fill="#000000" stroke="#000000" stroke-width="2" opacity="0.25" transform="translate(2,3)"/>
    <rect x="2740" y="240" width="120" height="60" rx="6" ry="6" fill="#000000" stroke="#000000" stroke-width="2" opacity="0.25" transform="translate(2,3)"/>
    <rect x="1300" y="140" width="120" height="60" rx="6" ry="6" fill="#000000" stroke="#000000" stroke-width="2" opacity="0.25" transform="translate(2,3)"/>
    <rect x="1480" y="140" width="120" height="60" rx="6" ry="6" fill="#000000" stroke="#000000" stroke-width="2" opacity="0.25" transform="translate(2,3)"/>
    <rect x="40" y="40" width="120" height="60" rx="6" ry="6" fill="#000000" stroke="#000000" stroke-width="2" opacity="0.25" transform="translate(2,3)"/>
    <rect x="3820" y="190" width="120" height="60" rx="6" ry="6" fill="#000000" stroke="#000000" stroke-width="2" opacity="0.25" transform="translate(2,3)"/>
    <rect x="2380" y="140" width="120" height="60" rx="6" ry="6" fill="#000000" stroke="#000000" stroke-width="2" opacity="0.25" transform="translate(2,3)"/>
    <rect x="4000" y="240" width="120" height="60" rx="6" ry="6" fill="#000000" stroke="#000000" stroke-width="2" opacity="0.25" transform="translate(2,3)"/>
    <rect x="2920" y="240" width="120" height="60" rx="6" ry="6" fill="#000000" stroke="#000000" stroke-width="2" opacity="0.25" transform="translate(2,3)"/>
    <rect x="940" y="40" width="120" height="60" rx="6" ry="6" fill="#000000" stroke="#000000" stroke-width="2" opacity="0.25" transform="translate(2,3)"/>
    <rect x="40" y="140" width="120" height="60" rx="6" ry="6" fill="#000000" stroke="#000000" stroke-width="2" opacity="0.25" transform="translate(2,3)"/>
    <rect x="1120" y="40" width="120" height="60" rx="6" ry="6" fill="#000000" stroke="#000000" stroke-width="2" opacity="0.25" transform="translate(2,3)"/>
    <rect x="1300" y="40" width="120" height="60" rx="6" ry="6" fill="#000000" stroke="#000000" stroke-width="2" opacity="0.25" transform="translate(2,3)"/>
    <rect x="1660" y="140" width="120" height="60" rx="6" ry="6" fill="#000000" stroke="#000000" stroke-width="2" opacity="0.25" transform="translate(2,3)"/>
    <rect x="1840" y="140" width="120" height="60" rx="6" ry="6" fill="#000000" stroke="#000000" stroke-width="2" opacity="0.25" transform="translate(2,3)"/>
    <rect x="4180" y="440" width="120" height="60" rx="6" ry="6" fill="#000000" stroke="#000000" stroke-width="2" opacity="0.25" transform="translate(2,3)"/>
    <rect x="2020" y="140" width="120" height="60" rx="6" ry="6" fill="#000000" stroke="#000000" stroke-width="2" opacity="0.25" transform="translate(2,3)"/>
    <rect x="2200" y="140" width="120" height="60" rx="6" ry="6" fill="#000000" stroke="#000000" stroke-width="2" opacity="0.25" transform="translate(2,3)"/>
    <rect x="3280" y="440" width="120" height="60" rx="6" ry="6" fill="#000000" stroke="#000000" stroke-width="2" opacity="0.25" transform="translate(2,3)"/>
    <rect x="220" y="140" width="120" height="60" rx="6" ry="6" fill="#000000" stroke="#000000" stroke-width="2" opacity="0.25" transform="translate(2,3)"/>
    <rect x="220" y="40" width="120" height="60" rx="6" ry="6" fill="#000000" stroke="#000000" stroke-width="2" opacity="0.25" transform="translate(2,3)"/>
    <rect x="400" y="40" width="120" height="60" rx="6" ry="6" fill="#000000" stroke="#000000" stroke-width="2" opacity="0.25" transform="translate(2,3)"/>
    <rect x="580" y="40" width="120" height="60" rx="6" ry="6" fill="#000000" stroke="#000000" stroke-width="2" opacity="0.25" transform="translate(2,3)"/>
    <rect x="760" y="40" width="120" height="60" rx="6" ry="6" fill="#000000" stroke="#000000" stroke-width="2" opacity="0.25" transform="translate(2,3)"/>
  </g>
  <g id="edges">
    <g class="edge" data-edge-idx="0" data-edge-base="expresses" data-edge-from="1" data-edge-to="12">
    <line x1="3402.19" y1="381.35" x2="3454.13" y2="461.00" stroke="#6c8ebf" stroke-width="3" stroke-dasharray="9 6" />
    <path d="M 3457.81 466.65 L 3449.13 461.57 L 3454.13 461.00 L 3456.67 456.65 Z" fill="#6c8ebf" stroke="#6c8ebf" stroke-width="3" stroke-miterlimit="10"/>
    <text x="3428" y="420" text-anchor="middle" dominant-baseline="middle" font-family="Helvetica,Inter,Segoe UI,Arial" font-size="11" paint-order="stroke" stroke="#ffffff" stroke-width="3" stroke-linejoin="round" fill="#6c8ebf">
      <title>has friend</title>has...
    </text>
    </g>
    <g class="edge" data-edge-idx="1" data-edge-base="expresses" data-edge-from="1" data-edge-to="13">
    <line x1="3402.91" y1="349.25" x2="3632.19" y2="132.39" stroke="#6c8ebf" stroke-width="3" stroke-dasharray="9 6" />
    <path d="M 3637.09 127.75 L 3633.65 137.20 L 3632.19 132.39 L 3627.46 130.66 Z" fill="#6c8ebf" stroke="#6c8ebf" stroke-width="3" stroke-miterlimit="10"/>
    <text x="3517" y="240" text-anchor="middle" dominant-baseline="middle" font-family="Helvetica,Inter,Segoe UI,Arial" font-size="11" paint-order="stroke" stroke="#ffffff" stroke-width="3" stroke-linejoin="round" fill="#6c8ebf">
      <title>has friend</title>has...
    </text>
    </g>
    <g class="edge" data-edge-idx="2" data-edge-base="expresses" data-edge-from="1" data-edge-to="25">
    <line x1="3403.82" y1="359.80" x2="3809.74" y2="232.22" stroke="#6c8ebf" stroke-width="3" stroke-dasharray="9 6" />
    <path d="M 3816.18 230.20 L 3808.95 237.19 L 3809.74 232.22 L 3806.25 228.60 Z" fill="#6c8ebf" stroke="#6c8ebf" stroke-width="3" stroke-miterlimit="10"/>
    <text x="3606" y="295" text-anchor="middle" dominant-baseline="middle" font-family="Helvetica,Inter,Segoe UI,Arial" font-size="11" paint-order="stroke" stroke="#ffffff" stroke-width="3" stroke-linejoin="round" fill="#6c8ebf">
      <title>has friend</title>has...
    </text>
    </g>
    <g class="edge" data-edge-idx="3" data-edge-base="expresses" data-edge-from="1" data-edge-to="27">
    <line x1="3403.95" y1="369.40" x2="3989.37" y2="280.61" stroke="#6c8ebf" stroke-width="3" stroke-dasharray="9 6" />
    <path d="M 3996.05 279.60 L 3987.82 285.40 L 3989.37 280.61 L 3986.47 276.50 Z" fill="#6c8ebf" stroke="#6c8ebf" stroke-width="3" stroke-miterlimit="10"/>
    <text x="3696" y="324" text-anchor="middle" dominant-baseline="middle" font-family="Helvetica,Inter,Segoe UI,Arial" font-size="11" paint-order="stroke" stroke="#ffffff" stroke-width="3" stroke-linejoin="round" fill="#6c8ebf">
      <title>has friend</title>has...
    </text>
    </g>
    <g class="edge" data-edge-idx="4" data-edge-base="expresses" data-edge-from="1" data-edge-to="34">
    <line x1="3403.98" y1="388.42" x2="4169.31" y2="468.88" stroke="#6c8ebf" stroke-width="3" stroke-dasharray="9 6" />
    <path d="M 4176.02 469.58 L 4166.60 473.12 L 4169.31 468.88 L 4167.54 464.17 Z" fill="#6c8ebf" stroke="#6c8ebf" stroke-width="3" stroke-miterlimit="10"/>
    <text x="3786" y="428" text-anchor="middle" dominant-baseline="middle" font-family="Helvetica,Inter,Segoe UI,Arial" font-size="11" paint-order="stroke" stroke="#ffffff" stroke-width="3" stroke-linejoin="round" fill="#6c8ebf">
      <title>has friend</title>has...
    </text>
    </g>
    <g class="edge" data-edge-idx="5" data-edge-base="expresses" data-edge-from="1" data-edge-to="4">
    <line x1="3340.00" y1="404.00" x2="3340.00" y2="429.25" stroke="#6c8ebf" stroke-width="3" stroke-dasharray="9 6" />
    <path d="M 3340.00 436.00 L 3335.50 427.00 L 3340.00 429.25 L 3344.50 427.00 Z" fill="#6c8ebf" stroke="#6c8ebf" stroke-width="3" stroke-miterlimit="10"/>
    <text x="3340" y="416" text-anchor="middle" dominant-baseline="middle" font-family="Helvetica,Inter,Segoe UI,Arial" font-size="11" paint-order="stroke" stroke="#ffffff" stroke-width="3" stroke-linejoin="round" fill="#6c8ebf">
      <title>has friend</title>has...
    </text>
    </g>
    <g class="edge" data-edge-idx="6" data-edge-base="expresses" data-edge-from="16" data-edge-to="1">
    <line x1="3181.88" y1="300.96" x2="3329.56" y2="337.42" stroke="#6c8ebf" stroke-width="3" stroke-dasharray="9 6" />
    <path d="M 3336.12 339.04 L 3326.30 341.25 L 3329.56 337.42 L 3328.46 332.51 Z" fill="#6c8ebf" stroke="#6c8ebf" stroke-width="3" stroke-miterlimit="10"/>
    <text x="3255" y="318" text-anchor="middle" dominant-baseline="middle" font-family="Helvetica,Inter,Segoe UI,Arial" font-size="11" paint-order="stroke" stroke="#ffffff" stroke-width="3" stroke-linejoin="round" fill="#6c8ebf">
      <title>has friend</title>has...
    </text>
    </g>
    <g class="edge" data-edge-idx="7" data-edge-base="expresses" data-edge-from="16" data-edge-to="17">
    <line x1="3143.64" y1="303.65" x2="3155.59" y2="330.20" stroke="#6c8ebf" stroke-width="3" stroke-dasharray="9 6" />
    <path d="M 3158.36 336.35 L 3150.56 329.99 L 3155.59 330.20 L 3158.77 326.30 Z" fill="#6c8ebf" stroke="#6c8ebf" stroke-width="3" stroke-miterlimit="10"/>
    <text x="3149" y="316" text-anchor="middle" dominant-baseline="middle" font-family="Helvetica,Inter,Segoe UI,Arial" font-size="11" paint-order="stroke" stroke="#ffffff" stroke-width="3" stroke-linejoin="round" fill="#6c8ebf">
      <title>has friend</title>has...
    </text>
    </g>
    <g class="edge" data-edge-idx="8" data-edge-base="expresses" data-edge-from="16" data-edge-to="18">
    <line x1="3096.26" y1="280.42" x2="2870.05" y2="366.19" stroke="#6c8ebf" stroke-width="3" stroke-dasharray="9 6" />
    <path d="M 2863.74 368.58 L 2870.56 361.18 L 2870.05 366.19 L 2873.75 369.60 Z" fill="#6c8ebf" stroke="#6c8ebf" stroke-width="3" stroke-miterlimit="10"/>
    <text x="2983" y="323" text-anchor="middle" dominant-baseline="middle" font-family="Helvetica,Inter,Segoe UI,Arial" font-size="11" paint-order="stroke" stroke="#ffffff" stroke-width="3" stroke-linejoin="round" fill="#6c8ebf">
      <title>has friend</title>has...
    </text>
    </g>
    <g class="edge" data-edge-idx="9" data-edge-base="expresses" data-edge-from="24" data-edge-to="10">
    <polyline points="163.59,53.76 200,120 360,120 392.34,162.85" fill="none" stroke="#6c8ebf" stroke-width="3" stroke-dasharray="9 6" />
    <path d="M 396.41 168.24 L 387.40 163.76 L 392.34 162.85 L 394.58 158.34 Z" fill="#6c8ebf" stroke="#6c8ebf" stroke-width="3" stroke-miterlimit="10"/>
    <text x="181" y="86" text-anchor="middle" dominant-baseline="middle" font-family="Helvetica,Inter,Segoe UI,Arial" font-size="11" paint-order="stroke" stroke="#ffffff" stroke-width="3" stroke-linejoin="round" fill="#6c8ebf">
      <title>has friend</title>has...
    </text>
    </g>
    <g class="edge" data-edge-idx="10" data-edge-base="expresses" data-edge-from="24" data-edge-to="11">
    <line x1="163.90" y1="74.89" x2="569.52" y2="167.60" stroke="#6c8ebf" stroke-width="3" stroke-dasharray="9 6" />
    <path d="M 576.10 169.11 L 566.32 171.49 L 569.52 167.60 L 568.33 162.72 Z" fill="#6c8ebf" stroke="#6c8ebf" stroke-width="3" stroke-miterlimit="10"/>
    <text x="366" y="120" text-anchor="middle" dominant-baseline="middle" font-family="Helvetica,Inter,Segoe UI,Arial" font-size="11" paint-order="stroke" stroke="#ffffff" stroke-width="3" stroke-linejoin="round" fill="#6c8ebf">
      <title>has friend</title>has...
    </text>
    </g>
    <g class="edge" data-edge-idx="11" data-edge-base="expresses" data-edge-from="24" data-edge-to="14">
    <line x1="163.95" y1="76.62" x2="749.38" y2="168.34" stroke="#6c8ebf" stroke-width="3" stroke-dasharray="9 6" />
    <path d="M 756.05 169.38 L 746.46 172.43 L 749.38 168.34 L 747.85 163.54 Z" fill="#6c8ebf" stroke="#6c8ebf" stroke-width="3" stroke-miterlimit="10"/>
    <text x="456" y="122" text-anchor="middle" dominant-baseline="middle" font-family="Helvetica,Inter,Segoe UI,Arial" font-size="11" paint-order="stroke" stroke="#ffffff" stroke-width="3" stroke-linejoin="round" fill="#6c8ebf">
      <title>has friend</title>has...
    </text>
    </g>
    <g class="edge" data-edge-idx="12" data-edge-base="expresses" data-edge-from="24" data-edge-to="15">
    <line x1="163.97" y1="79.46" x2="929.32" y2="168.75" stroke="#6c8ebf" stroke-width="3" stroke-dasharray="9 6" />
    <path d="M 936.03 169.54 L 926.57 172.96 L 929.32 168.75 L 927.61 164.02 Z" fill="#6c8ebf" stroke="#6c8ebf" stroke-width="3" stroke-miterlimit="10"/>
    <text x="546" y="123" text-anchor="middle" dominant-baseline="middle" font-family="Helvetica,Inter,Segoe UI,Arial" font-size="11" paint-order="stroke" stroke="#ffffff" stroke-width="3" stroke-linejoin="round" fill="#6c8ebf">
      <title>has friend</title>has...
    </text>
    </g>
    <g class="edge" data-edge-idx="13" data-edge-base="expresses" data-edge-from="24" data-edge-to="20">
    <line x1="163.98" y1="82.37" x2="1109.29" y2="169.02" stroke="#6c8ebf" stroke-width="3" stroke-dasharray="9 6" />
    <path d="M 1116.02 169.63 L 1106.64 173.29 L 1109.29 169.02 L 1107.47 164.33 Z" fill="#6c8ebf" stroke="#6c8ebf" stroke-width="3" stroke-miterlimit="10"/>
    <text x="636" y="125" text-anchor="middle" dominant-baseline="middle" font-family="Helvetica,Inter,Segoe UI,Arial" font-size="11" paint-order="stroke" stroke="#ffffff" stroke-width="3" stroke-linejoin="round" fill="#6c8ebf">
      <title>has friend</title>has...
    </text>
    </g>
    <g class="edge" data-edge-idx="14" data-edge-base="expresses" data-edge-from="24" data-edge-to="22">
    <line x1="163.99" y1="65.30" x2="1289.28" y2="151.18" stroke="#6c8ebf" stroke-width="3" stroke-dasharray="9 6" />
    <path d="M 1296.01 151.70 L 1286.70 155.50 L 1289.28 151.18 L 1287.38 146.52 Z" fill="#6c8ebf" stroke="#6c8ebf" stroke-width="3" stroke-miterlimit="10"/>
    <text x="726" y="108" text-anchor="middle" dominant-baseline="middle" font-family="Helvetica,Inter,Segoe UI,Arial" font-size="11" paint-order="stroke" stroke="#ffffff" stroke-width="3" stroke-linejoin="round" fill="#6c8ebf">
      <title>has friend</title>has...
    </text>
    </g>
    <g class="edge" data-edge-idx="15" data-edge-base="expresses" data-edge-from="24" data-edge-to="23">
    <line x1="163.99" y1="54.29" x2="1469.28" y2="148.23" stroke="#6c8ebf" stroke-width="3" stroke-dasharray="9 6" />
    <path d="M 1476.01 148.71 L 1466.71 152.56 L 1469.28 148.23 L 1467.36 143.58 Z" fill="#6c8ebf" stroke="#6c8ebf" stroke-width="3" stroke-miterlimit="10"/>
    <text x="816" y="101" text-anchor="middle" dominant-baseline="middle" font-family="Helvetica,Inter,Segoe UI,Arial" font-size="11" paint-order="stroke" stroke="#ffffff" stroke-width="3" stroke-linejoin="round" fill="#6c8ebf">
      <title>has friend</title>has...
    </text>
    </g>
    <g class="edge" data-edge-idx="16" data-edge-base="expresses" data-edge-from="24" data-edge-to="25">
    <line x1="164.00" y1="88.13" x2="3809.26" y2="210.64" stroke="#6c8ebf" stroke-width="3" stroke-dasharray="9 6" />
    <path d="M 3816.00 210.87 L 3806.86 215.06 L 3809.26 210.64 L 3807.16 206.07 Z" fill="#6c8ebf" stroke="#6c8ebf" stroke-width="3" stroke-miterlimit="10"/>
    <text x="1986" y="149" text-anchor="middle" dominant-baseline="middle" font-family="Helvetica,Inter,Segoe UI,Arial" font-size="11" paint-order="stroke" stroke="#ffffff" stroke-width="3" stroke-linejoin="round" fill="#6c8ebf">
      <title>has friend</title>has...
    </text>
    </g>
    <g class="edge" data-edge-idx="17" data-edge-base="expresses" data-edge-from="24" data-edge-to="26">
    <line x1="164.00" y1="71.15" x2="2369.26" y2="154.59" stroke="#6c8ebf" stroke-width="3" stroke-dasharray="9 6" />
    <path d="M 2376.00 154.85 L 2366.84 159.01 L 2369.26 154.59 L 2367.18 150.01 Z" fill="#6c8ebf" stroke="#6c8ebf" stroke-width="3" stroke-miterlimit="10"/>
    <text x="1266" y="112" text-anchor="middle" dominant-baseline="middle" font-family="Helvetica,Inter,Segoe UI,Arial" font-size="11" paint-order="stroke" stroke="#ffffff" stroke-width="3" stroke-linejoin="round" fill="#6c8ebf">
      <title>has friend</title>has...
    </text>
    </g>
    <g class="edge" data-edge-idx="18" data-edge-base="expresses" data-edge-from="24" data-edge-to="3">
    <line x1="100.00" y1="104.00" x2="100.00" y2="129.25" stroke="#6c8ebf" stroke-width="3" stroke-dasharray="9 6" />
    <path d="M 100.00 136.00 L 95.50 127.00 L 100.00 129.25 L 104.50 127.00 Z" fill="#6c8ebf" stroke="#6c8ebf" stroke-width="3" stroke-miterlimit="10"/>
    <text x="100" y="116" text-anchor="middle" dominant-baseline="middle" font-family="Helvetica,Inter,Segoe UI,Arial" font-size="11" paint-order="stroke" stroke="#ffffff" stroke-width="3" stroke-linejoin="round" fill="#6c8ebf">
      <title>has friend</title>has...
    </text>
    </g>
    <g class="edge" data-edge-idx="19" data-edge-base="expresses" data-edge-from="24" data-edge-to="32">
    <line x1="163.99" y1="60.24" x2="1649.27" y2="149.36" stroke="#6c8ebf" stroke-width="3" stroke-dasharray="9 6" />
    <path d="M 1656.01 149.76 L 1646.75 153.71 L 1649.27 149.36 L 1647.29 144.73 Z" fill="#6c8ebf" stroke="#6c8ebf" stroke-width="3" stroke-miterlimit="10"/>
    <text x="906" y="104" text-anchor="middle" dominant-baseline="middle" font-family="Helvetica,Inter,Segoe UI,Arial" font-size="11" paint-order="stroke" stroke="#ffffff" stroke-width="3" stroke-linejoin="round" fill="#6c8ebf">
      <title>has friend</title>has...
    </text>
    </g>
    <g class="edge" data-edge-idx="20" data-edge-base="expresses" data-edge-from="24" data-edge-to="33">
    <line x1="163.99" y1="63.21" x2="1829.26" y2="150.44" stroke="#6c8ebf" stroke-width="3" stroke-dasharray="9 6" />
    <path d="M 1836.01 150.79 L 1826.78 154.81 L 1829.26 150.44 L 1827.25 145.83 Z" fill="#6c8ebf" stroke="#6c8ebf" stroke-width="3" stroke-miterlimit="10"/>
    <text x="996" y="106" text-anchor="middle" dominant-baseline="middle" font-family="Helvetica,Inter,Segoe UI,Arial" font-size="11" paint-order="stroke" stroke="#ffffff" stroke-width="3" stroke-linejoin="round" fill="#6c8ebf">
      <title>has friend</title>has...
    </text>
    </g>
    <g class="edge" data-edge-idx="21" data-edge-base="expresses" data-edge-from="24" data-edge-to="35">
    <line x1="164.00" y1="57.20" x2="2009.26" y2="148.47" stroke="#6c8ebf" stroke-width="3" stroke-dasharray="9 6" />
    <path d="M 2016.00 148.80 L 2006.79 152.85 L 2009.26 148.47 L 2007.24 143.86 Z" fill="#6c8ebf" stroke="#6c8ebf" stroke-width="3" stroke-miterlimit="10"/>
    <text x="1086" y="102" text-anchor="middle" dominant-baseline="middle" font-family="Helvetica,Inter,Segoe UI,Arial" font-size="11" paint-order="stroke" stroke="#ffffff" stroke-width="3" stroke-linejoin="round" fill="#6c8ebf">
      <title>has friend</title>has...
    </text>
    </g>
    <g class="edge" data-edge-idx="22" data-edge-base="expresses" data-edge-from="24" data-edge-to="36">
    <line x1="164.00" y1="68.16" x2="2189.26" y2="151.56" stroke="#6c8ebf" stroke-width="3" stroke-dasharray="9 6" />
    <path d="M 2196.00 151.84 L 2186.83 155.96 L 2189.26 151.56 L 2187.20 146.97 Z" fill="#6c8ebf" stroke="#6c8ebf" stroke-width="3" stroke-miterlimit="10"/>
    <text x="1176" y="109" text-anchor="middle" dominant-baseline="middle" font-family="Helvetica,Inter,Segoe UI,Arial" font-size="11" paint-order="stroke" stroke="#ffffff" stroke-width="3" stroke-linejoin="round" fill="#6c8ebf">
      <title>has friend</title>has...
    </text>
    </g>
    <g class="edge" data-edge-idx="23" data-edge-base="expresses" data-edge-from="24" data-edge-to="5">
    <line x1="162.31" y1="88.27" x2="213.80" y2="161.22" stroke="#6c8ebf" stroke-width="3" stroke-dasharray="9 6" />
    <path d="M 217.69 166.73 L 208.83 161.97 L 213.80 161.22 L 216.18 156.78 Z" fill="#6c8ebf" stroke="#6c8ebf" stroke-width="3" stroke-miterlimit="10"/>
    <text x="187" y="124" text-anchor="middle" dominant-baseline="middle" font-family="Helvetica,Inter,Segoe UI,Arial" font-size="11" paint-order="stroke" stroke="#ffffff" stroke-width="3" stroke-linejoin="round" fill="#6c8ebf">
      <title>has friend</title>has...
    </text>
    </g>
    <g class="edge" data-edge-idx="24" data-edge-base="expresses" data-edge-from="26" data-edge-to="16">
    <line x1="2503.94" y1="152.71" x2="3089.42" y2="259.08" stroke="#6c8ebf" stroke-width="3" stroke-dasharray="9 6" />
    <path d="M 3096.06 260.29 L 3086.41 263.10 L 3089.42 259.08 L 3088.01 254.25 Z" fill="#6c8ebf" stroke="#6c8ebf" stroke-width="3" stroke-miterlimit="10"/>
    <text x="2796" y="205" text-anchor="middle" dominant-baseline="middle" font-family="Helvetica,Inter,Segoe UI,Arial" font-size="11" paint-order="stroke" stroke="#ffffff" stroke-width="3" stroke-linejoin="round" fill="#6c8ebf">
      <title>has friend</title>has...
    </text>
    </g>
    <g class="edge" data-edge-idx="25" data-edge-base="expresses" data-edge-from="26" data-edge-to="18">
    <line x1="2503.19" y1="190.42" x2="2731.43" y2="363.50" stroke="#6c8ebf" stroke-width="3" stroke-dasharray="9 6" />
    <path d="M 2736.81 367.58 L 2726.92 365.73 L 2731.43 363.50 L 2732.36 358.56 Z" fill="#6c8ebf" stroke="#6c8ebf" stroke-width="3" stroke-miterlimit="10"/>
    <text x="2617" y="276" text-anchor="middle" dominant-baseline="middle" font-family="Helvetica,Inter,Segoe UI,Arial" font-size="11" paint-order="stroke" stroke="#ffffff" stroke-width="3" stroke-linejoin="round" fill="#6c8ebf">
      <title>has friend</title>has...
    </text>
    </g>
    <g class="edge" data-edge-idx="26" data-edge-base="expresses" data-edge-from="26" data-edge-to="19">
    <line x1="2502.00" y1="169.46" x2="2554.63" y2="260.69" stroke="#6c8ebf" stroke-width="3" stroke-dasharray="9 6" />
    <path d="M 2558.00 266.54 L 2549.61 260.99 L 2554.63 260.69 L 2557.40 256.49 Z" fill="#6c8ebf" stroke="#6c8ebf" stroke-width="3" stroke-miterlimit="10"/>
    <text x="2527" y="214" text-anchor="middle" dominant-baseline="middle" font-family="Helvetica,Inter,Segoe UI,Arial" font-size="11" paint-order="stroke" stroke="#ffffff" stroke-width="3" stroke-linejoin="round" fill="#6c8ebf">
      <title>has friend</title>has...
    </text>
    </g>
    <g class="edge" data-edge-idx="27" data-edge-base="expresses" data-edge-from="26" data-edge-to="2">
    <line x1="2440.00" y1="204.00" x2="2440.00" y2="229.25" stroke="#6c8ebf" stroke-width="3" stroke-dasharray="9 6" />
    <path d="M 2440.00 236.00 L 2435.50 227.00 L 2440.00 229.25 L 2444.50 227.00 Z" fill="#6c8ebf" stroke="#6c8ebf" stroke-width="3" stroke-miterlimit="10"/>
    <text x="2440" y="216" text-anchor="middle" dominant-baseline="middle" font-family="Helvetica,Inter,Segoe UI,Arial" font-size="11" paint-order="stroke" stroke="#ffffff" stroke-width="3" stroke-linejoin="round" fill="#6c8ebf">
      <title>has friend</title>has...
    </text>
    </g>
    <g class="edge" data-edge-idx="28" data-edge-base="expresses" data-edge-from="26" data-edge-to="21">
    <polyline points="2503.75,181.40 2530,330 2710,330 2733.60,274.80" fill="none" stroke="#6c8ebf" stroke-width="3" stroke-dasharray="9 6" />
    <path d="M 2736.25 268.60 L 2736.85 278.64 L 2733.60 274.80 L 2728.58 275.10 Z" fill="#6c8ebf" stroke="#6c8ebf" stroke-width="3" stroke-miterlimit="10"/>
    <text x="2516" y="255" text-anchor="middle" dominant-baseline="middle" font-family="Helvetica,Inter,Segoe UI,Arial" font-size="11" paint-order="stroke" stroke="#ffffff" stroke-width="3" stroke-linejoin="round" fill="#6c8ebf">
      <title>has friend</title>has...
    </text>
    </g>
    <g class="edge" data-edge-idx="29" data-edge-base="expresses" data-edge-from="26" data-edge-to="27">
    <line x1="2503.99" y1="159.27" x2="3989.27" y2="260.27" stroke="#6c8ebf" stroke-width="3" stroke-dasharray="9 6" />
    <path d="M 3996.01 260.73 L 3986.72 264.61 L 3989.27 260.27 L 3987.34 255.63 Z" fill="#6c8ebf" stroke="#6c8ebf" stroke-width="3" stroke-miterlimit="10"/>
    <text x="3246" y="209" text-anchor="middle" dominant-baseline="middle" font-family="Helvetica,Inter,Segoe UI,Arial" font-size="11" paint-order="stroke" stroke="#ffffff" stroke-width="3" stroke-linejoin="round" fill="#6c8ebf">
      <title>has friend</title>has...
    </text>
    </g>
    <g class="edge" data-edge-idx="30" data-edge-base="expresses" data-edge-from="26" data-edge-to="28">
    <line x1="2503.90" y1="173.90" x2="2909.53" y2="267.58" stroke="#6c8ebf" stroke-width="3" stroke-dasharray="9 6" />
    <path d="M 2916.10 269.10 L 2906.32 271.46 L 2909.53 267.58 L 2908.35 262.69 Z" fill="#6c8ebf" stroke="#6c8ebf" stroke-width="3" stroke-miterlimit="10"/>
    <text x="2706" y="220" text-anchor="middle" dominant-baseline="middle" font-family="Helvetica,Inter,Segoe UI,Arial" font-size="11" paint-order="stroke" stroke="#ffffff" stroke-width="3" stroke-linejoin="round" fill="#6c8ebf">
      <title>has friend</title>has...
    </text>
    </g>
    <g class="edge" data-edge-idx="31" data-edge-base="expresses" data-edge-from="29" data-edge-to="13">
    <line x1="1004.00" y1="99.99" x2="3629.25" y2="93.03" stroke="#6c8ebf" stroke-width="3" stroke-dasharray="9 6" />
    <path d="M 3636.00 93.01 L 3627.01 97.53 L 3629.25 93.03 L 3626.99 88.53 Z" fill="#6c8ebf" stroke="#6c8ebf" stroke-width="3" stroke-miterlimit="10"/>
    <text x="2316" y="96" text-anchor="middle" dominant-baseline="middle" font-family="Helvetica,Inter,Segoe UI,Arial" font-size="11" paint-order="stroke" stroke="#ffffff" stroke-width="3" stroke-linejoin="round" fill="#6c8ebf">
      <title>has an employer</title>has...
    </text>
    </g>
    <g class="edge" data-edge-idx="32" data-edge-base="expresses" data-edge-from="30" data-edge-to="13">
    <line x1="1184.00" y1="100.00" x2="3629.25" y2="98.01" stroke="#6c8ebf" stroke-width="3" stroke-dasharray="9 6" />
    <path d="M 3636.00 98.00 L 3627.00 102.51 L 3629.25 98.01 L 3627.00 93.51 Z" fill="#6c8ebf" stroke="#6c8ebf" stroke-width="3" stroke-miterlimit="10"/>
    <text x="2406" y="98" text-anchor="middle" dominant-baseline="middle" font-family="Helvetica,Inter,Segoe UI,Arial" font-size="11" paint-order="stroke" stroke="#ffffff" stroke-width="3" stroke-linejoin="round" fill="#6c8ebf">
      <title>has an employer</title>has...
    </text>
    </g>
    <g class="edge" data-edge-idx="33" data-edge-base="expresses" data-edge-from="31" data-edge-to="13">
    <line x1="1424.00" y1="88.00" x2="3629.25" y2="88.00" stroke="#6c8ebf" stroke-width="3" stroke-dasharray="9 6" />
    <path d="M 3636.00 88.00 L 3627.00 92.50 L 3629.25 88.00 L 3627.00 83.50 Z" fill="#6c8ebf" stroke="#6c8ebf" stroke-width="3" stroke-miterlimit="10"/>
    <text x="2526" y="88" text-anchor="middle" dominant-baseline="middle" font-family="Helvetica,Inter,Segoe UI,Arial" font-size="11" paint-order="stroke" stroke="#ffffff" stroke-width="3" stroke-linejoin="round" fill="#6c8ebf">
      <title>has an employer</title>has...
    </text>
    </g>
    <g class="edge" data-edge-idx="34" data-edge-base="expresses" data-edge-from="6" data-edge-to="13">
    <line x1="284.00" y1="100.00" x2="3629.25" y2="103.99" stroke="#6c8ebf" stroke-width="3" stroke-dasharray="9 6" />
    <path d="M 3636.00 104.00 L 3626.99 108.48 L 3629.25 103.99 L 3627.01 99.48 Z" fill="#6c8ebf" stroke="#6c8ebf" stroke-width="3" stroke-miterlimit="10"/>
    <text x="1956" y="101" text-anchor="middle" dominant-baseline="middle" font-family="Helvetica,Inter,Segoe UI,Arial" font-size="11" paint-order="stroke" stroke="#ffffff" stroke-width="3" stroke-linejoin="round" fill="#6c8ebf">
      <title>has an employer</title>has...
    </text>
    </g>
    <g class="edge" data-edge-idx="35" data-edge-base="expresses" data-edge-from="7" data-edge-to="13">
    <line x1="464.00" y1="100.01" x2="3629.25" y2="108.97" stroke="#6c8ebf" stroke-width="3" stroke-dasharray="9 6" />
    <path d="M 3636.00 108.99 L 3626.99 113.46 L 3629.25 108.97 L 3627.01 104.46 Z" fill="#6c8ebf" stroke="#6c8ebf" stroke-width="3" stroke-miterlimit="10"/>
    <text x="2046" y="104" text-anchor="middle" dominant-baseline="middle" font-family="Helvetica,Inter,Segoe UI,Arial" font-size="11" paint-order="stroke" stroke="#ffffff" stroke-width="3" stroke-linejoin="round" fill="#6c8ebf">
      <title>has an employer</title>has...
    </text>
    </g>
    <g class="edge" data-edge-idx="36" data-edge-base="expresses" data-edge-from="8" data-edge-to="13">
    <line x1="644.00" y1="100.02" x2="3629.25" y2="113.95" stroke="#6c8ebf" stroke-width="3" stroke-dasharray="9 6" />
    <path d="M 3636.00 113.98 L 3626.98 118.44 L 3629.25 113.95 L 3627.02 109.44 Z" fill="#6c8ebf" stroke="#6c8ebf" stroke-width="3" stroke-miterlimit="10"/>
    <text x="2136" y="106" text-anchor="middle" dominant-baseline="middle" font-family="Helvetica,Inter,Segoe UI,Arial" font-size="11" paint-order="stroke" stroke="#ffffff" stroke-width="3" stroke-linejoin="round" fill="#6c8ebf">
      <title>has an employer</title>has...
    </text>
    </g>
    <g class="edge" data-edge-idx="37" data-edge-base="expresses" data-edge-from="9" data-edge-to="13">
    <line x1="824.00" y1="100.03" x2="3629.25" y2="119.92" stroke="#6c8ebf" stroke-width="3" stroke-dasharray="9 6" />
    <path d="M 3636.00 119.97 L 3626.97 124.41 L 3629.25 119.92 L 3627.03 115.41 Z" fill="#6c8ebf" stroke="#6c8ebf" stroke-width="3" stroke-miterlimit="10"/>
    <text x="2226" y="109" text-anchor="middle" dominant-baseline="middle" font-family="Helvetica,Inter,Segoe UI,Arial" font-size="11" paint-order="stroke" stroke="#ffffff" stroke-width="3" stroke-linejoin="round" fill="#6c8ebf">
      <title>has an employer</title>has...
    </text>
    </g>
  </g>
  <g id="nodes">
    <rect x="3280" y="340" width="120" height="60" rx="6" ry="6" fill="#dae8fc" stroke="#6c8ebf" stroke-width="2"/>
    <text x="3340" y="370" text-anchor="middle" dominant-baseline="middle" font-family="Helvetica,Inter,Segoe UI,Arial" font-size="16" font-weight="normal" fill="#3399ff">Adam</text>
    <rect x="400" y="140" width="120" height="60" rx="6" ry="6" fill="#dae8fc" stroke="#6c8ebf" stroke-width="2"/>
    <text x="460" y="170" text-anchor="middle" dominant-baseline="middle" font-family="Helvetica,Inter,Segoe UI,Arial" font-size="16" font-weight="normal" fill="#3399ff">Brent</text>
    <rect x="580" y="140" width="120" height="60" rx="6" ry="6" fill="#dae8fc" stroke="#6c8ebf" stroke-width="2"/>
    <text x="640" y="170" text-anchor="middle" dominant-baseline="middle" font-family="Helvetica,Inter,Segoe UI,Arial" font-size="16" font-weight="normal" fill="#3399ff">Carol</text>
    <rect x="3460" y="440" width="120" height="60" rx="6" ry="6" fill="#dae8fc" stroke="#6c8ebf" stroke-width="2"/>
    <text x="3520" y="460" text-anchor="middle" dominant-baseline="middle" font-family="Helvetica,Inter,Segoe UI,Arial" font-size="16" font-weight="normal" fill="#3399ff">Chirpy Cheep</text>
    <text x="3520" y="480" text-anchor="middle" dominant-baseline="middle" font-family="Helvetica,Inter,Segoe UI,Arial" font-size="16" font-weight="normal" fill="#3399ff">Cheep</text>
    <rect x="3640" y="77" width="120" height="60" rx="6" ry="6" fill="#dae8fc" stroke="#6c8ebf" stroke-width="2"/>
    <text x="3700" y="97" text-anchor="middle" dominant-baseline="middle" font-family="Helvetica,Inter,Segoe UI,Arial" font-size="16" font-weight="normal" fill="#3399ff">Company of</text>
    <text x="3700" y="117" text-anchor="middle" dominant-baseline="middle" font-family="Helvetica,Inter,Segoe UI,Arial" font-size="16" font-weight="normal" fill="#3399ff">Friends</text>
    <rect x="760" y="140" width="120" height="60" rx="6" ry="6" fill="#dae8fc" stroke="#6c8ebf" stroke-width="2"/>
    <text x="820" y="170" text-anchor="middle" dominant-baseline="middle" font-family="Helvetica,Inter,Segoe UI,Arial" font-size="16" font-weight="normal" fill="#3399ff">Doug</text>
    <rect x="940" y="140" width="120" height="60" rx="6" ry="6" fill="#dae8fc" stroke="#6c8ebf" stroke-width="2"/>
    <text x="1000" y="170" text-anchor="middle" dominant-baseline="middle" font-family="Helvetica,Inter,Segoe UI,Arial" font-size="16" font-weight="normal" fill="#3399ff">Hans</text>
    <rect x="3100" y="240" width="120" height="60" rx="6" ry="6" fill="#dae8fc" stroke="#6c8ebf" stroke-width="2"/>
    <text x="3160" y="270" text-anchor="middle" dominant-baseline="middle" font-family="Helvetica,Inter,Segoe UI,Arial" font-size="16" font-weight="normal" fill="#3399ff">Jan</text>
    <rect x="3100" y="340" width="120" height="60" rx="6" ry="6" fill="#dae8fc" stroke="#6c8ebf" stroke-width="2"/>
    <text x="3160" y="370" text-anchor="middle" dominant-baseline="middle" font-family="Helvetica,Inter,Segoe UI,Arial" font-size="16" font-weight="normal" fill="#3399ff">Jane</text>
    <rect x="2740" y="340" width="120" height="60" rx="6" ry="6" fill="#dae8fc" stroke="#6c8ebf" stroke-width="2"/>
    <text x="2800" y="370" text-anchor="middle" dominant-baseline="middle" font-family="Helvetica,Inter,Segoe UI,Arial" font-size="16" font-weight="normal" fill="#3399ff">Jane1</text>
    <rect x="2560" y="240" width="120" height="60" rx="6" ry="6" fill="#dae8fc" stroke="#6c8ebf" stroke-width="2"/>
    <text x="2620" y="270" text-anchor="middle" dominant-baseline="middle" font-family="Helvetica,Inter,Segoe UI,Arial" font-size="16" font-weight="normal" fill="#3399ff">Jane2</text>
    <rect x="2380" y="240" width="120" height="60" rx="6" ry="6" fill="#dae8fc" stroke="#6c8ebf" stroke-width="2"/>
    <text x="2440" y="270" text-anchor="middle" dominant-baseline="middle" font-family="Helvetica,Inter,Segoe UI,Arial" font-size="16" font-weight="normal" fill="#3399ff">Alfie</text>
    <rect x="1120" y="140" width="120" height="60" rx="6" ry="6" fill="#dae8fc" stroke="#6c8ebf" stroke-width="2"/>
    <text x="1180" y="170" text-anchor="middle" dominant-baseline="middle" font-family="Helvetica,Inter,Segoe UI,Arial" font-size="16" font-weight="normal" fill="#3399ff">Joyce</text>
    <rect x="2740" y="240" width="120" height="60" rx="6" ry="6" fill="#dae8fc" stroke="#6c8ebf" stroke-width="2"/>
    <text x="2800" y="270" text-anchor="middle" dominant-baseline="middle" font-family="Helvetica,Inter,Segoe UI,Arial" font-size="16" font-weight="normal" fill="#3399ff">Jungi</text>
    <rect x="1300" y="140" width="120" height="60" rx="6" ry="6" fill="#dae8fc" stroke="#6c8ebf" stroke-width="2"/>
    <text x="1360" y="170" text-anchor="middle" dominant-baseline="middle" font-family="Helvetica,Inter,Segoe UI,Arial" font-size="16" font-weight="normal" fill="#3399ff">Kat</text>
    <rect x="1480" y="140" width="120" height="60" rx="6" ry="6" fill="#dae8fc" stroke="#6c8ebf" stroke-width="2"/>
    <text x="1540" y="170" text-anchor="middle" dominant-baseline="middle" font-family="Helvetica,Inter,Segoe UI,Arial" font-size="16" font-weight="normal" fill="#3399ff">Mandy</text>
    <rect x="40" y="40" width="120" height="60" rx="6" ry="6" fill="#d5e8d4" stroke="#82b366" stroke-width="2"/>
    <text x="100" y="70" text-anchor="middle" dominant-baseline="middle" font-family="Helvetica,Inter,Segoe UI,Arial" font-size="16" font-weight="normal" fill="#009900">Mark</text>
    <rect x="3820" y="190" width="120" height="60" rx="6" ry="6" fill="#dae8fc" stroke="#6c8ebf" stroke-width="2"/>
    <text x="3880" y="220" text-anchor="middle" dominant-baseline="middle" font-family="Helvetica,Inter,Segoe UI,Arial" font-size="16" font-weight="normal" fill="#3399ff">Matt</text>
    <rect x="2380" y="140" width="120" height="60" rx="6" ry="6" fill="#dae8fc" stroke="#6c8ebf" stroke-width="2"/>
    <text x="2440" y="170" text-anchor="middle" dominant-baseline="middle" font-family="Helvetica,Inter,Segoe UI,Arial" font-size="16" font-weight="normal" fill="#3399ff">Mike</text>
    <rect x="4000" y="240" width="120" height="60" rx="6" ry="6" fill="#dae8fc" stroke="#6c8ebf" stroke-width="2"/>
    <text x="4060" y="270" text-anchor="middle" dominant-baseline="middle" font-family="Helvetica,Inter,Segoe UI,Arial" font-size="16" font-weight="normal" fill="#3399ff">Paul</text>
    <rect x="2920" y="240" width="120" height="60" rx="6" ry="6" fill="#dae8fc" stroke="#6c8ebf" stroke-width="2"/>
    <text x="2980" y="270" text-anchor="middle" dominant-baseline="middle" font-family="Helvetica,Inter,Segoe UI,Arial" font-size="16" font-weight="normal" fill="#3399ff">Peter</text>
    <rect x="940" y="40" width="120" height="60" rx="6" ry="6" fill="#d5e8d4" stroke="#82b366" stroke-width="2"/>
    <text x="1000" y="70" text-anchor="middle" dominant-baseline="middle" font-family="Helvetica,Inter,Segoe UI,Arial" font-size="16" font-weight="normal" fill="#009900">Rob1Bot21</text>
    <rect x="40" y="140" width="120" height="60" rx="6" ry="6" fill="#dae8fc" stroke="#6c8ebf" stroke-width="2"/>
    <text x="100" y="170" text-anchor="middle" dominant-baseline="middle" font-family="Helvetica,Inter,Segoe UI,Arial" font-size="16" font-weight="normal" fill="#3399ff">Ali</text>
    <rect x="1120" y="40" width="120" height="60" rx="6" ry="6" fill="#d5e8d4" stroke="#82b366" stroke-width="2"/>
    <text x="1180" y="70" text-anchor="middle" dominant-baseline="middle" font-family="Helvetica,Inter,Segoe UI,Arial" font-size="16" font-weight="normal" fill="#009900">Robo1</text>
    <rect x="1300" y="40" width="120" height="60" rx="6" ry="6" fill="#d5e8d4" stroke="#82b366" stroke-width="2"/>
    <text x="1360" y="70" text-anchor="middle" dominant-baseline="middle" font-family="Helvetica,Inter,Segoe UI,Arial" font-size="16" font-weight="normal" fill="#009900">Robo2</text>
    <rect x="1660" y="140" width="120" height="60" rx="6" ry="6" fill="#dae8fc" stroke="#6c8ebf" stroke-width="2"/>
    <text x="1720" y="170" text-anchor="middle" dominant-baseline="middle" font-family="Helvetica,Inter,Segoe UI,Arial" font-size="16" font-weight="normal" fill="#3399ff">Silvy</text>
    <rect x="1840" y="140" width="120" height="60" rx="6" ry="6" fill="#dae8fc" stroke="#6c8ebf" stroke-width="2"/>
    <text x="1900" y="170" text-anchor="middle" dominant-baseline="middle" font-family="Helvetica,Inter,Segoe UI,Arial" font-size="16" font-weight="normal" fill="#3399ff">Tamar</text>
    <rect x="4180" y="440" width="120" height="60" rx="6" ry="6" fill="#dae8fc" stroke="#6c8ebf" stroke-width="2"/>
    <text x="4240" y="460" text-anchor="middle" dominant-baseline="middle" font-family="Helvetica,Inter,Segoe UI,Arial" font-size="16" font-weight="normal" fill="#3399ff">Taylor</text>
    <text x="4240" y="480" text-anchor="middle" dominant-baseline="middle" font-family="Helvetica,Inter,Segoe UI,Arial" font-size="16" font-weight="normal" fill="#3399ff">Swallow</text>
    <rect x="2020" y="140" width="120" height="60" rx="6" ry="6" fill="#dae8fc" stroke="#6c8ebf" stroke-width="2"/>
    <text x="2080" y="170" text-anchor="middle" dominant-baseline="middle" font-family="Helvetica,Inter,Segoe UI,Arial" font-size="16" font-weight="normal" fill="#3399ff">Tore</text>
    <rect x="2200" y="140" width="120" height="60" rx="6" ry="6" fill="#dae8fc" stroke="#6c8ebf" stroke-width="2"/>
    <text x="2260" y="170" text-anchor="middle" dominant-baseline="middle" font-family="Helvetica,Inter,Segoe UI,Arial" font-size="16" font-weight="normal" fill="#3399ff">Zhao</text>
    <rect x="3280" y="440" width="120" height="60" rx="6" ry="6" fill="#dae8fc" stroke="#6c8ebf" stroke-width="2"/>
    <text x="3340" y="470" text-anchor="middle" dominant-baseline="middle" font-family="Helvetica,Inter,Segoe UI,Arial" font-size="16" font-weight="normal" fill="#3399ff">Billie</text>
    <rect x="220" y="140" width="120" height="60" rx="6" ry="6" fill="#dae8fc" stroke="#6c8ebf" stroke-width="2"/>
    <text x="280" y="170" text-anchor="middle" dominant-baseline="middle" font-family="Helvetica,Inter,Segoe UI,Arial" font-size="16" font-weight="normal" fill="#3399ff">Bjørn</text>
    <rect x="220" y="40" width="120" height="60" rx="6" ry="6" fill="#d5e8d4" stroke="#82b366" stroke-width="2"/>
    <text x="280" y="70" text-anchor="middle" dominant-baseline="middle" font-family="Helvetica,Inter,Segoe UI,Arial" font-size="16" font-weight="normal" fill="#009900">Bot1</text>
    <rect x="400" y="40" width="120" height="60" rx="6" ry="6" fill="#d5e8d4" stroke="#82b366" stroke-width="2"/>
    <text x="460" y="70" text-anchor="middle" dominant-baseline="middle" font-family="Helvetica,Inter,Segoe UI,Arial" font-size="16" font-weight="normal" fill="#009900">Bot2</text>
    <rect x="580" y="40" width="120" height="60" rx="6" ry="6" fill="#d5e8d4" stroke="#82b366" stroke-width="2"/>
    <text x="640" y="70" text-anchor="middle" dominant-baseline="middle" font-family="Helvetica,Inter,Segoe UI,Arial" font-size="16" font-weight="normal" fill="#009900">Bot3</text>
    <rect x="760" y="40" width="120" height="60" rx="6" ry="6" fill="#d5e8d4" stroke="#82b366" stroke-width="2"/>
    <text x="820" y="70" text-anchor="middle" dominant-baseline="middle" font-family="Helvetica,Inter,Segoe UI,Arial" font-size="16" font-weight="normal" fill="#009900">Bot4</text>
  </g>
</svg>
