<?xml version="1.0" encoding="UTF-8"?>
<svg xmlns="http://www.w3.org/2000/svg" width="3800" height="480" viewBox="0 0 3800 480">
  <defs>
  </defs>
  <g id="container-shells">
  </g>
  <g id="node-shadows">
    <rect x="280" y="40" width="120" height="260" rx="6" ry="6" fill="#000000" stroke="#000000" stroke-width="2" opacity="0.25" transform="translate(2,3)"/>
    <rect x="2440" y="40" width="120" height="60" rx="6" ry="6" fill="#000000" stroke="#000000" stroke-width="2" opacity="0.25" transform="translate(2,3)"/>
    <rect x="2680" y="40" width="120" height="60" rx="6" ry="6" fill="#000000" stroke="#000000" stroke-width="2" opacity="0.25" transform="translate(2,3)"/>
    <rect x="2920" y="120" width="120" height="60" rx="6" ry="6" fill="#000000" stroke="#000000" stroke-width="2" opacity="0.25" transform="translate(2,3)"/>
    <rect x="1240" y="220" width="120" height="60" rx="6" ry="6" fill="#000000" stroke="#000000" stroke-width="2" opacity="0.25" transform="translate(2,3)"/>
    <rect x="3400" y="120" width="120" height="240" rx="6" ry="6" fill="#000000" stroke="#000000" stroke-width="2" opacity="0.25" transform="translate(2,3)"/>
    <rect x="40" y="120" width="120" height="60" rx="6" ry="6" fill="#000000" stroke="#000000" stroke-width="2" opacity="0.25" transform="translate(2,3)"/>
    <rect x="3640" y="40" width="120" height="60" rx="6" ry="6" fill="#000000" stroke="#000000" stroke-width="2" opacity="0.25" transform="translate(2,3)"/>
    <rect x="40" y="240" width="120" height="60" rx="6" ry="6" fill="#000000" stroke="#000000" stroke-width="2" opacity="0.25" transform="translate(2,3)"/>
    <rect x="1520" y="40" width="40" height="40" rx="4" ry="4" fill="#000000" stroke="#000000" stroke-width="2" opacity="0.25" transform="translate(2,3)"/>
    <rect x="1520" y="220" width="40" height="40" rx="4" ry="4" fill="#000000" stroke="#000000" stroke-width="2" opacity="0.25" transform="translate(2,3)"/>
    <rect x="520" y="40" width="120" height="160" rx="6" ry="6" fill="#000000" stroke="#000000" stroke-width="2" opacity="0.25" transform="translate(2,3)"/>
    <rect x="2960" y="40" width="40" height="40" rx="4" ry="4" fill="#000000" stroke="#000000" stroke-width="2" opacity="0.25" transform="translate(2,3)"/>
    <rect x="2960" y="220" width="40" height="40" rx="4" ry="4" fill="#000000" stroke="#000000" stroke-width="2" opacity="0.25" transform="translate(2,3)"/>
    <rect x="3440" y="40" width="40" height="40" rx="4" ry="4" fill="#000000" stroke="#000000" stroke-width="2" opacity="0.25" transform="translate(2,3)"/>
    <rect x="3440" y="400" width="40" height="40" rx="4" ry="4" fill="#000000" stroke="#000000" stroke-width="2" opacity="0.25" transform="translate(2,3)"/>
    <rect x="80" y="40" width="40" height="40" rx="4" ry="4" fill="#000000" stroke="#000000" stroke-width="2" opacity="0.25" transform="translate(2,3)"/>
    <rect x="80" y="340" width="40" height="40" rx="4" ry="4" fill="#000000" stroke="#000000" stroke-width="2" opacity="0.25" transform="translate(2,3)"/>
    <rect x="760" y="40" width="120" height="140" rx="6" ry="6" fill="#000000" stroke="#000000" stroke-width="2" opacity="0.25" transform="translate(2,3)"/>
    <rect x="1000" y="40" width="120" height="120" rx="6" ry="6" fill="#000000" stroke="#000000" stroke-width="2" opacity="0.25" transform="translate(2,3)"/>
    <rect x="1240" y="40" width="120" height="60" rx="6" ry="6" fill="#000000" stroke="#000000" stroke-width="2" opacity="0.25" transform="translate(2,3)"/>
    <rect x="1480" y="120" width="120" height="60" rx="6" ry="6" fill="#000000" stroke="#000000" stroke-width="2" opacity="0.25" transform="translate(2,3)"/>
    <rect x="1720" y="40" width="120" height="60" rx="6" ry="6" fill="#000000" stroke="#000000" stroke-width="2" opacity="0.25" transform="translate(2,3)"/>
    <rect x="1960" y="40" width="120" height="60" rx="6" ry="6" fill="#000000" stroke="#000000" stroke-width="2" opacity="0.25" transform="translate(2,3)"/>
    <rect x="2200" y="40" width="120" height="60" rx="6" ry="6" fill="#000000" stroke="#000000" stroke-width="2" opacity="0.25" transform="translate(2,3)"/>
  </g>
  <g id="edges">
    <g class="edge" data-edge-idx="0" data-edge-base="leadsto" data-edge-from="12" data-edge-to="21">
    <line x1="2980.00" y1="184.00" x2="2980.00" y2="209.25" stroke="#ff8000" stroke-width="3" />
    <path d="M 2980.00 216.00 L 2975.50 207.00 L 2980.00 209.25 L 2984.50 207.00 Z" fill="#ff8000" stroke="#ff8000" stroke-width="3" stroke-miterlimit="10"/>
    </g>
    <g class="edge" data-edge-idx="1" data-edge-base="nearto" data-edge-from="13" data-edge-to="5">
    <line x1="1300.00" y1="216.00" x2="1300.00" y2="104.00" stroke="#999999" stroke-width="3" stroke-linecap="round" stroke-dasharray="0 6" />
    <text x="1300" y="160" text-anchor="middle" dominant-baseline="middle" font-family="Helvetica,Inter,Segoe UI,Arial" font-size="11" paint-order="stroke" stroke="#ffffff" stroke-width="3" stroke-linejoin="round" fill="#999999">
      <title>same as</title>same...
    </text>
    </g>
    <g class="edge" data-edge-idx="2" data-edge-base="expresses" data-edge-from="14" data-edge-to="12">
      <g class="edge-full" opacity="0">
        <line x1="3366.00" y1="240.00" x2="3074.00" y2="150.00" stroke="#6c8ebf" stroke-width="3" stroke-dasharray="9 6" />
    <text x="3220" y="195" text-anchor="middle" dominant-baseline="middle" font-family="Helvetica,Inter,Segoe UI,Arial" font-size="11" paint-order="stroke" stroke="#ffffff" stroke-width="3" stroke-linejoin="round" fill="#6c8ebf">
      <title>has example</title>has...
    </text>
      </g>
      <g class="edge-stub" data-stub-end="source">
        <line x1="3400.00" y1="150.00" x2="3382.00" y2="197.65" stroke="#6c8ebf" stroke-width="3" stroke-dasharray="9 6" />
        <line x1="3382.00" y1="197.65" x2="3366.00" y2="240.00" stroke="#6c8ebf" stroke-width="3" stroke-dasharray="9 6" stroke-opacity="0.35" />
        <g class="edge-badge"><title>Expresses (has example): package main

import (
    &#34;dependency 1&#34;
    &#34;dependency 2&#34;
    &#34;fmt&#34;
)

func main () {  // brace must go here

      fmt.Println(&#34;Hello world&#34;)
} → hello world</title><rect x="3359.00" y="233.00" width="14.00" height="14.00" rx="3" fill="#ffffff" stroke="#6c8ebf" stroke-width="1.5" /><text x="3366.00" y="240.00" text-anchor="middle" dominant-baseline="central" font-size="11" font-family="Helvetica,Arial,sans-serif" fill="#6c8ebf">1</text></g>
      </g>
      <g class="edge-stub" data-stub-end="target">
        <line x1="3058.00" y1="150.00" x2="3046.75" y2="150.00" stroke="#6c8ebf" stroke-width="3" stroke-dasharray="9 6" />
        <line x1="3074.00" y1="150.00" x2="3058.00" y2="150.00" stroke="#6c8ebf" stroke-width="3" stroke-dasharray="9 6" stroke-opacity="0.35" />
    <path d="M 3040.00 150.00 L 3049.00 145.50 L 3046.75 150.00 L 3049.00 154.50 Z" fill="#6c8ebf" stroke="#6c8ebf" stroke-width="3" stroke-miterlimit="10"/>
        <g class="edge-badge"><title>Expresses (has example): package main

import (
    &#34;dependency 1&#34;
    &#34;dependency 2&#34;
    &#34;fmt&#34;
)

func main () {  // brace must go here

      fmt.Println(&#34;Hello world&#34;)
} → hello world</title><rect x="3067.00" y="143.00" width="14.00" height="14.00" rx="3" fill="#ffffff" stroke="#6c8ebf" stroke-width="1.5" /><text x="3074.00" y="150.00" text-anchor="middle" dominant-baseline="central" font-size="11" font-family="Helvetica,Arial,sans-serif" fill="#6c8ebf">1</text></g>
      </g>
    </g>
    <g class="edge" data-edge-idx="3" data-edge-base="leadsto" data-edge-from="14" data-edge-to="23">
    <line x1="3460.00" y1="364.00" x2="3460.00" y2="389.25" stroke="#ff8000" stroke-width="3" />
    <path d="M 3460.00 396.00 L 3455.50 387.00 L 3460.00 389.25 L 3464.50 387.00 Z" fill="#ff8000" stroke="#ff8000" stroke-width="3" stroke-miterlimit="10"/>
    </g>
    <g class="edge" data-edge-idx="4" data-edge-base="leadsto" data-edge-from="15" data-edge-to="17">
    <line x1="100.00" y1="184.00" x2="100.00" y2="229.25" stroke="#ff8000" stroke-width="3" />
    <path d="M 100.00 236.00 L 95.50 227.00 L 100.00 229.25 L 104.50 227.00 Z" fill="#ff8000" stroke="#ff8000" stroke-width="3" stroke-miterlimit="10"/>
    <text x="100" y="206" text-anchor="middle" dominant-baseline="middle" font-family="Helvetica,Inter,Segoe UI,Arial" font-size="11" paint-order="stroke" stroke="#ffffff" stroke-width="3" stroke-linejoin="round" fill="#ff8000">
      <title>implements</title>impl...
    </text>
    </g>
    <g class="edge" data-edge-idx="5" data-edge-base="leadsto" data-edge-from="17" data-edge-to="25">
    <line x1="100.00" y1="304.00" x2="100.00" y2="329.25" stroke="#ff8000" stroke-width="3" />
    <path d="M 100.00 336.00 L 95.50 327.00 L 100.00 329.25 L 104.50 327.00 Z" fill="#ff8000" stroke="#ff8000" stroke-width="3" stroke-miterlimit="10"/>
    </g>
    <g class="edge" data-edge-idx="6" data-edge-base="leadsto" data-edge-from="18" data-edge-to="6">
    <line x1="1540.00" y1="84.00" x2="1540.00" y2="109.25" stroke="#ff8000" stroke-width="3" />
    <path d="M 1540.00 116.00 L 1535.50 107.00 L 1540.00 109.25 L 1544.50 107.00 Z" fill="#ff8000" stroke="#ff8000" stroke-width="3" stroke-miterlimit="10"/>
    </g>
    <g class="edge" data-edge-idx="7" data-edge-base="leadsto" data-edge-from="20" data-edge-to="12">
    <line x1="2980.00" y1="84.00" x2="2980.00" y2="109.25" stroke="#ff8000" stroke-width="3" />
    <path d="M 2980.00 116.00 L 2975.50 107.00 L 2980.00 109.25 L 2984.50 107.00 Z" fill="#ff8000" stroke="#ff8000" stroke-width="3" stroke-miterlimit="10"/>
    </g>
    <g class="edge" data-edge-idx="8" data-edge-base="leadsto" data-edge-from="22" data-edge-to="14">
    <line x1="3460.00" y1="84.00" x2="3460.00" y2="109.25" stroke="#ff8000" stroke-width="3" />
    <path d="M 3460.00 116.00 L 3455.50 107.00 L 3460.00 109.25 L 3464.50 107.00 Z" fill="#ff8000" stroke="#ff8000" stroke-width="3" stroke-miterlimit="10"/>
    </g>
    <g class="edge" data-edge-idx="9" data-edge-base="leadsto" data-edge-from="24" data-edge-to="15">
    <line x1="100.00" y1="84.00" x2="100.00" y2="109.25" stroke="#ff8000" stroke-width="3" />
    <path d="M 100.00 116.00 L 95.50 107.00 L 100.00 109.25 L 104.50 107.00 Z" fill="#ff8000" stroke="#ff8000" stroke-width="3" stroke-miterlimit="10"/>
    </g>
    <g class="edge" data-edge-idx="10" data-edge-base="nearto" data-edge-from="6" data-edge-to="12">
      <g class="edge-full" opacity="0">
        <line x1="1634.00" y1="150.00" x2="2886.00" y2="150.00" stroke="#999999" stroke-width="3" stroke-linecap="round" stroke-dasharray="0 6" />
    <text x="2260" y="150" text-anchor="middle" dominant-baseline="middle" font-family="Helvetica,Inter,Segoe UI,Arial" font-size="11" paint-order="stroke" stroke="#ffffff" stroke-width="3" stroke-linejoin="round" fill="#999999">
      <title>same as</title>same...
    </text>
      </g>
      <g class="edge-stub" data-stub-end="source">
        <line x1="1600.00" y1="150.00" x2="1618.00" y2="150.00" stroke="#999999" stroke-width="3" stroke-linecap="round" stroke-dasharray="0 6" />
        <line x1="1618.00" y1="150.00" x2="1634.00" y2="150.00" stroke="#999999" stroke-width="3" stroke-linecap="round" stroke-dasharray="0 6" stroke-opacity="0.35" />
        <g class="edge-badge"><title>NearTo (same as): basic example ↔ hello world</title><rect x="1627.00" y="143.00" width="14.00" height="14.00" rx="3" fill="#ffffff" stroke="#999999" stroke-width="1.5" /><text x="1634.00" y="150.00" text-anchor="middle" dominant-baseline="central" font-size="11" font-family="Helvetica,Arial,sans-serif" fill="#999999">2</text></g>
      </g>
      <g class="edge-stub" data-stub-end="target">
        <line x1="2902.00" y1="150.00" x2="2920.00" y2="150.00" stroke="#999999" stroke-width="3" stroke-linecap="round" stroke-dasharray="0 6" />
        <line x1="2886.00" y1="150.00" x2="2902.00" y2="150.00" stroke="#999999" stroke-width="3" stroke-linecap="round" stroke-dasharray="0 6" stroke-opacity="0.35" />
        <g class="edge-badge"><title>NearTo (same as): basic example ↔ hello world</title><rect x="2879.00" y="143.00" width="14.00" height="14.00" rx="3" fill="#ffffff" stroke="#999999" stroke-width="1.5" /><text x="2886.00" y="150.00" text-anchor="middle" dominant-baseline="central" font-size="11" font-family="Helvetica,Arial,sans-serif" fill="#999999">2</text></g>
      </g>
    </g>
    <g class="edge" data-edge-idx="11" data-edge-base="leadsto" data-edge-from="6" data-edge-to="19">
    <line x1="1540.00" y1="184.00" x2="1540.00" y2="209.25" stroke="#ff8000" stroke-width="3" />
    <path d="M 1540.00 216.00 L 1535.50 207.00 L 1540.00 209.25 L 1544.50 207.00 Z" fill="#ff8000" stroke="#ff8000" stroke-width="3" stroke-miterlimit="10"/>
    </g>
  </g>
  <g id="nodes">
    <rect x="280" y="40" width="120" height="260" rx="6" ry="6" fill="#ececec" stroke="#9e9e9e" stroke-width="2" stroke-dasharray="6 4"/>
    <text x="340" y="78" text-anchor="middle" dominant-baseline="middle" font-family="Helvetica,Inter,Segoe UI,Arial" font-size="14" font-weight="normal" fill="#616161">Documentatio n</text>
    <text x="340" y="94" text-anchor="middle" dominant-baseline="middle" font-family="Helvetica,Inter,Segoe UI,Arial" font-size="14" font-weight="normal" fill="#616161">often assumes</text>
    <text x="340" y="111" text-anchor="middle" dominant-baseline="middle" font-family="Helvetica,Inter,Segoe UI,Arial" font-size="14" font-weight="normal" fill="#616161">you already</text>
    <text x="340" y="128" text-anchor="middle" dominant-baseline="middle" font-family="Helvetica,Inter,Segoe UI,Arial" font-size="14" font-weight="normal" fill="#616161">know go quite</text>
    <text x="340" y="145" text-anchor="middle" dominant-baseline="middle" font-family="Helvetica,Inter,Segoe UI,Arial" font-size="14" font-weight="normal" fill="#616161">well and is</text>
    <text x="340" y="162" text-anchor="middle" dominant-baseline="middle" font-family="Helvetica,Inter,Segoe UI,Arial" font-size="14" font-weight="normal" fill="#616161">more</text>
    <text x="340" y="178" text-anchor="middle" dominant-baseline="middle" font-family="Helvetica,Inter,Segoe UI,Arial" font-size="14" font-weight="normal" fill="#616161">interested in</text>
    <text x="340" y="195" text-anchor="middle" dominant-baseline="middle" font-family="Helvetica,Inter,Segoe UI,Arial" font-size="14" font-weight="normal" fill="#616161">version</text>
    <text x="340" y="212" text-anchor="middle" dominant-baseline="middle" font-family="Helvetica,Inter,Segoe UI,Arial" font-size="14" font-weight="normal" fill="#616161">changes than</text>
    <text x="340" y="229" text-anchor="middle" dominant-baseline="middle" font-family="Helvetica,Inter,Segoe UI,Arial" font-size="14" font-weight="normal" fill="#616161">in a</text>
    <text x="340" y="246" text-anchor="middle" dominant-baseline="middle" font-family="Helvetica,Inter,Segoe UI,Arial" font-size="14" font-weight="normal" fill="#616161">pedagogical</text>
    <text x="340" y="262" text-anchor="middle" dominant-baseline="middle" font-family="Helvetica,Inter,Segoe UI,Arial" font-size="14" font-weight="normal" fill="#616161">explanation.</text>
    <rect x="353" y="283" width="12" height="12" rx="2" ry="2" fill="#d5e8d4" stroke="#82b366" stroke-width="2"/>
    <text x="359.0" y="289.0" text-anchor="middle" dominant-baseline="central" font-size="8" fill="#009900">t</text>
    <rect x="368" y="283" width="12" height="12" rx="2" ry="2" fill="#ffe6cc" stroke="#ff8000" stroke-width="1"/>
    <text x="374.0" y="289.0" text-anchor="middle" dominant-baseline="central" font-size="8" fill="#ff8000">e</text>
    <rect x="383" y="283" width="12" height="12" rx="2" ry="2" fill="#dae8fc" stroke="#6c8ebf" stroke-width="1"/>
    <text x="389.0" y="289.0" text-anchor="middle" dominant-baseline="central" font-size="8" fill="#3399ff">c</text>
    <rect x="2440" y="40" width="120" height="60" rx="6" ry="6" fill="#ececec" stroke="#9e9e9e" stroke-width="2" stroke-dasharray="6 4"/>
    <text x="2500" y="70" text-anchor="middle" dominant-baseline="middle" font-family="Helvetica,Inter,Segoe UI,Arial" font-size="16" font-weight="normal" fill="#616161">golang</text>
    <rect x="2513" y="83" width="12" height="12" rx="2" ry="2" fill="#d5e8d4" stroke="#82b366" stroke-width="2"/>
    <text x="2519.0" y="89.0" text-anchor="middle" dominant-baseline="central" font-size="8" fill="#009900">t</text>
    <rect x="2528" y="83" width="12" height="12" rx="2" ry="2" fill="#ffe6cc" stroke="#ff8000" stroke-width="1"/>
    <text x="2534.0" y="89.0" text-anchor="middle" dominant-baseline="central" font-size="8" fill="#ff8000">e</text>
    <rect x="2543" y="83" width="12" height="12" rx="2" ry="2" fill="#dae8fc" stroke="#6c8ebf" stroke-width="1"/>
    <text x="2549.0" y="89.0" text-anchor="middle" dominant-baseline="central" font-size="8" fill="#3399ff">c</text>
    <rect x="2680" y="40" width="120" height="60" rx="6" ry="6" fill="#ececec" stroke="#9e9e9e" stroke-width="2" stroke-dasharray="6 4"/>
    <text x="2740" y="70" text-anchor="middle" dominant-baseline="middle" font-family="Helvetica,Inter,Segoe UI,Arial" font-size="16" font-weight="normal" fill="#616161">gopath</text>
    <rect x="2753" y="83" width="12" height="12" rx="2" ry="2" fill="#d5e8d4" stroke="#82b366" stroke-width="2"/>
    <text x="2759.0" y="89.0" text-anchor="middle" dominant-baseline="central" font-size="8" fill="#009900">t</text>
    <rect x="2768" y="83" width="12" height="12" rx="2" ry="2" fill="#ffe6cc" stroke="#ff8000" stroke-width="1"/>
    <text x="2774.0" y="89.0" text-anchor="middle" dominant-baseline="central" font-size="8" fill="#ff8000">e</text>
    <rect x="2783" y="83" width="12" height="12" rx="2" ry="2" fill="#dae8fc" stroke="#6c8ebf" stroke-width="1"/>
    <text x="2789.0" y="89.0" text-anchor="middle" dominant-baseline="central" font-size="8" fill="#3399ff">c</text>
    <rect x="2920" y="120" width="120" height="60" rx="6" ry="6" fill="#ececec" stroke="#9e9e9e" stroke-width="2" stroke-dasharray="6 4"/>
    <text x="2980" y="150" text-anchor="middle" dominant-baseline="middle" font-family="Helvetica,Inter,Segoe UI,Arial" font-size="16" font-weight="normal" fill="#616161">hello world</text>
    <rect x="3008" y="163" width="12" height="12" rx="2" ry="2" fill="#ffe6cc" stroke="#ff8000" stroke-width="2"/>
    <text x="3014.0" y="169.0" text-anchor="middle" dominant-baseline="central" font-size="8" fill="#ff8000">e</text>
    <rect x="3023" y="163" width="12" height="12" rx="2" ry="2" fill="#dae8fc" stroke="#6c8ebf" stroke-width="1"/>
    <text x="3029.0" y="169.0" text-anchor="middle" dominant-baseline="central" font-size="8" fill="#3399ff">c</text>
    <rect x="1240" y="220" width="120" height="60" rx="6" ry="6" fill="#ececec" stroke="#9e9e9e" stroke-width="2" stroke-dasharray="6 4"/>
    <text x="1300" y="250" text-anchor="middle" dominant-baseline="middle" font-family="Helvetica,Inter,Segoe UI,Arial" font-size="16" font-weight="normal" fill="#616161">maps</text>
    <rect x="1313" y="263" width="12" height="12" rx="2" ry="2" fill="#d5e8d4" stroke="#82b366" stroke-width="2"/>
    <text x="1319.0" y="269.0" text-anchor="middle" dominant-baseline="central" font-size="8" fill="#009900">t</text>
    <rect x="1328" y="263" width="12" height="12" rx="2" ry="2" fill="#ffe6cc" stroke="#ff8000" stroke-width="1"/>
    <text x="1334.0" y="269.0" text-anchor="middle" dominant-baseline="central" font-size="8" fill="#ff8000">e</text>
    <rect x="1343" y="263" width="12" height="12" rx="2" ry="2" fill="#dae8fc" stroke="#6c8ebf" stroke-width="1"/>
    <text x="1349.0" y="269.0" text-anchor="middle" dominant-baseline="central" font-size="8" fill="#3399ff">c</text>
    <rect x="3400" y="120" width="120" height="240" rx="6" ry="6" fill="#ececec" stroke="#9e9e9e" stroke-width="2" stroke-dasharray="6 4"/>
    <text x="3460" y="139" text-anchor="middle" dominant-baseline="middle" font-family="Helvetica,Inter,Segoe UI,Arial" font-size="14" font-weight="normal" fill="#616161">package main</text>
    <text x="3460" y="156" text-anchor="middle" dominant-baseline="middle" font-family="Helvetica,Inter,Segoe UI,Arial" font-size="14" font-weight="normal" fill="#616161">import (</text>
    <text x="3460" y="173" text-anchor="middle" dominant-baseline="middle" font-family="Helvetica,Inter,Segoe UI,Arial" font-size="14" font-weight="normal" fill="#616161">&#34;dependency</text>
    <text x="3460" y="190" text-anchor="middle" dominant-baseline="middle" font-family="Helvetica,Inter,Segoe UI,Arial" font-size="14" font-weight="normal" fill="#616161">1&#34;</text>
    <text x="3460" y="206" text-anchor="middle" dominant-baseline="middle" font-family="Helvetica,Inter,Segoe UI,Arial" font-size="14" font-weight="normal" fill="#616161">&#34;dependency</text>
    <text x="3460" y="223" text-anchor="middle" dominant-baseline="middle" font-family="Helvetica,Inter,Segoe UI,Arial" font-size="14" font-weight="normal" fill="#616161">2&#34;</text>
    <text x="3460" y="240" text-anchor="middle" dominant-baseline="middle" font-family="Helvetica,Inter,Segoe UI,Arial" font-size="14" font-weight="normal" fill="#616161">&#34;fmt&#34;</text>
    <text x="3460" y="257" text-anchor="middle" dominant-baseline="middle" font-family="Helvetica,Inter,Segoe UI,Arial" font-size="14" font-weight="normal" fill="#616161">) func main ()</text>
    <text x="3460" y="274" text-anchor="middle" dominant-baseline="middle" font-family="Helvetica,Inter,Segoe UI,Arial" font-size="14" font-weight="normal" fill="#616161">{ // brace</text>
    <text x="3460" y="290" text-anchor="middle" dominant-baseline="middle" font-family="Helvetica,Inter,Segoe UI,Arial" font-size="14" font-weight="normal" fill="#616161">must go here</text>
    <text x="3460" y="307" text-anchor="middle" dominant-baseline="middle" font-family="Helvetica,Inter,Segoe UI,Arial" font-size="14" font-weight="normal" fill="#616161">fmt.Println(</text>
    <text x="3460" y="324" text-anchor="middle" dominant-baseline="middle" font-family="Helvetica,Inter,Segoe UI,Arial" font-size="14" font-weight="normal" fill="#616161">&#34;Hello</text>
    <text x="3460" y="341" text-anchor="middle" dominant-baseline="middle" font-family="Helvetica,Inter,Segoe UI,Arial" font-size="14" font-weight="normal" fill="#616161">world&#34;) }</text>
    <rect x="3473" y="343" width="12" height="12" rx="2" ry="2" fill="#ffe6cc" stroke="#ff8000" stroke-width="2"/>
    <text x="3479.0" y="349.0" text-anchor="middle" dominant-baseline="central" font-size="8" fill="#ff8000">e</text>
    <rect x="3488" y="343" width="12" height="12" rx="2" ry="2" fill="#d5e8d4" stroke="#82b366" stroke-width="1"/>
    <text x="3494.0" y="349.0" text-anchor="middle" dominant-baseline="central" font-size="8" fill="#009900">t</text>
    <rect x="3503" y="343" width="12" height="12" rx="2" ry="2" fill="#dae8fc" stroke="#6c8ebf" stroke-width="1"/>
    <text x="3509.0" y="349.0" text-anchor="middle" dominant-baseline="central" font-size="8" fill="#3399ff">c</text>
    <rect x="40" y="120" width="120" height="60" rx="6" ry="6" fill="#ffe6cc" stroke="#ff8000" stroke-width="2"/>
    <text x="100" y="150" text-anchor="middle" dominant-baseline="middle" font-family="Helvetica,Inter,Segoe UI,Arial" font-size="16" font-weight="bold" fill="#ff8000">runes</text>
    <g>
      <title>Programmers are supposed to offer their lives to learning it.</title>
    <rect x="3640" y="40" width="120" height="60" rx="6" ry="6" fill="#ececec" stroke="#9e9e9e" stroke-width="2" stroke-dasharray="6 4"/>
    <text x="3700" y="70" text-anchor="middle" dominant-baseline="middle" font-family="Helvetica,Inter,Segoe UI,Arial" font-size="16" font-weight="normal" fill="#616161">snide remark</text>
    <rect x="3713" y="83" width="12" height="12" rx="2" ry="2" fill="#d5e8d4" stroke="#82b366" stroke-width="2"/>
    <text x="3719.0" y="89.0" text-anchor="middle" dominant-baseline="central" font-size="8" fill="#009900">t</text>
    <rect x="3728" y="83" width="12" height="12" rx="2" ry="2" fill="#ffe6cc" stroke="#ff8000" stroke-width="1"/>
    <text x="3734.0" y="89.0" text-anchor="middle" dominant-baseline="central" font-size="8" fill="#ff8000">e</text>
    <rect x="3743" y="83" width="12" height="12" rx="2" ry="2" fill="#dae8fc" stroke="#6c8ebf" stroke-width="1"/>
    <text x="3749.0" y="89.0" text-anchor="middle" dominant-baseline="central" font-size="8" fill="#3399ff">c</text>
    </g>
    <rect x="40" y="240" width="120" height="60" rx="6" ry="6" fill="#ffe6cc" stroke="#ff8000" stroke-width="2"/>
    <text x="100" y="270" text-anchor="middle" dominant-baseline="middle" font-family="Helvetica,Inter,Segoe UI,Arial" font-size="16" font-weight="bold" fill="#ff8000">unicode</text>
    <rect x="1520" y="40" width="40" height="40" rx="4" ry="4" fill="#ffe6cc" stroke="#ff8000" stroke-width="2"/>
    <text x="1540" y="60" text-anchor="middle" dominant-baseline="middle" font-family="Helvetica,Inter,Segoe UI,Arial" font-size="16" font-weight="bold" fill="#ff8000">S</text>
    <rect x="1520" y="220" width="40" height="40" rx="4" ry="4" fill="#ffe6cc" stroke="#ff8000" stroke-width="2"/>
    <text x="1540" y="240" text-anchor="middle" dominant-baseline="middle" font-family="Helvetica,Inter,Segoe UI,Arial" font-size="16" font-weight="bold" fill="#ff8000">E</text>
    <rect x="520" y="40" width="120" height="160" rx="6" ry="6" fill="#ececec" stroke="#9e9e9e" stroke-width="2" stroke-dasharray="6 4"/>
    <text x="580" y="78" text-anchor="middle" dominant-baseline="middle" font-family="Helvetica,Inter,Segoe UI,Arial" font-size="14" font-weight="normal" fill="#616161">Golang is an</text>
    <text x="580" y="95" text-anchor="middle" dominant-baseline="middle" font-family="Helvetica,Inter,Segoe UI,Arial" font-size="14" font-weight="normal" fill="#616161">easy to write</text>
    <text x="580" y="112" text-anchor="middle" dominant-baseline="middle" font-family="Helvetica,Inter,Segoe UI,Arial" font-size="14" font-weight="normal" fill="#616161">language</text>
    <text x="580" y="128" text-anchor="middle" dominant-baseline="middle" font-family="Helvetica,Inter,Segoe UI,Arial" font-size="14" font-weight="normal" fill="#616161">without too</text>
    <text x="580" y="145" text-anchor="middle" dominant-baseline="middle" font-family="Helvetica,Inter,Segoe UI,Arial" font-size="14" font-weight="normal" fill="#616161">many strict</text>
    <text x="580" y="162" text-anchor="middle" dominant-baseline="middle" font-family="Helvetica,Inter,Segoe UI,Arial" font-size="14" font-weight="normal" fill="#616161">syntax issues.</text>
    <rect x="593" y="183" width="12" height="12" rx="2" ry="2" fill="#d5e8d4" stroke="#82b366" stroke-width="2"/>
    <text x="599.0" y="189.0" text-anchor="middle" dominant-baseline="central" font-size="8" fill="#009900">t</text>
    <rect x="608" y="183" width="12" height="12" rx="2" ry="2" fill="#ffe6cc" stroke="#ff8000" stroke-width="1"/>
    <text x="614.0" y="189.0" text-anchor="middle" dominant-baseline="central" font-size="8" fill="#ff8000">e</text>
    <rect x="623" y="183" width="12" height="12" rx="2" ry="2" fill="#dae8fc" stroke="#6c8ebf" stroke-width="1"/>
    <text x="629.0" y="189.0" text-anchor="middle" dominant-baseline="central" font-size="8" fill="#3399ff">c</text>
    <rect x="2960" y="40" width="40" height="40" rx="4" ry="4" fill="#ffe6cc" stroke="#ff8000" stroke-width="2"/>
    <text x="2980" y="60" text-anchor="middle" dominant-baseline="middle" font-family="Helvetica,Inter,Segoe UI,Arial" font-size="16" font-weight="bold" fill="#ff8000">S</text>
    <rect x="2960" y="220" width="40" height="40" rx="4" ry="4" fill="#ffe6cc" stroke="#ff8000" stroke-width="2"/>
    <text x="2980" y="240" text-anchor="middle" dominant-baseline="middle" font-family="Helvetica,Inter,Segoe UI,Arial" font-size="16" font-weight="bold" fill="#ff8000">E</text>
    <rect x="3440" y="40" width="40" height="40" rx="4" ry="4" fill="#ffe6cc" stroke="#ff8000" stroke-width="2"/>
    <text x="3460" y="60" text-anchor="middle" dominant-baseline="middle" font-family="Helvetica,Inter,Segoe UI,Arial" font-size="16" font-weight="bold" fill="#ff8000">S</text>
    <rect x="3440" y="400" width="40" height="40" rx="4" ry="4" fill="#ffe6cc" stroke="#ff8000" stroke-width="2"/>
    <text x="3460" y="420" text-anchor="middle" dominant-baseline="middle" font-family="Helvetica,Inter,Segoe UI,Arial" font-size="16" font-weight="bold" fill="#ff8000">E</text>
    <rect x="80" y="40" width="40" height="40" rx="4" ry="4" fill="#ffe6cc" stroke="#ff8000" stroke-width="2"/>
    <text x="100" y="60" text-anchor="middle" dominant-baseline="middle" font-family="Helvetica,Inter,Segoe UI,Arial" font-size="16" font-weight="bold" fill="#ff8000">S</text>
    <rect x="80" y="340" width="40" height="40" rx="4" ry="4" fill="#ffe6cc" stroke="#ff8000" stroke-width="2"/>
    <text x="100" y="360" text-anchor="middle" dominant-baseline="middle" font-family="Helvetica,Inter,Segoe UI,Arial" font-size="16" font-weight="bold" fill="#ff8000">E</text>
    <rect x="760" y="40" width="120" height="140" rx="6" ry="6" fill="#ececec" stroke="#9e9e9e" stroke-width="2" stroke-dasharray="6 4"/>
    <text x="820" y="68" text-anchor="middle" dominant-baseline="middle" font-family="Helvetica,Inter,Segoe UI,Arial" font-size="14" font-weight="normal" fill="#616161">It&#39;s not a</text>
    <text x="820" y="85" text-anchor="middle" dominant-baseline="middle" font-family="Helvetica,Inter,Segoe UI,Arial" font-size="14" font-weight="normal" fill="#616161">free format</text>
    <text x="820" y="102" text-anchor="middle" dominant-baseline="middle" font-family="Helvetica,Inter,Segoe UI,Arial" font-size="14" font-weight="normal" fill="#616161">language,</text>
    <text x="820" y="118" text-anchor="middle" dominant-baseline="middle" font-family="Helvetica,Inter,Segoe UI,Arial" font-size="14" font-weight="normal" fill="#616161">mainly because</text>
    <text x="820" y="135" text-anchor="middle" dominant-baseline="middle" font-family="Helvetica,Inter,Segoe UI,Arial" font-size="14" font-weight="normal" fill="#616161">of placement</text>
    <text x="820" y="152" text-anchor="middle" dominant-baseline="middle" font-family="Helvetica,Inter,Segoe UI,Arial" font-size="14" font-weight="normal" fill="#616161">of braces.</text>
    <rect x="833" y="163" width="12" height="12" rx="2" ry="2" fill="#d5e8d4" stroke="#82b366" stroke-width="2"/>
    <text x="839.0" y="169.0" text-anchor="middle" dominant-baseline="central" font-size="8" fill="#009900">t</text>
    <rect x="848" y="163" width="12" height="12" rx="2" ry="2" fill="#ffe6cc" stroke="#ff8000" stroke-width="1"/>
    <text x="854.0" y="169.0" text-anchor="middle" dominant-baseline="central" font-size="8" fill="#ff8000">e</text>
    <rect x="863" y="163" width="12" height="12" rx="2" ry="2" fill="#dae8fc" stroke="#6c8ebf" stroke-width="1"/>
    <text x="869.0" y="169.0" text-anchor="middle" dominant-baseline="central" font-size="8" fill="#3399ff">c</text>
    <rect x="1000" y="40" width="120" height="120" rx="6" ry="6" fill="#ececec" stroke="#9e9e9e" stroke-width="2" stroke-dasharray="6 4"/>
    <text x="1060" y="66" text-anchor="middle" dominant-baseline="middle" font-family="Helvetica,Inter,Segoe UI,Arial" font-size="14" font-weight="normal" fill="#616161">It&#39;s</text>
    <text x="1060" y="83" text-anchor="middle" dominant-baseline="middle" font-family="Helvetica,Inter,Segoe UI,Arial" font-size="14" font-weight="normal" fill="#616161">opinionated</text>
    <text x="1060" y="100" text-anchor="middle" dominant-baseline="middle" font-family="Helvetica,Inter,Segoe UI,Arial" font-size="14" font-weight="normal" fill="#616161">without always</text>
    <text x="1060" y="117" text-anchor="middle" dominant-baseline="middle" font-family="Helvetica,Inter,Segoe UI,Arial" font-size="14" font-weight="normal" fill="#616161">explaining</text>
    <text x="1060" y="134" text-anchor="middle" dominant-baseline="middle" font-family="Helvetica,Inter,Segoe UI,Arial" font-size="14" font-weight="normal" fill="#616161">why.</text>
    <rect x="1073" y="143" width="12" height="12" rx="2" ry="2" fill="#d5e8d4" stroke="#82b366" stroke-width="2"/>
    <text x="1079.0" y="149.0" text-anchor="middle" dominant-baseline="central" font-size="8" fill="#009900">t</text>
    <rect x="1088" y="143" width="12" height="12" rx="2" ry="2" fill="#ffe6cc" stroke="#ff8000" stroke-width="1"/>
    <text x="1094.0" y="149.0" text-anchor="middle" dominant-baseline="central" font-size="8" fill="#ff8000">e</text>
    <rect x="1103" y="143" width="12" height="12" rx="2" ry="2" fill="#dae8fc" stroke="#6c8ebf" stroke-width="1"/>
    <text x="1109.0" y="149.0" text-anchor="middle" dominant-baseline="central" font-size="8" fill="#3399ff">c</text>
    <rect x="1240" y="40" width="120" height="60" rx="6" ry="6" fill="#ececec" stroke="#9e9e9e" stroke-width="2" stroke-dasharray="6 4"/>
    <text x="1300" y="60" text-anchor="middle" dominant-baseline="middle" font-family="Helvetica,Inter,Segoe UI,Arial" font-size="16" font-weight="normal" fill="#616161">associative</text>
    <text x="1300" y="80" text-anchor="middle" dominant-baseline="middle" font-family="Helvetica,Inter,Segoe UI,Arial" font-size="16" font-weight="normal" fill="#616161">arrays</text>
    <rect x="1313" y="83" width="12" height="12" rx="2" ry="2" fill="#d5e8d4" stroke="#82b366" stroke-width="2"/>
    <text x="1319.0" y="89.0" text-anchor="middle" dominant-baseline="central" font-size="8" fill="#009900">t</text>
    <rect x="1328" y="83" width="12" height="12" rx="2" ry="2" fill="#ffe6cc" stroke="#ff8000" stroke-width="1"/>
    <text x="1334.0" y="89.0" text-anchor="middle" dominant-baseline="central" font-size="8" fill="#ff8000">e</text>
    <rect x="1343" y="83" width="12" height="12" rx="2" ry="2" fill="#dae8fc" stroke="#6c8ebf" stroke-width="1"/>
    <text x="1349.0" y="89.0" text-anchor="middle" dominant-baseline="central" font-size="8" fill="#3399ff">c</text>
    <rect x="1480" y="120" width="120" height="60" rx="6" ry="6" fill="#ececec" stroke="#9e9e9e" stroke-width="2" stroke-dasharray="6 4"/>
    <text x="1540" y="140" text-anchor="middle" dominant-baseline="middle" font-family="Helvetica,Inter,Segoe UI,Arial" font-size="16" font-weight="normal" fill="#616161">basic</text>
    <text x="1540" y="160" text-anchor="middle" dominant-baseline="middle" font-family="Helvetica,Inter,Segoe UI,Arial" font-size="16" font-weight="normal" fill="#616161">example</text>
    <rect x="1568" y="163" width="12" height="12" rx="2" ry="2" fill="#ffe6cc" stroke="#ff8000" stroke-width="2"/>
    <text x="1574.0" y="169.0" text-anchor="middle" dominant-baseline="central" font-size="8" fill="#ff8000">e</text>
    <rect x="1583" y="163" width="12" height="12" rx="2" ry="2" fill="#dae8fc" stroke="#6c8ebf" stroke-width="1"/>
    <text x="1589.0" y="169.0" text-anchor="middle" dominant-baseline="central" font-size="8" fill="#3399ff">c</text>
    <rect x="1720" y="40" width="120" height="60" rx="6" ry="6" fill="#ececec" stroke="#9e9e9e" stroke-width="2" stroke-dasharray="6 4"/>
    <text x="1780" y="70" text-anchor="middle" dominant-baseline="middle" font-family="Helvetica,Inter,Segoe UI,Arial" font-size="16" font-weight="normal" fill="#616161">go</text>
    <rect x="1793" y="83" width="12" height="12" rx="2" ry="2" fill="#d5e8d4" stroke="#82b366" stroke-width="2"/>
    <text x="1799.0" y="89.0" text-anchor="middle" dominant-baseline="central" font-size="8" fill="#009900">t</text>
    <rect x="1808" y="83" width="12" height="12" rx="2" ry="2" fill="#ffe6cc" stroke="#ff8000" stroke-width="1"/>
    <text x="1814.0" y="89.0" text-anchor="middle" dominant-baseline="central" font-size="8" fill="#ff8000">e</text>
    <rect x="1823" y="83" width="12" height="12" rx="2" ry="2" fill="#dae8fc" stroke="#6c8ebf" stroke-width="1"/>
    <text x="1829.0" y="89.0" text-anchor="middle" dominant-baseline="central" font-size="8" fill="#3399ff">c</text>
    <rect x="1960" y="40" width="120" height="60" rx="6" ry="6" fill="#ececec" stroke="#9e9e9e" stroke-width="2" stroke-dasharray="6 4"/>
    <text x="2020" y="70" text-anchor="middle" dominant-baseline="middle" font-family="Helvetica,Inter,Segoe UI,Arial" font-size="16" font-weight="normal" fill="#616161">go modules</text>
    <rect x="2033" y="83" width="12" height="12" rx="2" ry="2" fill="#d5e8d4" stroke="#82b366" stroke-width="2"/>
    <text x="2039.0" y="89.0" text-anchor="middle" dominant-baseline="central" font-size="8" fill="#009900">t</text>
    <rect x="2048" y="83" width="12" height="12" rx="2" ry="2" fill="#ffe6cc" stroke="#ff8000" stroke-width="1"/>
    <text x="2054.0" y="89.0" text-anchor="middle" dominant-baseline="central" font-size="8" fill="#ff8000">e</text>
    <rect x="2063" y="83" width="12" height="12" rx="2" ry="2" fill="#dae8fc" stroke="#6c8ebf" stroke-width="1"/>
    <text x="2069.0" y="89.0" text-anchor="middle" dominant-baseline="central" font-size="8" fill="#3399ff">c</text>
    <rect x="2200" y="40" width="120" height="60" rx="6" ry="6" fill="#ececec" stroke="#9e9e9e" stroke-width="2" stroke-dasharray="6 4"/>
    <text x="2260" y="70" text-anchor="middle" dominant-baseline="middle" font-family="Helvetica,Inter,Segoe UI,Arial" font-size="16" font-weight="normal" fill="#616161">go packages</text>
    <rect x="2273" y="83" width="12" height="12" rx="2" ry="2" fill="#d5e8d4" stroke="#82b366" stroke-width="2"/>
    <text x="2279.0" y="89.0" text-anchor="middle" dominant-baseline="central" font-size="8" fill="#009900">t</text>
    <rect x="2288" y="83" width="12" height="12" rx="2" ry="2" fill="#ffe6cc" stroke="#ff8000" stroke-width="1"/>
    <text x="2294.0" y="89.0" text-anchor="middle" dominant-baseline="central" font-size="8" fill="#ff8000">e</text>
    <rect x="2303" y="83" width="12" height="12" rx="2" ry="2" fill="#dae8fc" stroke="#6c8ebf" stroke-width="1"/>
    <text x="2309.0" y="89.0" text-anchor="middle" dominant-baseline="central" font-size="8" fill="#3399ff">c</text>
  </g>
</svg>
