<?xml version="1.0" encoding="UTF-8"?>
<svg xmlns="http://www.w3.org/2000/svg" width="1528" height="960" viewBox="0 0 1528 960">
  <defs>
  </defs>
  <g id="container-shells">
  </g>
  <g id="node-shadows">
    <rect x="535" y="760" width="120" height="60" rx="6" ry="6" fill="#000000" stroke="#000000" stroke-width="2" opacity="0.25" transform="translate(2,3)"/>
    <rect x="558" y="440" width="120" height="60" rx="6" ry="6" fill="#000000" stroke="#000000" stroke-width="2" opacity="0.25" transform="translate(2,3)"/>
    <rect x="40" y="240" width="120" height="60" rx="6" ry="6" fill="#000000" stroke="#000000" stroke-width="2" opacity="0.25" transform="translate(2,3)"/>
    <rect x="738" y="440" width="120" height="60" rx="6" ry="6" fill="#000000" stroke="#000000" stroke-width="2" opacity="0.25" transform="translate(2,3)"/>
    <rect x="648" y="440" width="120" height="60" rx="6" ry="6" fill="#000000" stroke="#000000" stroke-width="2" opacity="0.25" transform="translate(2,3)"/>
    <rect x="828" y="440" width="120" height="60" rx="6" ry="6" fill="#000000" stroke="#000000" stroke-width="2" opacity="0.25" transform="translate(2,3)"/>
    <rect x="40" y="340" width="120" height="60" rx="6" ry="6" fill="#000000" stroke="#000000" stroke-width="2" opacity="0.25" transform="translate(2,3)"/>
    <rect x="265" y="440" width="120" height="60" rx="6" ry="6" fill="#000000" stroke="#000000" stroke-width="2" opacity="0.25" transform="translate(2,3)"/>
    <rect x="979" y="760" width="120" height="60" rx="6" ry="6" fill="#000000" stroke="#000000" stroke-width="2" opacity="0.25" transform="translate(2,3)"/>
    <rect x="1188" y="760" width="120" height="60" rx="6" ry="6" fill="#000000" stroke="#000000" stroke-width="2" opacity="0.25" transform="translate(2,3)"/>
    <rect x="1008" y="440" width="120" height="60" rx="6" ry="6" fill="#000000" stroke="#000000" stroke-width="2" opacity="0.25" transform="translate(2,3)"/>
    <rect x="1188" y="860" width="120" height="60" rx="6" ry="6" fill="#000000" stroke="#000000" stroke-width="2" opacity="0.25" transform="translate(2,3)"/>
    <rect x="40" y="440" width="120" height="60" rx="6" ry="6" fill="#000000" stroke="#000000" stroke-width="2" opacity="0.25" transform="translate(2,3)"/>
    <rect x="918" y="440" width="120" height="60" rx="6" ry="6" fill="#000000" stroke="#000000" stroke-width="2" opacity="0.25" transform="translate(2,3)"/>
    <rect x="1368" y="760" width="120" height="60" rx="6" ry="6" fill="#000000" stroke="#000000" stroke-width="2" opacity="0.25" transform="translate(2,3)"/>
    <rect x="828" y="540" width="120" height="60" rx="6" ry="6" fill="#000000" stroke="#000000" stroke-width="2" opacity="0.25" transform="translate(2,3)"/>
    <rect x="40" y="540" width="120" height="60" rx="6" ry="6" fill="#000000" stroke="#000000" stroke-width="2" opacity="0.25" transform="translate(2,3)"/>
    <rect x="648" y="540" width="120" height="60" rx="6" ry="6" fill="#000000" stroke="#000000" stroke-width="2" opacity="0.25" transform="translate(2,3)"/>
    <rect x="220" y="640" width="120" height="80" rx="6" ry="6" fill="#000000" stroke="#000000" stroke-width="2" opacity="0.25" transform="translate(2,3)"/>
    <rect x="355" y="440" width="120" height="60" rx="6" ry="6" fill="#000000" stroke="#000000" stroke-width="2" opacity="0.25" transform="translate(2,3)"/>
    <rect x="40" y="40" width="120" height="60" rx="6" ry="6" fill="#000000" stroke="#000000" stroke-width="2" opacity="0.25" transform="translate(2,3)"/>
    <rect x="40" y="140" width="120" height="60" rx="6" ry="6" fill="#000000" stroke="#000000" stroke-width="2" opacity="0.25" transform="translate(2,3)"/>
  </g>
  <g id="edges">
    <g class="edge" data-edge-idx="0" data-edge-base="partof" data-edge-from="1" data-edge-to="2">
    <line x1="658.95" y1="799.61" x2="1177.38" y2="879.37" stroke="#82b366" stroke-width="3" />
    <path d="M 1184.05 880.39 L 1174.47 883.47 L 1177.38 879.37 L 1175.84 874.58 Z" fill="#82b366" stroke="#82b366" stroke-width="3" stroke-miterlimit="10"/>
    </g>
    <g class="edge" data-edge-idx="1" data-edge-base="partof" data-edge-from="10" data-edge-to="5">
    <line x1="621.50" y1="501.94" x2="680.60" y2="534.78" stroke="#82b366" stroke-width="3" />
    <path d="M 686.50 538.06 L 676.45 537.62 L 680.60 534.78 L 680.82 529.75 Z" fill="#82b366" stroke="#82b366" stroke-width="3" stroke-miterlimit="10"/>
    </g>
    <g class="edge" data-edge-idx="2" data-edge-base="partof" data-edge-from="11" data-edge-to="4">
    <line x1="99.41" y1="303.96" x2="65.59" y2="529.37" stroke="#82b366" stroke-width="3" />
    <path d="M 64.59 536.04 L 61.48 526.48 L 65.59 529.37 L 70.38 527.81 Z" fill="#82b366" stroke="#82b366" stroke-width="3" stroke-miterlimit="10"/>
    </g>
    <g class="edge" data-edge-idx="3" data-edge-base="partof" data-edge-from="12" data-edge-to="5">
    <line x1="794.50" y1="501.94" x2="735.40" y2="534.78" stroke="#82b366" stroke-width="3" />
    <path d="M 729.50 538.06 L 735.18 529.75 L 735.40 534.78 L 739.55 537.62 Z" fill="#82b366" stroke="#82b366" stroke-width="3" stroke-miterlimit="10"/>
    </g>
    <g class="edge" data-edge-idx="4" data-edge-base="partof" data-edge-from="13" data-edge-to="3">
    <line x1="770.20" y1="473.34" x2="822.08" y2="552.03" stroke="#82b366" stroke-width="3" />
    <path d="M 825.80 557.66 L 817.09 552.62 L 822.08 552.03 L 824.60 547.67 Z" fill="#82b366" stroke="#82b366" stroke-width="3" stroke-miterlimit="10"/>
    </g>
    <g class="edge" data-edge-idx="5" data-edge-base="partof" data-edge-from="14" data-edge-to="3">
    <line x1="888.00" y1="504.00" x2="888.00" y2="529.25" stroke="#82b366" stroke-width="3" />
    <path d="M 888.00 536.00 L 883.50 527.00 L 888.00 529.25 L 892.50 527.00 Z" fill="#82b366" stroke="#82b366" stroke-width="3" stroke-miterlimit="10"/>
    </g>
    <g class="edge" data-edge-idx="6" data-edge-base="partof" data-edge-from="15" data-edge-to="4">
    <line x1="99.49" y1="403.97" x2="83.37" y2="529.34" stroke="#82b366" stroke-width="3" />
    <path d="M 82.51 536.03 L 79.19 526.53 L 83.37 529.34 L 88.12 527.68 Z" fill="#82b366" stroke="#82b366" stroke-width="3" stroke-miterlimit="10"/>
    </g>
    <g class="edge" data-edge-idx="7" data-edge-base="partof" data-edge-from="16" data-edge-to="4">
    <line x1="261.98" y1="472.62" x2="168.12" y2="553.96" stroke="#82b366" stroke-width="3" />
    <path d="M 163.02 558.38 L 166.88 549.09 L 168.12 553.96 L 172.77 555.89 Z" fill="#82b366" stroke="#82b366" stroke-width="3" stroke-miterlimit="10"/>
    </g>
    <g class="edge" data-edge-idx="8" data-edge-base="partof" data-edge-from="16" data-edge-to="5">
    <line x1="388.82" y1="471.19" x2="637.74" y2="548.80" stroke="#82b366" stroke-width="3" />
    <path d="M 644.18 550.81 L 634.25 552.43 L 637.74 548.80 L 636.93 543.83 Z" fill="#82b366" stroke="#82b366" stroke-width="3" stroke-miterlimit="10"/>
    </g>
    <g class="edge" data-edge-idx="9" data-edge-base="partof" data-edge-from="17" data-edge-to="2">
    <line x1="1101.53" y1="793.10" x2="1181.20" y2="890.67" stroke="#82b366" stroke-width="3" />
    <path d="M 1185.47 895.90 L 1176.29 891.78 L 1181.20 890.67 L 1183.26 886.08 Z" fill="#82b366" stroke="#82b366" stroke-width="3" stroke-miterlimit="10"/>
    </g>
    <g class="edge" data-edge-idx="10" data-edge-base="partof" data-edge-from="18" data-edge-to="2">
    <line x1="1248.00" y1="824.00" x2="1248.00" y2="849.25" stroke="#82b366" stroke-width="3" />
    <path d="M 1248.00 856.00 L 1243.50 847.00 L 1248.00 849.25 L 1252.50 847.00 Z" fill="#82b366" stroke="#82b366" stroke-width="3" stroke-miterlimit="10"/>
    </g>
    <g class="edge" data-edge-idx="11" data-edge-base="partof" data-edge-from="19" data-edge-to="3">
    <line x1="1005.94" y1="473.43" x2="953.53" y2="560.78" stroke="#82b366" stroke-width="3" />
    <path d="M 950.06 566.57 L 950.83 556.54 L 953.53 560.78 L 958.55 561.17 Z" fill="#82b366" stroke="#82b366" stroke-width="3" stroke-miterlimit="10"/>
    </g>
    <g class="edge" data-edge-idx="12" data-edge-base="partof" data-edge-from="20" data-edge-to="4">
    <line x1="100.00" y1="504.00" x2="100.00" y2="529.25" stroke="#82b366" stroke-width="3" />
    <path d="M 100.00 536.00 L 95.50 527.00 L 100.00 529.25 L 104.50 527.00 Z" fill="#82b366" stroke="#82b366" stroke-width="3" stroke-miterlimit="10"/>
    </g>
    <g class="edge" data-edge-idx="13" data-edge-base="partof" data-edge-from="21" data-edge-to="5">
    <line x1="914.67" y1="472.22" x2="776.94" y2="564.04" stroke="#82b366" stroke-width="3" />
    <path d="M 771.33 567.78 L 776.32 559.04 L 776.94 564.04 L 781.31 566.53 Z" fill="#82b366" stroke="#82b366" stroke-width="3" stroke-miterlimit="10"/>
    </g>
    <g class="edge" data-edge-idx="14" data-edge-base="partof" data-edge-from="22" data-edge-to="2">
    <line x1="1365.94" y1="793.43" x2="1313.53" y2="880.78" stroke="#82b366" stroke-width="3" />
    <path d="M 1310.06 886.57 L 1310.83 876.54 L 1313.53 880.78 L 1318.55 881.17 Z" fill="#82b366" stroke="#82b366" stroke-width="3" stroke-miterlimit="10"/>
    </g>
    <g class="edge" data-edge-idx="15" data-edge-base="partof" data-edge-from="3" data-edge-to="1">
    <line x1="825.40" y1="582.04" x2="661.99" y2="772.84" stroke="#82b366" stroke-width="3" />
    <path d="M 657.60 777.96 L 660.04 768.20 L 661.99 772.84 L 666.87 774.05 Z" fill="#82b366" stroke="#82b366" stroke-width="3" stroke-miterlimit="10"/>
    </g>
    <g class="edge" data-edge-idx="16" data-edge-base="partof" data-edge-from="4" data-edge-to="6">
    <line x1="162.04" y1="582.44" x2="214.51" y2="670.76" stroke="#82b366" stroke-width="3" />
    <path d="M 217.96 676.56 L 209.49 671.12 L 214.51 670.76 L 217.23 666.53 Z" fill="#82b366" stroke="#82b366" stroke-width="3" stroke-miterlimit="10"/>
    </g>
    <g class="edge" data-edge-idx="17" data-edge-base="partof" data-edge-from="5" data-edge-to="6">
    <line x1="644.13" y1="589.01" x2="350.40" y2="665.30" stroke="#82b366" stroke-width="3" />
    <path d="M 343.87 666.99 L 351.45 660.38 L 350.40 665.30 L 353.71 669.09 Z" fill="#82b366" stroke="#82b366" stroke-width="3" stroke-miterlimit="10"/>
    </g>
    <g class="edge" data-edge-idx="18" data-edge-base="partof" data-edge-from="6" data-edge-to="1">
    <line x1="343.57" y1="693.80" x2="525.39" y2="785.17" stroke="#82b366" stroke-width="3" />
    <path d="M 531.43 788.20 L 521.36 788.18 L 525.39 785.17 L 525.41 780.14 Z" fill="#82b366" stroke="#82b366" stroke-width="3" stroke-miterlimit="10"/>
    </g>
    <g class="edge" data-edge-idx="19" data-edge-base="partof" data-edge-from="7" data-edge-to="5">
    <line x1="478.46" y1="472.00" x2="638.69" y2="564.62" stroke="#82b366" stroke-width="3" />
    <path d="M 644.54 568.00 L 634.49 567.39 L 638.69 564.62 L 639.00 559.60 Z" fill="#82b366" stroke="#82b366" stroke-width="3" stroke-miterlimit="10"/>
    </g>
    <g class="edge" data-edge-idx="20" data-edge-base="partof" data-edge-from="8" data-edge-to="4">
    <line x1="100.15" y1="104.00" x2="116.58" y2="529.26" stroke="#82b366" stroke-width="3" />
    <path d="M 116.85 536.00 L 112.00 527.18 L 116.58 529.26 L 120.99 526.84 Z" fill="#82b366" stroke="#82b366" stroke-width="3" stroke-miterlimit="10"/>
    </g>
    <g class="edge" data-edge-idx="21" data-edge-base="partof" data-edge-from="9" data-edge-to="4">
    <line x1="100.42" y1="203.98" x2="134.87" y2="529.31" stroke="#82b366" stroke-width="3" />
    <path d="M 135.58 536.02 L 130.16 527.55 L 134.87 529.31 L 139.11 526.60 Z" fill="#82b366" stroke="#82b366" stroke-width="3" stroke-miterlimit="10"/>
    </g>
  </g>
  <g id="nodes">
    <rect x="535" y="760" width="120" height="60" rx="6" ry="6" fill="#d5e8d4" stroke="#82b366" stroke-width="2"/>
    <text x="595" y="765" text-anchor="middle" dominant-baseline="middle" font-family="Helvetica,Inter,Segoe UI,Arial" font-size="14" font-weight="normal" fill="#009900">Data for</text>
    <text x="595" y="782" text-anchor="middle" dominant-baseline="middle" font-family="Helvetica,Inter,Segoe UI,Arial" font-size="14" font-weight="normal" fill="#009900">&#34;Example</text>
    <text x="595" y="798" text-anchor="middle" dominant-baseline="middle" font-family="Helvetica,Inter,Segoe UI,Arial" font-size="14" font-weight="normal" fill="#009900">API</text>
    <text x="595" y="815" text-anchor="middle" dominant-baseline="middle" font-family="Helvetica,Inter,Segoe UI,Arial" font-size="14" font-weight="normal" fill="#009900">Response&#34;</text>
    <rect x="558" y="440" width="120" height="60" rx="6" ry="6" fill="#d5e8d4" stroke="#82b366" stroke-width="2"/>
    <text x="618" y="451" text-anchor="middle" dominant-baseline="middle" font-family="Helvetica,Inter,Segoe UI,Arial" font-size="16" font-weight="normal" fill="#009900">email =</text>
    <text x="618" y="470" text-anchor="middle" dominant-baseline="middle" font-family="Helvetica,Inter,Segoe UI,Arial" font-size="16" font-weight="normal" fill="#009900">bob@example.</text>
    <text x="618" y="489" text-anchor="middle" dominant-baseline="middle" font-family="Helvetica,Inter,Segoe UI,Arial" font-size="16" font-weight="normal" fill="#009900">com</text>
    <rect x="40" y="240" width="120" height="60" rx="6" ry="6" fill="#d5e8d4" stroke="#82b366" stroke-width="2"/>
    <text x="100" y="270" text-anchor="middle" dominant-baseline="middle" font-family="Helvetica,Inter,Segoe UI,Arial" font-size="16" font-weight="normal" fill="#009900">id = 1</text>
    <rect x="738" y="440" width="120" height="60" rx="6" ry="6" fill="#d5e8d4" stroke="#82b366" stroke-width="2"/>
    <text x="798" y="470" text-anchor="middle" dominant-baseline="middle" font-family="Helvetica,Inter,Segoe UI,Arial" font-size="16" font-weight="normal" fill="#009900">id = 2</text>
    <rect x="648" y="440" width="120" height="60" rx="6" ry="6" fill="#d5e8d4" stroke="#82b366" stroke-width="2"/>
    <text x="708" y="470" text-anchor="middle" dominant-baseline="middle" font-family="Helvetica,Inter,Segoe UI,Arial" font-size="16" font-weight="normal" fill="#009900">limit = 10</text>
    <rect x="828" y="440" width="120" height="60" rx="6" ry="6" fill="#d5e8d4" stroke="#82b366" stroke-width="2"/>
    <text x="888" y="460" text-anchor="middle" dominant-baseline="middle" font-family="Helvetica,Inter,Segoe UI,Arial" font-size="16" font-weight="normal" fill="#009900">page number</text>
    <text x="888" y="480" text-anchor="middle" dominant-baseline="middle" font-family="Helvetica,Inter,Segoe UI,Arial" font-size="16" font-weight="normal" fill="#009900">= 1</text>
    <rect x="40" y="340" width="120" height="60" rx="6" ry="6" fill="#d5e8d4" stroke="#82b366" stroke-width="2"/>
    <text x="100" y="370" text-anchor="middle" dominant-baseline="middle" font-family="Helvetica,Inter,Segoe UI,Arial" font-size="16" font-weight="normal" fill="#009900">role = admin</text>
    <rect x="265" y="440" width="120" height="60" rx="6" ry="6" fill="#d5e8d4" stroke="#82b366" stroke-width="2"/>
    <text x="325" y="470" text-anchor="middle" dominant-baseline="middle" font-family="Helvetica,Inter,Segoe UI,Arial" font-size="16" font-weight="normal" fill="#009900">role = user</text>
    <rect x="979" y="760" width="120" height="60" rx="6" ry="6" fill="#d5e8d4" stroke="#82b366" stroke-width="2"/>
    <text x="1039" y="780" text-anchor="middle" dominant-baseline="middle" font-family="Helvetica,Inter,Segoe UI,Arial" font-size="16" font-weight="normal" fill="#009900">status =</text>
    <text x="1039" y="800" text-anchor="middle" dominant-baseline="middle" font-family="Helvetica,Inter,Segoe UI,Arial" font-size="16" font-weight="normal" fill="#009900">success</text>
    <rect x="1188" y="760" width="120" height="60" rx="6" ry="6" fill="#d5e8d4" stroke="#82b366" stroke-width="2"/>
    <text x="1248" y="773" text-anchor="middle" dominant-baseline="middle" font-family="Helvetica,Inter,Segoe UI,Arial" font-size="14" font-weight="normal" fill="#009900">timestamp =</text>
    <text x="1248" y="790" text-anchor="middle" dominant-baseline="middle" font-family="Helvetica,Inter,Segoe UI,Arial" font-size="14" font-weight="normal" fill="#009900">&#34;2025-10-17T</text>
    <text x="1248" y="807" text-anchor="middle" dominant-baseline="middle" font-family="Helvetica,Inter,Segoe UI,Arial" font-size="14" font-weight="normal" fill="#009900">14:30:00Z&#34;</text>
    <rect x="1008" y="440" width="120" height="60" rx="6" ry="6" fill="#d5e8d4" stroke="#82b366" stroke-width="2"/>
    <text x="1068" y="470" text-anchor="middle" dominant-baseline="middle" font-family="Helvetica,Inter,Segoe UI,Arial" font-size="16" font-weight="normal" fill="#009900">total = 2</text>
    <rect x="1188" y="860" width="120" height="60" rx="6" ry="6" fill="#d5e8d4" stroke="#82b366" stroke-width="2"/>
    <text x="1248" y="880" text-anchor="middle" dominant-baseline="middle" font-family="Helvetica,Inter,Segoe UI,Arial" font-size="16" font-weight="normal" fill="#009900">Example API</text>
    <text x="1248" y="900" text-anchor="middle" dominant-baseline="middle" font-family="Helvetica,Inter,Segoe UI,Arial" font-size="16" font-weight="normal" fill="#009900">Response</text>
    <rect x="40" y="440" width="120" height="60" rx="6" ry="6" fill="#d5e8d4" stroke="#82b366" stroke-width="2"/>
    <text x="100" y="460" text-anchor="middle" dominant-baseline="middle" font-family="Helvetica,Inter,Segoe UI,Arial" font-size="16" font-weight="normal" fill="#009900">username =</text>
    <text x="100" y="480" text-anchor="middle" dominant-baseline="middle" font-family="Helvetica,Inter,Segoe UI,Arial" font-size="16" font-weight="normal" fill="#009900">alice</text>
    <rect x="918" y="440" width="120" height="60" rx="6" ry="6" fill="#d5e8d4" stroke="#82b366" stroke-width="2"/>
    <text x="978" y="460" text-anchor="middle" dominant-baseline="middle" font-family="Helvetica,Inter,Segoe UI,Arial" font-size="16" font-weight="normal" fill="#009900">username =</text>
    <text x="978" y="480" text-anchor="middle" dominant-baseline="middle" font-family="Helvetica,Inter,Segoe UI,Arial" font-size="16" font-weight="normal" fill="#009900">bob</text>
    <rect x="1368" y="760" width="120" height="60" rx="6" ry="6" fill="#d5e8d4" stroke="#82b366" stroke-width="2"/>
    <text x="1428" y="780" text-anchor="middle" dominant-baseline="middle" font-family="Helvetica,Inter,Segoe UI,Arial" font-size="16" font-weight="normal" fill="#009900">version =</text>
    <text x="1428" y="800" text-anchor="middle" dominant-baseline="middle" font-family="Helvetica,Inter,Segoe UI,Arial" font-size="16" font-weight="normal" fill="#009900">1.0.0</text>
    <rect x="828" y="540" width="120" height="60" rx="6" ry="6" fill="#d5e8d4" stroke="#82b366" stroke-width="2"/>
    <text x="888" y="545" text-anchor="middle" dominant-baseline="middle" font-family="Helvetica,Inter,Segoe UI,Arial" font-size="14" font-weight="normal" fill="#009900">Metadata for</text>
    <text x="888" y="562" text-anchor="middle" dominant-baseline="middle" font-family="Helvetica,Inter,Segoe UI,Arial" font-size="14" font-weight="normal" fill="#009900">&#34;Example</text>
    <text x="888" y="578" text-anchor="middle" dominant-baseline="middle" font-family="Helvetica,Inter,Segoe UI,Arial" font-size="14" font-weight="normal" fill="#009900">API</text>
    <text x="888" y="595" text-anchor="middle" dominant-baseline="middle" font-family="Helvetica,Inter,Segoe UI,Arial" font-size="14" font-weight="normal" fill="#009900">Response&#34;</text>
    <rect x="40" y="540" width="120" height="60" rx="6" ry="6" fill="#d5e8d4" stroke="#82b366" stroke-width="2"/>
    <text x="100" y="570" text-anchor="middle" dominant-baseline="middle" font-family="Helvetica,Inter,Segoe UI,Arial" font-size="16" font-weight="normal" fill="#009900">User 1</text>
    <rect x="648" y="540" width="120" height="60" rx="6" ry="6" fill="#d5e8d4" stroke="#82b366" stroke-width="2"/>
    <text x="708" y="570" text-anchor="middle" dominant-baseline="middle" font-family="Helvetica,Inter,Segoe UI,Arial" font-size="16" font-weight="normal" fill="#009900">User 2</text>
    <rect x="220" y="640" width="120" height="80" rx="6" ry="6" fill="#d5e8d4" stroke="#82b366" stroke-width="2"/>
    <text x="280" y="655" text-anchor="middle" dominant-baseline="middle" font-family="Helvetica,Inter,Segoe UI,Arial" font-size="14" font-weight="normal" fill="#009900">User array for</text>
    <text x="280" y="672" text-anchor="middle" dominant-baseline="middle" font-family="Helvetica,Inter,Segoe UI,Arial" font-size="14" font-weight="normal" fill="#009900">&#34;Example</text>
    <text x="280" y="688" text-anchor="middle" dominant-baseline="middle" font-family="Helvetica,Inter,Segoe UI,Arial" font-size="14" font-weight="normal" fill="#009900">API</text>
    <text x="280" y="705" text-anchor="middle" dominant-baseline="middle" font-family="Helvetica,Inter,Segoe UI,Arial" font-size="14" font-weight="normal" fill="#009900">Response&#34;</text>
    <rect x="355" y="440" width="120" height="60" rx="6" ry="6" fill="#d5e8d4" stroke="#82b366" stroke-width="2"/>
    <text x="415" y="460" text-anchor="middle" dominant-baseline="middle" font-family="Helvetica,Inter,Segoe UI,Arial" font-size="16" font-weight="normal" fill="#009900">active =</text>
    <text x="415" y="480" text-anchor="middle" dominant-baseline="middle" font-family="Helvetica,Inter,Segoe UI,Arial" font-size="16" font-weight="normal" fill="#009900">false</text>
    <rect x="40" y="40" width="120" height="60" rx="6" ry="6" fill="#d5e8d4" stroke="#82b366" stroke-width="2"/>
    <text x="100" y="60" text-anchor="middle" dominant-baseline="middle" font-family="Helvetica,Inter,Segoe UI,Arial" font-size="16" font-weight="normal" fill="#009900">active =</text>
    <text x="100" y="80" text-anchor="middle" dominant-baseline="middle" font-family="Helvetica,Inter,Segoe UI,Arial" font-size="16" font-weight="normal" fill="#009900">true</text>
    <rect x="40" y="140" width="120" height="60" rx="6" ry="6" fill="#d5e8d4" stroke="#82b366" stroke-width="2"/>
    <text x="100" y="151" text-anchor="middle" dominant-baseline="middle" font-family="Helvetica,Inter,Segoe UI,Arial" font-size="16" font-weight="normal" fill="#009900">email =</text>
    <text x="100" y="170" text-anchor="middle" dominant-baseline="middle" font-family="Helvetica,Inter,Segoe UI,Arial" font-size="16" font-weight="normal" fill="#009900">alice@exampl</text>
    <text x="100" y="189" text-anchor="middle" dominant-baseline="middle" font-family="Helvetica,Inter,Segoe UI,Arial" font-size="16" font-weight="normal" fill="#009900">e.com</text>
  </g>
</svg>
