<?xml version="1.0" encoding="UTF-8"?>
<svg xmlns="http://www.w3.org/2000/svg" width="740" height="1430" viewBox="0 0 740 1430">
  <defs>
  </defs>
  <g id="container-shells">
  </g>
  <g id="node-shadows">
    <rect x="580" y="120" width="120" height="60" rx="6" ry="6" fill="#000000" stroke="#000000" stroke-width="2" opacity="0.25" transform="translate(2,3)"/>
    <rect x="580" y="480" width="120" height="60" rx="6" ry="6" fill="#000000" stroke="#000000" stroke-width="2" opacity="0.25" transform="translate(2,3)"/>
    <rect x="580" y="640" width="120" height="60" rx="6" ry="6" fill="#000000" stroke="#000000" stroke-width="2" opacity="0.25" transform="translate(2,3)"/>
    <rect x="580" y="1000" width="120" height="60" rx="6" ry="6" fill="#000000" stroke="#000000" stroke-width="2" opacity="0.25" transform="translate(2,3)"/>
    <rect x="580" y="1080" width="120" height="60" rx="6" ry="6" fill="#000000" stroke="#000000" stroke-width="2" opacity="0.25" transform="translate(2,3)"/>
    <rect x="400" y="1100" width="120" height="60" rx="6" ry="6" fill="#000000" stroke="#000000" stroke-width="2" opacity="0.25" transform="translate(2,3)"/>
    <rect x="400" y="1200" width="120" height="60" rx="6" ry="6" fill="#000000" stroke="#000000" stroke-width="2" opacity="0.25" transform="translate(2,3)"/>
    <rect x="580" y="1160" width="120" height="60" rx="6" ry="6" fill="#000000" stroke="#000000" stroke-width="2" opacity="0.25" transform="translate(2,3)"/>
    <rect x="40" y="1150" width="120" height="60" rx="6" ry="6" fill="#000000" stroke="#000000" stroke-width="2" opacity="0.25" transform="translate(2,3)"/>
    <rect x="580" y="710" width="120" height="60" rx="6" ry="6" fill="#000000" stroke="#000000" stroke-width="2" opacity="0.25" transform="translate(2,3)"/>
    <rect x="40" y="1250" width="120" height="60" rx="6" ry="6" fill="#000000" stroke="#000000" stroke-width="2" opacity="0.25" transform="translate(2,3)"/>
    <rect x="580" y="840" width="120" height="60" rx="6" ry="6" fill="#000000" stroke="#000000" stroke-width="2" opacity="0.25" transform="translate(2,3)"/>
    <rect x="260" y="40" width="40" height="40" rx="4" ry="4" fill="#000000" stroke="#000000" stroke-width="2" opacity="0.25" transform="translate(2,3)"/>
    <rect x="260" y="1350" width="40" height="40" rx="4" ry="4" fill="#000000" stroke="#000000" stroke-width="2" opacity="0.25" transform="translate(2,3)"/>
    <rect x="40" y="1050" width="120" height="60" rx="6" ry="6" fill="#000000" stroke="#000000" stroke-width="2" opacity="0.25" transform="translate(2,3)"/>
    <rect x="400" y="370" width="120" height="60" rx="6" ry="6" fill="#000000" stroke="#000000" stroke-width="2" opacity="0.25" transform="translate(2,3)"/>
    <rect x="400" y="930" width="120" height="60" rx="6" ry="6" fill="#000000" stroke="#000000" stroke-width="2" opacity="0.25" transform="translate(2,3)"/>
    <rect x="220" y="1150" width="120" height="60" rx="6" ry="6" fill="#000000" stroke="#000000" stroke-width="2" opacity="0.25" transform="translate(2,3)"/>
    <rect x="220" y="630" width="120" height="80" rx="6" ry="6" fill="#000000" stroke="#000000" stroke-width="2" opacity="0.25" transform="translate(2,3)"/>
    <rect x="580" y="220" width="120" height="60" rx="6" ry="6" fill="#000000" stroke="#000000" stroke-width="2" opacity="0.25" transform="translate(2,3)"/>
    <rect x="580" y="320" width="120" height="60" rx="6" ry="6" fill="#000000" stroke="#000000" stroke-width="2" opacity="0.25" transform="translate(2,3)"/>
  </g>
  <g id="edges">
    <g class="edge" data-edge-idx="0" data-edge-base="leadsto" data-edge-from="20" data-edge-to="7">
    <line x1="280.00" y1="84.00" x2="280.00" y2="619.25" stroke="#ff8000" stroke-width="3" />
    <path d="M 280.00 626.00 L 275.50 617.00 L 280.00 619.25 L 284.50 617.00 Z" fill="#ff8000" stroke="#ff8000" stroke-width="3" stroke-miterlimit="10"/>
    </g>
    <g class="edge" data-edge-idx="1" data-edge-base="expresses" data-edge-from="4" data-edge-to="1">
    <line x1="521.00" y1="378.13" x2="577.31" y2="160.41" stroke="#6c8ebf" stroke-width="3" stroke-dasharray="9 6" />
    <path d="M 579.00 153.87 L 581.10 163.71 L 577.31 160.41 L 572.39 161.46 Z" fill="#6c8ebf" stroke="#6c8ebf" stroke-width="3" stroke-miterlimit="10"/>
    <text x="549" y="269" text-anchor="middle" dominant-baseline="middle" font-family="Helvetica,Inter,Segoe UI,Arial" font-size="11" paint-order="stroke" stroke="#ffffff" stroke-width="3" stroke-linejoin="round" fill="#6c8ebf">has id</text>
    </g>
    <g class="edge" data-edge-idx="2" data-edge-base="expresses" data-edge-from="4" data-edge-to="10">
    <line x1="521.96" y1="406.49" x2="574.74" y2="500.62" stroke="#6c8ebf" stroke-width="3" stroke-dasharray="9 6" />
    <path d="M 578.04 506.51 L 569.72 500.86 L 574.74 500.62 L 577.57 496.46 Z" fill="#6c8ebf" stroke="#6c8ebf" stroke-width="3" stroke-miterlimit="10"/>
    <text x="547" y="453" text-anchor="middle" dominant-baseline="middle" font-family="Helvetica,Inter,Segoe UI,Arial" font-size="11" paint-order="stroke" stroke="#ffffff" stroke-width="3" stroke-linejoin="round" fill="#6c8ebf">
      <title>has username</title>has...
    </text>
    </g>
    <g class="edge" data-edge-idx="3" data-edge-base="expresses" data-edge-from="4" data-edge-to="11">
    <line x1="520.90" y1="413.90" x2="577.58" y2="659.53" stroke="#6c8ebf" stroke-width="3" stroke-dasharray="9 6" />
    <path d="M 579.10 666.10 L 572.69 658.34 L 577.58 659.53 L 581.46 656.32 Z" fill="#6c8ebf" stroke="#6c8ebf" stroke-width="3" stroke-miterlimit="10"/>
    <text x="548" y="536" text-anchor="middle" dominant-baseline="middle" font-family="Helvetica,Inter,Segoe UI,Arial" font-size="11" paint-order="stroke" stroke="#ffffff" stroke-width="3" stroke-linejoin="round" fill="#6c8ebf">
      <title>has email</title>has...
    </text>
    </g>
    <g class="edge" data-edge-idx="4" data-edge-base="expresses" data-edge-from="4" data-edge-to="18">
    <line x1="520.75" y1="421.93" x2="577.98" y2="720.44" stroke="#6c8ebf" stroke-width="3" stroke-dasharray="9 6" />
    <path d="M 579.25 727.07 L 573.13 719.08 L 577.98 720.44 L 581.97 717.39 Z" fill="#6c8ebf" stroke="#6c8ebf" stroke-width="3" stroke-miterlimit="10"/>
    <text x="548" y="570" text-anchor="middle" dominant-baseline="middle" font-family="Helvetica,Inter,Segoe UI,Arial" font-size="11" paint-order="stroke" stroke="#ffffff" stroke-width="3" stroke-linejoin="round" fill="#6c8ebf">
      <title>has a role</title>has...
    </text>
    </g>
    <g class="edge" data-edge-idx="5" data-edge-base="leadsto" data-edge-from="4" data-edge-to="5">
    <line x1="460.00" y1="434.00" x2="460.00" y2="919.25" stroke="#ff8000" stroke-width="3" />
    <path d="M 460.00 926.00 L 455.50 917.00 L 460.00 919.25 L 464.50 917.00 Z" fill="#ff8000" stroke="#ff8000" stroke-width="3" stroke-miterlimit="10"/>
    <text x="460" y="676" text-anchor="middle" dominant-baseline="middle" font-family="Helvetica,Inter,Segoe UI,Arial" font-size="11" paint-order="stroke" stroke="#ffffff" stroke-width="3" stroke-linejoin="round" fill="#ff8000">
      <title>then followed by</title>then...
    </text>
    </g>
    <g class="edge" data-edge-idx="6" data-edge-base="partof" data-edge-from="4" data-edge-to="7">
    <line x1="399.09" y1="403.90" x2="342.44" y2="647.53" stroke="#82b366" stroke-width="3" />
    <path d="M 340.91 654.10 L 338.56 644.32 L 342.44 647.53 L 347.33 646.36 Z" fill="#82b366" stroke="#82b366" stroke-width="3" stroke-miterlimit="10"/>
    </g>
    <g class="edge" data-edge-idx="7" data-edge-base="expresses" data-edge-from="4" data-edge-to="8">
    <line x1="521.59" y1="385.33" x2="575.74" y2="259.87" stroke="#6c8ebf" stroke-width="3" stroke-dasharray="9 6" />
    <path d="M 578.41 253.67 L 578.98 263.72 L 575.74 259.87 L 570.72 260.15 Z" fill="#6c8ebf" stroke="#6c8ebf" stroke-width="3" stroke-miterlimit="10"/>
    <text x="548" y="322" text-anchor="middle" dominant-baseline="middle" font-family="Helvetica,Inter,Segoe UI,Arial" font-size="11" paint-order="stroke" stroke="#ffffff" stroke-width="3" stroke-linejoin="round" fill="#6c8ebf">
      <title>has status</title>has...
    </text>
    </g>
    <g class="edge" data-edge-idx="8" data-edge-base="expresses" data-edge-from="4" data-edge-to="9">
    <line x1="523.17" y1="393.57" x2="571.47" y2="356.54" stroke="#6c8ebf" stroke-width="3" stroke-dasharray="9 6" />
    <path d="M 576.83 352.43 L 572.42 361.48 L 571.47 356.54 L 566.95 354.34 Z" fill="#6c8ebf" stroke="#6c8ebf" stroke-width="3" stroke-miterlimit="10"/>
    <text x="547" y="374" text-anchor="middle" dominant-baseline="middle" font-family="Helvetica,Inter,Segoe UI,Arial" font-size="11" paint-order="stroke" stroke="#ffffff" stroke-width="3" stroke-linejoin="round" fill="#6c8ebf">
      <title>has a role</title>has...
    </text>
    </g>
    <g class="edge" data-edge-idx="9" data-edge-base="expresses" data-edge-from="5" data-edge-to="12">
    <line x1="522.60" y1="963.04" x2="573.00" y2="1021.84" stroke="#6c8ebf" stroke-width="3" stroke-dasharray="9 6" />
    <path d="M 577.40 1026.96 L 568.12 1023.06 L 573.00 1021.84 L 574.96 1017.20 Z" fill="#6c8ebf" stroke="#6c8ebf" stroke-width="3" stroke-miterlimit="10"/>
    <text x="547" y="992" text-anchor="middle" dominant-baseline="middle" font-family="Helvetica,Inter,Segoe UI,Arial" font-size="11" paint-order="stroke" stroke="#ffffff" stroke-width="3" stroke-linejoin="round" fill="#6c8ebf">
      <title>has username</title>has...
    </text>
    </g>
    <g class="edge" data-edge-idx="10" data-edge-base="expresses" data-edge-from="5" data-edge-to="13">
    <line x1="521.56" y1="971.68" x2="575.82" y2="1100.10" stroke="#6c8ebf" stroke-width="3" stroke-dasharray="9 6" />
    <path d="M 578.44 1106.32 L 570.80 1099.78 L 575.82 1100.10 L 579.09 1096.27 Z" fill="#6c8ebf" stroke="#6c8ebf" stroke-width="3" stroke-miterlimit="10"/>
    <text x="548" y="1035" text-anchor="middle" dominant-baseline="middle" font-family="Helvetica,Inter,Segoe UI,Arial" font-size="11" paint-order="stroke" stroke="#ffffff" stroke-width="3" stroke-linejoin="round" fill="#6c8ebf">
      <title>has email</title>has...
    </text>
    </g>
    <g class="edge" data-edge-idx="11" data-edge-base="expresses" data-edge-from="5" data-edge-to="16">
    <line x1="521.09" y1="981.85" x2="577.07" y2="1179.66" stroke="#6c8ebf" stroke-width="3" stroke-dasharray="9 6" />
    <path d="M 578.91 1186.15 L 572.13 1178.72 L 577.07 1179.66 L 580.79 1176.27 Z" fill="#6c8ebf" stroke="#6c8ebf" stroke-width="3" stroke-miterlimit="10"/>
    <text x="549" y="1080" text-anchor="middle" dominant-baseline="middle" font-family="Helvetica,Inter,Segoe UI,Arial" font-size="11" paint-order="stroke" stroke="#ffffff" stroke-width="3" stroke-linejoin="round" fill="#6c8ebf">
      <title>has status</title>has...
    </text>
    </g>
    <g class="edge" data-edge-idx="12" data-edge-base="expresses" data-edge-from="5" data-edge-to="18">
    <line x1="521.19" y1="938.18" x2="576.81" y2="759.27" stroke="#6c8ebf" stroke-width="3" stroke-dasharray="9 6" />
    <path d="M 578.81 752.82 L 580.44 762.75 L 576.81 759.27 L 571.84 760.08 Z" fill="#6c8ebf" stroke="#6c8ebf" stroke-width="3" stroke-miterlimit="10"/>
    <text x="548" y="848" text-anchor="middle" dominant-baseline="middle" font-family="Helvetica,Inter,Segoe UI,Arial" font-size="11" paint-order="stroke" stroke="#ffffff" stroke-width="3" stroke-linejoin="round" fill="#6c8ebf">
      <title>has a role</title>has...
    </text>
    </g>
    <g class="edge" data-edge-idx="13" data-edge-base="expresses" data-edge-from="5" data-edge-to="2">
    <line x1="522.38" y1="947.79" x2="573.60" y2="878.64" stroke="#6c8ebf" stroke-width="3" stroke-dasharray="9 6" />
    <path d="M 577.62 873.21 L 575.88 883.12 L 573.60 878.64 L 568.65 877.77 Z" fill="#6c8ebf" stroke="#6c8ebf" stroke-width="3" stroke-miterlimit="10"/>
    <text x="547" y="912" text-anchor="middle" dominant-baseline="middle" font-family="Helvetica,Inter,Segoe UI,Arial" font-size="11" paint-order="stroke" stroke="#ffffff" stroke-width="3" stroke-linejoin="round" fill="#6c8ebf">has id</text>
    </g>
    <g class="edge" data-edge-idx="14" data-edge-base="leadsto" data-edge-from="5" data-edge-to="6">
    <line x1="457.01" y1="992.66" x2="288.03" y2="1142.86" stroke="#ff8000" stroke-width="3" />
    <path d="M 282.99 1147.34 L 286.73 1138.00 L 288.03 1142.86 L 292.71 1144.73 Z" fill="#ff8000" stroke="#ff8000" stroke-width="3" stroke-miterlimit="10"/>
    <text x="372" y="1067" text-anchor="middle" dominant-baseline="middle" font-family="Helvetica,Inter,Segoe UI,Arial" font-size="11" paint-order="stroke" stroke="#ffffff" stroke-width="3" stroke-linejoin="round" fill="#ff8000">
      <title>then followed by</title>then...
    </text>
    </g>
    <g class="edge" data-edge-idx="15" data-edge-base="partof" data-edge-from="5" data-edge-to="7">
    <line x1="399.16" y1="956.09" x2="342.27" y2="692.51" stroke="#82b366" stroke-width="3" />
    <path d="M 340.84 685.91 L 347.14 693.76 L 342.27 692.51 L 338.34 695.66 Z" fill="#82b366" stroke="#82b366" stroke-width="3" stroke-miterlimit="10"/>
    </g>
    <g class="edge" data-edge-idx="16" data-edge-base="expresses" data-edge-from="6" data-edge-to="14">
    <line x1="343.30" y1="1168.74" x2="391.12" y2="1136.07" stroke="#6c8ebf" stroke-width="3" stroke-dasharray="9 6" />
    <path d="M 396.70 1132.26 L 391.81 1141.05 L 391.12 1136.07 L 386.73 1133.62 Z" fill="#6c8ebf" stroke="#6c8ebf" stroke-width="3" stroke-miterlimit="10"/>
    <text x="367" y="1152" text-anchor="middle" dominant-baseline="middle" font-family="Helvetica,Inter,Segoe UI,Arial" font-size="11" paint-order="stroke" stroke="#ffffff" stroke-width="3" stroke-linejoin="round" fill="#6c8ebf">
      <title>has username</title>has...
    </text>
    </g>
    <g class="edge" data-edge-idx="17" data-edge-base="expresses" data-edge-from="6" data-edge-to="15">
    <line x1="343.30" y1="1191.26" x2="391.12" y2="1223.93" stroke="#6c8ebf" stroke-width="3" stroke-dasharray="9 6" />
    <path d="M 396.70 1227.74 L 386.73 1226.38 L 391.12 1223.93 L 391.81 1218.95 Z" fill="#6c8ebf" stroke="#6c8ebf" stroke-width="3" stroke-miterlimit="10"/>
    <text x="367" y="1207" text-anchor="middle" dominant-baseline="middle" font-family="Helvetica,Inter,Segoe UI,Arial" font-size="11" paint-order="stroke" stroke="#ffffff" stroke-width="3" stroke-linejoin="round" fill="#6c8ebf">
      <title>has email</title>has...
    </text>
    </g>
    <g class="edge" data-edge-idx="18" data-edge-base="expresses" data-edge-from="6" data-edge-to="17">
    <line x1="216.00" y1="1180.00" x2="170.75" y2="1180.00" stroke="#6c8ebf" stroke-width="3" stroke-dasharray="9 6" />
    <path d="M 164.00 1180.00 L 173.00 1175.50 L 170.75 1180.00 L 173.00 1184.50 Z" fill="#6c8ebf" stroke="#6c8ebf" stroke-width="3" stroke-miterlimit="10"/>
    <text x="193" y="1180" text-anchor="middle" dominant-baseline="middle" font-family="Helvetica,Inter,Segoe UI,Arial" font-size="11" paint-order="stroke" stroke="#ffffff" stroke-width="3" stroke-linejoin="round" fill="#6c8ebf">
      <title>has status</title>has...
    </text>
    </g>
    <g class="edge" data-edge-idx="19" data-edge-base="expresses" data-edge-from="6" data-edge-to="19">
    <line x1="217.75" y1="1195.30" x2="166.06" y2="1271.12" stroke="#6c8ebf" stroke-width="3" stroke-dasharray="9 6" />
    <path d="M 162.25 1276.70 L 163.61 1266.72 L 166.06 1271.12 L 171.04 1271.79 Z" fill="#6c8ebf" stroke="#6c8ebf" stroke-width="3" stroke-miterlimit="10"/>
    <text x="191" y="1233" text-anchor="middle" dominant-baseline="middle" font-family="Helvetica,Inter,Segoe UI,Arial" font-size="11" paint-order="stroke" stroke="#ffffff" stroke-width="3" stroke-linejoin="round" fill="#6c8ebf">
      <title>has a role</title>has...
    </text>
    </g>
    <g class="edge" data-edge-idx="20" data-edge-base="leadsto" data-edge-from="6" data-edge-to="21">
    <line x1="280.00" y1="1214.00" x2="280.00" y2="1339.25" stroke="#ff8000" stroke-width="3" />
    <path d="M 280.00 1346.00 L 275.50 1337.00 L 280.00 1339.25 L 284.50 1337.00 Z" fill="#ff8000" stroke="#ff8000" stroke-width="3" stroke-miterlimit="10"/>
    </g>
    <g class="edge" data-edge-idx="21" data-edge-base="expresses" data-edge-from="6" data-edge-to="3">
    <line x1="217.75" y1="1164.70" x2="166.06" y2="1088.88" stroke="#6c8ebf" stroke-width="3" stroke-dasharray="9 6" />
    <path d="M 162.25 1083.30 L 171.04 1088.21 L 166.06 1088.88 L 163.61 1093.28 Z" fill="#6c8ebf" stroke="#6c8ebf" stroke-width="3" stroke-miterlimit="10"/>
    <text x="191" y="1126" text-anchor="middle" dominant-baseline="middle" font-family="Helvetica,Inter,Segoe UI,Arial" font-size="11" paint-order="stroke" stroke="#ffffff" stroke-width="3" stroke-linejoin="round" fill="#6c8ebf">has id</text>
    </g>
  </g>
  <g id="nodes">
    <rect x="580" y="120" width="120" height="60" rx="6" ry="6" fill="#dae8fc" stroke="#6c8ebf" stroke-width="2"/>
    <text x="640" y="150" text-anchor="middle" dominant-baseline="middle" font-family="Helvetica,Inter,Segoe UI,Arial" font-size="16" font-weight="normal" fill="#3399ff">1</text>
    <rect x="580" y="480" width="120" height="60" rx="6" ry="6" fill="#dae8fc" stroke="#6c8ebf" stroke-width="2"/>
    <text x="640" y="510" text-anchor="middle" dominant-baseline="middle" font-family="Helvetica,Inter,Segoe UI,Arial" font-size="16" font-weight="normal" fill="#3399ff">alice</text>
    <rect x="580" y="640" width="120" height="60" rx="6" ry="6" fill="#dae8fc" stroke="#6c8ebf" stroke-width="2"/>
    <text x="640" y="660" text-anchor="middle" dominant-baseline="middle" font-family="Helvetica,Inter,Segoe UI,Arial" font-size="16" font-weight="normal" fill="#3399ff">alice@exampl</text>
    <text x="640" y="680" text-anchor="middle" dominant-baseline="middle" font-family="Helvetica,Inter,Segoe UI,Arial" font-size="16" font-weight="normal" fill="#3399ff">e.com</text>
    <rect x="580" y="1000" width="120" height="60" rx="6" ry="6" fill="#dae8fc" stroke="#6c8ebf" stroke-width="2"/>
    <text x="640" y="1030" text-anchor="middle" dominant-baseline="middle" font-family="Helvetica,Inter,Segoe UI,Arial" font-size="16" font-weight="normal" fill="#3399ff">bob</text>
    <rect x="580" y="1080" width="120" height="60" rx="6" ry="6" fill="#dae8fc" stroke="#6c8ebf" stroke-width="2"/>
    <text x="640" y="1100" text-anchor="middle" dominant-baseline="middle" font-family="Helvetica,Inter,Segoe UI,Arial" font-size="16" font-weight="normal" fill="#3399ff">bob@example.</text>
    <text x="640" y="1120" text-anchor="middle" dominant-baseline="middle" font-family="Helvetica,Inter,Segoe UI,Arial" font-size="16" font-weight="normal" fill="#3399ff">com</text>
    <rect x="400" y="1100" width="120" height="60" rx="6" ry="6" fill="#dae8fc" stroke="#6c8ebf" stroke-width="2"/>
    <text x="460" y="1130" text-anchor="middle" dominant-baseline="middle" font-family="Helvetica,Inter,Segoe UI,Arial" font-size="16" font-weight="normal" fill="#3399ff">clarice</text>
    <rect x="400" y="1200" width="120" height="60" rx="6" ry="6" fill="#dae8fc" stroke="#6c8ebf" stroke-width="2"/>
    <text x="460" y="1220" text-anchor="middle" dominant-baseline="middle" font-family="Helvetica,Inter,Segoe UI,Arial" font-size="16" font-weight="normal" fill="#3399ff">clarice@exam</text>
    <text x="460" y="1240" text-anchor="middle" dominant-baseline="middle" font-family="Helvetica,Inter,Segoe UI,Arial" font-size="16" font-weight="normal" fill="#3399ff">ple.com</text>
    <rect x="580" y="1160" width="120" height="60" rx="6" ry="6" fill="#dae8fc" stroke="#6c8ebf" stroke-width="2"/>
    <text x="640" y="1190" text-anchor="middle" dominant-baseline="middle" font-family="Helvetica,Inter,Segoe UI,Arial" font-size="16" font-weight="normal" fill="#3399ff">inactive</text>
    <rect x="40" y="1150" width="120" height="60" rx="6" ry="6" fill="#dae8fc" stroke="#6c8ebf" stroke-width="2"/>
    <text x="100" y="1180" text-anchor="middle" dominant-baseline="middle" font-family="Helvetica,Inter,Segoe UI,Arial" font-size="16" font-weight="normal" fill="#3399ff">scared</text>
    <rect x="580" y="710" width="120" height="60" rx="6" ry="6" fill="#dae8fc" stroke="#6c8ebf" stroke-width="2"/>
    <text x="640" y="740" text-anchor="middle" dominant-baseline="middle" font-family="Helvetica,Inter,Segoe UI,Arial" font-size="16" font-weight="normal" fill="#3399ff">user</text>
    <rect x="40" y="1250" width="120" height="60" rx="6" ry="6" fill="#dae8fc" stroke="#6c8ebf" stroke-width="2"/>
    <text x="100" y="1280" text-anchor="middle" dominant-baseline="middle" font-family="Helvetica,Inter,Segoe UI,Arial" font-size="16" font-weight="normal" fill="#3399ff">victim</text>
    <rect x="580" y="840" width="120" height="60" rx="6" ry="6" fill="#dae8fc" stroke="#6c8ebf" stroke-width="2"/>
    <text x="640" y="870" text-anchor="middle" dominant-baseline="middle" font-family="Helvetica,Inter,Segoe UI,Arial" font-size="16" font-weight="normal" fill="#3399ff">2</text>
    <rect x="260" y="40" width="40" height="40" rx="4" ry="4" fill="#ffe6cc" stroke="#ff8000" stroke-width="2"/>
    <text x="280" y="60" text-anchor="middle" dominant-baseline="middle" font-family="Helvetica,Inter,Segoe UI,Arial" font-size="16" font-weight="bold" fill="#ff8000">S</text>
    <rect x="260" y="1350" width="40" height="40" rx="4" ry="4" fill="#ffe6cc" stroke="#ff8000" stroke-width="2"/>
    <text x="280" y="1370" text-anchor="middle" dominant-baseline="middle" font-family="Helvetica,Inter,Segoe UI,Arial" font-size="16" font-weight="bold" fill="#ff8000">E</text>
    <rect x="40" y="1050" width="120" height="60" rx="6" ry="6" fill="#dae8fc" stroke="#6c8ebf" stroke-width="2"/>
    <text x="100" y="1080" text-anchor="middle" dominant-baseline="middle" font-family="Helvetica,Inter,Segoe UI,Arial" font-size="16" font-weight="normal" fill="#3399ff">3</text>
    <rect x="400" y="370" width="120" height="60" rx="6" ry="6" fill="#ffe6cc" stroke="#ff8000" stroke-width="2"/>
    <text x="460" y="400" text-anchor="middle" dominant-baseline="middle" font-family="Helvetica,Inter,Segoe UI,Arial" font-size="16" font-weight="bold" fill="#ff8000">User 1</text>
    <rect x="400" y="930" width="120" height="60" rx="6" ry="6" fill="#ffe6cc" stroke="#ff8000" stroke-width="2"/>
    <text x="460" y="960" text-anchor="middle" dominant-baseline="middle" font-family="Helvetica,Inter,Segoe UI,Arial" font-size="16" font-weight="bold" fill="#ff8000">User 2</text>
    <rect x="220" y="1150" width="120" height="60" rx="6" ry="6" fill="#ffe6cc" stroke="#ff8000" stroke-width="2"/>
    <text x="280" y="1180" text-anchor="middle" dominant-baseline="middle" font-family="Helvetica,Inter,Segoe UI,Arial" font-size="16" font-weight="bold" fill="#ff8000">User 3</text>
    <rect x="220" y="630" width="120" height="80" rx="6" ry="6" fill="#ffe6cc" stroke="#ff8000" stroke-width="2"/>
    <text x="280" y="645" text-anchor="middle" dominant-baseline="middle" font-family="Helvetica,Inter,Segoe UI,Arial" font-size="14" font-weight="bold" fill="#ff8000">User array for</text>
    <text x="280" y="662" text-anchor="middle" dominant-baseline="middle" font-family="Helvetica,Inter,Segoe UI,Arial" font-size="14" font-weight="bold" fill="#ff8000">&#34;Example</text>
    <text x="280" y="678" text-anchor="middle" dominant-baseline="middle" font-family="Helvetica,Inter,Segoe UI,Arial" font-size="14" font-weight="bold" fill="#ff8000">API</text>
    <text x="280" y="695" text-anchor="middle" dominant-baseline="middle" font-family="Helvetica,Inter,Segoe UI,Arial" font-size="14" font-weight="bold" fill="#ff8000">Response&#34;</text>
    <rect x="580" y="220" width="120" height="60" rx="6" ry="6" fill="#dae8fc" stroke="#6c8ebf" stroke-width="2"/>
    <text x="640" y="250" text-anchor="middle" dominant-baseline="middle" font-family="Helvetica,Inter,Segoe UI,Arial" font-size="16" font-weight="normal" fill="#3399ff">active</text>
    <rect x="580" y="320" width="120" height="60" rx="6" ry="6" fill="#dae8fc" stroke="#6c8ebf" stroke-width="2"/>
    <text x="640" y="350" text-anchor="middle" dominant-baseline="middle" font-family="Helvetica,Inter,Segoe UI,Arial" font-size="16" font-weight="normal" fill="#3399ff">admin</text>
  </g>
</svg>
