<?xml version="1.0" encoding="UTF-8"?>
<svg xmlns="http://www.w3.org/2000/svg" width="740" height="1380" viewBox="0 0 740 1380">
  <defs>
  </defs>
  <g id="container-shells">
  </g>
  <g id="node-shadows">
    <rect x="580" y="120" width="120" height="60" rx="6" ry="6" fill="#000000" stroke="#000000" stroke-width="2" opacity="0.25" transform="translate(2,3)"/>
    <rect x="580" y="480" width="120" height="60" rx="6" ry="6" fill="#000000" stroke="#000000" stroke-width="2" opacity="0.25" transform="translate(2,3)"/>
    <rect x="580" y="640" width="120" height="60" rx="6" ry="6" fill="#000000" stroke="#000000" stroke-width="2" opacity="0.25" transform="translate(2,3)"/>
    <rect x="580" y="1000" width="120" height="60" rx="6" ry="6" fill="#000000" stroke="#000000" stroke-width="2" opacity="0.25" transform="translate(2,3)"/>
    <rect x="580" y="1080" width="120" height="60" rx="6" ry="6" fill="#000000" stroke="#000000" stroke-width="2" opacity="0.25" transform="translate(2,3)"/>
    <rect x="400" y="1050" width="120" height="60" rx="6" ry="6" fill="#000000" stroke="#000000" stroke-width="2" opacity="0.25" transform="translate(2,3)"/>
    <rect x="400" y="1150" width="120" height="60" rx="6" ry="6" fill="#000000" stroke="#000000" stroke-width="2" opacity="0.25" transform="translate(2,3)"/>
    <rect x="580" y="1160" width="120" height="60" rx="6" ry="6" fill="#000000" stroke="#000000" stroke-width="2" opacity="0.25" transform="translate(2,3)"/>
    <rect x="40" y="1100" width="120" height="60" rx="6" ry="6" fill="#000000" stroke="#000000" stroke-width="2" opacity="0.25" transform="translate(2,3)"/>
    <rect x="580" y="710" width="120" height="60" rx="6" ry="6" fill="#000000" stroke="#000000" stroke-width="2" opacity="0.25" transform="translate(2,3)"/>
    <rect x="40" y="1200" width="120" height="60" rx="6" ry="6" fill="#000000" stroke="#000000" stroke-width="2" opacity="0.25" transform="translate(2,3)"/>
    <rect x="580" y="840" width="120" height="60" rx="6" ry="6" fill="#000000" stroke="#000000" stroke-width="2" opacity="0.25" transform="translate(2,3)"/>
    <rect x="260" y="40" width="40" height="40" rx="4" ry="4" fill="#000000" stroke="#000000" stroke-width="2" opacity="0.25" transform="translate(2,3)"/>
    <rect x="260" y="1300" width="40" height="40" rx="4" ry="4" fill="#000000" stroke="#000000" stroke-width="2" opacity="0.25" transform="translate(2,3)"/>
    <rect x="40" y="1000" width="120" height="60" rx="6" ry="6" fill="#000000" stroke="#000000" stroke-width="2" opacity="0.25" transform="translate(2,3)"/>
    <rect x="400" y="370" width="120" height="60" rx="6" ry="6" fill="#000000" stroke="#000000" stroke-width="2" opacity="0.25" transform="translate(2,3)"/>
    <rect x="400" y="930" width="120" height="60" rx="6" ry="6" fill="#000000" stroke="#000000" stroke-width="2" opacity="0.25" transform="translate(2,3)"/>
    <rect x="220" y="1100" width="120" height="60" rx="6" ry="6" fill="#000000" stroke="#000000" stroke-width="2" opacity="0.25" transform="translate(2,3)"/>
    <rect x="220" y="630" width="120" height="80" rx="6" ry="6" fill="#000000" stroke="#000000" stroke-width="2" opacity="0.25" transform="translate(2,3)"/>
    <rect x="580" y="220" width="120" height="60" rx="6" ry="6" fill="#000000" stroke="#000000" stroke-width="2" opacity="0.25" transform="translate(2,3)"/>
    <rect x="580" y="320" width="120" height="60" rx="6" ry="6" fill="#000000" stroke="#000000" stroke-width="2" opacity="0.25" transform="translate(2,3)"/>
  </g>
  <g id="edges">
    <g class="edge" data-edge-idx="0" data-edge-base="leadsto" data-edge-from="20" data-edge-to="7">
    <line x1="280.00" y1="85.00" x2="280.00" y2="618.25" stroke="#ff8000" stroke-width="3" />
    <path d="M 280.00 625.00 L 275.50 616.00 L 280.00 618.25 L 284.50 616.00 Z" fill="#ff8000" stroke="#ff8000" stroke-width="3" stroke-miterlimit="10"/>
    </g>
    <g class="edge" data-edge-idx="1" data-edge-base="expresses" data-edge-from="4" data-edge-to="1">
    <line x1="524.01" y1="366.51" x2="574.30" y2="172.03" stroke="#6c8ebf" stroke-width="3" stroke-dasharray="9 6" />
    <path d="M 575.99 165.49 L 578.10 175.33 L 574.30 172.03 L 569.38 173.08 Z" fill="#6c8ebf" stroke="#6c8ebf" stroke-width="3" stroke-miterlimit="10"/>
    <text x="549" y="269" text-anchor="middle" dominant-baseline="middle" font-family="Helvetica,Inter,Segoe UI,Arial" font-size="11" paint-order="stroke" stroke="#ffffff" stroke-width="3" stroke-linejoin="round" fill="#6c8ebf">has id</text>
    </g>
    <g class="edge" data-edge-idx="2" data-edge-base="expresses" data-edge-from="4" data-edge-to="10">
    <line x1="525.00" y1="411.92" x2="571.70" y2="495.20" stroke="#6c8ebf" stroke-width="3" stroke-dasharray="9 6" />
    <path d="M 575.00 501.08 L 566.67 495.43 L 571.70 495.20 L 574.52 491.03 Z" fill="#6c8ebf" stroke="#6c8ebf" stroke-width="3" stroke-miterlimit="10"/>
    <text x="548" y="453" text-anchor="middle" dominant-baseline="middle" font-family="Helvetica,Inter,Segoe UI,Arial" font-size="11" paint-order="stroke" stroke="#ffffff" stroke-width="3" stroke-linejoin="round" fill="#6c8ebf">
      <title>has username</title>has...
    </text>
    </g>
    <g class="edge" data-edge-idx="3" data-edge-base="expresses" data-edge-from="4" data-edge-to="11">
    <line x1="523.60" y1="425.59" x2="574.88" y2="647.83" stroke="#6c8ebf" stroke-width="3" stroke-dasharray="9 6" />
    <path d="M 576.40 654.41 L 569.99 646.65 L 574.88 647.83 L 578.76 644.63 Z" fill="#6c8ebf" stroke="#6c8ebf" stroke-width="3" stroke-miterlimit="10"/>
    <text x="548" y="536" text-anchor="middle" dominant-baseline="middle" font-family="Helvetica,Inter,Segoe UI,Arial" font-size="11" paint-order="stroke" stroke="#ffffff" stroke-width="3" stroke-linejoin="round" fill="#6c8ebf">
      <title>has email</title>has...
    </text>
    </g>
    <g class="edge" data-edge-idx="4" data-edge-base="expresses" data-edge-from="4" data-edge-to="18">
    <line x1="523.01" y1="433.71" x2="575.72" y2="708.66" stroke="#6c8ebf" stroke-width="3" stroke-dasharray="9 6" />
    <path d="M 576.99 715.29 L 570.87 707.29 L 575.72 708.66 L 579.71 705.60 Z" fill="#6c8ebf" stroke="#6c8ebf" stroke-width="3" stroke-miterlimit="10"/>
    <text x="549" y="570" text-anchor="middle" dominant-baseline="middle" font-family="Helvetica,Inter,Segoe UI,Arial" font-size="11" paint-order="stroke" stroke="#ffffff" stroke-width="3" stroke-linejoin="round" fill="#6c8ebf">
      <title>has a role</title>has...
    </text>
    </g>
    <g class="edge" data-edge-idx="5" data-edge-base="leadsto" data-edge-from="4" data-edge-to="5">
    <line x1="460.00" y1="435.00" x2="460.00" y2="918.25" stroke="#ff8000" stroke-width="3" />
    <path d="M 460.00 925.00 L 455.50 916.00 L 460.00 918.25 L 464.50 916.00 Z" fill="#ff8000" stroke="#ff8000" stroke-width="3" stroke-miterlimit="10"/>
    <text x="460" y="676" text-anchor="middle" dominant-baseline="middle" font-family="Helvetica,Inter,Segoe UI,Arial" font-size="11" paint-order="stroke" stroke="#ffffff" stroke-width="3" stroke-linejoin="round" fill="#ff8000">
      <title>then followed by</title>then...
    </text>
    </g>
    <g class="edge" data-edge-idx="6" data-edge-base="partof" data-edge-from="4" data-edge-to="7">
    <line x1="396.38" y1="415.58" x2="345.15" y2="635.84" stroke="#82b366" stroke-width="3" />
    <path d="M 343.62 642.42 L 341.28 632.63 L 345.15 635.84 L 350.05 634.67 Z" fill="#82b366" stroke="#82b366" stroke-width="3" stroke-miterlimit="10"/>
    </g>
    <g class="edge" data-edge-idx="7" data-edge-base="expresses" data-edge-from="4" data-edge-to="8">
    <line x1="525.00" y1="377.42" x2="572.32" y2="267.78" stroke="#6c8ebf" stroke-width="3" stroke-dasharray="9 6" />
    <path d="M 575.00 261.58 L 575.56 271.63 L 572.32 267.78 L 567.30 268.06 Z" fill="#6c8ebf" stroke="#6c8ebf" stroke-width="3" stroke-miterlimit="10"/>
    <text x="548" y="322" text-anchor="middle" dominant-baseline="middle" font-family="Helvetica,Inter,Segoe UI,Arial" font-size="11" paint-order="stroke" stroke="#ffffff" stroke-width="3" stroke-linejoin="round" fill="#6c8ebf">
      <title>has status</title>has...
    </text>
    </g>
    <g class="edge" data-edge-idx="8" data-edge-base="expresses" data-edge-from="4" data-edge-to="9">
    <line x1="525.00" y1="392.17" x2="569.64" y2="357.94" stroke="#6c8ebf" stroke-width="3" stroke-dasharray="9 6" />
    <path d="M 575.00 353.83 L 570.60 362.88 L 569.64 357.94 L 565.12 355.74 Z" fill="#6c8ebf" stroke="#6c8ebf" stroke-width="3" stroke-miterlimit="10"/>
    <text x="547" y="374" text-anchor="middle" dominant-baseline="middle" font-family="Helvetica,Inter,Segoe UI,Arial" font-size="11" paint-order="stroke" stroke="#ffffff" stroke-width="3" stroke-linejoin="round" fill="#6c8ebf">
      <title>has a role</title>has...
    </text>
    </g>
    <g class="edge" data-edge-idx="9" data-edge-base="expresses" data-edge-from="5" data-edge-to="12">
    <line x1="525.00" y1="965.83" x2="570.61" y2="1019.04" stroke="#6c8ebf" stroke-width="3" stroke-dasharray="9 6" />
    <path d="M 575.00 1024.17 L 565.73 1020.26 L 570.61 1019.04 L 572.56 1014.40 Z" fill="#6c8ebf" stroke="#6c8ebf" stroke-width="3" stroke-miterlimit="10"/>
    <text x="547" y="992" text-anchor="middle" dominant-baseline="middle" font-family="Helvetica,Inter,Segoe UI,Arial" font-size="11" paint-order="stroke" stroke="#ffffff" stroke-width="3" stroke-linejoin="round" fill="#6c8ebf">
      <title>has username</title>has...
    </text>
    </g>
    <g class="edge" data-edge-idx="10" data-edge-base="expresses" data-edge-from="5" data-edge-to="13">
    <line x1="525.00" y1="979.83" x2="572.37" y2="1091.95" stroke="#6c8ebf" stroke-width="3" stroke-dasharray="9 6" />
    <path d="M 575.00 1098.17 L 567.35 1091.63 L 572.37 1091.95 L 575.64 1088.12 Z" fill="#6c8ebf" stroke="#6c8ebf" stroke-width="3" stroke-miterlimit="10"/>
    <text x="548" y="1035" text-anchor="middle" dominant-baseline="middle" font-family="Helvetica,Inter,Segoe UI,Arial" font-size="11" paint-order="stroke" stroke="#ffffff" stroke-width="3" stroke-linejoin="round" fill="#6c8ebf">
      <title>has email</title>has...
    </text>
    </g>
    <g class="edge" data-edge-idx="11" data-edge-base="expresses" data-edge-from="5" data-edge-to="16">
    <line x1="524.36" y1="993.40" x2="573.80" y2="1168.11" stroke="#6c8ebf" stroke-width="3" stroke-dasharray="9 6" />
    <path d="M 575.64 1174.60 L 568.86 1167.17 L 573.80 1168.11 L 577.52 1164.72 Z" fill="#6c8ebf" stroke="#6c8ebf" stroke-width="3" stroke-miterlimit="10"/>
    <text x="548" y="1080" text-anchor="middle" dominant-baseline="middle" font-family="Helvetica,Inter,Segoe UI,Arial" font-size="11" paint-order="stroke" stroke="#ffffff" stroke-width="3" stroke-linejoin="round" fill="#6c8ebf">
      <title>has status</title>has...
    </text>
    </g>
    <g class="edge" data-edge-idx="12" data-edge-base="expresses" data-edge-from="5" data-edge-to="18">
    <line x1="524.75" y1="926.72" x2="573.25" y2="770.72" stroke="#6c8ebf" stroke-width="3" stroke-dasharray="9 6" />
    <path d="M 575.25 764.28 L 576.88 774.21 L 573.25 770.72 L 568.28 771.54 Z" fill="#6c8ebf" stroke="#6c8ebf" stroke-width="3" stroke-miterlimit="10"/>
    <text x="548" y="848" text-anchor="middle" dominant-baseline="middle" font-family="Helvetica,Inter,Segoe UI,Arial" font-size="11" paint-order="stroke" stroke="#ffffff" stroke-width="3" stroke-linejoin="round" fill="#6c8ebf">
      <title>has a role</title>has...
    </text>
    </g>
    <g class="edge" data-edge-idx="13" data-edge-base="expresses" data-edge-from="5" data-edge-to="2">
    <line x1="525.00" y1="944.25" x2="570.98" y2="882.17" stroke="#6c8ebf" stroke-width="3" stroke-dasharray="9 6" />
    <path d="M 575.00 876.75 L 573.26 886.66 L 570.98 882.17 L 566.03 881.30 Z" fill="#6c8ebf" stroke="#6c8ebf" stroke-width="3" stroke-miterlimit="10"/>
    <text x="547" y="913" text-anchor="middle" dominant-baseline="middle" font-family="Helvetica,Inter,Segoe UI,Arial" font-size="11" paint-order="stroke" stroke="#ffffff" stroke-width="3" stroke-linejoin="round" fill="#6c8ebf">has id</text>
    </g>
    <g class="edge" data-edge-idx="14" data-edge-base="leadsto" data-edge-from="5" data-edge-to="6">
    <line x1="451.82" y1="995.00" x2="293.94" y2="1091.48" stroke="#ff8000" stroke-width="3" />
    <path d="M 288.18 1095.00 L 293.51 1086.47 L 293.94 1091.48 L 298.21 1094.15 Z" fill="#ff8000" stroke="#ff8000" stroke-width="3" stroke-miterlimit="10"/>
    <text x="372" y="1043" text-anchor="middle" dominant-baseline="middle" font-family="Helvetica,Inter,Segoe UI,Arial" font-size="11" paint-order="stroke" stroke="#ffffff" stroke-width="3" stroke-linejoin="round" fill="#ff8000">
      <title>then followed by</title>then...
    </text>
    </g>
    <g class="edge" data-edge-idx="15" data-edge-base="partof" data-edge-from="5" data-edge-to="7">
    <line x1="396.62" y1="944.36" x2="344.80" y2="704.24" stroke="#82b366" stroke-width="3" />
    <path d="M 343.38 697.64 L 349.67 705.49 L 344.80 704.24 L 340.88 707.39 Z" fill="#82b366" stroke="#82b366" stroke-width="3" stroke-miterlimit="10"/>
    </g>
    <g class="edge" data-edge-idx="16" data-edge-base="expresses" data-edge-from="6" data-edge-to="14">
    <line x1="345.00" y1="1117.58" x2="389.43" y2="1087.22" stroke="#6c8ebf" stroke-width="3" stroke-dasharray="9 6" />
    <path d="M 395.00 1083.42 L 390.11 1092.21 L 389.43 1087.22 L 385.03 1084.78 Z" fill="#6c8ebf" stroke="#6c8ebf" stroke-width="3" stroke-miterlimit="10"/>
    <text x="367" y="1102" text-anchor="middle" dominant-baseline="middle" font-family="Helvetica,Inter,Segoe UI,Arial" font-size="11" paint-order="stroke" stroke="#ffffff" stroke-width="3" stroke-linejoin="round" fill="#6c8ebf">
      <title>has username</title>has...
    </text>
    </g>
    <g class="edge" data-edge-idx="17" data-edge-base="expresses" data-edge-from="6" data-edge-to="15">
    <line x1="345.00" y1="1142.42" x2="389.43" y2="1172.78" stroke="#6c8ebf" stroke-width="3" stroke-dasharray="9 6" />
    <path d="M 395.00 1176.58 L 385.03 1175.22 L 389.43 1172.78 L 390.11 1167.79 Z" fill="#6c8ebf" stroke="#6c8ebf" stroke-width="3" stroke-miterlimit="10"/>
    <text x="367" y="1157" text-anchor="middle" dominant-baseline="middle" font-family="Helvetica,Inter,Segoe UI,Arial" font-size="11" paint-order="stroke" stroke="#ffffff" stroke-width="3" stroke-linejoin="round" fill="#6c8ebf">
      <title>has email</title>has...
    </text>
    </g>
    <g class="edge" data-edge-idx="18" data-edge-base="expresses" data-edge-from="6" data-edge-to="17">
    <line x1="215.00" y1="1130.00" x2="171.75" y2="1130.00" stroke="#6c8ebf" stroke-width="3" stroke-dasharray="9 6" />
    <path d="M 165.00 1130.00 L 174.00 1125.50 L 171.75 1130.00 L 174.00 1134.50 Z" fill="#6c8ebf" stroke="#6c8ebf" stroke-width="3" stroke-miterlimit="10"/>
    <text x="193" y="1130" text-anchor="middle" dominant-baseline="middle" font-family="Helvetica,Inter,Segoe UI,Arial" font-size="11" paint-order="stroke" stroke="#ffffff" stroke-width="3" stroke-linejoin="round" fill="#6c8ebf">
      <title>has status</title>has...
    </text>
    </g>
    <g class="edge" data-edge-idx="19" data-edge-base="expresses" data-edge-from="6" data-edge-to="19">
    <line x1="215.00" y1="1149.33" x2="168.80" y2="1217.09" stroke="#6c8ebf" stroke-width="3" stroke-dasharray="9 6" />
    <path d="M 165.00 1222.67 L 166.35 1212.70 L 168.80 1217.09 L 173.79 1217.77 Z" fill="#6c8ebf" stroke="#6c8ebf" stroke-width="3" stroke-miterlimit="10"/>
    <text x="191" y="1183" text-anchor="middle" dominant-baseline="middle" font-family="Helvetica,Inter,Segoe UI,Arial" font-size="11" paint-order="stroke" stroke="#ffffff" stroke-width="3" stroke-linejoin="round" fill="#6c8ebf">
      <title>has a role</title>has...
    </text>
    </g>
    <g class="edge" data-edge-idx="20" data-edge-base="leadsto" data-edge-from="6" data-edge-to="21">
    <line x1="280.00" y1="1165.00" x2="280.00" y2="1288.25" stroke="#ff8000" stroke-width="3" />
    <path d="M 280.00 1295.00 L 275.50 1286.00 L 280.00 1288.25 L 284.50 1286.00 Z" fill="#ff8000" stroke="#ff8000" stroke-width="3" stroke-miterlimit="10"/>
    </g>
    <g class="edge" data-edge-idx="21" data-edge-base="expresses" data-edge-from="6" data-edge-to="3">
    <line x1="215.00" y1="1110.67" x2="168.80" y2="1042.91" stroke="#6c8ebf" stroke-width="3" stroke-dasharray="9 6" />
    <path d="M 165.00 1037.33 L 173.79 1042.23 L 168.80 1042.91 L 166.35 1047.30 Z" fill="#6c8ebf" stroke="#6c8ebf" stroke-width="3" stroke-miterlimit="10"/>
    <text x="191" y="1076" text-anchor="middle" dominant-baseline="middle" font-family="Helvetica,Inter,Segoe UI,Arial" font-size="11" paint-order="stroke" stroke="#ffffff" stroke-width="3" stroke-linejoin="round" fill="#6c8ebf">has id</text>
    </g>
  </g>
  <g id="nodes">
    <rect x="580" y="120" width="120" height="60" rx="6" ry="6" fill="#dae8fc" stroke="#6c8ebf" stroke-width="2"/>
    <text x="640" y="150" text-anchor="middle" dominant-baseline="middle" font-family="Helvetica,Inter,Segoe UI,Arial" font-size="16" font-weight="normal" fill="#3399ff">1</text>
    <rect x="580" y="480" width="120" height="60" rx="6" ry="6" fill="#dae8fc" stroke="#6c8ebf" stroke-width="2"/>
    <text x="640" y="510" text-anchor="middle" dominant-baseline="middle" font-family="Helvetica,Inter,Segoe UI,Arial" font-size="16" font-weight="normal" fill="#3399ff">alice</text>
    <rect x="580" y="640" width="120" height="60" rx="6" ry="6" fill="#dae8fc" stroke="#6c8ebf" stroke-width="2"/>
    <text x="640" y="660" text-anchor="middle" dominant-baseline="middle" font-family="Helvetica,Inter,Segoe UI,Arial" font-size="16" font-weight="normal" fill="#3399ff">alice@exampl</text>
    <text x="640" y="680" text-anchor="middle" dominant-baseline="middle" font-family="Helvetica,Inter,Segoe UI,Arial" font-size="16" font-weight="normal" fill="#3399ff">e.com</text>
    <rect x="580" y="1000" width="120" height="60" rx="6" ry="6" fill="#dae8fc" stroke="#6c8ebf" stroke-width="2"/>
    <text x="640" y="1030" text-anchor="middle" dominant-baseline="middle" font-family="Helvetica,Inter,Segoe UI,Arial" font-size="16" font-weight="normal" fill="#3399ff">bob</text>
    <rect x="580" y="1080" width="120" height="60" rx="6" ry="6" fill="#dae8fc" stroke="#6c8ebf" stroke-width="2"/>
    <text x="640" y="1100" text-anchor="middle" dominant-baseline="middle" font-family="Helvetica,Inter,Segoe UI,Arial" font-size="16" font-weight="normal" fill="#3399ff">bob@example.</text>
    <text x="640" y="1120" text-anchor="middle" dominant-baseline="middle" font-family="Helvetica,Inter,Segoe UI,Arial" font-size="16" font-weight="normal" fill="#3399ff">com</text>
    <rect x="400" y="1050" width="120" height="60" rx="6" ry="6" fill="#dae8fc" stroke="#6c8ebf" stroke-width="2"/>
    <text x="460" y="1080" text-anchor="middle" dominant-baseline="middle" font-family="Helvetica,Inter,Segoe UI,Arial" font-size="16" font-weight="normal" fill="#3399ff">clarice</text>
    <rect x="400" y="1150" width="120" height="60" rx="6" ry="6" fill="#dae8fc" stroke="#6c8ebf" stroke-width="2"/>
    <text x="460" y="1170" text-anchor="middle" dominant-baseline="middle" font-family="Helvetica,Inter,Segoe UI,Arial" font-size="16" font-weight="normal" fill="#3399ff">clarice@exam</text>
    <text x="460" y="1190" text-anchor="middle" dominant-baseline="middle" font-family="Helvetica,Inter,Segoe UI,Arial" font-size="16" font-weight="normal" fill="#3399ff">ple.com</text>
    <rect x="580" y="1160" width="120" height="60" rx="6" ry="6" fill="#dae8fc" stroke="#6c8ebf" stroke-width="2"/>
    <text x="640" y="1190" text-anchor="middle" dominant-baseline="middle" font-family="Helvetica,Inter,Segoe UI,Arial" font-size="16" font-weight="normal" fill="#3399ff">inactive</text>
    <rect x="40" y="1100" width="120" height="60" rx="6" ry="6" fill="#dae8fc" stroke="#6c8ebf" stroke-width="2"/>
    <text x="100" y="1130" text-anchor="middle" dominant-baseline="middle" font-family="Helvetica,Inter,Segoe UI,Arial" font-size="16" font-weight="normal" fill="#3399ff">scared</text>
    <rect x="580" y="710" width="120" height="60" rx="6" ry="6" fill="#dae8fc" stroke="#6c8ebf" stroke-width="2"/>
    <text x="640" y="740" text-anchor="middle" dominant-baseline="middle" font-family="Helvetica,Inter,Segoe UI,Arial" font-size="16" font-weight="normal" fill="#3399ff">user</text>
    <rect x="40" y="1200" width="120" height="60" rx="6" ry="6" fill="#dae8fc" stroke="#6c8ebf" stroke-width="2"/>
    <text x="100" y="1230" text-anchor="middle" dominant-baseline="middle" font-family="Helvetica,Inter,Segoe UI,Arial" font-size="16" font-weight="normal" fill="#3399ff">victim</text>
    <rect x="580" y="840" width="120" height="60" rx="6" ry="6" fill="#dae8fc" stroke="#6c8ebf" stroke-width="2"/>
    <text x="640" y="870" text-anchor="middle" dominant-baseline="middle" font-family="Helvetica,Inter,Segoe UI,Arial" font-size="16" font-weight="normal" fill="#3399ff">2</text>
    <rect x="260" y="40" width="40" height="40" rx="4" ry="4" fill="#ffe6cc" stroke="#ff8000" stroke-width="2"/>
    <text x="280" y="60" text-anchor="middle" dominant-baseline="middle" font-family="Helvetica,Inter,Segoe UI,Arial" font-size="16" font-weight="bold" fill="#ff8000">S</text>
    <rect x="260" y="1300" width="40" height="40" rx="4" ry="4" fill="#ffe6cc" stroke="#ff8000" stroke-width="2"/>
    <text x="280" y="1320" text-anchor="middle" dominant-baseline="middle" font-family="Helvetica,Inter,Segoe UI,Arial" font-size="16" font-weight="bold" fill="#ff8000">E</text>
    <rect x="40" y="1000" width="120" height="60" rx="6" ry="6" fill="#dae8fc" stroke="#6c8ebf" stroke-width="2"/>
    <text x="100" y="1030" text-anchor="middle" dominant-baseline="middle" font-family="Helvetica,Inter,Segoe UI,Arial" font-size="16" font-weight="normal" fill="#3399ff">3</text>
    <rect x="400" y="370" width="120" height="60" rx="6" ry="6" fill="#ffe6cc" stroke="#ff8000" stroke-width="2"/>
    <text x="460" y="400" text-anchor="middle" dominant-baseline="middle" font-family="Helvetica,Inter,Segoe UI,Arial" font-size="16" font-weight="bold" fill="#ff8000">User 1</text>
    <rect x="400" y="930" width="120" height="60" rx="6" ry="6" fill="#ffe6cc" stroke="#ff8000" stroke-width="2"/>
    <text x="460" y="960" text-anchor="middle" dominant-baseline="middle" font-family="Helvetica,Inter,Segoe UI,Arial" font-size="16" font-weight="bold" fill="#ff8000">User 2</text>
    <rect x="220" y="1100" width="120" height="60" rx="6" ry="6" fill="#ffe6cc" stroke="#ff8000" stroke-width="2"/>
    <text x="280" y="1130" text-anchor="middle" dominant-baseline="middle" font-family="Helvetica,Inter,Segoe UI,Arial" font-size="16" font-weight="bold" fill="#ff8000">User 3</text>
    <rect x="220" y="630" width="120" height="80" rx="6" ry="6" fill="#ffe6cc" stroke="#ff8000" stroke-width="2"/>
    <text x="280" y="645" text-anchor="middle" dominant-baseline="middle" font-family="Helvetica,Inter,Segoe UI,Arial" font-size="14" font-weight="bold" fill="#ff8000">User array for</text>
    <text x="280" y="662" text-anchor="middle" dominant-baseline="middle" font-family="Helvetica,Inter,Segoe UI,Arial" font-size="14" font-weight="bold" fill="#ff8000">&#34;Example</text>
    <text x="280" y="678" text-anchor="middle" dominant-baseline="middle" font-family="Helvetica,Inter,Segoe UI,Arial" font-size="14" font-weight="bold" fill="#ff8000">API</text>
    <text x="280" y="695" text-anchor="middle" dominant-baseline="middle" font-family="Helvetica,Inter,Segoe UI,Arial" font-size="14" font-weight="bold" fill="#ff8000">Response&#34;</text>
    <rect x="580" y="220" width="120" height="60" rx="6" ry="6" fill="#dae8fc" stroke="#6c8ebf" stroke-width="2"/>
    <text x="640" y="250" text-anchor="middle" dominant-baseline="middle" font-family="Helvetica,Inter,Segoe UI,Arial" font-size="16" font-weight="normal" fill="#3399ff">active</text>
    <rect x="580" y="320" width="120" height="60" rx="6" ry="6" fill="#dae8fc" stroke="#6c8ebf" stroke-width="2"/>
    <text x="640" y="350" text-anchor="middle" dominant-baseline="middle" font-family="Helvetica,Inter,Segoe UI,Arial" font-size="16" font-weight="normal" fill="#3399ff">admin</text>
  </g>
</svg>
