<?xml version="1.0" encoding="UTF-8"?>
<svg xmlns="http://www.w3.org/2000/svg" width="2900" height="360" viewBox="0 0 2900 360">
  <defs>
  </defs>
  <g id="container-shells">
  </g>
  <g id="node-shadows">
    <rect x="1727" y="215" width="120" height="60" rx="6" ry="6" fill="#000000" stroke="#000000" stroke-width="2" opacity="0.25" transform="translate(2,3)"/>
    <rect x="1840" y="40" width="120" height="60" rx="6" ry="6" fill="#000000" stroke="#000000" stroke-width="2" opacity="0.25" transform="translate(2,3)"/>
    <rect x="940" y="40" width="120" height="60" rx="6" ry="6" fill="#000000" stroke="#000000" stroke-width="2" opacity="0.25" transform="translate(2,3)"/>
    <rect x="2020" y="40" width="120" height="60" rx="6" ry="6" fill="#000000" stroke="#000000" stroke-width="2" opacity="0.25" transform="translate(2,3)"/>
    <rect x="40" y="40" width="120" height="60" rx="6" ry="6" fill="#000000" stroke="#000000" stroke-width="2" opacity="0.25" transform="translate(2,3)"/>
    <rect x="220" y="40" width="120" height="60" rx="6" ry="6" fill="#000000" stroke="#000000" stroke-width="2" opacity="0.25" transform="translate(2,3)"/>
    <rect x="1120" y="40" width="120" height="60" rx="6" ry="6" fill="#000000" stroke="#000000" stroke-width="2" opacity="0.25" transform="translate(2,3)"/>
    <rect x="1480" y="40" width="120" height="60" rx="6" ry="6" fill="#000000" stroke="#000000" stroke-width="2" opacity="0.25" transform="translate(2,3)"/>
    <rect x="2380" y="40" width="120" height="60" rx="6" ry="6" fill="#000000" stroke="#000000" stroke-width="2" opacity="0.25" transform="translate(2,3)"/>
    <rect x="2560" y="40" width="120" height="60" rx="6" ry="6" fill="#000000" stroke="#000000" stroke-width="2" opacity="0.25" transform="translate(2,3)"/>
    <rect x="400" y="40" width="120" height="60" rx="6" ry="6" fill="#000000" stroke="#000000" stroke-width="2" opacity="0.25" transform="translate(2,3)"/>
    <rect x="2351" y="113" width="120" height="60" rx="6" ry="6" fill="#000000" stroke="#000000" stroke-width="2" opacity="0.25" transform="translate(2,3)"/>
    <rect x="1300" y="40" width="120" height="60" rx="6" ry="6" fill="#000000" stroke="#000000" stroke-width="2" opacity="0.25" transform="translate(2,3)"/>
    <rect x="2200" y="40" width="120" height="60" rx="6" ry="6" fill="#000000" stroke="#000000" stroke-width="2" opacity="0.25" transform="translate(2,3)"/>
    <rect x="2740" y="40" width="120" height="60" rx="6" ry="6" fill="#000000" stroke="#000000" stroke-width="2" opacity="0.25" transform="translate(2,3)"/>
    <rect x="2020" y="140" width="120" height="60" rx="6" ry="6" fill="#000000" stroke="#000000" stroke-width="2" opacity="0.25" transform="translate(2,3)"/>
    <rect x="1030" y="140" width="120" height="60" rx="6" ry="6" fill="#000000" stroke="#000000" stroke-width="2" opacity="0.25" transform="translate(2,3)"/>
    <rect x="1840" y="140" width="120" height="60" rx="6" ry="6" fill="#000000" stroke="#000000" stroke-width="2" opacity="0.25" transform="translate(2,3)"/>
    <rect x="1435" y="240" width="120" height="80" rx="6" ry="6" fill="#000000" stroke="#000000" stroke-width="2" opacity="0.25" transform="translate(2,3)"/>
    <rect x="1660" y="40" width="120" height="60" rx="6" ry="6" fill="#000000" stroke="#000000" stroke-width="2" opacity="0.25" transform="translate(2,3)"/>
    <rect x="580" y="40" width="120" height="60" rx="6" ry="6" fill="#000000" stroke="#000000" stroke-width="2" opacity="0.25" transform="translate(2,3)"/>
    <rect x="760" y="40" width="120" height="60" rx="6" ry="6" fill="#000000" stroke="#000000" stroke-width="2" opacity="0.25" transform="translate(2,3)"/>
  </g>
  <g id="edges">
    <g class="edge" data-edge-idx="0" data-edge-base="partof" data-edge-from="1" data-edge-to="2">
    <polyline points="1852.00,252.90 2170,230 2339.93,147.06" fill="none" stroke="#82b366" stroke-width="3" />
    <path d="M 2346.00 144.10 L 2339.89 152.09 L 2339.93 147.06 L 2335.94 144.00 Z" fill="#82b366" stroke="#82b366" stroke-width="3" stroke-miterlimit="10"/>
    </g>
    <g class="edge" data-edge-idx="1" data-edge-base="partof" data-edge-from="10" data-edge-to="5">
    <line x1="1900.00" y1="105.00" x2="1900.00" y2="128.25" stroke="#82b366" stroke-width="3" />
    <path d="M 1900.00 135.00 L 1895.50 126.00 L 1900.00 128.25 L 1904.50 126.00 Z" fill="#82b366" stroke="#82b366" stroke-width="3" stroke-miterlimit="10"/>
    </g>
    <g class="edge" data-edge-idx="2" data-edge-base="partof" data-edge-from="11" data-edge-to="4">
    <line x1="1009.00" y1="105.00" x2="1057.10" y2="131.72" stroke="#82b366" stroke-width="3" />
    <path d="M 1063.00 135.00 L 1052.95 134.56 L 1057.10 131.72 L 1057.32 126.70 Z" fill="#82b366" stroke="#82b366" stroke-width="3" stroke-miterlimit="10"/>
    </g>
    <g class="edge" data-edge-idx="3" data-edge-base="partof" data-edge-from="12" data-edge-to="5">
    <line x1="2064.58" y1="104.28" x2="1957.92" y2="133.91" stroke="#82b366" stroke-width="3" />
    <path d="M 1951.42 135.72 L 1958.88 128.97 L 1957.92 133.91 L 1961.29 137.64 Z" fill="#82b366" stroke="#82b366" stroke-width="3" stroke-miterlimit="10"/>
    </g>
    <g class="edge" data-edge-idx="4" data-edge-base="partof" data-edge-from="13" data-edge-to="3">
    <polyline points="165.00,70.22 190,130 1000,230 1970,210 2010.87,157.12" fill="none" stroke="#82b366" stroke-width="3" />
    <path d="M 2015.00 151.78 L 2013.06 161.65 L 2010.87 157.12 L 2005.94 156.15 Z" fill="#82b366" stroke="#82b366" stroke-width="3" stroke-miterlimit="10"/>
    </g>
    <g class="edge" data-edge-idx="5" data-edge-base="partof" data-edge-from="14" data-edge-to="3">
    <polyline points="345.00,70.28 370,130 1000,230 1970,210 2010.29,168.56" fill="none" stroke="#82b366" stroke-width="3" />
    <path d="M 2015.00 163.72 L 2011.95 173.31 L 2010.29 168.56 L 2005.50 167.04 Z" fill="#82b366" stroke="#82b366" stroke-width="3" stroke-miterlimit="10"/>
    </g>
    <g class="edge" data-edge-idx="6" data-edge-base="partof" data-edge-from="15" data-edge-to="4">
    <line x1="1171.00" y1="105.00" x2="1122.90" y2="131.72" stroke="#82b366" stroke-width="3" />
    <path d="M 1117.00 135.00 L 1122.68 126.70 L 1122.90 131.72 L 1127.05 134.56 Z" fill="#82b366" stroke="#82b366" stroke-width="3" stroke-miterlimit="10"/>
    </g>
    <g class="edge" data-edge-idx="7" data-edge-base="partof" data-edge-from="16" data-edge-to="4">
    <line x1="1524.25" y1="102.83" x2="1161.64" y2="167.91" stroke="#82b366" stroke-width="3" />
    <path d="M 1155.00 169.10 L 1163.06 163.08 L 1161.64 167.91 L 1164.65 171.94 Z" fill="#82b366" stroke="#82b366" stroke-width="3" stroke-miterlimit="10"/>
    </g>
    <g class="edge" data-edge-idx="8" data-edge-base="partof" data-edge-from="16" data-edge-to="5">
    <line x1="1555.68" y1="103.19" x2="1828.39" y2="158.64" stroke="#82b366" stroke-width="3" />
    <path d="M 1835.00 159.98 L 1825.28 162.60 L 1828.39 158.64 L 1827.08 153.78 Z" fill="#82b366" stroke="#82b366" stroke-width="3" stroke-miterlimit="10"/>
    </g>
    <g class="edge" data-edge-idx="9" data-edge-base="partof" data-edge-from="17" data-edge-to="2">
    <line x1="2428.85" y1="105.00" x2="2428.31" y2="105.24" stroke="#82b366" stroke-width="3" />
    <path d="M 2422.15 108.00 L 2428.53 100.21 L 2428.31 105.24 L 2432.21 108.42 Z" fill="#82b366" stroke="#82b366" stroke-width="3" stroke-miterlimit="10"/>
    </g>
    <g class="edge" data-edge-idx="10" data-edge-base="partof" data-edge-from="18" data-edge-to="2">
    <line x1="2555.00" y1="73.60" x2="2481.48" y2="126.46" stroke="#82b366" stroke-width="3" />
    <path d="M 2476.00 130.40 L 2480.68 121.50 L 2481.48 126.46 L 2485.93 128.80 Z" fill="#82b366" stroke="#82b366" stroke-width="3" stroke-miterlimit="10"/>
    </g>
    <g class="edge" data-edge-idx="11" data-edge-base="partof" data-edge-from="19" data-edge-to="3">
    <polyline points="525.00,70.35 550,130 1000,230 1830,210 1970,210 2009.63,179.74" fill="none" stroke="#82b366" stroke-width="3" />
    <path d="M 2015.00 175.65 L 2010.58 184.68 L 2009.63 179.74 L 2005.12 177.53 Z" fill="#82b366" stroke="#82b366" stroke-width="3" stroke-miterlimit="10"/>
    </g>
    <g class="edge" data-edge-idx="12" data-edge-base="partof" data-edge-from="20" data-edge-to="4">
    <line x1="1295.00" y1="72.73" x2="1160.92" y2="146.03" stroke="#82b366" stroke-width="3" />
    <path d="M 1155.00 149.27 L 1160.74 141.00 L 1160.92 146.03 L 1165.06 148.90 Z" fill="#82b366" stroke="#82b366" stroke-width="3" stroke-miterlimit="10"/>
    </g>
    <g class="edge" data-edge-idx="13" data-edge-base="partof" data-edge-from="21" data-edge-to="5">
    <line x1="2244.21" y1="102.58" x2="1971.66" y2="147.10" stroke="#82b366" stroke-width="3" />
    <path d="M 1965.00 148.18 L 1973.16 142.29 L 1971.66 147.10 L 1974.61 151.17 Z" fill="#82b366" stroke="#82b366" stroke-width="3" stroke-miterlimit="10"/>
    </g>
    <g class="edge" data-edge-idx="14" data-edge-base="partof" data-edge-from="22" data-edge-to="2">
    <line x1="2784.20" y1="102.50" x2="2482.67" y2="150.16" stroke="#82b366" stroke-width="3" />
    <path d="M 2476.00 151.21 L 2484.19 145.36 L 2482.67 150.16 L 2485.59 154.25 Z" fill="#82b366" stroke="#82b366" stroke-width="3" stroke-miterlimit="10"/>
    </g>
    <g class="edge" data-edge-idx="15" data-edge-base="partof" data-edge-from="3" data-edge-to="1">
    <line x1="2015.00" y1="189.39" x2="1858.50" y2="232.81" stroke="#82b366" stroke-width="3" />
    <path d="M 1852.00 234.61 L 1859.47 227.87 L 1858.50 232.81 L 1861.88 236.54 Z" fill="#82b366" stroke="#82b366" stroke-width="3" stroke-miterlimit="10"/>
    </g>
    <g class="edge" data-edge-idx="16" data-edge-base="partof" data-edge-from="4" data-edge-to="6">
    <line x1="1155.00" y1="189.61" x2="1423.58" y2="276.31" stroke="#82b366" stroke-width="3" />
    <path d="M 1430.00 278.39 L 1420.05 279.90 L 1423.58 276.31 L 1422.82 271.34 Z" fill="#82b366" stroke="#82b366" stroke-width="3" stroke-miterlimit="10"/>
    </g>
    <g class="edge" data-edge-idx="17" data-edge-base="partof" data-edge-from="5" data-edge-to="6">
    <line x1="1835.00" y1="180.28" x2="1566.54" y2="249.04" stroke="#82b366" stroke-width="3" />
    <path d="M 1560.00 250.72 L 1567.60 244.13 L 1566.54 249.04 L 1569.84 252.85 Z" fill="#82b366" stroke="#82b366" stroke-width="3" stroke-miterlimit="10"/>
    </g>
    <g class="edge" data-edge-idx="18" data-edge-base="partof" data-edge-from="6" data-edge-to="1">
    <line x1="1560.00" y1="257.00" x2="1715.25" y2="257.00" stroke="#82b366" stroke-width="3" />
    <path d="M 1722.00 257.00 L 1713.00 261.50 L 1715.25 257.00 L 1713.00 252.50 Z" fill="#82b366" stroke="#82b366" stroke-width="3" stroke-miterlimit="10"/>
    </g>
    <g class="edge" data-edge-idx="19" data-edge-base="partof" data-edge-from="7" data-edge-to="5">
    <line x1="1735.42" y1="104.28" x2="1842.08" y2="133.91" stroke="#82b366" stroke-width="3" />
    <path d="M 1848.58 135.72 L 1838.71 137.64 L 1842.08 133.91 L 1841.12 128.97 Z" fill="#82b366" stroke="#82b366" stroke-width="3" stroke-miterlimit="10"/>
    </g>
    <g class="edge" data-edge-idx="20" data-edge-base="partof" data-edge-from="8" data-edge-to="4">
    <line x1="655.68" y1="103.18" x2="1018.38" y2="176.65" stroke="#82b366" stroke-width="3" />
    <path d="M 1025.00 177.99 L 1015.29 180.61 L 1018.38 176.65 L 1017.07 171.79 Z" fill="#82b366" stroke="#82b366" stroke-width="3" stroke-miterlimit="10"/>
    </g>
    <g class="edge" data-edge-idx="21" data-edge-base="partof" data-edge-from="9" data-edge-to="4">
    <line x1="885.00" y1="73.03" x2="1019.23" y2="154.47" stroke="#82b366" stroke-width="3" />
    <path d="M 1025.00 157.97 L 1014.97 157.15 L 1019.23 154.47 L 1019.64 149.45 Z" fill="#82b366" stroke="#82b366" stroke-width="3" stroke-miterlimit="10"/>
    </g>
  </g>
  <g id="nodes">
    <rect x="1727" y="215" width="120" height="60" rx="6" ry="6" fill="#d5e8d4" stroke="#82b366" stroke-width="2"/>
    <text x="1787" y="220" text-anchor="middle" dominant-baseline="middle" font-family="Helvetica,Inter,Segoe UI,Arial" font-size="14" font-weight="normal" fill="#009900">Data for</text>
    <text x="1787" y="237" text-anchor="middle" dominant-baseline="middle" font-family="Helvetica,Inter,Segoe UI,Arial" font-size="14" font-weight="normal" fill="#009900">&#34;Example</text>
    <text x="1787" y="253" text-anchor="middle" dominant-baseline="middle" font-family="Helvetica,Inter,Segoe UI,Arial" font-size="14" font-weight="normal" fill="#009900">API</text>
    <text x="1787" y="270" text-anchor="middle" dominant-baseline="middle" font-family="Helvetica,Inter,Segoe UI,Arial" font-size="14" font-weight="normal" fill="#009900">Response&#34;</text>
    <rect x="1840" y="40" width="120" height="60" rx="6" ry="6" fill="#d5e8d4" stroke="#82b366" stroke-width="2"/>
    <text x="1900" y="51" text-anchor="middle" dominant-baseline="middle" font-family="Helvetica,Inter,Segoe UI,Arial" font-size="16" font-weight="normal" fill="#009900">email =</text>
    <text x="1900" y="70" text-anchor="middle" dominant-baseline="middle" font-family="Helvetica,Inter,Segoe UI,Arial" font-size="16" font-weight="normal" fill="#009900">bob@example.</text>
    <text x="1900" y="89" text-anchor="middle" dominant-baseline="middle" font-family="Helvetica,Inter,Segoe UI,Arial" font-size="16" font-weight="normal" fill="#009900">com</text>
    <rect x="940" y="40" width="120" height="60" rx="6" ry="6" fill="#d5e8d4" stroke="#82b366" stroke-width="2"/>
    <text x="1000" y="70" text-anchor="middle" dominant-baseline="middle" font-family="Helvetica,Inter,Segoe UI,Arial" font-size="16" font-weight="normal" fill="#009900">id = 1</text>
    <rect x="2020" y="40" width="120" height="60" rx="6" ry="6" fill="#d5e8d4" stroke="#82b366" stroke-width="2"/>
    <text x="2080" y="70" text-anchor="middle" dominant-baseline="middle" font-family="Helvetica,Inter,Segoe UI,Arial" font-size="16" font-weight="normal" fill="#009900">id = 2</text>
    <rect x="40" y="40" width="120" height="60" rx="6" ry="6" fill="#d5e8d4" stroke="#82b366" stroke-width="2"/>
    <text x="100" y="70" text-anchor="middle" dominant-baseline="middle" font-family="Helvetica,Inter,Segoe UI,Arial" font-size="16" font-weight="normal" fill="#009900">limit = 10</text>
    <rect x="220" y="40" width="120" height="60" rx="6" ry="6" fill="#d5e8d4" stroke="#82b366" stroke-width="2"/>
    <text x="280" y="60" text-anchor="middle" dominant-baseline="middle" font-family="Helvetica,Inter,Segoe UI,Arial" font-size="16" font-weight="normal" fill="#009900">page number</text>
    <text x="280" y="80" text-anchor="middle" dominant-baseline="middle" font-family="Helvetica,Inter,Segoe UI,Arial" font-size="16" font-weight="normal" fill="#009900">= 1</text>
    <rect x="1120" y="40" width="120" height="60" rx="6" ry="6" fill="#d5e8d4" stroke="#82b366" stroke-width="2"/>
    <text x="1180" y="70" text-anchor="middle" dominant-baseline="middle" font-family="Helvetica,Inter,Segoe UI,Arial" font-size="16" font-weight="normal" fill="#009900">role = admin</text>
    <rect x="1480" y="40" width="120" height="60" rx="6" ry="6" fill="#d5e8d4" stroke="#82b366" stroke-width="2"/>
    <text x="1540" y="70" text-anchor="middle" dominant-baseline="middle" font-family="Helvetica,Inter,Segoe UI,Arial" font-size="16" font-weight="normal" fill="#009900">role = user</text>
    <rect x="2380" y="40" width="120" height="60" rx="6" ry="6" fill="#d5e8d4" stroke="#82b366" stroke-width="2"/>
    <text x="2440" y="60" text-anchor="middle" dominant-baseline="middle" font-family="Helvetica,Inter,Segoe UI,Arial" font-size="16" font-weight="normal" fill="#009900">status =</text>
    <text x="2440" y="80" text-anchor="middle" dominant-baseline="middle" font-family="Helvetica,Inter,Segoe UI,Arial" font-size="16" font-weight="normal" fill="#009900">success</text>
    <rect x="2560" y="40" width="120" height="60" rx="6" ry="6" fill="#d5e8d4" stroke="#82b366" stroke-width="2"/>
    <text x="2620" y="53" text-anchor="middle" dominant-baseline="middle" font-family="Helvetica,Inter,Segoe UI,Arial" font-size="14" font-weight="normal" fill="#009900">timestamp =</text>
    <text x="2620" y="70" text-anchor="middle" dominant-baseline="middle" font-family="Helvetica,Inter,Segoe UI,Arial" font-size="14" font-weight="normal" fill="#009900">&#34;2025-10-17T</text>
    <text x="2620" y="87" text-anchor="middle" dominant-baseline="middle" font-family="Helvetica,Inter,Segoe UI,Arial" font-size="14" font-weight="normal" fill="#009900">14:30:00Z&#34;</text>
    <rect x="400" y="40" width="120" height="60" rx="6" ry="6" fill="#d5e8d4" stroke="#82b366" stroke-width="2"/>
    <text x="460" y="70" text-anchor="middle" dominant-baseline="middle" font-family="Helvetica,Inter,Segoe UI,Arial" font-size="16" font-weight="normal" fill="#009900">total = 2</text>
    <rect x="2351" y="113" width="120" height="60" rx="6" ry="6" fill="#d5e8d4" stroke="#82b366" stroke-width="2"/>
    <text x="2411" y="133" text-anchor="middle" dominant-baseline="middle" font-family="Helvetica,Inter,Segoe UI,Arial" font-size="16" font-weight="normal" fill="#009900">Example API</text>
    <text x="2411" y="153" text-anchor="middle" dominant-baseline="middle" font-family="Helvetica,Inter,Segoe UI,Arial" font-size="16" font-weight="normal" fill="#009900">Response</text>
    <rect x="1300" y="40" width="120" height="60" rx="6" ry="6" fill="#d5e8d4" stroke="#82b366" stroke-width="2"/>
    <text x="1360" y="60" text-anchor="middle" dominant-baseline="middle" font-family="Helvetica,Inter,Segoe UI,Arial" font-size="16" font-weight="normal" fill="#009900">username =</text>
    <text x="1360" y="80" text-anchor="middle" dominant-baseline="middle" font-family="Helvetica,Inter,Segoe UI,Arial" font-size="16" font-weight="normal" fill="#009900">alice</text>
    <rect x="2200" y="40" width="120" height="60" rx="6" ry="6" fill="#d5e8d4" stroke="#82b366" stroke-width="2"/>
    <text x="2260" y="60" text-anchor="middle" dominant-baseline="middle" font-family="Helvetica,Inter,Segoe UI,Arial" font-size="16" font-weight="normal" fill="#009900">username =</text>
    <text x="2260" y="80" text-anchor="middle" dominant-baseline="middle" font-family="Helvetica,Inter,Segoe UI,Arial" font-size="16" font-weight="normal" fill="#009900">bob</text>
    <rect x="2740" y="40" width="120" height="60" rx="6" ry="6" fill="#d5e8d4" stroke="#82b366" stroke-width="2"/>
    <text x="2800" y="60" text-anchor="middle" dominant-baseline="middle" font-family="Helvetica,Inter,Segoe UI,Arial" font-size="16" font-weight="normal" fill="#009900">version =</text>
    <text x="2800" y="80" text-anchor="middle" dominant-baseline="middle" font-family="Helvetica,Inter,Segoe UI,Arial" font-size="16" font-weight="normal" fill="#009900">1.0.0</text>
    <rect x="2020" y="140" width="120" height="60" rx="6" ry="6" fill="#d5e8d4" stroke="#82b366" stroke-width="2"/>
    <text x="2080" y="145" text-anchor="middle" dominant-baseline="middle" font-family="Helvetica,Inter,Segoe UI,Arial" font-size="14" font-weight="normal" fill="#009900">Metadata for</text>
    <text x="2080" y="162" text-anchor="middle" dominant-baseline="middle" font-family="Helvetica,Inter,Segoe UI,Arial" font-size="14" font-weight="normal" fill="#009900">&#34;Example</text>
    <text x="2080" y="178" text-anchor="middle" dominant-baseline="middle" font-family="Helvetica,Inter,Segoe UI,Arial" font-size="14" font-weight="normal" fill="#009900">API</text>
    <text x="2080" y="195" text-anchor="middle" dominant-baseline="middle" font-family="Helvetica,Inter,Segoe UI,Arial" font-size="14" font-weight="normal" fill="#009900">Response&#34;</text>
    <rect x="1030" y="140" width="120" height="60" rx="6" ry="6" fill="#d5e8d4" stroke="#82b366" stroke-width="2"/>
    <text x="1090" y="170" text-anchor="middle" dominant-baseline="middle" font-family="Helvetica,Inter,Segoe UI,Arial" font-size="16" font-weight="normal" fill="#009900">User 1</text>
    <rect x="1840" y="140" width="120" height="60" rx="6" ry="6" fill="#d5e8d4" stroke="#82b366" stroke-width="2"/>
    <text x="1900" y="170" text-anchor="middle" dominant-baseline="middle" font-family="Helvetica,Inter,Segoe UI,Arial" font-size="16" font-weight="normal" fill="#009900">User 2</text>
    <rect x="1435" y="240" width="120" height="80" rx="6" ry="6" fill="#d5e8d4" stroke="#82b366" stroke-width="2"/>
    <text x="1495" y="255" text-anchor="middle" dominant-baseline="middle" font-family="Helvetica,Inter,Segoe UI,Arial" font-size="14" font-weight="normal" fill="#009900">User array for</text>
    <text x="1495" y="272" text-anchor="middle" dominant-baseline="middle" font-family="Helvetica,Inter,Segoe UI,Arial" font-size="14" font-weight="normal" fill="#009900">&#34;Example</text>
    <text x="1495" y="288" text-anchor="middle" dominant-baseline="middle" font-family="Helvetica,Inter,Segoe UI,Arial" font-size="14" font-weight="normal" fill="#009900">API</text>
    <text x="1495" y="305" text-anchor="middle" dominant-baseline="middle" font-family="Helvetica,Inter,Segoe UI,Arial" font-size="14" font-weight="normal" fill="#009900">Response&#34;</text>
    <rect x="1660" y="40" width="120" height="60" rx="6" ry="6" fill="#d5e8d4" stroke="#82b366" stroke-width="2"/>
    <text x="1720" y="60" text-anchor="middle" dominant-baseline="middle" font-family="Helvetica,Inter,Segoe UI,Arial" font-size="16" font-weight="normal" fill="#009900">active =</text>
    <text x="1720" y="80" text-anchor="middle" dominant-baseline="middle" font-family="Helvetica,Inter,Segoe UI,Arial" font-size="16" font-weight="normal" fill="#009900">false</text>
    <rect x="580" y="40" width="120" height="60" rx="6" ry="6" fill="#d5e8d4" stroke="#82b366" stroke-width="2"/>
    <text x="640" y="60" text-anchor="middle" dominant-baseline="middle" font-family="Helvetica,Inter,Segoe UI,Arial" font-size="16" font-weight="normal" fill="#009900">active =</text>
    <text x="640" y="80" text-anchor="middle" dominant-baseline="middle" font-family="Helvetica,Inter,Segoe UI,Arial" font-size="16" font-weight="normal" fill="#009900">true</text>
    <rect x="760" y="40" width="120" height="60" rx="6" ry="6" fill="#d5e8d4" stroke="#82b366" stroke-width="2"/>
    <text x="820" y="51" text-anchor="middle" dominant-baseline="middle" font-family="Helvetica,Inter,Segoe UI,Arial" font-size="16" font-weight="normal" fill="#009900">email =</text>
    <text x="820" y="70" text-anchor="middle" dominant-baseline="middle" font-family="Helvetica,Inter,Segoe UI,Arial" font-size="16" font-weight="normal" fill="#009900">alice@exampl</text>
    <text x="820" y="89" text-anchor="middle" dominant-baseline="middle" font-family="Helvetica,Inter,Segoe UI,Arial" font-size="16" font-weight="normal" fill="#009900">e.com</text>
  </g>
</svg>
