<?xml version="1.0" encoding="UTF-8"?>
<svg xmlns="http://www.w3.org/2000/svg" width="2900" height="360" viewBox="0 0 2900 360">
  <defs>
  </defs>
  <g id="container-shells">
  </g>
  <g id="node-shadows">
    <rect x="1727" y="215" width="120" height="60" rx="6" ry="6" fill="#000000" stroke="#000000" stroke-width="2" opacity="0.25" transform="translate(2,3)"/>
    <rect x="1840" y="40" width="120" height="60" rx="6" ry="6" fill="#000000" stroke="#000000" stroke-width="2" opacity="0.25" transform="translate(2,3)"/>
    <rect x="940" y="40" width="120" height="60" rx="6" ry="6" fill="#000000" stroke="#000000" stroke-width="2" opacity="0.25" transform="translate(2,3)"/>
    <rect x="2020" y="40" width="120" height="60" rx="6" ry="6" fill="#000000" stroke="#000000" stroke-width="2" opacity="0.25" transform="translate(2,3)"/>
    <rect x="40" y="40" width="120" height="60" rx="6" ry="6" fill="#000000" stroke="#000000" stroke-width="2" opacity="0.25" transform="translate(2,3)"/>
    <rect x="220" y="40" width="120" height="60" rx="6" ry="6" fill="#000000" stroke="#000000" stroke-width="2" opacity="0.25" transform="translate(2,3)"/>
    <rect x="1120" y="40" width="120" height="60" rx="6" ry="6" fill="#000000" stroke="#000000" stroke-width="2" opacity="0.25" transform="translate(2,3)"/>
    <rect x="1480" y="40" width="120" height="60" rx="6" ry="6" fill="#000000" stroke="#000000" stroke-width="2" opacity="0.25" transform="translate(2,3)"/>
    <rect x="2380" y="40" width="120" height="60" rx="6" ry="6" fill="#000000" stroke="#000000" stroke-width="2" opacity="0.25" transform="translate(2,3)"/>
    <rect x="2560" y="40" width="120" height="60" rx="6" ry="6" fill="#000000" stroke="#000000" stroke-width="2" opacity="0.25" transform="translate(2,3)"/>
    <rect x="400" y="40" width="120" height="60" rx="6" ry="6" fill="#000000" stroke="#000000" stroke-width="2" opacity="0.25" transform="translate(2,3)"/>
    <rect x="2351" y="113" width="120" height="60" rx="6" ry="6" fill="#000000" stroke="#000000" stroke-width="2" opacity="0.25" transform="translate(2,3)"/>
    <rect x="1300" y="40" width="120" height="60" rx="6" ry="6" fill="#000000" stroke="#000000" stroke-width="2" opacity="0.25" transform="translate(2,3)"/>
    <rect x="2200" y="40" width="120" height="60" rx="6" ry="6" fill="#000000" stroke="#000000" stroke-width="2" opacity="0.25" transform="translate(2,3)"/>
    <rect x="2740" y="40" width="120" height="60" rx="6" ry="6" fill="#000000" stroke="#000000" stroke-width="2" opacity="0.25" transform="translate(2,3)"/>
    <rect x="2020" y="140" width="120" height="60" rx="6" ry="6" fill="#000000" stroke="#000000" stroke-width="2" opacity="0.25" transform="translate(2,3)"/>
    <rect x="1030" y="140" width="120" height="60" rx="6" ry="6" fill="#000000" stroke="#000000" stroke-width="2" opacity="0.25" transform="translate(2,3)"/>
    <rect x="1840" y="140" width="120" height="60" rx="6" ry="6" fill="#000000" stroke="#000000" stroke-width="2" opacity="0.25" transform="translate(2,3)"/>
    <rect x="1435" y="240" width="120" height="80" rx="6" ry="6" fill="#000000" stroke="#000000" stroke-width="2" opacity="0.25" transform="translate(2,3)"/>
    <rect x="1660" y="40" width="120" height="60" rx="6" ry="6" fill="#000000" stroke="#000000" stroke-width="2" opacity="0.25" transform="translate(2,3)"/>
    <rect x="580" y="40" width="120" height="60" rx="6" ry="6" fill="#000000" stroke="#000000" stroke-width="2" opacity="0.25" transform="translate(2,3)"/>
    <rect x="760" y="40" width="120" height="60" rx="6" ry="6" fill="#000000" stroke="#000000" stroke-width="2" opacity="0.25" transform="translate(2,3)"/>
  </g>
  <g id="edges">
    <g class="edge" data-edge-idx="0" data-edge-base="partof" data-edge-from="1" data-edge-to="2">
    <line x1="1850.93" y1="235.27" x2="2340.43" y2="144.95" stroke="#82b366" stroke-width="3" />
    <path d="M 2347.07 143.73 L 2339.03 149.78 L 2340.43 144.95 L 2337.40 140.93 Z" fill="#82b366" stroke="#82b366" stroke-width="3" stroke-miterlimit="10"/>
    </g>
    <g class="edge" data-edge-idx="1" data-edge-base="partof" data-edge-from="10" data-edge-to="5">
    <line x1="1900.00" y1="104.00" x2="1900.00" y2="129.25" stroke="#82b366" stroke-width="3" />
    <path d="M 1900.00 136.00 L 1895.50 127.00 L 1900.00 129.25 L 1904.50 127.00 Z" fill="#82b366" stroke="#82b366" stroke-width="3" stroke-miterlimit="10"/>
    </g>
    <g class="edge" data-edge-idx="2" data-edge-base="partof" data-edge-from="11" data-edge-to="4">
    <line x1="1003.50" y1="101.94" x2="1062.60" y2="134.78" stroke="#82b366" stroke-width="3" />
    <path d="M 1068.50 138.06 L 1058.45 137.62 L 1062.60 134.78 L 1062.82 129.75 Z" fill="#82b366" stroke="#82b366" stroke-width="3" stroke-miterlimit="10"/>
    </g>
    <g class="edge" data-edge-idx="3" data-edge-base="partof" data-edge-from="12" data-edge-to="5">
    <line x1="2076.15" y1="101.07" x2="1946.36" y2="137.12" stroke="#82b366" stroke-width="3" />
    <path d="M 1939.85 138.93 L 1947.32 132.18 L 1946.36 137.12 L 1949.73 140.86 Z" fill="#82b366" stroke="#82b366" stroke-width="3" stroke-miterlimit="10"/>
    </g>
    <g class="edge" data-edge-idx="4" data-edge-base="partof" data-edge-from="13" data-edge-to="3">
    <line x1="164.00" y1="70.18" x2="2009.26" y2="151.53" stroke="#82b366" stroke-width="3" />
    <path d="M 2016.00 151.82 L 2006.81 155.92 L 2009.26 151.53 L 2007.21 146.93 Z" fill="#82b366" stroke="#82b366" stroke-width="3" stroke-miterlimit="10"/>
    </g>
    <g class="edge" data-edge-idx="5" data-edge-base="partof" data-edge-from="14" data-edge-to="3">
    <line x1="343.99" y1="70.22" x2="2009.27" y2="163.40" stroke="#82b366" stroke-width="3" />
    <path d="M 2016.01 163.78 L 2006.77 167.77 L 2009.27 163.40 L 2007.27 158.78 Z" fill="#82b366" stroke="#82b366" stroke-width="3" stroke-miterlimit="10"/>
    </g>
    <g class="edge" data-edge-idx="6" data-edge-base="partof" data-edge-from="15" data-edge-to="4">
    <line x1="1176.50" y1="101.94" x2="1117.40" y2="134.78" stroke="#82b366" stroke-width="3" />
    <path d="M 1111.50 138.06 L 1117.18 129.75 L 1117.40 134.78 L 1121.55 137.62 Z" fill="#82b366" stroke="#82b366" stroke-width="3" stroke-miterlimit="10"/>
    </g>
    <g class="edge" data-edge-idx="7" data-edge-base="partof" data-edge-from="16" data-edge-to="4">
    <line x1="1536.04" y1="100.53" x2="1160.66" y2="150.58" stroke="#82b366" stroke-width="3" />
    <path d="M 1153.96 151.47 L 1162.29 145.82 L 1160.66 150.58 L 1163.48 154.74 Z" fill="#82b366" stroke="#82b366" stroke-width="3" stroke-miterlimit="10"/>
    </g>
    <g class="edge" data-edge-idx="8" data-edge-base="partof" data-edge-from="16" data-edge-to="5">
    <line x1="1543.92" y1="100.80" x2="1829.47" y2="158.86" stroke="#82b366" stroke-width="3" />
    <path d="M 1836.08 160.20 L 1826.36 162.82 L 1829.47 158.86 L 1828.16 154.00 Z" fill="#82b366" stroke="#82b366" stroke-width="3" stroke-miterlimit="10"/>
    </g>
    <g class="edge" data-edge-idx="9" data-edge-base="partof" data-edge-from="17" data-edge-to="2">
    <line x1="2436.35" y1="101.64" x2="2420.81" y2="108.60" stroke="#82b366" stroke-width="3" />
    <path d="M 2414.65 111.36 L 2421.02 103.58 L 2420.81 108.60 L 2424.70 111.79 Z" fill="#82b366" stroke="#82b366" stroke-width="3" stroke-miterlimit="10"/>
    </g>
    <g class="edge" data-edge-idx="10" data-edge-base="partof" data-edge-from="18" data-edge-to="2">
    <line x1="2556.75" y1="72.34" x2="2479.73" y2="127.72" stroke="#82b366" stroke-width="3" />
    <path d="M 2474.25 131.66 L 2478.93 122.76 L 2479.73 127.72 L 2484.18 130.06 Z" fill="#82b366" stroke="#82b366" stroke-width="3" stroke-miterlimit="10"/>
    </g>
    <g class="edge" data-edge-idx="11" data-edge-base="partof" data-edge-from="19" data-edge-to="3">
    <line x1="523.99" y1="70.28" x2="2009.28" y2="175.24" stroke="#82b366" stroke-width="3" />
    <path d="M 2016.01 175.72 L 2006.72 179.57 L 2009.28 175.24 L 2007.35 170.59 Z" fill="#82b366" stroke="#82b366" stroke-width="3" stroke-miterlimit="10"/>
    </g>
    <g class="edge" data-edge-idx="12" data-edge-base="partof" data-edge-from="20" data-edge-to="4">
    <line x1="1296.67" y1="72.22" x2="1158.94" y2="164.04" stroke="#82b366" stroke-width="3" />
    <path d="M 1153.33 167.78 L 1158.32 159.04 L 1158.94 164.04 L 1163.31 166.53 Z" fill="#82b366" stroke="#82b366" stroke-width="3" stroke-miterlimit="10"/>
    </g>
    <g class="edge" data-edge-idx="13" data-edge-base="partof" data-edge-from="21" data-edge-to="5">
    <line x1="2256.05" y1="100.64" x2="1970.61" y2="147.27" stroke="#82b366" stroke-width="3" />
    <path d="M 1963.95 148.36 L 1972.10 142.46 L 1970.61 147.27 L 1973.56 151.35 Z" fill="#82b366" stroke="#82b366" stroke-width="3" stroke-miterlimit="10"/>
    </g>
    <g class="edge" data-edge-idx="14" data-edge-base="partof" data-edge-from="22" data-edge-to="2">
    <line x1="2796.05" y1="100.62" x2="2481.62" y2="150.32" stroke="#82b366" stroke-width="3" />
    <path d="M 2474.95 151.38 L 2483.14 145.53 L 2481.62 150.32 L 2484.54 154.42 Z" fill="#82b366" stroke="#82b366" stroke-width="3" stroke-miterlimit="10"/>
    </g>
    <g class="edge" data-edge-idx="15" data-edge-base="partof" data-edge-from="3" data-edge-to="1">
    <line x1="2016.26" y1="189.43" x2="1857.04" y2="250.17" stroke="#82b366" stroke-width="3" />
    <path d="M 1850.74 252.57 L 1857.54 245.16 L 1857.04 250.17 L 1860.75 253.57 Z" fill="#82b366" stroke="#82b366" stroke-width="3" stroke-miterlimit="10"/>
    </g>
    <g class="edge" data-edge-idx="16" data-edge-base="partof" data-edge-from="4" data-edge-to="6">
    <line x1="1153.81" y1="189.23" x2="1424.77" y2="276.70" stroke="#82b366" stroke-width="3" />
    <path d="M 1431.19 278.77 L 1421.25 280.29 L 1424.77 276.70 L 1424.01 271.72 Z" fill="#82b366" stroke="#82b366" stroke-width="3" stroke-miterlimit="10"/>
    </g>
    <g class="edge" data-edge-idx="17" data-edge-base="partof" data-edge-from="5" data-edge-to="6">
    <line x1="1836.13" y1="179.99" x2="1565.41" y2="249.33" stroke="#82b366" stroke-width="3" />
    <path d="M 1558.87 251.01 L 1566.48 244.42 L 1565.41 249.33 L 1568.71 253.13 Z" fill="#82b366" stroke="#82b366" stroke-width="3" stroke-miterlimit="10"/>
    </g>
    <g class="edge" data-edge-idx="18" data-edge-base="partof" data-edge-from="6" data-edge-to="1">
    <line x1="1559.00" y1="257.00" x2="1716.25" y2="257.00" stroke="#82b366" stroke-width="3" />
    <path d="M 1723.00 257.00 L 1714.00 261.50 L 1716.25 257.00 L 1714.00 252.50 Z" fill="#82b366" stroke="#82b366" stroke-width="3" stroke-miterlimit="10"/>
    </g>
    <g class="edge" data-edge-idx="19" data-edge-base="partof" data-edge-from="7" data-edge-to="5">
    <line x1="1723.85" y1="101.07" x2="1853.64" y2="137.12" stroke="#82b366" stroke-width="3" />
    <path d="M 1860.15 138.93 L 1850.27 140.86 L 1853.64 137.12 L 1852.68 132.18 Z" fill="#82b366" stroke="#82b366" stroke-width="3" stroke-miterlimit="10"/>
    </g>
    <g class="edge" data-edge-idx="20" data-edge-base="partof" data-edge-from="8" data-edge-to="4">
    <line x1="643.95" y1="100.62" x2="1019.38" y2="159.34" stroke="#82b366" stroke-width="3" />
    <path d="M 1026.05 160.38 L 1016.46 163.44 L 1019.38 159.34 L 1017.85 154.55 Z" fill="#82b366" stroke="#82b366" stroke-width="3" stroke-miterlimit="10"/>
    </g>
    <g class="edge" data-edge-idx="21" data-edge-base="partof" data-edge-from="9" data-edge-to="4">
    <line x1="883.24" y1="72.35" x2="1021.30" y2="172.68" stroke="#82b366" stroke-width="3" />
    <path d="M 1026.76 176.65 L 1016.84 175.00 L 1021.30 172.68 L 1022.13 167.72 Z" fill="#82b366" stroke="#82b366" stroke-width="3" stroke-miterlimit="10"/>
    </g>
  </g>
  <g id="nodes">
    <rect x="1727" y="215" width="120" height="60" rx="6" ry="6" fill="#d5e8d4" stroke="#82b366" stroke-width="2"/>
    <text x="1787" y="220" text-anchor="middle" dominant-baseline="middle" font-family="Helvetica,Inter,Segoe UI,Arial" font-size="14" font-weight="normal" fill="#009900">Data for</text>
    <text x="1787" y="237" text-anchor="middle" dominant-baseline="middle" font-family="Helvetica,Inter,Segoe UI,Arial" font-size="14" font-weight="normal" fill="#009900">&#34;Example</text>
    <text x="1787" y="253" text-anchor="middle" dominant-baseline="middle" font-family="Helvetica,Inter,Segoe UI,Arial" font-size="14" font-weight="normal" fill="#009900">API</text>
    <text x="1787" y="270" text-anchor="middle" dominant-baseline="middle" font-family="Helvetica,Inter,Segoe UI,Arial" font-size="14" font-weight="normal" fill="#009900">Response&#34;</text>
    <rect x="1840" y="40" width="120" height="60" rx="6" ry="6" fill="#d5e8d4" stroke="#82b366" stroke-width="2"/>
    <text x="1900" y="51" text-anchor="middle" dominant-baseline="middle" font-family="Helvetica,Inter,Segoe UI,Arial" font-size="16" font-weight="normal" fill="#009900">email =</text>
    <text x="1900" y="70" text-anchor="middle" dominant-baseline="middle" font-family="Helvetica,Inter,Segoe UI,Arial" font-size="16" font-weight="normal" fill="#009900">bob@example.</text>
    <text x="1900" y="89" text-anchor="middle" dominant-baseline="middle" font-family="Helvetica,Inter,Segoe UI,Arial" font-size="16" font-weight="normal" fill="#009900">com</text>
    <rect x="940" y="40" width="120" height="60" rx="6" ry="6" fill="#d5e8d4" stroke="#82b366" stroke-width="2"/>
    <text x="1000" y="70" text-anchor="middle" dominant-baseline="middle" font-family="Helvetica,Inter,Segoe UI,Arial" font-size="16" font-weight="normal" fill="#009900">id = 1</text>
    <rect x="2020" y="40" width="120" height="60" rx="6" ry="6" fill="#d5e8d4" stroke="#82b366" stroke-width="2"/>
    <text x="2080" y="70" text-anchor="middle" dominant-baseline="middle" font-family="Helvetica,Inter,Segoe UI,Arial" font-size="16" font-weight="normal" fill="#009900">id = 2</text>
    <rect x="40" y="40" width="120" height="60" rx="6" ry="6" fill="#d5e8d4" stroke="#82b366" stroke-width="2"/>
    <text x="100" y="70" text-anchor="middle" dominant-baseline="middle" font-family="Helvetica,Inter,Segoe UI,Arial" font-size="16" font-weight="normal" fill="#009900">limit = 10</text>
    <rect x="220" y="40" width="120" height="60" rx="6" ry="6" fill="#d5e8d4" stroke="#82b366" stroke-width="2"/>
    <text x="280" y="60" text-anchor="middle" dominant-baseline="middle" font-family="Helvetica,Inter,Segoe UI,Arial" font-size="16" font-weight="normal" fill="#009900">page number</text>
    <text x="280" y="80" text-anchor="middle" dominant-baseline="middle" font-family="Helvetica,Inter,Segoe UI,Arial" font-size="16" font-weight="normal" fill="#009900">= 1</text>
    <rect x="1120" y="40" width="120" height="60" rx="6" ry="6" fill="#d5e8d4" stroke="#82b366" stroke-width="2"/>
    <text x="1180" y="70" text-anchor="middle" dominant-baseline="middle" font-family="Helvetica,Inter,Segoe UI,Arial" font-size="16" font-weight="normal" fill="#009900">role = admin</text>
    <rect x="1480" y="40" width="120" height="60" rx="6" ry="6" fill="#d5e8d4" stroke="#82b366" stroke-width="2"/>
    <text x="1540" y="70" text-anchor="middle" dominant-baseline="middle" font-family="Helvetica,Inter,Segoe UI,Arial" font-size="16" font-weight="normal" fill="#009900">role = user</text>
    <rect x="2380" y="40" width="120" height="60" rx="6" ry="6" fill="#d5e8d4" stroke="#82b366" stroke-width="2"/>
    <text x="2440" y="60" text-anchor="middle" dominant-baseline="middle" font-family="Helvetica,Inter,Segoe UI,Arial" font-size="16" font-weight="normal" fill="#009900">status =</text>
    <text x="2440" y="80" text-anchor="middle" dominant-baseline="middle" font-family="Helvetica,Inter,Segoe UI,Arial" font-size="16" font-weight="normal" fill="#009900">success</text>
    <rect x="2560" y="40" width="120" height="60" rx="6" ry="6" fill="#d5e8d4" stroke="#82b366" stroke-width="2"/>
    <text x="2620" y="53" text-anchor="middle" dominant-baseline="middle" font-family="Helvetica,Inter,Segoe UI,Arial" font-size="14" font-weight="normal" fill="#009900">timestamp =</text>
    <text x="2620" y="70" text-anchor="middle" dominant-baseline="middle" font-family="Helvetica,Inter,Segoe UI,Arial" font-size="14" font-weight="normal" fill="#009900">&#34;2025-10-17T</text>
    <text x="2620" y="87" text-anchor="middle" dominant-baseline="middle" font-family="Helvetica,Inter,Segoe UI,Arial" font-size="14" font-weight="normal" fill="#009900">14:30:00Z&#34;</text>
    <rect x="400" y="40" width="120" height="60" rx="6" ry="6" fill="#d5e8d4" stroke="#82b366" stroke-width="2"/>
    <text x="460" y="70" text-anchor="middle" dominant-baseline="middle" font-family="Helvetica,Inter,Segoe UI,Arial" font-size="16" font-weight="normal" fill="#009900">total = 2</text>
    <rect x="2351" y="113" width="120" height="60" rx="6" ry="6" fill="#d5e8d4" stroke="#82b366" stroke-width="2"/>
    <text x="2411" y="133" text-anchor="middle" dominant-baseline="middle" font-family="Helvetica,Inter,Segoe UI,Arial" font-size="16" font-weight="normal" fill="#009900">Example API</text>
    <text x="2411" y="153" text-anchor="middle" dominant-baseline="middle" font-family="Helvetica,Inter,Segoe UI,Arial" font-size="16" font-weight="normal" fill="#009900">Response</text>
    <rect x="1300" y="40" width="120" height="60" rx="6" ry="6" fill="#d5e8d4" stroke="#82b366" stroke-width="2"/>
    <text x="1360" y="60" text-anchor="middle" dominant-baseline="middle" font-family="Helvetica,Inter,Segoe UI,Arial" font-size="16" font-weight="normal" fill="#009900">username =</text>
    <text x="1360" y="80" text-anchor="middle" dominant-baseline="middle" font-family="Helvetica,Inter,Segoe UI,Arial" font-size="16" font-weight="normal" fill="#009900">alice</text>
    <rect x="2200" y="40" width="120" height="60" rx="6" ry="6" fill="#d5e8d4" stroke="#82b366" stroke-width="2"/>
    <text x="2260" y="60" text-anchor="middle" dominant-baseline="middle" font-family="Helvetica,Inter,Segoe UI,Arial" font-size="16" font-weight="normal" fill="#009900">username =</text>
    <text x="2260" y="80" text-anchor="middle" dominant-baseline="middle" font-family="Helvetica,Inter,Segoe UI,Arial" font-size="16" font-weight="normal" fill="#009900">bob</text>
    <rect x="2740" y="40" width="120" height="60" rx="6" ry="6" fill="#d5e8d4" stroke="#82b366" stroke-width="2"/>
    <text x="2800" y="60" text-anchor="middle" dominant-baseline="middle" font-family="Helvetica,Inter,Segoe UI,Arial" font-size="16" font-weight="normal" fill="#009900">version =</text>
    <text x="2800" y="80" text-anchor="middle" dominant-baseline="middle" font-family="Helvetica,Inter,Segoe UI,Arial" font-size="16" font-weight="normal" fill="#009900">1.0.0</text>
    <rect x="2020" y="140" width="120" height="60" rx="6" ry="6" fill="#d5e8d4" stroke="#82b366" stroke-width="2"/>
    <text x="2080" y="145" text-anchor="middle" dominant-baseline="middle" font-family="Helvetica,Inter,Segoe UI,Arial" font-size="14" font-weight="normal" fill="#009900">Metadata for</text>
    <text x="2080" y="162" text-anchor="middle" dominant-baseline="middle" font-family="Helvetica,Inter,Segoe UI,Arial" font-size="14" font-weight="normal" fill="#009900">&#34;Example</text>
    <text x="2080" y="178" text-anchor="middle" dominant-baseline="middle" font-family="Helvetica,Inter,Segoe UI,Arial" font-size="14" font-weight="normal" fill="#009900">API</text>
    <text x="2080" y="195" text-anchor="middle" dominant-baseline="middle" font-family="Helvetica,Inter,Segoe UI,Arial" font-size="14" font-weight="normal" fill="#009900">Response&#34;</text>
    <rect x="1030" y="140" width="120" height="60" rx="6" ry="6" fill="#d5e8d4" stroke="#82b366" stroke-width="2"/>
    <text x="1090" y="170" text-anchor="middle" dominant-baseline="middle" font-family="Helvetica,Inter,Segoe UI,Arial" font-size="16" font-weight="normal" fill="#009900">User 1</text>
    <rect x="1840" y="140" width="120" height="60" rx="6" ry="6" fill="#d5e8d4" stroke="#82b366" stroke-width="2"/>
    <text x="1900" y="170" text-anchor="middle" dominant-baseline="middle" font-family="Helvetica,Inter,Segoe UI,Arial" font-size="16" font-weight="normal" fill="#009900">User 2</text>
    <rect x="1435" y="240" width="120" height="80" rx="6" ry="6" fill="#d5e8d4" stroke="#82b366" stroke-width="2"/>
    <text x="1495" y="255" text-anchor="middle" dominant-baseline="middle" font-family="Helvetica,Inter,Segoe UI,Arial" font-size="14" font-weight="normal" fill="#009900">User array for</text>
    <text x="1495" y="272" text-anchor="middle" dominant-baseline="middle" font-family="Helvetica,Inter,Segoe UI,Arial" font-size="14" font-weight="normal" fill="#009900">&#34;Example</text>
    <text x="1495" y="288" text-anchor="middle" dominant-baseline="middle" font-family="Helvetica,Inter,Segoe UI,Arial" font-size="14" font-weight="normal" fill="#009900">API</text>
    <text x="1495" y="305" text-anchor="middle" dominant-baseline="middle" font-family="Helvetica,Inter,Segoe UI,Arial" font-size="14" font-weight="normal" fill="#009900">Response&#34;</text>
    <rect x="1660" y="40" width="120" height="60" rx="6" ry="6" fill="#d5e8d4" stroke="#82b366" stroke-width="2"/>
    <text x="1720" y="60" text-anchor="middle" dominant-baseline="middle" font-family="Helvetica,Inter,Segoe UI,Arial" font-size="16" font-weight="normal" fill="#009900">active =</text>
    <text x="1720" y="80" text-anchor="middle" dominant-baseline="middle" font-family="Helvetica,Inter,Segoe UI,Arial" font-size="16" font-weight="normal" fill="#009900">false</text>
    <rect x="580" y="40" width="120" height="60" rx="6" ry="6" fill="#d5e8d4" stroke="#82b366" stroke-width="2"/>
    <text x="640" y="60" text-anchor="middle" dominant-baseline="middle" font-family="Helvetica,Inter,Segoe UI,Arial" font-size="16" font-weight="normal" fill="#009900">active =</text>
    <text x="640" y="80" text-anchor="middle" dominant-baseline="middle" font-family="Helvetica,Inter,Segoe UI,Arial" font-size="16" font-weight="normal" fill="#009900">true</text>
    <rect x="760" y="40" width="120" height="60" rx="6" ry="6" fill="#d5e8d4" stroke="#82b366" stroke-width="2"/>
    <text x="820" y="51" text-anchor="middle" dominant-baseline="middle" font-family="Helvetica,Inter,Segoe UI,Arial" font-size="16" font-weight="normal" fill="#009900">email =</text>
    <text x="820" y="70" text-anchor="middle" dominant-baseline="middle" font-family="Helvetica,Inter,Segoe UI,Arial" font-size="16" font-weight="normal" fill="#009900">alice@exampl</text>
    <text x="820" y="89" text-anchor="middle" dominant-baseline="middle" font-family="Helvetica,Inter,Segoe UI,Arial" font-size="16" font-weight="normal" fill="#009900">e.com</text>
  </g>
</svg>
