<?xml version="1.0" encoding="UTF-8"?>
<svg xmlns="http://www.w3.org/2000/svg" width="1580" height="1413" viewBox="0 0 1580 1413">
  <defs>
  </defs>
  <g id="container-shells">
  </g>
  <g id="node-shadows">
    <rect x="220" y="645" width="120" height="60" rx="6" ry="6" fill="#000000" stroke="#000000" stroke-width="2" opacity="0.25" transform="translate(2,3)"/>
    <rect x="400" y="985" width="120" height="140" rx="6" ry="6" fill="#000000" stroke="#000000" stroke-width="2" opacity="0.25" transform="translate(2,3)"/>
    <rect x="400" y="1165" width="120" height="80" rx="6" ry="6" fill="#000000" stroke="#000000" stroke-width="2" opacity="0.25" transform="translate(2,3)"/>
    <rect x="220" y="120" width="120" height="60" rx="6" ry="6" fill="#000000" stroke="#000000" stroke-width="2" opacity="0.25" transform="translate(2,3)"/>
    <rect x="220" y="220" width="120" height="60" rx="6" ry="6" fill="#000000" stroke="#000000" stroke-width="2" opacity="0.25" transform="translate(2,3)"/>
    <rect x="220" y="320" width="120" height="60" rx="6" ry="6" fill="#000000" stroke="#000000" stroke-width="2" opacity="0.25" transform="translate(2,3)"/>
    <rect x="220" y="420" width="120" height="60" rx="6" ry="6" fill="#000000" stroke="#000000" stroke-width="2" opacity="0.25" transform="translate(2,3)"/>
    <rect x="220" y="720" width="120" height="60" rx="6" ry="6" fill="#000000" stroke="#000000" stroke-width="2" opacity="0.25" transform="translate(2,3)"/>
    <rect x="220" y="820" width="120" height="60" rx="6" ry="6" fill="#000000" stroke="#000000" stroke-width="2" opacity="0.25" transform="translate(2,3)"/>
    <rect x="220" y="920" width="120" height="60" rx="6" ry="6" fill="#000000" stroke="#000000" stroke-width="2" opacity="0.25" transform="translate(2,3)"/>
    <rect x="940" y="240" width="120" height="60" rx="6" ry="6" fill="#000000" stroke="#000000" stroke-width="2" opacity="0.25" transform="translate(2,3)"/>
    <rect x="940" y="140" width="120" height="60" rx="6" ry="6" fill="#000000" stroke="#000000" stroke-width="2" opacity="0.25" transform="translate(2,3)"/>
    <rect x="220" y="570" width="120" height="60" rx="6" ry="6" fill="#000000" stroke="#000000" stroke-width="2" opacity="0.25" transform="translate(2,3)"/>
    <rect x="580" y="795" width="120" height="60" rx="6" ry="6" fill="#000000" stroke="#000000" stroke-width="2" opacity="0.25" transform="translate(2,3)"/>
    <rect x="620" y="40" width="40" height="40" rx="4" ry="4" fill="#000000" stroke="#000000" stroke-width="2" opacity="0.25" transform="translate(2,3)"/>
    <rect x="620" y="1333" width="40" height="40" rx="4" ry="4" fill="#000000" stroke="#000000" stroke-width="2" opacity="0.25" transform="translate(2,3)"/>
    <rect x="1220" y="40" width="40" height="40" rx="4" ry="4" fill="#000000" stroke="#000000" stroke-width="2" opacity="0.25" transform="translate(2,3)"/>
    <rect x="1220" y="360" width="40" height="40" rx="4" ry="4" fill="#000000" stroke="#000000" stroke-width="2" opacity="0.25" transform="translate(2,3)"/>
    <rect x="220" y="1233" width="120" height="60" rx="6" ry="6" fill="#000000" stroke="#000000" stroke-width="2" opacity="0.25" transform="translate(2,3)"/>
    <rect x="220" y="990" width="120" height="60" rx="6" ry="6" fill="#000000" stroke="#000000" stroke-width="2" opacity="0.25" transform="translate(2,3)"/>
    <rect x="1420" y="140" width="120" height="60" rx="6" ry="6" fill="#000000" stroke="#000000" stroke-width="2" opacity="0.25" transform="translate(2,3)"/>
    <rect x="1420" y="240" width="120" height="60" rx="6" ry="6" fill="#000000" stroke="#000000" stroke-width="2" opacity="0.25" transform="translate(2,3)"/>
    <rect x="400" y="405" width="120" height="260" rx="6" ry="6" fill="#000000" stroke="#000000" stroke-width="2" opacity="0.25" transform="translate(2,3)"/>
    <rect x="400" y="705" width="120" height="240" rx="6" ry="6" fill="#000000" stroke="#000000" stroke-width="2" opacity="0.25" transform="translate(2,3)"/>
    <rect x="1120" y="120" width="240" height="200" rx="6" ry="6" fill="#000000" stroke="#000000" stroke-width="2" opacity="0.25" transform="translate(2,3)"/>
  </g>
  <g id="edges">
    <g class="edge" data-edge-idx="0" data-edge-base="expresses" data-edge-from="10" data-edge-to="1">
    <line x1="399.29" y1="1005.06" x2="341.91" y2="687.58" stroke="#6c8ebf" stroke-width="3" stroke-dasharray="9 6" />
    <path d="M 340.71 680.94 L 346.74 688.99 L 341.91 687.58 L 337.88 690.59 Z" fill="#6c8ebf" stroke="#6c8ebf" stroke-width="3" stroke-miterlimit="10"/>
    <text x="370" y="846" text-anchor="middle" dominant-baseline="middle" font-family="Helvetica,Inter,Segoe UI,Arial" font-size="11" paint-order="stroke" stroke="#ffffff" stroke-width="3" stroke-linejoin="round" fill="#6c8ebf">
      <title>has page number</title>has...
    </text>
    </g>
    <g class="edge" data-edge-idx="1" data-edge-base="expresses" data-edge-from="10" data-edge-to="3">
    <line x1="398.84" y1="1068.83" x2="343.12" y2="1252.71" stroke="#6c8ebf" stroke-width="3" stroke-dasharray="9 6" />
    <path d="M 341.16 1259.17 L 339.46 1249.25 L 343.12 1252.71 L 348.08 1251.86 Z" fill="#6c8ebf" stroke="#6c8ebf" stroke-width="3" stroke-miterlimit="10"/>
    <text x="370" y="1160" text-anchor="middle" dominant-baseline="middle" font-family="Helvetica,Inter,Segoe UI,Arial" font-size="11" paint-order="stroke" stroke="#ffffff" stroke-width="3" stroke-linejoin="round" fill="#6c8ebf">
      <title>has a limit of</title>has...
    </text>
    </g>
    <g class="edge" data-edge-idx="2" data-edge-base="expresses" data-edge-from="10" data-edge-to="4">
    <line x1="396.00" y1="1020.00" x2="350.75" y2="1020.00" stroke="#6c8ebf" stroke-width="3" stroke-dasharray="9 6" />
    <path d="M 344.00 1020.00 L 353.00 1015.50 L 350.75 1020.00 L 353.00 1024.50 Z" fill="#6c8ebf" stroke="#6c8ebf" stroke-width="3" stroke-miterlimit="10"/>
    <text x="373" y="1020" text-anchor="middle" dominant-baseline="middle" font-family="Helvetica,Inter,Segoe UI,Arial" font-size="11" paint-order="stroke" stroke="#ffffff" stroke-width="3" stroke-linejoin="round" fill="#6c8ebf">
      <title>has total value</title>has...
    </text>
    </g>
    <g class="edge" data-edge-idx="3" data-edge-base="partof" data-edge-from="11" data-edge-to="21">
    <line x1="520.64" y1="1201.05" x2="578.28" y2="844.61" stroke="#82b366" stroke-width="3" />
    <path d="M 579.36 837.95 L 582.37 847.55 L 578.28 844.61 L 573.48 846.11 Z" fill="#82b366" stroke="#82b366" stroke-width="3" stroke-miterlimit="10"/>
    </g>
    <g class="edge" data-edge-idx="4" data-edge-base="expresses" data-edge-from="21" data-edge-to="10">
    <line x1="579.03" y1="819.88" x2="522.62" y2="1044.57" stroke="#6c8ebf" stroke-width="3" stroke-dasharray="9 6" />
    <path d="M 520.97 1051.12 L 518.80 1041.30 L 522.62 1044.57 L 527.53 1043.49 Z" fill="#6c8ebf" stroke="#6c8ebf" stroke-width="3" stroke-miterlimit="10"/>
    <text x="550" y="931" text-anchor="middle" dominant-baseline="middle" font-family="Helvetica,Inter,Segoe UI,Arial" font-size="11" paint-order="stroke" stroke="#ffffff" stroke-width="3" stroke-linejoin="round" fill="#6c8ebf">
      <title>has metadata</title>has...
    </text>
    </g>
    <g class="edge" data-edge-idx="5" data-edge-base="leadsto" data-edge-from="21" data-edge-to="23">
    <line x1="640.00" y1="859.00" x2="640.00" y2="1322.25" stroke="#ff8000" stroke-width="3" />
    <path d="M 640.00 1329.00 L 635.50 1320.00 L 640.00 1322.25 L 644.50 1320.00 Z" fill="#ff8000" stroke="#ff8000" stroke-width="3" stroke-miterlimit="10"/>
    </g>
    <g class="edge" data-edge-idx="6" data-edge-base="leadsto" data-edge-from="22" data-edge-to="21">
    <line x1="640.00" y1="84.00" x2="640.00" y2="784.25" stroke="#ff8000" stroke-width="3" />
    <path d="M 640.00 791.00 L 635.50 782.00 L 640.00 784.25 L 644.50 782.00 Z" fill="#ff8000" stroke="#ff8000" stroke-width="3" stroke-miterlimit="10"/>
    </g>
    <g class="edge" data-edge-idx="7" data-edge-base="leadsto" data-edge-from="24" data-edge-to="9">
    <line x1="1240.00" y1="84.00" x2="1240.00" y2="109.25" stroke="#ff8000" stroke-width="3" />
    <path d="M 1240.00 116.00 L 1235.50 107.00 L 1240.00 109.25 L 1244.50 107.00 Z" fill="#ff8000" stroke="#ff8000" stroke-width="3" stroke-miterlimit="10"/>
    </g>
    <g class="edge" data-edge-idx="8" data-edge-base="expresses" data-edge-from="7" data-edge-to="1">
    <line x1="396.00" y1="655.00" x2="350.75" y2="655.00" stroke="#6c8ebf" stroke-width="3" stroke-dasharray="9 6" />
    <path d="M 344.00 655.00 L 353.00 650.50 L 350.75 655.00 L 353.00 659.50 Z" fill="#6c8ebf" stroke="#6c8ebf" stroke-width="3" stroke-miterlimit="10"/>
    <text x="373" y="655" text-anchor="middle" dominant-baseline="middle" font-family="Helvetica,Inter,Segoe UI,Arial" font-size="11" paint-order="stroke" stroke="#ffffff" stroke-width="3" stroke-linejoin="round" fill="#6c8ebf">has id</text>
    </g>
    <g class="edge" data-edge-idx="9" data-edge-base="partof" data-edge-from="7" data-edge-to="11">
    <polyline points="459.86,669.00 530,695 530,955 530,1135 448.62,1159.09" fill="none" stroke="#82b366" stroke-width="3" />
    <path d="M 442.14 1161.00 L 449.50 1154.13 L 448.62 1159.09 L 452.05 1162.76 Z" fill="#82b366" stroke="#82b366" stroke-width="3" stroke-miterlimit="10"/>
    </g>
    <g class="edge" data-edge-idx="10" data-edge-base="expresses" data-edge-from="7" data-edge-to="12">
    <line x1="399.18" y1="431.09" x2="342.21" y2="160.52" stroke="#6c8ebf" stroke-width="3" stroke-dasharray="9 6" />
    <path d="M 340.82 153.91 L 347.08 161.79 L 342.21 160.52 L 338.27 163.65 Z" fill="#6c8ebf" stroke="#6c8ebf" stroke-width="3" stroke-miterlimit="10"/>
    <text x="370" y="295" text-anchor="middle" dominant-baseline="middle" font-family="Helvetica,Inter,Segoe UI,Arial" font-size="11" paint-order="stroke" stroke="#ffffff" stroke-width="3" stroke-linejoin="round" fill="#6c8ebf">
      <title>has status</title>has...
    </text>
    </g>
    <g class="edge" data-edge-idx="11" data-edge-base="expresses" data-edge-from="7" data-edge-to="13">
    <line x1="398.80" y1="436.19" x2="343.24" y2="260.25" stroke="#6c8ebf" stroke-width="3" stroke-dasharray="9 6" />
    <path d="M 341.20 253.81 L 348.21 261.04 L 343.24 260.25 L 339.62 263.75 Z" fill="#6c8ebf" stroke="#6c8ebf" stroke-width="3" stroke-miterlimit="10"/>
    <text x="370" y="348" text-anchor="middle" dominant-baseline="middle" font-family="Helvetica,Inter,Segoe UI,Arial" font-size="11" paint-order="stroke" stroke="#ffffff" stroke-width="3" stroke-linejoin="round" fill="#6c8ebf">
      <title>has a role</title>has...
    </text>
    </g>
    <g class="edge" data-edge-idx="12" data-edge-base="expresses" data-edge-from="7" data-edge-to="14">
    <line x1="397.86" y1="441.62" x2="345.74" y2="359.09" stroke="#6c8ebf" stroke-width="3" stroke-dasharray="9 6" />
    <path d="M 342.14 353.38 L 350.75 358.59 L 345.74 359.09 L 343.14 363.39 Z" fill="#6c8ebf" stroke="#6c8ebf" stroke-width="3" stroke-miterlimit="10"/>
    <text x="371" y="400" text-anchor="middle" dominant-baseline="middle" font-family="Helvetica,Inter,Segoe UI,Arial" font-size="11" paint-order="stroke" stroke="#ffffff" stroke-width="3" stroke-linejoin="round" fill="#6c8ebf">
      <title>has username</title>has...
    </text>
    </g>
    <g class="edge" data-edge-idx="13" data-edge-base="expresses" data-edge-from="7" data-edge-to="15">
    <line x1="396.00" y1="450.00" x2="350.75" y2="450.00" stroke="#6c8ebf" stroke-width="3" stroke-dasharray="9 6" />
    <path d="M 344.00 450.00 L 353.00 445.50 L 350.75 450.00 L 353.00 454.50 Z" fill="#6c8ebf" stroke="#6c8ebf" stroke-width="3" stroke-miterlimit="10"/>
    <text x="373" y="450" text-anchor="middle" dominant-baseline="middle" font-family="Helvetica,Inter,Segoe UI,Arial" font-size="11" paint-order="stroke" stroke="#ffffff" stroke-width="3" stroke-linejoin="round" fill="#6c8ebf">
      <title>has email</title>has...
    </text>
    </g>
    <g class="edge" data-edge-idx="14" data-edge-base="expresses" data-edge-from="7" data-edge-to="20">
    <line x1="396.00" y1="600.00" x2="350.75" y2="600.00" stroke="#6c8ebf" stroke-width="3" stroke-dasharray="9 6" />
    <path d="M 344.00 600.00 L 353.00 595.50 L 350.75 600.00 L 353.00 604.50 Z" fill="#6c8ebf" stroke="#6c8ebf" stroke-width="3" stroke-miterlimit="10"/>
    <text x="373" y="600" text-anchor="middle" dominant-baseline="middle" font-family="Helvetica,Inter,Segoe UI,Arial" font-size="11" paint-order="stroke" stroke="#ffffff" stroke-width="3" stroke-linejoin="round" fill="#6c8ebf">
      <title>has a role</title>has...
    </text>
    </g>
    <g class="edge" data-edge-idx="15" data-edge-base="partof" data-edge-from="8" data-edge-to="11">
    <polyline points="460.33,948.99 530,975 530,1135 483.72,1158.01" fill="none" stroke="#82b366" stroke-width="3" />
    <path d="M 477.67 1161.01 L 483.73 1152.98 L 483.72 1158.01 L 487.74 1161.04 Z" fill="#82b366" stroke="#82b366" stroke-width="3" stroke-miterlimit="10"/>
    </g>
    <g class="edge" data-edge-idx="16" data-edge-base="expresses" data-edge-from="8" data-edge-to="16">
    <line x1="396.00" y1="750.00" x2="350.75" y2="750.00" stroke="#6c8ebf" stroke-width="3" stroke-dasharray="9 6" />
    <path d="M 344.00 750.00 L 353.00 745.50 L 350.75 750.00 L 353.00 754.50 Z" fill="#6c8ebf" stroke="#6c8ebf" stroke-width="3" stroke-miterlimit="10"/>
    <text x="373" y="750" text-anchor="middle" dominant-baseline="middle" font-family="Helvetica,Inter,Segoe UI,Arial" font-size="11" paint-order="stroke" stroke="#ffffff" stroke-width="3" stroke-linejoin="round" fill="#6c8ebf">
      <title>has username</title>has...
    </text>
    </g>
    <g class="edge" data-edge-idx="17" data-edge-base="expresses" data-edge-from="8" data-edge-to="17">
    <line x1="396.00" y1="850.00" x2="350.75" y2="850.00" stroke="#6c8ebf" stroke-width="3" stroke-dasharray="9 6" />
    <path d="M 344.00 850.00 L 353.00 845.50 L 350.75 850.00 L 353.00 854.50 Z" fill="#6c8ebf" stroke="#6c8ebf" stroke-width="3" stroke-miterlimit="10"/>
    <text x="373" y="850" text-anchor="middle" dominant-baseline="middle" font-family="Helvetica,Inter,Segoe UI,Arial" font-size="11" paint-order="stroke" stroke="#ffffff" stroke-width="3" stroke-linejoin="round" fill="#6c8ebf">
      <title>has email</title>has...
    </text>
    </g>
    <g class="edge" data-edge-idx="18" data-edge-base="expresses" data-edge-from="8" data-edge-to="18">
    <line x1="396.00" y1="932.00" x2="350.75" y2="932.00" stroke="#6c8ebf" stroke-width="3" stroke-dasharray="9 6" />
    <path d="M 344.00 932.00 L 353.00 927.50 L 350.75 932.00 L 353.00 936.50 Z" fill="#6c8ebf" stroke="#6c8ebf" stroke-width="3" stroke-miterlimit="10"/>
    <text x="373" y="932" text-anchor="middle" dominant-baseline="middle" font-family="Helvetica,Inter,Segoe UI,Arial" font-size="11" paint-order="stroke" stroke="#ffffff" stroke-width="3" stroke-linejoin="round" fill="#6c8ebf">
      <title>has status</title>has...
    </text>
    </g>
    <g class="edge" data-edge-idx="19" data-edge-base="expresses" data-edge-from="8" data-edge-to="20">
    <line x1="398.29" y1="735.38" x2="344.59" y2="621.72" stroke="#6c8ebf" stroke-width="3" stroke-dasharray="9 6" />
    <path d="M 341.71 615.62 L 349.62 621.83 L 344.59 621.72 L 341.48 625.68 Z" fill="#6c8ebf" stroke="#6c8ebf" stroke-width="3" stroke-miterlimit="10"/>
    <text x="371" y="678" text-anchor="middle" dominant-baseline="middle" font-family="Helvetica,Inter,Segoe UI,Arial" font-size="11" paint-order="stroke" stroke="#ffffff" stroke-width="3" stroke-linejoin="round" fill="#6c8ebf">
      <title>has a role</title>has...
    </text>
    </g>
    <g class="edge" data-edge-idx="20" data-edge-base="expresses" data-edge-from="8" data-edge-to="4">
    <line x1="397.64" y1="929.23" x2="346.35" y2="999.32" stroke="#6c8ebf" stroke-width="3" stroke-dasharray="9 6" />
    <path d="M 342.36 1004.77 L 344.04 994.85 L 346.35 999.32 L 351.31 1000.17 Z" fill="#6c8ebf" stroke="#6c8ebf" stroke-width="3" stroke-miterlimit="10"/>
    <text x="371" y="964" text-anchor="middle" dominant-baseline="middle" font-family="Helvetica,Inter,Segoe UI,Arial" font-size="11" paint-order="stroke" stroke="#ffffff" stroke-width="3" stroke-linejoin="round" fill="#6c8ebf">has id</text>
    </g>
    <g class="edge" data-edge-idx="21" data-edge-base="expresses" data-edge-from="9" data-edge-to="19">
    <line x1="1116.00" y1="270.00" x2="1070.75" y2="270.00" stroke="#6c8ebf" stroke-width="3" stroke-dasharray="9 6" />
    <path d="M 1064.00 270.00 L 1073.00 265.50 L 1070.75 270.00 L 1073.00 274.50 Z" fill="#6c8ebf" stroke="#6c8ebf" stroke-width="3" stroke-miterlimit="10"/>
    <text x="1093" y="270" text-anchor="middle" dominant-baseline="middle" font-family="Helvetica,Inter,Segoe UI,Arial" font-size="11" paint-order="stroke" stroke="#ffffff" stroke-width="3" stroke-linejoin="round" fill="#6c8ebf">
      <title>has status</title>has...
    </text>
    </g>
    <g class="edge" data-edge-idx="22" data-edge-base="expresses" data-edge-from="9" data-edge-to="2">
    <line x1="1116.00" y1="170.00" x2="1070.75" y2="170.00" stroke="#6c8ebf" stroke-width="3" stroke-dasharray="9 6" />
    <path d="M 1064.00 170.00 L 1073.00 165.50 L 1070.75 170.00 L 1073.00 174.50 Z" fill="#6c8ebf" stroke="#6c8ebf" stroke-width="3" stroke-miterlimit="10"/>
    <text x="1093" y="170" text-anchor="middle" dominant-baseline="middle" font-family="Helvetica,Inter,Segoe UI,Arial" font-size="11" paint-order="stroke" stroke="#ffffff" stroke-width="3" stroke-linejoin="round" fill="#6c8ebf">
      <title>has version</title>has...
    </text>
    </g>
    <g class="edge" data-edge-idx="23" data-edge-base="expresses" data-edge-from="9" data-edge-to="21">
    <line x1="1117.54" y1="288.16" x2="706.60" y2="816.51" stroke="#6c8ebf" stroke-width="3" stroke-dasharray="9 6" />
    <path d="M 702.46 821.84 L 704.43 811.98 L 706.60 816.51 L 711.53 817.50 Z" fill="#6c8ebf" stroke="#6c8ebf" stroke-width="3" stroke-miterlimit="10"/>
    <text x="911" y="552" text-anchor="middle" dominant-baseline="middle" font-family="Helvetica,Inter,Segoe UI,Arial" font-size="11" paint-order="stroke" stroke="#ffffff" stroke-width="3" stroke-linejoin="round" fill="#6c8ebf">
      <title>has data</title>has...
    </text>
    </g>
    <g class="edge" data-edge-idx="24" data-edge-base="leadsto" data-edge-from="9" data-edge-to="25">
    <line x1="1240.00" y1="324.00" x2="1240.00" y2="349.25" stroke="#ff8000" stroke-width="3" />
    <path d="M 1240.00 356.00 L 1235.50 347.00 L 1240.00 349.25 L 1244.50 347.00 Z" fill="#ff8000" stroke="#ff8000" stroke-width="3" stroke-miterlimit="10"/>
    </g>
    <g class="edge" data-edge-idx="25" data-edge-base="expresses" data-edge-from="9" data-edge-to="5">
    <line x1="1364.00" y1="170.00" x2="1409.25" y2="170.00" stroke="#6c8ebf" stroke-width="3" stroke-dasharray="9 6" />
    <path d="M 1416.00 170.00 L 1407.00 174.50 L 1409.25 170.00 L 1407.00 165.50 Z" fill="#6c8ebf" stroke="#6c8ebf" stroke-width="3" stroke-miterlimit="10"/>
    <text x="1386" y="170" text-anchor="middle" dominant-baseline="middle" font-family="Helvetica,Inter,Segoe UI,Arial" font-size="11" paint-order="stroke" stroke="#ffffff" stroke-width="3" stroke-linejoin="round" fill="#6c8ebf">
      <title>has timestamp</title>has...
    </text>
    </g>
    <g class="edge" data-edge-idx="26" data-edge-base="expresses" data-edge-from="9" data-edge-to="6">
    <line x1="1364.00" y1="270.00" x2="1409.25" y2="270.00" stroke="#6c8ebf" stroke-width="3" stroke-dasharray="9 6" />
    <path d="M 1416.00 270.00 L 1407.00 274.50 L 1409.25 270.00 L 1407.00 265.50 Z" fill="#6c8ebf" stroke="#6c8ebf" stroke-width="3" stroke-miterlimit="10"/>
    <text x="1386" y="270" text-anchor="middle" dominant-baseline="middle" font-family="Helvetica,Inter,Segoe UI,Arial" font-size="11" paint-order="stroke" stroke="#ffffff" stroke-width="3" stroke-linejoin="round" fill="#6c8ebf">
      <title>has name</title>has...
    </text>
    </g>
  </g>
  <g id="nodes">
    <rect x="220" y="645" width="120" height="60" rx="6" ry="6" fill="#ececec" stroke="#9e9e9e" stroke-width="2" stroke-dasharray="6 4"/>
    <text x="280" y="675" text-anchor="middle" dominant-baseline="middle" font-family="Helvetica,Inter,Segoe UI,Arial" font-size="16" font-weight="normal" fill="#616161">1</text>
    <rect x="308" y="688" width="12" height="12" rx="2" ry="2" fill="#dae8fc" stroke="#6c8ebf" stroke-width="2"/>
    <text x="314.0" y="694.0" text-anchor="middle" dominant-baseline="central" font-size="8" fill="#3399ff">c</text>
    <rect x="323" y="688" width="12" height="12" rx="2" ry="2" fill="#ffe6cc" stroke="#ff8000" stroke-width="1"/>
    <text x="329.0" y="694.0" text-anchor="middle" dominant-baseline="central" font-size="8" fill="#ff8000">e</text>
    <rect x="400" y="985" width="120" height="140" rx="6" ry="6" fill="#ececec" stroke="#9e9e9e" stroke-width="2" stroke-dasharray="6 4"/>
    <text x="460" y="971" text-anchor="middle" dominant-baseline="middle" font-family="Helvetica,Inter,Segoe UI,Arial" font-size="14" font-weight="normal" fill="#616161">Partial json</text>
    <text x="460" y="988" text-anchor="middle" dominant-baseline="middle" font-family="Helvetica,Inter,Segoe UI,Arial" font-size="14" font-weight="normal" fill="#616161">element --</text>
    <text x="460" y="1005" text-anchor="middle" dominant-baseline="middle" font-family="Helvetica,Inter,Segoe UI,Arial" font-size="14" font-weight="normal" fill="#616161">&#34;</text>
    <text x="460" y="1021" text-anchor="middle" dominant-baseline="middle" font-family="Helvetica,Inter,Segoe UI,Arial" font-size="14" font-weight="normal" fill="#616161">metadata&#34;:</text>
    <text x="460" y="1038" text-anchor="middle" dominant-baseline="middle" font-family="Helvetica,Inter,Segoe UI,Arial" font-size="14" font-weight="normal" fill="#616161">{</text>
    <text x="460" y="1055" text-anchor="middle" dominant-baseline="middle" font-family="Helvetica,Inter,Segoe UI,Arial" font-size="14" font-weight="normal" fill="#616161">&#34;total&#34;:</text>
    <text x="460" y="1072" text-anchor="middle" dominant-baseline="middle" font-family="Helvetica,Inter,Segoe UI,Arial" font-size="14" font-weight="normal" fill="#616161">2,</text>
    <text x="460" y="1089" text-anchor="middle" dominant-baseline="middle" font-family="Helvetica,Inter,Segoe UI,Arial" font-size="14" font-weight="normal" fill="#616161">&#34;page&#34;:</text>
    <text x="460" y="1105" text-anchor="middle" dominant-baseline="middle" font-family="Helvetica,Inter,Segoe UI,Arial" font-size="14" font-weight="normal" fill="#616161">1,</text>
    <text x="460" y="1122" text-anchor="middle" dominant-baseline="middle" font-family="Helvetica,Inter,Segoe UI,Arial" font-size="14" font-weight="normal" fill="#616161">&#34;limit&#34;:</text>
    <text x="460" y="1139" text-anchor="middle" dominant-baseline="middle" font-family="Helvetica,Inter,Segoe UI,Arial" font-size="14" font-weight="normal" fill="#616161">10 }</text>
    <rect x="488" y="1108" width="12" height="12" rx="2" ry="2" fill="#dae8fc" stroke="#6c8ebf" stroke-width="2"/>
    <text x="494.0" y="1114.0" text-anchor="middle" dominant-baseline="central" font-size="8" fill="#3399ff">c</text>
    <rect x="503" y="1108" width="12" height="12" rx="2" ry="2" fill="#ffe6cc" stroke="#ff8000" stroke-width="1"/>
    <text x="509.0" y="1114.0" text-anchor="middle" dominant-baseline="central" font-size="8" fill="#ff8000">e</text>
    <rect x="400" y="1165" width="120" height="80" rx="6" ry="6" fill="#ececec" stroke="#9e9e9e" stroke-width="2" stroke-dasharray="6 4"/>
    <text x="460" y="1171" text-anchor="middle" dominant-baseline="middle" font-family="Helvetica,Inter,Segoe UI,Arial" font-size="14" font-weight="normal" fill="#616161">&#34;Partial</text>
    <text x="460" y="1188" text-anchor="middle" dominant-baseline="middle" font-family="Helvetica,Inter,Segoe UI,Arial" font-size="14" font-weight="normal" fill="#616161">json element</text>
    <text x="460" y="1205" text-anchor="middle" dominant-baseline="middle" font-family="Helvetica,Inter,Segoe UI,Arial" font-size="14" font-weight="normal" fill="#616161">--</text>
    <text x="460" y="1222" text-anchor="middle" dominant-baseline="middle" font-family="Helvetica,Inter,Segoe UI,Arial" font-size="14" font-weight="normal" fill="#616161">\&#34;users\&#34;</text>
    <text x="460" y="1239" text-anchor="middle" dominant-baseline="middle" font-family="Helvetica,Inter,Segoe UI,Arial" font-size="14" font-weight="normal" fill="#616161">:</text>
    <rect x="488" y="1228" width="12" height="12" rx="2" ry="2" fill="#d5e8d4" stroke="#82b366" stroke-width="2"/>
    <text x="494.0" y="1234.0" text-anchor="middle" dominant-baseline="central" font-size="8" fill="#009900">t</text>
    <rect x="503" y="1228" width="12" height="12" rx="2" ry="2" fill="#ffe6cc" stroke="#ff8000" stroke-width="1"/>
    <text x="509.0" y="1234.0" text-anchor="middle" dominant-baseline="central" font-size="8" fill="#ff8000">e</text>
    <rect x="220" y="120" width="120" height="60" rx="6" ry="6" fill="#ececec" stroke="#9e9e9e" stroke-width="2" stroke-dasharray="6 4"/>
    <text x="280" y="150" text-anchor="middle" dominant-baseline="middle" font-family="Helvetica,Inter,Segoe UI,Arial" font-size="16" font-weight="normal" fill="#616161">active</text>
    <rect x="308" y="163" width="12" height="12" rx="2" ry="2" fill="#dae8fc" stroke="#6c8ebf" stroke-width="2"/>
    <text x="314.0" y="169.0" text-anchor="middle" dominant-baseline="central" font-size="8" fill="#3399ff">c</text>
    <rect x="323" y="163" width="12" height="12" rx="2" ry="2" fill="#ffe6cc" stroke="#ff8000" stroke-width="1"/>
    <text x="329.0" y="169.0" text-anchor="middle" dominant-baseline="central" font-size="8" fill="#ff8000">e</text>
    <rect x="220" y="220" width="120" height="60" rx="6" ry="6" fill="#ececec" stroke="#9e9e9e" stroke-width="2" stroke-dasharray="6 4"/>
    <text x="280" y="250" text-anchor="middle" dominant-baseline="middle" font-family="Helvetica,Inter,Segoe UI,Arial" font-size="16" font-weight="normal" fill="#616161">admin</text>
    <rect x="308" y="263" width="12" height="12" rx="2" ry="2" fill="#dae8fc" stroke="#6c8ebf" stroke-width="2"/>
    <text x="314.0" y="269.0" text-anchor="middle" dominant-baseline="central" font-size="8" fill="#3399ff">c</text>
    <rect x="323" y="263" width="12" height="12" rx="2" ry="2" fill="#ffe6cc" stroke="#ff8000" stroke-width="1"/>
    <text x="329.0" y="269.0" text-anchor="middle" dominant-baseline="central" font-size="8" fill="#ff8000">e</text>
    <rect x="220" y="320" width="120" height="60" rx="6" ry="6" fill="#ececec" stroke="#9e9e9e" stroke-width="2" stroke-dasharray="6 4"/>
    <text x="280" y="350" text-anchor="middle" dominant-baseline="middle" font-family="Helvetica,Inter,Segoe UI,Arial" font-size="16" font-weight="normal" fill="#616161">alice</text>
    <rect x="308" y="363" width="12" height="12" rx="2" ry="2" fill="#dae8fc" stroke="#6c8ebf" stroke-width="2"/>
    <text x="314.0" y="369.0" text-anchor="middle" dominant-baseline="central" font-size="8" fill="#3399ff">c</text>
    <rect x="323" y="363" width="12" height="12" rx="2" ry="2" fill="#ffe6cc" stroke="#ff8000" stroke-width="1"/>
    <text x="329.0" y="369.0" text-anchor="middle" dominant-baseline="central" font-size="8" fill="#ff8000">e</text>
    <rect x="220" y="420" width="120" height="60" rx="6" ry="6" fill="#ececec" stroke="#9e9e9e" stroke-width="2" stroke-dasharray="6 4"/>
    <text x="280" y="440" text-anchor="middle" dominant-baseline="middle" font-family="Helvetica,Inter,Segoe UI,Arial" font-size="16" font-weight="normal" fill="#616161">alice@exampl</text>
    <text x="280" y="460" text-anchor="middle" dominant-baseline="middle" font-family="Helvetica,Inter,Segoe UI,Arial" font-size="16" font-weight="normal" fill="#616161">e.com</text>
    <rect x="308" y="463" width="12" height="12" rx="2" ry="2" fill="#dae8fc" stroke="#6c8ebf" stroke-width="2"/>
    <text x="314.0" y="469.0" text-anchor="middle" dominant-baseline="central" font-size="8" fill="#3399ff">c</text>
    <rect x="323" y="463" width="12" height="12" rx="2" ry="2" fill="#ffe6cc" stroke="#ff8000" stroke-width="1"/>
    <text x="329.0" y="469.0" text-anchor="middle" dominant-baseline="central" font-size="8" fill="#ff8000">e</text>
    <rect x="220" y="720" width="120" height="60" rx="6" ry="6" fill="#ececec" stroke="#9e9e9e" stroke-width="2" stroke-dasharray="6 4"/>
    <text x="280" y="750" text-anchor="middle" dominant-baseline="middle" font-family="Helvetica,Inter,Segoe UI,Arial" font-size="16" font-weight="normal" fill="#616161">bob</text>
    <rect x="308" y="763" width="12" height="12" rx="2" ry="2" fill="#dae8fc" stroke="#6c8ebf" stroke-width="2"/>
    <text x="314.0" y="769.0" text-anchor="middle" dominant-baseline="central" font-size="8" fill="#3399ff">c</text>
    <rect x="323" y="763" width="12" height="12" rx="2" ry="2" fill="#ffe6cc" stroke="#ff8000" stroke-width="1"/>
    <text x="329.0" y="769.0" text-anchor="middle" dominant-baseline="central" font-size="8" fill="#ff8000">e</text>
    <rect x="220" y="820" width="120" height="60" rx="6" ry="6" fill="#ececec" stroke="#9e9e9e" stroke-width="2" stroke-dasharray="6 4"/>
    <text x="280" y="840" text-anchor="middle" dominant-baseline="middle" font-family="Helvetica,Inter,Segoe UI,Arial" font-size="16" font-weight="normal" fill="#616161">bob@example.</text>
    <text x="280" y="860" text-anchor="middle" dominant-baseline="middle" font-family="Helvetica,Inter,Segoe UI,Arial" font-size="16" font-weight="normal" fill="#616161">com</text>
    <rect x="308" y="863" width="12" height="12" rx="2" ry="2" fill="#dae8fc" stroke="#6c8ebf" stroke-width="2"/>
    <text x="314.0" y="869.0" text-anchor="middle" dominant-baseline="central" font-size="8" fill="#3399ff">c</text>
    <rect x="323" y="863" width="12" height="12" rx="2" ry="2" fill="#ffe6cc" stroke="#ff8000" stroke-width="1"/>
    <text x="329.0" y="869.0" text-anchor="middle" dominant-baseline="central" font-size="8" fill="#ff8000">e</text>
    <rect x="220" y="920" width="120" height="60" rx="6" ry="6" fill="#ececec" stroke="#9e9e9e" stroke-width="2" stroke-dasharray="6 4"/>
    <text x="280" y="950" text-anchor="middle" dominant-baseline="middle" font-family="Helvetica,Inter,Segoe UI,Arial" font-size="16" font-weight="normal" fill="#616161">inactive</text>
    <rect x="308" y="963" width="12" height="12" rx="2" ry="2" fill="#dae8fc" stroke="#6c8ebf" stroke-width="2"/>
    <text x="314.0" y="969.0" text-anchor="middle" dominant-baseline="central" font-size="8" fill="#3399ff">c</text>
    <rect x="323" y="963" width="12" height="12" rx="2" ry="2" fill="#ffe6cc" stroke="#ff8000" stroke-width="1"/>
    <text x="329.0" y="969.0" text-anchor="middle" dominant-baseline="central" font-size="8" fill="#ff8000">e</text>
    <rect x="940" y="240" width="120" height="60" rx="6" ry="6" fill="#ececec" stroke="#9e9e9e" stroke-width="2" stroke-dasharray="6 4"/>
    <text x="1000" y="270" text-anchor="middle" dominant-baseline="middle" font-family="Helvetica,Inter,Segoe UI,Arial" font-size="16" font-weight="normal" fill="#616161">success</text>
    <rect x="1028" y="283" width="12" height="12" rx="2" ry="2" fill="#dae8fc" stroke="#6c8ebf" stroke-width="2"/>
    <text x="1034.0" y="289.0" text-anchor="middle" dominant-baseline="central" font-size="8" fill="#3399ff">c</text>
    <rect x="1043" y="283" width="12" height="12" rx="2" ry="2" fill="#ffe6cc" stroke="#ff8000" stroke-width="1"/>
    <text x="1049.0" y="289.0" text-anchor="middle" dominant-baseline="central" font-size="8" fill="#ff8000">e</text>
    <rect x="940" y="140" width="120" height="60" rx="6" ry="6" fill="#ececec" stroke="#9e9e9e" stroke-width="2" stroke-dasharray="6 4"/>
    <text x="1000" y="170" text-anchor="middle" dominant-baseline="middle" font-family="Helvetica,Inter,Segoe UI,Arial" font-size="16" font-weight="normal" fill="#616161">1.0.0</text>
    <rect x="1028" y="183" width="12" height="12" rx="2" ry="2" fill="#dae8fc" stroke="#6c8ebf" stroke-width="2"/>
    <text x="1034.0" y="189.0" text-anchor="middle" dominant-baseline="central" font-size="8" fill="#3399ff">c</text>
    <rect x="1043" y="183" width="12" height="12" rx="2" ry="2" fill="#ffe6cc" stroke="#ff8000" stroke-width="1"/>
    <text x="1049.0" y="189.0" text-anchor="middle" dominant-baseline="central" font-size="8" fill="#ff8000">e</text>
    <rect x="220" y="570" width="120" height="60" rx="6" ry="6" fill="#ececec" stroke="#9e9e9e" stroke-width="2" stroke-dasharray="6 4"/>
    <text x="280" y="600" text-anchor="middle" dominant-baseline="middle" font-family="Helvetica,Inter,Segoe UI,Arial" font-size="16" font-weight="normal" fill="#616161">user</text>
    <rect x="308" y="613" width="12" height="12" rx="2" ry="2" fill="#dae8fc" stroke="#6c8ebf" stroke-width="2"/>
    <text x="314.0" y="619.0" text-anchor="middle" dominant-baseline="central" font-size="8" fill="#3399ff">c</text>
    <rect x="323" y="613" width="12" height="12" rx="2" ry="2" fill="#ffe6cc" stroke="#ff8000" stroke-width="1"/>
    <text x="329.0" y="619.0" text-anchor="middle" dominant-baseline="central" font-size="8" fill="#ff8000">e</text>
    <rect x="580" y="795" width="120" height="60" rx="6" ry="6" fill="#ffe6cc" stroke="#ff8000" stroke-width="2"/>
    <text x="640" y="815" text-anchor="middle" dominant-baseline="middle" font-family="Helvetica,Inter,Segoe UI,Arial" font-size="16" font-weight="bold" fill="#ff8000">&#34;{</text>
    <text x="640" y="835" text-anchor="middle" dominant-baseline="middle" font-family="Helvetica,Inter,Segoe UI,Arial" font-size="16" font-weight="bold" fill="#ff8000">\&#34;users\&#34;:</text>
    <rect x="620" y="40" width="40" height="40" rx="4" ry="4" fill="#ffe6cc" stroke="#ff8000" stroke-width="2"/>
    <text x="640" y="60" text-anchor="middle" dominant-baseline="middle" font-family="Helvetica,Inter,Segoe UI,Arial" font-size="16" font-weight="bold" fill="#ff8000">S</text>
    <rect x="620" y="1333" width="40" height="40" rx="4" ry="4" fill="#ffe6cc" stroke="#ff8000" stroke-width="2"/>
    <text x="640" y="1353" text-anchor="middle" dominant-baseline="middle" font-family="Helvetica,Inter,Segoe UI,Arial" font-size="16" font-weight="bold" fill="#ff8000">E</text>
    <rect x="1220" y="40" width="40" height="40" rx="4" ry="4" fill="#ffe6cc" stroke="#ff8000" stroke-width="2"/>
    <text x="1240" y="60" text-anchor="middle" dominant-baseline="middle" font-family="Helvetica,Inter,Segoe UI,Arial" font-size="16" font-weight="bold" fill="#ff8000">S</text>
    <rect x="1220" y="360" width="40" height="40" rx="4" ry="4" fill="#ffe6cc" stroke="#ff8000" stroke-width="2"/>
    <text x="1240" y="380" text-anchor="middle" dominant-baseline="middle" font-family="Helvetica,Inter,Segoe UI,Arial" font-size="16" font-weight="bold" fill="#ff8000">E</text>
    <rect x="220" y="1233" width="120" height="60" rx="6" ry="6" fill="#ececec" stroke="#9e9e9e" stroke-width="2" stroke-dasharray="6 4"/>
    <text x="280" y="1263" text-anchor="middle" dominant-baseline="middle" font-family="Helvetica,Inter,Segoe UI,Arial" font-size="16" font-weight="normal" fill="#616161">10</text>
    <rect x="308" y="1276" width="12" height="12" rx="2" ry="2" fill="#dae8fc" stroke="#6c8ebf" stroke-width="2"/>
    <text x="314.0" y="1282.0" text-anchor="middle" dominant-baseline="central" font-size="8" fill="#3399ff">c</text>
    <rect x="323" y="1276" width="12" height="12" rx="2" ry="2" fill="#ffe6cc" stroke="#ff8000" stroke-width="1"/>
    <text x="329.0" y="1282.0" text-anchor="middle" dominant-baseline="central" font-size="8" fill="#ff8000">e</text>
    <rect x="220" y="990" width="120" height="60" rx="6" ry="6" fill="#ececec" stroke="#9e9e9e" stroke-width="2" stroke-dasharray="6 4"/>
    <text x="280" y="1020" text-anchor="middle" dominant-baseline="middle" font-family="Helvetica,Inter,Segoe UI,Arial" font-size="16" font-weight="normal" fill="#616161">2</text>
    <rect x="308" y="1033" width="12" height="12" rx="2" ry="2" fill="#dae8fc" stroke="#6c8ebf" stroke-width="2"/>
    <text x="314.0" y="1039.0" text-anchor="middle" dominant-baseline="central" font-size="8" fill="#3399ff">c</text>
    <rect x="323" y="1033" width="12" height="12" rx="2" ry="2" fill="#ffe6cc" stroke="#ff8000" stroke-width="1"/>
    <text x="329.0" y="1039.0" text-anchor="middle" dominant-baseline="central" font-size="8" fill="#ff8000">e</text>
    <rect x="1420" y="140" width="120" height="60" rx="6" ry="6" fill="#ececec" stroke="#9e9e9e" stroke-width="2" stroke-dasharray="6 4"/>
    <text x="1480" y="160" text-anchor="middle" dominant-baseline="middle" font-family="Helvetica,Inter,Segoe UI,Arial" font-size="16" font-weight="normal" fill="#616161">2025-10-17T1</text>
    <text x="1480" y="180" text-anchor="middle" dominant-baseline="middle" font-family="Helvetica,Inter,Segoe UI,Arial" font-size="16" font-weight="normal" fill="#616161">4:30:00Z</text>
    <rect x="1508" y="183" width="12" height="12" rx="2" ry="2" fill="#dae8fc" stroke="#6c8ebf" stroke-width="2"/>
    <text x="1514.0" y="189.0" text-anchor="middle" dominant-baseline="central" font-size="8" fill="#3399ff">c</text>
    <rect x="1523" y="183" width="12" height="12" rx="2" ry="2" fill="#ffe6cc" stroke="#ff8000" stroke-width="1"/>
    <text x="1529.0" y="189.0" text-anchor="middle" dominant-baseline="central" font-size="8" fill="#ff8000">e</text>
    <rect x="1420" y="240" width="120" height="60" rx="6" ry="6" fill="#ececec" stroke="#9e9e9e" stroke-width="2" stroke-dasharray="6 4"/>
    <text x="1480" y="260" text-anchor="middle" dominant-baseline="middle" font-family="Helvetica,Inter,Segoe UI,Arial" font-size="16" font-weight="normal" fill="#616161">Example API</text>
    <text x="1480" y="280" text-anchor="middle" dominant-baseline="middle" font-family="Helvetica,Inter,Segoe UI,Arial" font-size="16" font-weight="normal" fill="#616161">Response</text>
    <rect x="1508" y="283" width="12" height="12" rx="2" ry="2" fill="#dae8fc" stroke="#6c8ebf" stroke-width="2"/>
    <text x="1514.0" y="289.0" text-anchor="middle" dominant-baseline="central" font-size="8" fill="#3399ff">c</text>
    <rect x="1523" y="283" width="12" height="12" rx="2" ry="2" fill="#ffe6cc" stroke="#ff8000" stroke-width="1"/>
    <text x="1529.0" y="289.0" text-anchor="middle" dominant-baseline="central" font-size="8" fill="#ff8000">e</text>
    <rect x="400" y="405" width="120" height="260" rx="6" ry="6" fill="#ececec" stroke="#9e9e9e" stroke-width="2" stroke-dasharray="6 4"/>
    <text x="460" y="426" text-anchor="middle" dominant-baseline="middle" font-family="Helvetica,Inter,Segoe UI,Arial" font-size="14" font-weight="normal" fill="#616161">&#34;Instance</text>
    <text x="460" y="443" text-anchor="middle" dominant-baseline="middle" font-family="Helvetica,Inter,Segoe UI,Arial" font-size="14" font-weight="normal" fill="#616161">of a users</text>
    <text x="460" y="459" text-anchor="middle" dominant-baseline="middle" font-family="Helvetica,Inter,Segoe UI,Arial" font-size="14" font-weight="normal" fill="#616161">array {\n</text>
    <text x="460" y="476" text-anchor="middle" dominant-baseline="middle" font-family="Helvetica,Inter,Segoe UI,Arial" font-size="14" font-weight="normal" fill="#616161">\&#34;id\&#34;:</text>
    <text x="460" y="493" text-anchor="middle" dominant-baseline="middle" font-family="Helvetica,Inter,Segoe UI,Arial" font-size="14" font-weight="normal" fill="#616161">1,\n</text>
    <text x="460" y="510" text-anchor="middle" dominant-baseline="middle" font-family="Helvetica,Inter,Segoe UI,Arial" font-size="14" font-weight="normal" fill="#616161">\&#34;username\&#34;</text>
    <text x="460" y="527" text-anchor="middle" dominant-baseline="middle" font-family="Helvetica,Inter,Segoe UI,Arial" font-size="14" font-weight="normal" fill="#616161">:</text>
    <text x="460" y="543" text-anchor="middle" dominant-baseline="middle" font-family="Helvetica,Inter,Segoe UI,Arial" font-size="14" font-weight="normal" fill="#616161">\&#34;alice\&#34;,\n</text>
    <text x="460" y="560" text-anchor="middle" dominant-baseline="middle" font-family="Helvetica,Inter,Segoe UI,Arial" font-size="14" font-weight="normal" fill="#616161">\&#34;email\&#34;:</text>
    <text x="460" y="577" text-anchor="middle" dominant-baseline="middle" font-family="Helvetica,Inter,Segoe UI,Arial" font-size="14" font-weight="normal" fill="#616161">\&#34;alice@exam</text>
    <text x="460" y="594" text-anchor="middle" dominant-baseline="middle" font-family="Helvetica,Inter,Segoe UI,Arial" font-size="14" font-weight="normal" fill="#616161">ple.com\&#34;,\n</text>
    <text x="460" y="611" text-anchor="middle" dominant-baseline="middle" font-family="Helvetica,Inter,Segoe UI,Arial" font-size="14" font-weight="normal" fill="#616161">\&#34;active\&#34;:</text>
    <text x="460" y="627" text-anchor="middle" dominant-baseline="middle" font-family="Helvetica,Inter,Segoe UI,Arial" font-size="14" font-weight="normal" fill="#616161">true,\n</text>
    <text x="460" y="644" text-anchor="middle" dominant-baseline="middle" font-family="Helvetica,Inter,Segoe UI,Arial" font-size="14" font-weight="normal" fill="#616161">\&#34;roles\&#34;:</text>
    <rect x="488" y="648" width="12" height="12" rx="2" ry="2" fill="#d5e8d4" stroke="#82b366" stroke-width="2"/>
    <text x="494.0" y="654.0" text-anchor="middle" dominant-baseline="central" font-size="8" fill="#009900">t</text>
    <rect x="503" y="648" width="12" height="12" rx="2" ry="2" fill="#ffe6cc" stroke="#ff8000" stroke-width="1"/>
    <text x="509.0" y="654.0" text-anchor="middle" dominant-baseline="central" font-size="8" fill="#ff8000">e</text>
    <rect x="400" y="705" width="120" height="240" rx="6" ry="6" fill="#ececec" stroke="#9e9e9e" stroke-width="2" stroke-dasharray="6 4"/>
    <text x="460" y="716" text-anchor="middle" dominant-baseline="middle" font-family="Helvetica,Inter,Segoe UI,Arial" font-size="14" font-weight="normal" fill="#616161">&#34;Instance</text>
    <text x="460" y="733" text-anchor="middle" dominant-baseline="middle" font-family="Helvetica,Inter,Segoe UI,Arial" font-size="14" font-weight="normal" fill="#616161">of a users</text>
    <text x="460" y="749" text-anchor="middle" dominant-baseline="middle" font-family="Helvetica,Inter,Segoe UI,Arial" font-size="14" font-weight="normal" fill="#616161">array {\n</text>
    <text x="460" y="766" text-anchor="middle" dominant-baseline="middle" font-family="Helvetica,Inter,Segoe UI,Arial" font-size="14" font-weight="normal" fill="#616161">\&#34;id\&#34;:</text>
    <text x="460" y="783" text-anchor="middle" dominant-baseline="middle" font-family="Helvetica,Inter,Segoe UI,Arial" font-size="14" font-weight="normal" fill="#616161">2,\n</text>
    <text x="460" y="800" text-anchor="middle" dominant-baseline="middle" font-family="Helvetica,Inter,Segoe UI,Arial" font-size="14" font-weight="normal" fill="#616161">\&#34;username\&#34;</text>
    <text x="460" y="817" text-anchor="middle" dominant-baseline="middle" font-family="Helvetica,Inter,Segoe UI,Arial" font-size="14" font-weight="normal" fill="#616161">:</text>
    <text x="460" y="833" text-anchor="middle" dominant-baseline="middle" font-family="Helvetica,Inter,Segoe UI,Arial" font-size="14" font-weight="normal" fill="#616161">\&#34;bob\&#34;,\n</text>
    <text x="460" y="850" text-anchor="middle" dominant-baseline="middle" font-family="Helvetica,Inter,Segoe UI,Arial" font-size="14" font-weight="normal" fill="#616161">\&#34;email\&#34;:</text>
    <text x="460" y="867" text-anchor="middle" dominant-baseline="middle" font-family="Helvetica,Inter,Segoe UI,Arial" font-size="14" font-weight="normal" fill="#616161">\&#34;bob@exampl</text>
    <text x="460" y="884" text-anchor="middle" dominant-baseline="middle" font-family="Helvetica,Inter,Segoe UI,Arial" font-size="14" font-weight="normal" fill="#616161">e.com\&#34;,\n</text>
    <text x="460" y="901" text-anchor="middle" dominant-baseline="middle" font-family="Helvetica,Inter,Segoe UI,Arial" font-size="14" font-weight="normal" fill="#616161">\&#34;active\&#34;:</text>
    <text x="460" y="917" text-anchor="middle" dominant-baseline="middle" font-family="Helvetica,Inter,Segoe UI,Arial" font-size="14" font-weight="normal" fill="#616161">false,\n</text>
    <text x="460" y="934" text-anchor="middle" dominant-baseline="middle" font-family="Helvetica,Inter,Segoe UI,Arial" font-size="14" font-weight="normal" fill="#616161">\&#34;roles\&#34;:</text>
    <rect x="488" y="928" width="12" height="12" rx="2" ry="2" fill="#d5e8d4" stroke="#82b366" stroke-width="2"/>
    <text x="494.0" y="934.0" text-anchor="middle" dominant-baseline="central" font-size="8" fill="#009900">t</text>
    <rect x="503" y="928" width="12" height="12" rx="2" ry="2" fill="#ffe6cc" stroke="#ff8000" stroke-width="1"/>
    <text x="509.0" y="934.0" text-anchor="middle" dominant-baseline="central" font-size="8" fill="#ff8000">e</text>
    <rect x="1120" y="120" width="240" height="200" rx="6" ry="6" fill="#ffe6cc" stroke="#ff8000" stroke-width="2"/>
    <text x="1240" y="136" text-anchor="middle" dominant-baseline="middle" font-family="Helvetica,Inter,Segoe UI,Arial" font-size="14" font-weight="bold" fill="#ff8000">&#34;My json object</text>
    <text x="1240" y="153" text-anchor="middle" dominant-baseline="middle" font-family="Helvetica,Inter,Segoe UI,Arial" font-size="14" font-weight="bold" fill="#ff8000">representati on is an EVENT</text>
    <text x="1240" y="170" text-anchor="middle" dominant-baseline="middle" font-family="Helvetica,Inter,Segoe UI,Arial" font-size="14" font-weight="bold" fill="#ff8000">{\n \&#34;name\&#34;:</text>
    <text x="1240" y="186" text-anchor="middle" dominant-baseline="middle" font-family="Helvetica,Inter,Segoe UI,Arial" font-size="14" font-weight="bold" fill="#ff8000">\&#34;Example API</text>
    <text x="1240" y="203" text-anchor="middle" dominant-baseline="middle" font-family="Helvetica,Inter,Segoe UI,Arial" font-size="14" font-weight="bold" fill="#ff8000">Response\&#34;,\ n</text>
    <text x="1240" y="220" text-anchor="middle" dominant-baseline="middle" font-family="Helvetica,Inter,Segoe UI,Arial" font-size="14" font-weight="bold" fill="#ff8000">\&#34;version\&#34;:</text>
    <text x="1240" y="237" text-anchor="middle" dominant-baseline="middle" font-family="Helvetica,Inter,Segoe UI,Arial" font-size="14" font-weight="bold" fill="#ff8000">\&#34;1.0.0\&#34;,\n</text>
    <text x="1240" y="254" text-anchor="middle" dominant-baseline="middle" font-family="Helvetica,Inter,Segoe UI,Arial" font-size="14" font-weight="bold" fill="#ff8000">\&#34;status\&#34;:</text>
    <text x="1240" y="270" text-anchor="middle" dominant-baseline="middle" font-family="Helvetica,Inter,Segoe UI,Arial" font-size="14" font-weight="bold" fill="#ff8000">\&#34;success\&#34;, \n\n</text>
    <text x="1240" y="287" text-anchor="middle" dominant-baseline="middle" font-family="Helvetica,Inter,Segoe UI,Arial" font-size="14" font-weight="bold" fill="#ff8000">\&#34;data\&#34;: {\n\n</text>
    <text x="1240" y="304" text-anchor="middle" dominant-baseline="middle" font-family="Helvetica,Inter,Segoe UI,Arial" font-size="14" font-weight="bold" fill="#ff8000">\&#34;users\&#34;:</text>
  </g>
</svg>
