<?xml version="1.0" encoding="UTF-8"?>
<svg xmlns="http://www.w3.org/2000/svg" width="1340" height="1300" viewBox="0 0 1340 1300">
  <defs>
  </defs>
  <g id="container-shells">
  </g>
  <g id="node-shadows">
    <rect x="220" y="220" width="120" height="60" rx="6" ry="6" fill="#000000" stroke="#000000" stroke-width="2" opacity="0.25" transform="translate(2,3)"/>
    <rect x="400" y="702" width="120" height="60" rx="6" ry="6" fill="#000000" stroke="#000000" stroke-width="2" opacity="0.25" transform="translate(2,3)"/>
    <rect x="400" y="382" width="120" height="80" rx="6" ry="6" fill="#000000" stroke="#000000" stroke-width="2" opacity="0.25" transform="translate(2,3)"/>
    <rect x="220" y="420" width="120" height="60" rx="6" ry="6" fill="#000000" stroke="#000000" stroke-width="2" opacity="0.25" transform="translate(2,3)"/>
    <rect x="220" y="520" width="120" height="60" rx="6" ry="6" fill="#000000" stroke="#000000" stroke-width="2" opacity="0.25" transform="translate(2,3)"/>
    <rect x="220" y="620" width="120" height="60" rx="6" ry="6" fill="#000000" stroke="#000000" stroke-width="2" opacity="0.25" transform="translate(2,3)"/>
    <rect x="220" y="720" width="120" height="60" rx="6" ry="6" fill="#000000" stroke="#000000" stroke-width="2" opacity="0.25" transform="translate(2,3)"/>
    <rect x="220" y="920" width="120" height="60" rx="6" ry="6" fill="#000000" stroke="#000000" stroke-width="2" opacity="0.25" transform="translate(2,3)"/>
    <rect x="220" y="1020" width="120" height="60" rx="6" ry="6" fill="#000000" stroke="#000000" stroke-width="2" opacity="0.25" transform="translate(2,3)"/>
    <rect x="220" y="1120" width="120" height="60" rx="6" ry="6" fill="#000000" stroke="#000000" stroke-width="2" opacity="0.25" transform="translate(2,3)"/>
    <rect x="1180" y="220" width="120" height="60" rx="6" ry="6" fill="#000000" stroke="#000000" stroke-width="2" opacity="0.25" transform="translate(2,3)"/>
    <rect x="820" y="170" width="120" height="60" rx="6" ry="6" fill="#000000" stroke="#000000" stroke-width="2" opacity="0.25" transform="translate(2,3)"/>
    <rect x="220" y="820" width="120" height="60" rx="6" ry="6" fill="#000000" stroke="#000000" stroke-width="2" opacity="0.25" transform="translate(2,3)"/>
    <rect x="620" y="40" width="40" height="40" rx="4" ry="4" fill="#000000" stroke="#000000" stroke-width="2" opacity="0.25" transform="translate(2,3)"/>
    <rect x="620" y="1220" width="40" height="40" rx="4" ry="4" fill="#000000" stroke="#000000" stroke-width="2" opacity="0.25" transform="translate(2,3)"/>
    <rect x="1040" y="40" width="40" height="40" rx="4" ry="4" fill="#000000" stroke="#000000" stroke-width="2" opacity="0.25" transform="translate(2,3)"/>
    <rect x="1040" y="320" width="40" height="40" rx="4" ry="4" fill="#000000" stroke="#000000" stroke-width="2" opacity="0.25" transform="translate(2,3)"/>
    <rect x="220" y="120" width="120" height="60" rx="6" ry="6" fill="#000000" stroke="#000000" stroke-width="2" opacity="0.25" transform="translate(2,3)"/>
    <rect x="220" y="320" width="120" height="60" rx="6" ry="6" fill="#000000" stroke="#000000" stroke-width="2" opacity="0.25" transform="translate(2,3)"/>
    <rect x="1180" y="120" width="120" height="60" rx="6" ry="6" fill="#000000" stroke="#000000" stroke-width="2" opacity="0.25" transform="translate(2,3)"/>
    <rect x="580" y="542" width="120" height="60" rx="6" ry="6" fill="#000000" stroke="#000000" stroke-width="2" opacity="0.25" transform="translate(2,3)"/>
    <rect x="1000" y="170" width="120" height="60" rx="6" ry="6" fill="#000000" stroke="#000000" stroke-width="2" opacity="0.25" transform="translate(2,3)"/>
    <rect x="400" y="502" width="120" height="60" rx="6" ry="6" fill="#000000" stroke="#000000" stroke-width="2" opacity="0.25" transform="translate(2,3)"/>
    <rect x="400" y="602" width="120" height="60" rx="6" ry="6" fill="#000000" stroke="#000000" stroke-width="2" opacity="0.25" transform="translate(2,3)"/>
  </g>
  <g id="edges">
    <g class="edge" data-edge-idx="0" data-edge-base="partof" data-edge-from="10" data-edge-to="11">
    <line x1="459.70" y1="698.01" x2="442.80" y2="472.72" stroke="#82b366" stroke-width="3" />
    <path d="M 442.30 465.99 L 447.46 474.63 L 442.80 472.72 L 438.48 475.30 Z" fill="#82b366" stroke="#82b366" stroke-width="3" stroke-miterlimit="10"/>
    </g>
    <g class="edge" data-edge-idx="1" data-edge-base="expresses" data-edge-from="10" data-edge-to="16">
    <line x1="398.94" y1="735.86" x2="342.85" y2="939.64" stroke="#6c8ebf" stroke-width="3" stroke-dasharray="9 6" />
    <path d="M 341.06 946.14 L 339.11 936.27 L 342.85 939.64 L 347.79 938.66 Z" fill="#6c8ebf" stroke="#6c8ebf" stroke-width="3" stroke-miterlimit="10"/>
    <text x="370" y="837" text-anchor="middle" dominant-baseline="middle" font-family="Helvetica,Inter,Segoe UI,Arial" font-size="11" paint-order="stroke" stroke="#ffffff" stroke-width="3" stroke-linejoin="round" fill="#6c8ebf">
      <title>has username</title>has...
    </text>
    </g>
    <g class="edge" data-edge-idx="2" data-edge-base="expresses" data-edge-from="10" data-edge-to="17">
    <line x1="399.24" y1="743.93" x2="342.04" y2="1039.45" stroke="#6c8ebf" stroke-width="3" stroke-dasharray="9 6" />
    <path d="M 340.76 1046.07 L 338.05 1036.38 L 342.04 1039.45 L 346.89 1038.09 Z" fill="#6c8ebf" stroke="#6c8ebf" stroke-width="3" stroke-miterlimit="10"/>
    <text x="370" y="891" text-anchor="middle" dominant-baseline="middle" font-family="Helvetica,Inter,Segoe UI,Arial" font-size="11" paint-order="stroke" stroke="#ffffff" stroke-width="3" stroke-linejoin="round" fill="#6c8ebf">
      <title>has email</title>has...
    </text>
    </g>
    <g class="edge" data-edge-idx="3" data-edge-base="expresses" data-edge-from="10" data-edge-to="18">
    <line x1="399.41" y1="753.96" x2="341.59" y2="1139.37" stroke="#6c8ebf" stroke-width="3" stroke-dasharray="9 6" />
    <path d="M 340.59 1146.04 L 337.48 1136.48 L 341.59 1139.37 L 346.38 1137.81 Z" fill="#6c8ebf" stroke="#6c8ebf" stroke-width="3" stroke-miterlimit="10"/>
    <text x="370" y="946" text-anchor="middle" dominant-baseline="middle" font-family="Helvetica,Inter,Segoe UI,Arial" font-size="11" paint-order="stroke" stroke="#ffffff" stroke-width="3" stroke-linejoin="round" fill="#6c8ebf">
      <title>has status</title>has...
    </text>
    </g>
    <g class="edge" data-edge-idx="4" data-edge-base="expresses" data-edge-from="10" data-edge-to="20">
    <line x1="398.39" y1="726.66" x2="344.34" y2="849.16" stroke="#6c8ebf" stroke-width="3" stroke-dasharray="9 6" />
    <path d="M 341.61 855.34 L 341.13 845.29 L 344.34 849.16 L 349.36 848.92 Z" fill="#6c8ebf" stroke="#6c8ebf" stroke-width="3" stroke-miterlimit="10"/>
    <text x="371" y="787" text-anchor="middle" dominant-baseline="middle" font-family="Helvetica,Inter,Segoe UI,Arial" font-size="11" paint-order="stroke" stroke="#ffffff" stroke-width="3" stroke-linejoin="round" fill="#6c8ebf">
      <title>has a role</title>has...
    </text>
    </g>
    <g class="edge" data-edge-idx="5" data-edge-base="expresses" data-edge-from="10" data-edge-to="4">
    <line x1="399.33" y1="710.06" x2="341.79" y2="369.60" stroke="#6c8ebf" stroke-width="3" stroke-dasharray="9 6" />
    <path d="M 340.67 362.94 L 346.60 371.07 L 341.79 369.60 L 337.73 372.57 Z" fill="#6c8ebf" stroke="#6c8ebf" stroke-width="3" stroke-miterlimit="10"/>
    <text x="370" y="539" text-anchor="middle" dominant-baseline="middle" font-family="Helvetica,Inter,Segoe UI,Arial" font-size="11" paint-order="stroke" stroke="#ffffff" stroke-width="3" stroke-linejoin="round" fill="#6c8ebf">has id</text>
    </g>
    <g class="edge" data-edge-idx="6" data-edge-base="partof" data-edge-from="11" data-edge-to="6">
    <line x1="521.70" y1="425.62" x2="575.44" y2="540.27" stroke="#82b366" stroke-width="3" />
    <path d="M 578.30 546.38 L 570.41 540.14 L 575.44 540.27 L 578.56 536.32 Z" fill="#82b366" stroke="#82b366" stroke-width="3" stroke-miterlimit="10"/>
    </g>
    <g class="edge" data-edge-idx="7" data-edge-base="leadsto" data-edge-from="21" data-edge-to="6">
    <line x1="640.00" y1="84.00" x2="640.00" y2="531.25" stroke="#ff8000" stroke-width="3" />
    <path d="M 640.00 538.00 L 635.50 529.00 L 640.00 531.25 L 644.50 529.00 Z" fill="#ff8000" stroke="#ff8000" stroke-width="3" stroke-miterlimit="10"/>
    </g>
    <g class="edge" data-edge-idx="8" data-edge-base="leadsto" data-edge-from="23" data-edge-to="7">
    <line x1="1060.00" y1="84.00" x2="1060.00" y2="159.25" stroke="#ff8000" stroke-width="3" />
    <path d="M 1060.00 166.00 L 1055.50 157.00 L 1060.00 159.25 L 1064.50 157.00 Z" fill="#ff8000" stroke="#ff8000" stroke-width="3" stroke-miterlimit="10"/>
    </g>
    <g class="edge" data-edge-idx="9" data-edge-base="leadsto" data-edge-from="6" data-edge-to="22">
    <line x1="640.00" y1="606.00" x2="640.00" y2="1209.25" stroke="#ff8000" stroke-width="3" />
    <path d="M 640.00 1216.00 L 635.50 1207.00 L 640.00 1209.25 L 644.50 1207.00 Z" fill="#ff8000" stroke="#ff8000" stroke-width="3" stroke-miterlimit="10"/>
    </g>
    <g class="edge" data-edge-idx="10" data-edge-base="expresses" data-edge-from="6" data-edge-to="8">
    <line x1="576.00" y1="552.00" x2="530.75" y2="552.00" stroke="#6c8ebf" stroke-width="3" stroke-dasharray="9 6" />
    <path d="M 524.00 552.00 L 533.00 547.50 L 530.75 552.00 L 533.00 556.50 Z" fill="#6c8ebf" stroke="#6c8ebf" stroke-width="3" stroke-miterlimit="10"/>
    <text x="553" y="552" text-anchor="middle" dominant-baseline="middle" font-family="Helvetica,Inter,Segoe UI,Arial" font-size="11" paint-order="stroke" stroke="#ffffff" stroke-width="3" stroke-linejoin="round" fill="#6c8ebf">
      <title>has metadata</title>has...
    </text>
    </g>
    <g class="edge" data-edge-idx="11" data-edge-base="expresses" data-edge-from="7" data-edge-to="19">
    <line x1="1123.30" y1="211.26" x2="1171.12" y2="243.93" stroke="#6c8ebf" stroke-width="3" stroke-dasharray="9 6" />
    <path d="M 1176.70 247.74 L 1166.73 246.38 L 1171.12 243.93 L 1171.81 238.95 Z" fill="#6c8ebf" stroke="#6c8ebf" stroke-width="3" stroke-miterlimit="10"/>
    <text x="1147" y="227" text-anchor="middle" dominant-baseline="middle" font-family="Helvetica,Inter,Segoe UI,Arial" font-size="11" paint-order="stroke" stroke="#ffffff" stroke-width="3" stroke-linejoin="round" fill="#6c8ebf">
      <title>has status</title>has...
    </text>
    </g>
    <g class="edge" data-edge-idx="12" data-edge-base="expresses" data-edge-from="7" data-edge-to="2">
    <line x1="996.00" y1="200.00" x2="950.75" y2="200.00" stroke="#6c8ebf" stroke-width="3" stroke-dasharray="9 6" />
    <path d="M 944.00 200.00 L 953.00 195.50 L 950.75 200.00 L 953.00 204.50 Z" fill="#6c8ebf" stroke="#6c8ebf" stroke-width="3" stroke-miterlimit="10"/>
    <text x="973" y="200" text-anchor="middle" dominant-baseline="middle" font-family="Helvetica,Inter,Segoe UI,Arial" font-size="11" paint-order="stroke" stroke="#ffffff" stroke-width="3" stroke-linejoin="round" fill="#6c8ebf">
      <title>has version</title>has...
    </text>
    </g>
    <g class="edge" data-edge-idx="13" data-edge-base="leadsto" data-edge-from="7" data-edge-to="24">
    <line x1="1060.00" y1="234.00" x2="1060.00" y2="309.25" stroke="#ff8000" stroke-width="3" />
    <path d="M 1060.00 316.00 L 1055.50 307.00 L 1060.00 309.25 L 1064.50 307.00 Z" fill="#ff8000" stroke="#ff8000" stroke-width="3" stroke-miterlimit="10"/>
    </g>
    <g class="edge" data-edge-idx="14" data-edge-base="expresses" data-edge-from="7" data-edge-to="5">
    <line x1="1123.30" y1="188.74" x2="1171.12" y2="156.07" stroke="#6c8ebf" stroke-width="3" stroke-dasharray="9 6" />
    <path d="M 1176.70 152.26 L 1171.81 161.05 L 1171.12 156.07 L 1166.73 153.62 Z" fill="#6c8ebf" stroke="#6c8ebf" stroke-width="3" stroke-miterlimit="10"/>
    <text x="1147" y="172" text-anchor="middle" dominant-baseline="middle" font-family="Helvetica,Inter,Segoe UI,Arial" font-size="11" paint-order="stroke" stroke="#ffffff" stroke-width="3" stroke-linejoin="round" fill="#6c8ebf">
      <title>has timestamp</title>has...
    </text>
    </g>
    <g class="edge" data-edge-idx="15" data-edge-base="expresses" data-edge-from="7" data-edge-to="6">
    <line x1="997.44" y1="215.07" x2="706.88" y2="563.74" stroke="#6c8ebf" stroke-width="3" stroke-dasharray="9 6" />
    <path d="M 702.56 568.93 L 704.87 559.13 L 706.88 563.74 L 711.78 564.89 Z" fill="#6c8ebf" stroke="#6c8ebf" stroke-width="3" stroke-miterlimit="10"/>
    <text x="851" y="389" text-anchor="middle" dominant-baseline="middle" font-family="Helvetica,Inter,Segoe UI,Arial" font-size="11" paint-order="stroke" stroke="#ffffff" stroke-width="3" stroke-linejoin="round" fill="#6c8ebf">
      <title>has data</title>has...
    </text>
    </g>
    <g class="edge" data-edge-idx="16" data-edge-base="expresses" data-edge-from="8" data-edge-to="1">
    <line x1="399.19" y1="528.08" x2="342.17" y2="251.53" stroke="#6c8ebf" stroke-width="3" stroke-dasharray="9 6" />
    <path d="M 340.81 244.92 L 347.03 252.82 L 342.17 251.53 L 338.22 254.64 Z" fill="#6c8ebf" stroke="#6c8ebf" stroke-width="3" stroke-miterlimit="10"/>
    <text x="370" y="389" text-anchor="middle" dominant-baseline="middle" font-family="Helvetica,Inter,Segoe UI,Arial" font-size="11" paint-order="stroke" stroke="#ffffff" stroke-width="3" stroke-linejoin="round" fill="#6c8ebf">
      <title>has page number</title>has...
    </text>
    </g>
    <g class="edge" data-edge-idx="17" data-edge-base="expresses" data-edge-from="8" data-edge-to="3">
    <line x1="399.35" y1="510.05" x2="341.75" y2="160.61" stroke="#6c8ebf" stroke-width="3" stroke-dasharray="9 6" />
    <path d="M 340.65 153.95 L 346.55 162.10 L 341.75 160.61 L 337.67 163.56 Z" fill="#6c8ebf" stroke="#6c8ebf" stroke-width="3" stroke-miterlimit="10"/>
    <text x="370" y="335" text-anchor="middle" dominant-baseline="middle" font-family="Helvetica,Inter,Segoe UI,Arial" font-size="11" paint-order="stroke" stroke="#ffffff" stroke-width="3" stroke-linejoin="round" fill="#6c8ebf">
      <title>has a limit of</title>has...
    </text>
    </g>
    <g class="edge" data-edge-idx="18" data-edge-base="expresses" data-edge-from="8" data-edge-to="4">
    <line x1="398.90" y1="546.16" x2="342.97" y2="351.33" stroke="#6c8ebf" stroke-width="3" stroke-dasharray="9 6" />
    <path d="M 341.10 344.84 L 347.91 352.25 L 342.97 351.33 L 339.26 354.74 Z" fill="#6c8ebf" stroke="#6c8ebf" stroke-width="3" stroke-miterlimit="10"/>
    <text x="370" y="448" text-anchor="middle" dominant-baseline="middle" font-family="Helvetica,Inter,Segoe UI,Arial" font-size="11" paint-order="stroke" stroke="#ffffff" stroke-width="3" stroke-linejoin="round" fill="#6c8ebf">
      <title>has total value</title>has...
    </text>
    </g>
    <g class="edge" data-edge-idx="19" data-edge-base="expresses" data-edge-from="9" data-edge-to="1">
    <line x1="399.34" y1="612.06" x2="341.78" y2="269.60" stroke="#6c8ebf" stroke-width="3" stroke-dasharray="9 6" />
    <path d="M 340.66 262.94 L 346.59 271.07 L 341.78 269.60 L 337.72 272.57 Z" fill="#6c8ebf" stroke="#6c8ebf" stroke-width="3" stroke-miterlimit="10"/>
    <text x="370" y="440" text-anchor="middle" dominant-baseline="middle" font-family="Helvetica,Inter,Segoe UI,Arial" font-size="11" paint-order="stroke" stroke="#ffffff" stroke-width="3" stroke-linejoin="round" fill="#6c8ebf">has id</text>
    </g>
    <g class="edge" data-edge-idx="20" data-edge-base="partof" data-edge-from="9" data-edge-to="11">
    <line x1="460.51" y1="598.03" x2="476.63" y2="472.66" stroke="#82b366" stroke-width="3" />
    <path d="M 477.49 465.97 L 480.81 475.47 L 476.63 472.66 L 471.88 474.32 Z" fill="#82b366" stroke="#82b366" stroke-width="3" stroke-miterlimit="10"/>
    </g>
    <g class="edge" data-edge-idx="21" data-edge-base="expresses" data-edge-from="9" data-edge-to="12">
    <line x1="398.70" y1="620.22" x2="343.50" y2="460.16" stroke="#6c8ebf" stroke-width="3" stroke-dasharray="9 6" />
    <path d="M 341.30 453.78 L 348.49 460.82 L 343.50 460.16 L 339.98 463.76 Z" fill="#6c8ebf" stroke="#6c8ebf" stroke-width="3" stroke-miterlimit="10"/>
    <text x="370" y="540" text-anchor="middle" dominant-baseline="middle" font-family="Helvetica,Inter,Segoe UI,Arial" font-size="11" paint-order="stroke" stroke="#ffffff" stroke-width="3" stroke-linejoin="round" fill="#6c8ebf">
      <title>has status</title>has...
    </text>
    </g>
    <g class="edge" data-edge-idx="22" data-edge-base="expresses" data-edge-from="9" data-edge-to="13">
    <line x1="397.64" y1="628.77" x2="346.35" y2="558.68" stroke="#6c8ebf" stroke-width="3" stroke-dasharray="9 6" />
    <path d="M 342.36 553.23 L 351.31 557.83 L 346.35 558.68 L 344.04 563.15 Z" fill="#6c8ebf" stroke="#6c8ebf" stroke-width="3" stroke-miterlimit="10"/>
    <text x="371" y="593" text-anchor="middle" dominant-baseline="middle" font-family="Helvetica,Inter,Segoe UI,Arial" font-size="11" paint-order="stroke" stroke="#ffffff" stroke-width="3" stroke-linejoin="round" fill="#6c8ebf">
      <title>has a role</title>has...
    </text>
    </g>
    <g class="edge" data-edge-idx="23" data-edge-base="expresses" data-edge-from="9" data-edge-to="14">
    <line x1="396.00" y1="641.00" x2="350.75" y2="641.00" stroke="#6c8ebf" stroke-width="3" stroke-dasharray="9 6" />
    <path d="M 344.00 641.00 L 353.00 636.50 L 350.75 641.00 L 353.00 645.50 Z" fill="#6c8ebf" stroke="#6c8ebf" stroke-width="3" stroke-miterlimit="10"/>
    <text x="373" y="641" text-anchor="middle" dominant-baseline="middle" font-family="Helvetica,Inter,Segoe UI,Arial" font-size="11" paint-order="stroke" stroke="#ffffff" stroke-width="3" stroke-linejoin="round" fill="#6c8ebf">
      <title>has username</title>has...
    </text>
    </g>
    <g class="edge" data-edge-idx="24" data-edge-base="expresses" data-edge-from="9" data-edge-to="15">
    <line x1="398.00" y1="649.46" x2="345.37" y2="740.69" stroke="#6c8ebf" stroke-width="3" stroke-dasharray="9 6" />
    <path d="M 342.00 746.54 L 342.60 736.49 L 345.37 740.69 L 350.39 740.99 Z" fill="#6c8ebf" stroke="#6c8ebf" stroke-width="3" stroke-miterlimit="10"/>
    <text x="371" y="694" text-anchor="middle" dominant-baseline="middle" font-family="Helvetica,Inter,Segoe UI,Arial" font-size="11" paint-order="stroke" stroke="#ffffff" stroke-width="3" stroke-linejoin="round" fill="#6c8ebf">
      <title>has email</title>has...
    </text>
    </g>
    <g class="edge" data-edge-idx="25" data-edge-base="expresses" data-edge-from="9" data-edge-to="20">
    <line x1="398.80" y1="654.81" x2="343.24" y2="830.75" stroke="#6c8ebf" stroke-width="3" stroke-dasharray="9 6" />
    <path d="M 341.20 837.19 L 339.62 827.25 L 343.24 830.75 L 348.21 829.96 Z" fill="#6c8ebf" stroke="#6c8ebf" stroke-width="3" stroke-miterlimit="10"/>
    <text x="370" y="742" text-anchor="middle" dominant-baseline="middle" font-family="Helvetica,Inter,Segoe UI,Arial" font-size="11" paint-order="stroke" stroke="#ffffff" stroke-width="3" stroke-linejoin="round" fill="#6c8ebf">
      <title>has a role</title>has...
    </text>
    </g>
  </g>
  <g id="nodes">
    <rect x="220" y="220" width="120" height="60" rx="6" ry="6" fill="#ececec" stroke="#9e9e9e" stroke-width="2" stroke-dasharray="6 4"/>
    <text x="280" y="250" text-anchor="middle" dominant-baseline="middle" font-family="Helvetica,Inter,Segoe UI,Arial" font-size="16" font-weight="normal" fill="#616161">1</text>
    <rect x="308" y="263" width="12" height="12" rx="2" ry="2" fill="#dae8fc" stroke="#6c8ebf" stroke-width="2"/>
    <text x="314.0" y="269.0" text-anchor="middle" dominant-baseline="central" font-size="8" fill="#3399ff">c</text>
    <rect x="323" y="263" width="12" height="12" rx="2" ry="2" fill="#ffe6cc" stroke="#ff8000" stroke-width="1"/>
    <text x="329.0" y="269.0" text-anchor="middle" dominant-baseline="central" font-size="8" fill="#ff8000">e</text>
    <rect x="400" y="702" width="120" height="60" rx="6" ry="6" fill="#ececec" stroke="#9e9e9e" stroke-width="2" stroke-dasharray="6 4"/>
    <text x="460" y="732" text-anchor="middle" dominant-baseline="middle" font-family="Helvetica,Inter,Segoe UI,Arial" font-size="16" font-weight="normal" fill="#616161">User 2</text>
    <rect x="488" y="745" width="12" height="12" rx="2" ry="2" fill="#d5e8d4" stroke="#82b366" stroke-width="2"/>
    <text x="494.0" y="751.0" text-anchor="middle" dominant-baseline="central" font-size="8" fill="#009900">t</text>
    <rect x="503" y="745" width="12" height="12" rx="2" ry="2" fill="#ffe6cc" stroke="#ff8000" stroke-width="1"/>
    <text x="509.0" y="751.0" text-anchor="middle" dominant-baseline="central" font-size="8" fill="#ff8000">e</text>
    <rect x="400" y="382" width="120" height="80" rx="6" ry="6" fill="#ececec" stroke="#9e9e9e" stroke-width="2" stroke-dasharray="6 4"/>
    <text x="460" y="397" text-anchor="middle" dominant-baseline="middle" font-family="Helvetica,Inter,Segoe UI,Arial" font-size="14" font-weight="normal" fill="#616161">User array for</text>
    <text x="460" y="414" text-anchor="middle" dominant-baseline="middle" font-family="Helvetica,Inter,Segoe UI,Arial" font-size="14" font-weight="normal" fill="#616161">&#34;Example</text>
    <text x="460" y="430" text-anchor="middle" dominant-baseline="middle" font-family="Helvetica,Inter,Segoe UI,Arial" font-size="14" font-weight="normal" fill="#616161">API</text>
    <text x="460" y="447" text-anchor="middle" dominant-baseline="middle" font-family="Helvetica,Inter,Segoe UI,Arial" font-size="14" font-weight="normal" fill="#616161">Response&#34;</text>
    <rect x="488" y="445" width="12" height="12" rx="2" ry="2" fill="#d5e8d4" stroke="#82b366" stroke-width="2"/>
    <text x="494.0" y="451.0" text-anchor="middle" dominant-baseline="central" font-size="8" fill="#009900">t</text>
    <rect x="503" y="445" width="12" height="12" rx="2" ry="2" fill="#ffe6cc" stroke="#ff8000" stroke-width="1"/>
    <text x="509.0" y="451.0" text-anchor="middle" dominant-baseline="central" font-size="8" fill="#ff8000">e</text>
    <rect x="220" y="420" width="120" height="60" rx="6" ry="6" fill="#ececec" stroke="#9e9e9e" stroke-width="2" stroke-dasharray="6 4"/>
    <text x="280" y="450" text-anchor="middle" dominant-baseline="middle" font-family="Helvetica,Inter,Segoe UI,Arial" font-size="16" font-weight="normal" fill="#616161">active</text>
    <rect x="308" y="463" width="12" height="12" rx="2" ry="2" fill="#dae8fc" stroke="#6c8ebf" stroke-width="2"/>
    <text x="314.0" y="469.0" text-anchor="middle" dominant-baseline="central" font-size="8" fill="#3399ff">c</text>
    <rect x="323" y="463" width="12" height="12" rx="2" ry="2" fill="#ffe6cc" stroke="#ff8000" stroke-width="1"/>
    <text x="329.0" y="469.0" text-anchor="middle" dominant-baseline="central" font-size="8" fill="#ff8000">e</text>
    <rect x="220" y="520" width="120" height="60" rx="6" ry="6" fill="#ececec" stroke="#9e9e9e" stroke-width="2" stroke-dasharray="6 4"/>
    <text x="280" y="550" text-anchor="middle" dominant-baseline="middle" font-family="Helvetica,Inter,Segoe UI,Arial" font-size="16" font-weight="normal" fill="#616161">admin</text>
    <rect x="308" y="563" width="12" height="12" rx="2" ry="2" fill="#dae8fc" stroke="#6c8ebf" stroke-width="2"/>
    <text x="314.0" y="569.0" text-anchor="middle" dominant-baseline="central" font-size="8" fill="#3399ff">c</text>
    <rect x="323" y="563" width="12" height="12" rx="2" ry="2" fill="#ffe6cc" stroke="#ff8000" stroke-width="1"/>
    <text x="329.0" y="569.0" text-anchor="middle" dominant-baseline="central" font-size="8" fill="#ff8000">e</text>
    <rect x="220" y="620" width="120" height="60" rx="6" ry="6" fill="#ececec" stroke="#9e9e9e" stroke-width="2" stroke-dasharray="6 4"/>
    <text x="280" y="650" text-anchor="middle" dominant-baseline="middle" font-family="Helvetica,Inter,Segoe UI,Arial" font-size="16" font-weight="normal" fill="#616161">alice</text>
    <rect x="308" y="663" width="12" height="12" rx="2" ry="2" fill="#dae8fc" stroke="#6c8ebf" stroke-width="2"/>
    <text x="314.0" y="669.0" text-anchor="middle" dominant-baseline="central" font-size="8" fill="#3399ff">c</text>
    <rect x="323" y="663" width="12" height="12" rx="2" ry="2" fill="#ffe6cc" stroke="#ff8000" stroke-width="1"/>
    <text x="329.0" y="669.0" text-anchor="middle" dominant-baseline="central" font-size="8" fill="#ff8000">e</text>
    <rect x="220" y="720" width="120" height="60" rx="6" ry="6" fill="#ececec" stroke="#9e9e9e" stroke-width="2" stroke-dasharray="6 4"/>
    <text x="280" y="740" text-anchor="middle" dominant-baseline="middle" font-family="Helvetica,Inter,Segoe UI,Arial" font-size="16" font-weight="normal" fill="#616161">alice@exampl</text>
    <text x="280" y="760" text-anchor="middle" dominant-baseline="middle" font-family="Helvetica,Inter,Segoe UI,Arial" font-size="16" font-weight="normal" fill="#616161">e.com</text>
    <rect x="308" y="763" width="12" height="12" rx="2" ry="2" fill="#dae8fc" stroke="#6c8ebf" stroke-width="2"/>
    <text x="314.0" y="769.0" text-anchor="middle" dominant-baseline="central" font-size="8" fill="#3399ff">c</text>
    <rect x="323" y="763" width="12" height="12" rx="2" ry="2" fill="#ffe6cc" stroke="#ff8000" stroke-width="1"/>
    <text x="329.0" y="769.0" text-anchor="middle" dominant-baseline="central" font-size="8" fill="#ff8000">e</text>
    <rect x="220" y="920" width="120" height="60" rx="6" ry="6" fill="#ececec" stroke="#9e9e9e" stroke-width="2" stroke-dasharray="6 4"/>
    <text x="280" y="950" text-anchor="middle" dominant-baseline="middle" font-family="Helvetica,Inter,Segoe UI,Arial" font-size="16" font-weight="normal" fill="#616161">bob</text>
    <rect x="308" y="963" width="12" height="12" rx="2" ry="2" fill="#dae8fc" stroke="#6c8ebf" stroke-width="2"/>
    <text x="314.0" y="969.0" text-anchor="middle" dominant-baseline="central" font-size="8" fill="#3399ff">c</text>
    <rect x="323" y="963" width="12" height="12" rx="2" ry="2" fill="#ffe6cc" stroke="#ff8000" stroke-width="1"/>
    <text x="329.0" y="969.0" text-anchor="middle" dominant-baseline="central" font-size="8" fill="#ff8000">e</text>
    <rect x="220" y="1020" width="120" height="60" rx="6" ry="6" fill="#ececec" stroke="#9e9e9e" stroke-width="2" stroke-dasharray="6 4"/>
    <text x="280" y="1040" text-anchor="middle" dominant-baseline="middle" font-family="Helvetica,Inter,Segoe UI,Arial" font-size="16" font-weight="normal" fill="#616161">bob@example.</text>
    <text x="280" y="1060" text-anchor="middle" dominant-baseline="middle" font-family="Helvetica,Inter,Segoe UI,Arial" font-size="16" font-weight="normal" fill="#616161">com</text>
    <rect x="308" y="1063" width="12" height="12" rx="2" ry="2" fill="#dae8fc" stroke="#6c8ebf" stroke-width="2"/>
    <text x="314.0" y="1069.0" text-anchor="middle" dominant-baseline="central" font-size="8" fill="#3399ff">c</text>
    <rect x="323" y="1063" width="12" height="12" rx="2" ry="2" fill="#ffe6cc" stroke="#ff8000" stroke-width="1"/>
    <text x="329.0" y="1069.0" text-anchor="middle" dominant-baseline="central" font-size="8" fill="#ff8000">e</text>
    <rect x="220" y="1120" width="120" height="60" rx="6" ry="6" fill="#ececec" stroke="#9e9e9e" stroke-width="2" stroke-dasharray="6 4"/>
    <text x="280" y="1150" text-anchor="middle" dominant-baseline="middle" font-family="Helvetica,Inter,Segoe UI,Arial" font-size="16" font-weight="normal" fill="#616161">inactive</text>
    <rect x="308" y="1163" width="12" height="12" rx="2" ry="2" fill="#dae8fc" stroke="#6c8ebf" stroke-width="2"/>
    <text x="314.0" y="1169.0" text-anchor="middle" dominant-baseline="central" font-size="8" fill="#3399ff">c</text>
    <rect x="323" y="1163" width="12" height="12" rx="2" ry="2" fill="#ffe6cc" stroke="#ff8000" stroke-width="1"/>
    <text x="329.0" y="1169.0" text-anchor="middle" dominant-baseline="central" font-size="8" fill="#ff8000">e</text>
    <rect x="1180" y="220" width="120" height="60" rx="6" ry="6" fill="#ececec" stroke="#9e9e9e" stroke-width="2" stroke-dasharray="6 4"/>
    <text x="1240" y="250" text-anchor="middle" dominant-baseline="middle" font-family="Helvetica,Inter,Segoe UI,Arial" font-size="16" font-weight="normal" fill="#616161">success</text>
    <rect x="1268" y="263" width="12" height="12" rx="2" ry="2" fill="#dae8fc" stroke="#6c8ebf" stroke-width="2"/>
    <text x="1274.0" y="269.0" text-anchor="middle" dominant-baseline="central" font-size="8" fill="#3399ff">c</text>
    <rect x="1283" y="263" width="12" height="12" rx="2" ry="2" fill="#ffe6cc" stroke="#ff8000" stroke-width="1"/>
    <text x="1289.0" y="269.0" text-anchor="middle" dominant-baseline="central" font-size="8" fill="#ff8000">e</text>
    <rect x="820" y="170" width="120" height="60" rx="6" ry="6" fill="#ececec" stroke="#9e9e9e" stroke-width="2" stroke-dasharray="6 4"/>
    <text x="880" y="200" text-anchor="middle" dominant-baseline="middle" font-family="Helvetica,Inter,Segoe UI,Arial" font-size="16" font-weight="normal" fill="#616161">1.0.0</text>
    <rect x="908" y="213" width="12" height="12" rx="2" ry="2" fill="#dae8fc" stroke="#6c8ebf" stroke-width="2"/>
    <text x="914.0" y="219.0" text-anchor="middle" dominant-baseline="central" font-size="8" fill="#3399ff">c</text>
    <rect x="923" y="213" width="12" height="12" rx="2" ry="2" fill="#ffe6cc" stroke="#ff8000" stroke-width="1"/>
    <text x="929.0" y="219.0" text-anchor="middle" dominant-baseline="central" font-size="8" fill="#ff8000">e</text>
    <rect x="220" y="820" width="120" height="60" rx="6" ry="6" fill="#ececec" stroke="#9e9e9e" stroke-width="2" stroke-dasharray="6 4"/>
    <text x="280" y="850" text-anchor="middle" dominant-baseline="middle" font-family="Helvetica,Inter,Segoe UI,Arial" font-size="16" font-weight="normal" fill="#616161">user</text>
    <rect x="308" y="863" width="12" height="12" rx="2" ry="2" fill="#dae8fc" stroke="#6c8ebf" stroke-width="2"/>
    <text x="314.0" y="869.0" text-anchor="middle" dominant-baseline="central" font-size="8" fill="#3399ff">c</text>
    <rect x="323" y="863" width="12" height="12" rx="2" ry="2" fill="#ffe6cc" stroke="#ff8000" stroke-width="1"/>
    <text x="329.0" y="869.0" text-anchor="middle" dominant-baseline="central" font-size="8" fill="#ff8000">e</text>
    <rect x="620" y="40" width="40" height="40" rx="4" ry="4" fill="#ffe6cc" stroke="#ff8000" stroke-width="2"/>
    <text x="640" y="60" text-anchor="middle" dominant-baseline="middle" font-family="Helvetica,Inter,Segoe UI,Arial" font-size="16" font-weight="bold" fill="#ff8000">S</text>
    <rect x="620" y="1220" width="40" height="40" rx="4" ry="4" fill="#ffe6cc" stroke="#ff8000" stroke-width="2"/>
    <text x="640" y="1240" text-anchor="middle" dominant-baseline="middle" font-family="Helvetica,Inter,Segoe UI,Arial" font-size="16" font-weight="bold" fill="#ff8000">E</text>
    <rect x="1040" y="40" width="40" height="40" rx="4" ry="4" fill="#ffe6cc" stroke="#ff8000" stroke-width="2"/>
    <text x="1060" y="60" text-anchor="middle" dominant-baseline="middle" font-family="Helvetica,Inter,Segoe UI,Arial" font-size="16" font-weight="bold" fill="#ff8000">S</text>
    <rect x="1040" y="320" width="40" height="40" rx="4" ry="4" fill="#ffe6cc" stroke="#ff8000" stroke-width="2"/>
    <text x="1060" y="340" text-anchor="middle" dominant-baseline="middle" font-family="Helvetica,Inter,Segoe UI,Arial" font-size="16" font-weight="bold" fill="#ff8000">E</text>
    <rect x="220" y="120" width="120" height="60" rx="6" ry="6" fill="#ececec" stroke="#9e9e9e" stroke-width="2" stroke-dasharray="6 4"/>
    <text x="280" y="150" text-anchor="middle" dominant-baseline="middle" font-family="Helvetica,Inter,Segoe UI,Arial" font-size="16" font-weight="normal" fill="#616161">10</text>
    <rect x="308" y="163" width="12" height="12" rx="2" ry="2" fill="#dae8fc" stroke="#6c8ebf" stroke-width="2"/>
    <text x="314.0" y="169.0" text-anchor="middle" dominant-baseline="central" font-size="8" fill="#3399ff">c</text>
    <rect x="323" y="163" width="12" height="12" rx="2" ry="2" fill="#ffe6cc" stroke="#ff8000" stroke-width="1"/>
    <text x="329.0" y="169.0" text-anchor="middle" dominant-baseline="central" font-size="8" fill="#ff8000">e</text>
    <rect x="220" y="320" width="120" height="60" rx="6" ry="6" fill="#ececec" stroke="#9e9e9e" stroke-width="2" stroke-dasharray="6 4"/>
    <text x="280" y="350" text-anchor="middle" dominant-baseline="middle" font-family="Helvetica,Inter,Segoe UI,Arial" font-size="16" font-weight="normal" fill="#616161">2</text>
    <rect x="308" y="363" width="12" height="12" rx="2" ry="2" fill="#dae8fc" stroke="#6c8ebf" stroke-width="2"/>
    <text x="314.0" y="369.0" text-anchor="middle" dominant-baseline="central" font-size="8" fill="#3399ff">c</text>
    <rect x="323" y="363" width="12" height="12" rx="2" ry="2" fill="#ffe6cc" stroke="#ff8000" stroke-width="1"/>
    <text x="329.0" y="369.0" text-anchor="middle" dominant-baseline="central" font-size="8" fill="#ff8000">e</text>
    <rect x="1180" y="120" width="120" height="60" rx="6" ry="6" fill="#ececec" stroke="#9e9e9e" stroke-width="2" stroke-dasharray="6 4"/>
    <text x="1240" y="140" text-anchor="middle" dominant-baseline="middle" font-family="Helvetica,Inter,Segoe UI,Arial" font-size="16" font-weight="normal" fill="#616161">2025-10-17T1</text>
    <text x="1240" y="160" text-anchor="middle" dominant-baseline="middle" font-family="Helvetica,Inter,Segoe UI,Arial" font-size="16" font-weight="normal" fill="#616161">4:30:00Z</text>
    <rect x="1268" y="163" width="12" height="12" rx="2" ry="2" fill="#dae8fc" stroke="#6c8ebf" stroke-width="2"/>
    <text x="1274.0" y="169.0" text-anchor="middle" dominant-baseline="central" font-size="8" fill="#3399ff">c</text>
    <rect x="1283" y="163" width="12" height="12" rx="2" ry="2" fill="#ffe6cc" stroke="#ff8000" stroke-width="1"/>
    <text x="1289.0" y="169.0" text-anchor="middle" dominant-baseline="central" font-size="8" fill="#ff8000">e</text>
    <rect x="580" y="542" width="120" height="60" rx="6" ry="6" fill="#ffe6cc" stroke="#ff8000" stroke-width="2"/>
    <text x="640" y="547" text-anchor="middle" dominant-baseline="middle" font-family="Helvetica,Inter,Segoe UI,Arial" font-size="14" font-weight="bold" fill="#ff8000">Data for</text>
    <text x="640" y="564" text-anchor="middle" dominant-baseline="middle" font-family="Helvetica,Inter,Segoe UI,Arial" font-size="14" font-weight="bold" fill="#ff8000">&#34;Example</text>
    <text x="640" y="580" text-anchor="middle" dominant-baseline="middle" font-family="Helvetica,Inter,Segoe UI,Arial" font-size="14" font-weight="bold" fill="#ff8000">API</text>
    <text x="640" y="597" text-anchor="middle" dominant-baseline="middle" font-family="Helvetica,Inter,Segoe UI,Arial" font-size="14" font-weight="bold" fill="#ff8000">Response&#34;</text>
    <rect x="1000" y="170" width="120" height="60" rx="6" ry="6" fill="#ffe6cc" stroke="#ff8000" stroke-width="2"/>
    <text x="1060" y="190" text-anchor="middle" dominant-baseline="middle" font-family="Helvetica,Inter,Segoe UI,Arial" font-size="16" font-weight="bold" fill="#ff8000">Example API</text>
    <text x="1060" y="210" text-anchor="middle" dominant-baseline="middle" font-family="Helvetica,Inter,Segoe UI,Arial" font-size="16" font-weight="bold" fill="#ff8000">Response</text>
    <rect x="400" y="502" width="120" height="60" rx="6" ry="6" fill="#ececec" stroke="#9e9e9e" stroke-width="2" stroke-dasharray="6 4"/>
    <text x="460" y="507" text-anchor="middle" dominant-baseline="middle" font-family="Helvetica,Inter,Segoe UI,Arial" font-size="14" font-weight="normal" fill="#616161">Metadata for</text>
    <text x="460" y="524" text-anchor="middle" dominant-baseline="middle" font-family="Helvetica,Inter,Segoe UI,Arial" font-size="14" font-weight="normal" fill="#616161">&#34;Example</text>
    <text x="460" y="540" text-anchor="middle" dominant-baseline="middle" font-family="Helvetica,Inter,Segoe UI,Arial" font-size="14" font-weight="normal" fill="#616161">API</text>
    <text x="460" y="557" text-anchor="middle" dominant-baseline="middle" font-family="Helvetica,Inter,Segoe UI,Arial" font-size="14" font-weight="normal" fill="#616161">Response&#34;</text>
    <rect x="488" y="545" width="12" height="12" rx="2" ry="2" fill="#dae8fc" stroke="#6c8ebf" stroke-width="2"/>
    <text x="494.0" y="551.0" text-anchor="middle" dominant-baseline="central" font-size="8" fill="#3399ff">c</text>
    <rect x="503" y="545" width="12" height="12" rx="2" ry="2" fill="#ffe6cc" stroke="#ff8000" stroke-width="1"/>
    <text x="509.0" y="551.0" text-anchor="middle" dominant-baseline="central" font-size="8" fill="#ff8000">e</text>
    <rect x="400" y="602" width="120" height="60" rx="6" ry="6" fill="#ececec" stroke="#9e9e9e" stroke-width="2" stroke-dasharray="6 4"/>
    <text x="460" y="632" text-anchor="middle" dominant-baseline="middle" font-family="Helvetica,Inter,Segoe UI,Arial" font-size="16" font-weight="normal" fill="#616161">User 1</text>
    <rect x="488" y="645" width="12" height="12" rx="2" ry="2" fill="#d5e8d4" stroke="#82b366" stroke-width="2"/>
    <text x="494.0" y="651.0" text-anchor="middle" dominant-baseline="central" font-size="8" fill="#009900">t</text>
    <rect x="503" y="645" width="12" height="12" rx="2" ry="2" fill="#ffe6cc" stroke="#ff8000" stroke-width="1"/>
    <text x="509.0" y="651.0" text-anchor="middle" dominant-baseline="central" font-size="8" fill="#ff8000">e</text>
  </g>
</svg>
