<?xml version="1.0" encoding="UTF-8"?>
<svg xmlns="http://www.w3.org/2000/svg" width="560" height="2050" viewBox="0 0 560 2050">
  <defs>
  </defs>
  <g id="container-shells">
  </g>
  <g id="node-shadows">
    <rect x="40" y="470" width="120" height="60" rx="6" ry="6" fill="#000000" stroke="#000000" stroke-width="2" opacity="0.25" transform="translate(2,3)"/>
    <rect x="40" y="970" width="120" height="60" rx="6" ry="6" fill="#000000" stroke="#000000" stroke-width="2" opacity="0.25" transform="translate(2,3)"/>
    <rect x="40" y="1070" width="120" height="60" rx="6" ry="6" fill="#000000" stroke="#000000" stroke-width="2" opacity="0.25" transform="translate(2,3)"/>
    <rect x="40" y="1170" width="120" height="60" rx="6" ry="6" fill="#000000" stroke="#000000" stroke-width="2" opacity="0.25" transform="translate(2,3)"/>
    <rect x="40" y="1270" width="120" height="60" rx="6" ry="6" fill="#000000" stroke="#000000" stroke-width="2" opacity="0.25" transform="translate(2,3)"/>
    <rect x="40" y="1370" width="120" height="60" rx="6" ry="6" fill="#000000" stroke="#000000" stroke-width="2" opacity="0.25" transform="translate(2,3)"/>
    <rect x="40" y="1470" width="120" height="60" rx="6" ry="6" fill="#000000" stroke="#000000" stroke-width="2" opacity="0.25" transform="translate(2,3)"/>
    <rect x="40" y="1570" width="120" height="60" rx="6" ry="6" fill="#000000" stroke="#000000" stroke-width="2" opacity="0.25" transform="translate(2,3)"/>
    <rect x="40" y="1670" width="120" height="60" rx="6" ry="6" fill="#000000" stroke="#000000" stroke-width="2" opacity="0.25" transform="translate(2,3)"/>
    <rect x="40" y="1770" width="120" height="60" rx="6" ry="6" fill="#000000" stroke="#000000" stroke-width="2" opacity="0.25" transform="translate(2,3)"/>
    <rect x="40" y="1870" width="120" height="60" rx="6" ry="6" fill="#000000" stroke="#000000" stroke-width="2" opacity="0.25" transform="translate(2,3)"/>
    <rect x="40" y="570" width="120" height="60" rx="6" ry="6" fill="#000000" stroke="#000000" stroke-width="2" opacity="0.25" transform="translate(2,3)"/>
    <rect x="260" y="40" width="40" height="40" rx="4" ry="4" fill="#000000" stroke="#000000" stroke-width="2" opacity="0.25" transform="translate(2,3)"/>
    <rect x="260" y="1970" width="40" height="40" rx="4" ry="4" fill="#000000" stroke="#000000" stroke-width="2" opacity="0.25" transform="translate(2,3)"/>
    <rect x="40" y="670" width="120" height="60" rx="6" ry="6" fill="#000000" stroke="#000000" stroke-width="2" opacity="0.25" transform="translate(2,3)"/>
    <rect x="220" y="130" width="120" height="60" rx="6" ry="6" fill="#000000" stroke="#000000" stroke-width="2" opacity="0.25" transform="translate(2,3)"/>
    <rect x="220" y="260" width="120" height="60" rx="6" ry="6" fill="#000000" stroke="#000000" stroke-width="2" opacity="0.25" transform="translate(2,3)"/>
    <rect x="220" y="380" width="120" height="60" rx="6" ry="6" fill="#000000" stroke="#000000" stroke-width="2" opacity="0.25" transform="translate(2,3)"/>
    <rect x="400" y="120" width="120" height="80" rx="6" ry="6" fill="#000000" stroke="#000000" stroke-width="2" opacity="0.25" transform="translate(2,3)"/>
    <rect x="40" y="770" width="120" height="60" rx="6" ry="6" fill="#000000" stroke="#000000" stroke-width="2" opacity="0.25" transform="translate(2,3)"/>
    <rect x="40" y="870" width="120" height="60" rx="6" ry="6" fill="#000000" stroke="#000000" stroke-width="2" opacity="0.25" transform="translate(2,3)"/>
  </g>
  <g id="edges">
    <g class="edge" data-edge-idx="0" data-edge-base="leadsto" data-edge-from="20" data-edge-to="4">
    <line x1="280.00" y1="84.00" x2="280.00" y2="119.25" stroke="#ff8000" stroke-width="3" />
    <path d="M 280.00 126.00 L 275.50 117.00 L 280.00 119.25 L 284.50 117.00 Z" fill="#ff8000" stroke="#ff8000" stroke-width="3" stroke-miterlimit="10"/>
    </g>
    <g class="edge" data-edge-idx="1" data-edge-base="expresses" data-edge-from="4" data-edge-to="1">
    <line x1="219.34" y1="145.94" x2="161.78" y2="489.40" stroke="#6c8ebf" stroke-width="3" stroke-dasharray="9 6" />
    <path d="M 160.66 496.06 L 157.71 486.44 L 161.78 489.40 L 166.59 487.92 Z" fill="#6c8ebf" stroke="#6c8ebf" stroke-width="3" stroke-miterlimit="10"/>
    <text x="190" y="317" text-anchor="middle" dominant-baseline="middle" font-family="Helvetica,Inter,Segoe UI,Arial" font-size="11" paint-order="stroke" stroke="#ffffff" stroke-width="3" stroke-linejoin="round" fill="#6c8ebf">has id</text>
    </g>
    <g class="edge" data-edge-idx="2" data-edge-base="expresses" data-edge-from="4" data-edge-to="10">
    <line x1="219.71" y1="166.99" x2="160.77" y2="989.28" stroke="#6c8ebf" stroke-width="3" stroke-dasharray="9 6" />
    <path d="M 160.29 996.01 L 156.44 986.71 L 160.77 989.28 L 165.42 987.36 Z" fill="#6c8ebf" stroke="#6c8ebf" stroke-width="3" stroke-miterlimit="10"/>
    <text x="189" y="577" text-anchor="middle" dominant-baseline="middle" font-family="Helvetica,Inter,Segoe UI,Arial" font-size="11" paint-order="stroke" stroke="#ffffff" stroke-width="3" stroke-linejoin="round" fill="#6c8ebf">
      <title>has username</title>has...
    </text>
    </g>
    <g class="edge" data-edge-idx="3" data-edge-base="expresses" data-edge-from="4" data-edge-to="11">
    <line x1="219.74" y1="173.99" x2="160.69" y2="1089.27" stroke="#6c8ebf" stroke-width="3" stroke-dasharray="9 6" />
    <path d="M 160.26 1096.01 L 156.35 1086.74 L 160.69 1089.27 L 165.33 1087.32 Z" fill="#6c8ebf" stroke="#6c8ebf" stroke-width="3" stroke-miterlimit="10"/>
    <text x="189" y="631" text-anchor="middle" dominant-baseline="middle" font-family="Helvetica,Inter,Segoe UI,Arial" font-size="11" paint-order="stroke" stroke="#ffffff" stroke-width="3" stroke-linejoin="round" fill="#6c8ebf">
      <title>has email</title>has...
    </text>
    </g>
    <g class="edge" data-edge-idx="4" data-edge-base="expresses" data-edge-from="4" data-edge-to="18">
    <line x1="219.85" y1="182.00" x2="160.40" y2="1780.26" stroke="#6c8ebf" stroke-width="3" stroke-dasharray="9 6" />
    <path d="M 160.15 1787.00 L 155.99 1777.84 L 160.40 1780.26 L 164.98 1778.18 Z" fill="#6c8ebf" stroke="#6c8ebf" stroke-width="3" stroke-miterlimit="10"/>
    <text x="189" y="980" text-anchor="middle" dominant-baseline="middle" font-family="Helvetica,Inter,Segoe UI,Arial" font-size="11" paint-order="stroke" stroke="#ffffff" stroke-width="3" stroke-linejoin="round" fill="#6c8ebf">
      <title>has a role</title>has...
    </text>
    </g>
    <g class="edge" data-edge-idx="5" data-edge-base="leadsto" data-edge-from="4" data-edge-to="5">
    <line x1="280.00" y1="194.00" x2="280.00" y2="249.25" stroke="#ff8000" stroke-width="3" />
    <path d="M 280.00 256.00 L 275.50 247.00 L 280.00 249.25 L 284.50 247.00 Z" fill="#ff8000" stroke="#ff8000" stroke-width="3" stroke-miterlimit="10"/>
    <text x="280" y="221" text-anchor="middle" dominant-baseline="middle" font-family="Helvetica,Inter,Segoe UI,Arial" font-size="11" paint-order="stroke" stroke="#ffffff" stroke-width="3" stroke-linejoin="round" fill="#ff8000">
      <title>then followed by</title>then...
    </text>
    </g>
    <g class="edge" data-edge-idx="6" data-edge-base="partof" data-edge-from="4" data-edge-to="7">
    <line x1="343.92" y1="159.22" x2="389.46" y2="150.11" stroke="#82b366" stroke-width="3" />
    <path d="M 396.08 148.78 L 388.13 154.96 L 389.46 150.11 L 386.37 146.14 Z" fill="#82b366" stroke="#82b366" stroke-width="3" stroke-miterlimit="10"/>
    </g>
    <g class="edge" data-edge-idx="7" data-edge-base="expresses" data-edge-from="4" data-edge-to="8">
    <line x1="219.63" y1="152.98" x2="160.99" y2="789.30" stroke="#6c8ebf" stroke-width="3" stroke-dasharray="9 6" />
    <path d="M 160.37 796.02 L 156.71 786.64 L 160.99 789.30 L 165.67 787.47 Z" fill="#6c8ebf" stroke="#6c8ebf" stroke-width="3" stroke-miterlimit="10"/>
    <text x="189" y="470" text-anchor="middle" dominant-baseline="middle" font-family="Helvetica,Inter,Segoe UI,Arial" font-size="11" paint-order="stroke" stroke="#ffffff" stroke-width="3" stroke-linejoin="round" fill="#6c8ebf">
      <title>has status</title>has...
    </text>
    </g>
    <g class="edge" data-edge-idx="8" data-edge-base="expresses" data-edge-from="4" data-edge-to="9">
    <line x1="219.68" y1="159.99" x2="160.86" y2="889.28" stroke="#6c8ebf" stroke-width="3" stroke-dasharray="9 6" />
    <path d="M 160.32 896.01 L 156.56 886.68 L 160.86 889.28 L 165.53 887.40 Z" fill="#6c8ebf" stroke="#6c8ebf" stroke-width="3" stroke-miterlimit="10"/>
    <text x="189" y="524" text-anchor="middle" dominant-baseline="middle" font-family="Helvetica,Inter,Segoe UI,Arial" font-size="11" paint-order="stroke" stroke="#ffffff" stroke-width="3" stroke-linejoin="round" fill="#6c8ebf">
      <title>has a role</title>has...
    </text>
    </g>
    <g class="edge" data-edge-idx="9" data-edge-base="expresses" data-edge-from="5" data-edge-to="12">
    <line x1="219.74" y1="284.99" x2="160.70" y2="1189.27" stroke="#6c8ebf" stroke-width="3" stroke-dasharray="9 6" />
    <path d="M 160.26 1196.01 L 156.36 1186.73 L 160.70 1189.27 L 165.34 1187.32 Z" fill="#6c8ebf" stroke="#6c8ebf" stroke-width="3" stroke-miterlimit="10"/>
    <text x="189" y="736" text-anchor="middle" dominant-baseline="middle" font-family="Helvetica,Inter,Segoe UI,Arial" font-size="11" paint-order="stroke" stroke="#ffffff" stroke-width="3" stroke-linejoin="round" fill="#6c8ebf">
      <title>has username</title>has...
    </text>
    </g>
    <g class="edge" data-edge-idx="10" data-edge-base="expresses" data-edge-from="5" data-edge-to="13">
    <line x1="219.76" y1="293.99" x2="160.64" y2="1289.27" stroke="#6c8ebf" stroke-width="3" stroke-dasharray="9 6" />
    <path d="M 160.24 1296.01 L 156.28 1286.76 L 160.64 1289.27 L 165.26 1287.29 Z" fill="#6c8ebf" stroke="#6c8ebf" stroke-width="3" stroke-miterlimit="10"/>
    <text x="189" y="791" text-anchor="middle" dominant-baseline="middle" font-family="Helvetica,Inter,Segoe UI,Arial" font-size="11" paint-order="stroke" stroke="#ffffff" stroke-width="3" stroke-linejoin="round" fill="#6c8ebf">
      <title>has email</title>has...
    </text>
    </g>
    <g class="edge" data-edge-idx="11" data-edge-base="expresses" data-edge-from="5" data-edge-to="16">
    <line x1="219.82" y1="302.00" x2="160.49" y2="1589.26" stroke="#6c8ebf" stroke-width="3" stroke-dasharray="9 6" />
    <path d="M 160.18 1596.00 L 156.10 1586.81 L 160.49 1589.26 L 165.09 1587.22 Z" fill="#6c8ebf" stroke="#6c8ebf" stroke-width="3" stroke-miterlimit="10"/>
    <text x="189" y="945" text-anchor="middle" dominant-baseline="middle" font-family="Helvetica,Inter,Segoe UI,Arial" font-size="11" paint-order="stroke" stroke="#ffffff" stroke-width="3" stroke-linejoin="round" fill="#6c8ebf">
      <title>has status</title>has...
    </text>
    </g>
    <g class="edge" data-edge-idx="12" data-edge-base="expresses" data-edge-from="5" data-edge-to="18">
    <line x1="219.84" y1="312.00" x2="160.43" y2="1798.26" stroke="#6c8ebf" stroke-width="3" stroke-dasharray="9 6" />
    <path d="M 160.16 1805.00 L 156.02 1795.83 L 160.43 1798.26 L 165.02 1796.19 Z" fill="#6c8ebf" stroke="#6c8ebf" stroke-width="3" stroke-miterlimit="10"/>
    <text x="189" y="1054" text-anchor="middle" dominant-baseline="middle" font-family="Helvetica,Inter,Segoe UI,Arial" font-size="11" paint-order="stroke" stroke="#ffffff" stroke-width="3" stroke-linejoin="round" fill="#6c8ebf">
      <title>has a role</title>has...
    </text>
    </g>
    <g class="edge" data-edge-idx="13" data-edge-base="expresses" data-edge-from="5" data-edge-to="2">
    <line x1="219.28" y1="275.93" x2="161.93" y2="589.43" stroke="#6c8ebf" stroke-width="3" stroke-dasharray="9 6" />
    <path d="M 160.72 596.07 L 157.91 586.40 L 161.93 589.43 L 166.77 588.02 Z" fill="#6c8ebf" stroke="#6c8ebf" stroke-width="3" stroke-miterlimit="10"/>
    <text x="190" y="432" text-anchor="middle" dominant-baseline="middle" font-family="Helvetica,Inter,Segoe UI,Arial" font-size="11" paint-order="stroke" stroke="#ffffff" stroke-width="3" stroke-linejoin="round" fill="#6c8ebf">has id</text>
    </g>
    <g class="edge" data-edge-idx="14" data-edge-base="leadsto" data-edge-from="5" data-edge-to="6">
    <line x1="280.00" y1="324.00" x2="280.00" y2="369.25" stroke="#ff8000" stroke-width="3" />
    <path d="M 280.00 376.00 L 275.50 367.00 L 280.00 369.25 L 284.50 367.00 Z" fill="#ff8000" stroke="#ff8000" stroke-width="3" stroke-miterlimit="10"/>
    <text x="280" y="346" text-anchor="middle" dominant-baseline="middle" font-family="Helvetica,Inter,Segoe UI,Arial" font-size="11" paint-order="stroke" stroke="#ffffff" stroke-width="3" stroke-linejoin="round" fill="#ff8000">
      <title>then followed by</title>then...
    </text>
    </g>
    <g class="edge" data-edge-idx="15" data-edge-base="partof" data-edge-from="5" data-edge-to="7">
    <line x1="341.81" y1="286.43" x2="395.13" y2="181.58" stroke="#82b366" stroke-width="3" />
    <path d="M 398.19 175.57 L 398.12 185.63 L 395.13 181.58 L 390.10 181.55 Z" fill="#82b366" stroke="#82b366" stroke-width="3" stroke-miterlimit="10"/>
    </g>
    <g class="edge" data-edge-idx="16" data-edge-base="expresses" data-edge-from="6" data-edge-to="14">
    <line x1="219.76" y1="404.99" x2="160.64" y2="1389.27" stroke="#6c8ebf" stroke-width="3" stroke-dasharray="9 6" />
    <path d="M 160.24 1396.01 L 156.29 1386.75 L 160.64 1389.27 L 165.27 1387.29 Z" fill="#6c8ebf" stroke="#6c8ebf" stroke-width="3" stroke-miterlimit="10"/>
    <text x="189" y="896" text-anchor="middle" dominant-baseline="middle" font-family="Helvetica,Inter,Segoe UI,Arial" font-size="11" paint-order="stroke" stroke="#ffffff" stroke-width="3" stroke-linejoin="round" fill="#6c8ebf">
      <title>has username</title>has...
    </text>
    </g>
    <g class="edge" data-edge-idx="17" data-edge-base="expresses" data-edge-from="6" data-edge-to="15">
    <line x1="219.78" y1="413.99" x2="160.59" y2="1489.27" stroke="#6c8ebf" stroke-width="3" stroke-dasharray="9 6" />
    <path d="M 160.22 1496.01 L 156.22 1486.77 L 160.59 1489.27 L 165.21 1487.27 Z" fill="#6c8ebf" stroke="#6c8ebf" stroke-width="3" stroke-miterlimit="10"/>
    <text x="189" y="951" text-anchor="middle" dominant-baseline="middle" font-family="Helvetica,Inter,Segoe UI,Arial" font-size="11" paint-order="stroke" stroke="#ffffff" stroke-width="3" stroke-linejoin="round" fill="#6c8ebf">
      <title>has email</title>has...
    </text>
    </g>
    <g class="edge" data-edge-idx="18" data-edge-base="expresses" data-edge-from="6" data-edge-to="17">
    <line x1="219.81" y1="422.00" x2="160.50" y2="1689.26" stroke="#6c8ebf" stroke-width="3" stroke-dasharray="9 6" />
    <path d="M 160.19 1696.00 L 156.11 1686.80 L 160.50 1689.26 L 165.10 1687.22 Z" fill="#6c8ebf" stroke="#6c8ebf" stroke-width="3" stroke-miterlimit="10"/>
    <text x="189" y="1055" text-anchor="middle" dominant-baseline="middle" font-family="Helvetica,Inter,Segoe UI,Arial" font-size="11" paint-order="stroke" stroke="#ffffff" stroke-width="3" stroke-linejoin="round" fill="#6c8ebf">
      <title>has status</title>has...
    </text>
    </g>
    <g class="edge" data-edge-idx="19" data-edge-base="expresses" data-edge-from="6" data-edge-to="19">
    <line x1="219.84" y1="432.00" x2="160.44" y2="1889.26" stroke="#6c8ebf" stroke-width="3" stroke-dasharray="9 6" />
    <path d="M 160.16 1896.00 L 156.03 1886.83 L 160.44 1889.26 L 165.03 1887.19 Z" fill="#6c8ebf" stroke="#6c8ebf" stroke-width="3" stroke-miterlimit="10"/>
    <text x="189" y="1160" text-anchor="middle" dominant-baseline="middle" font-family="Helvetica,Inter,Segoe UI,Arial" font-size="11" paint-order="stroke" stroke="#ffffff" stroke-width="3" stroke-linejoin="round" fill="#6c8ebf">
      <title>has a role</title>has...
    </text>
    </g>
    <g class="edge" data-edge-idx="20" data-edge-base="leadsto" data-edge-from="6" data-edge-to="21">
    <line x1="280.00" y1="444.00" x2="280.00" y2="1959.25" stroke="#ff8000" stroke-width="3" />
    <path d="M 280.00 1966.00 L 275.50 1957.00 L 280.00 1959.25 L 284.50 1957.00 Z" fill="#ff8000" stroke="#ff8000" stroke-width="3" stroke-miterlimit="10"/>
    </g>
    <g class="edge" data-edge-idx="21" data-edge-base="expresses" data-edge-from="6" data-edge-to="3">
    <line x1="219.24" y1="395.93" x2="162.06" y2="689.45" stroke="#6c8ebf" stroke-width="3" stroke-dasharray="9 6" />
    <path d="M 160.76 696.07 L 158.07 686.38 L 162.06 689.45 L 166.90 688.10 Z" fill="#6c8ebf" stroke="#6c8ebf" stroke-width="3" stroke-miterlimit="10"/>
    <text x="190" y="542" text-anchor="middle" dominant-baseline="middle" font-family="Helvetica,Inter,Segoe UI,Arial" font-size="11" paint-order="stroke" stroke="#ffffff" stroke-width="3" stroke-linejoin="round" fill="#6c8ebf">has id</text>
    </g>
  </g>
  <g id="nodes">
    <rect x="40" y="470" width="120" height="60" rx="6" ry="6" fill="#d5e8d4" stroke="#82b366" stroke-width="2"/>
    <text x="100" y="500" text-anchor="middle" dominant-baseline="middle" font-family="Helvetica,Inter,Segoe UI,Arial" font-size="16" font-weight="normal" fill="#009900">1</text>
    <rect x="40" y="970" width="120" height="60" rx="6" ry="6" fill="#d5e8d4" stroke="#82b366" stroke-width="2"/>
    <text x="100" y="1000" text-anchor="middle" dominant-baseline="middle" font-family="Helvetica,Inter,Segoe UI,Arial" font-size="16" font-weight="normal" fill="#009900">alice</text>
    <rect x="40" y="1070" width="120" height="60" rx="6" ry="6" fill="#d5e8d4" stroke="#82b366" stroke-width="2"/>
    <text x="100" y="1090" text-anchor="middle" dominant-baseline="middle" font-family="Helvetica,Inter,Segoe UI,Arial" font-size="16" font-weight="normal" fill="#009900">alice@exampl</text>
    <text x="100" y="1110" text-anchor="middle" dominant-baseline="middle" font-family="Helvetica,Inter,Segoe UI,Arial" font-size="16" font-weight="normal" fill="#009900">e.com</text>
    <rect x="40" y="1170" width="120" height="60" rx="6" ry="6" fill="#d5e8d4" stroke="#82b366" stroke-width="2"/>
    <text x="100" y="1200" text-anchor="middle" dominant-baseline="middle" font-family="Helvetica,Inter,Segoe UI,Arial" font-size="16" font-weight="normal" fill="#009900">bob</text>
    <rect x="40" y="1270" width="120" height="60" rx="6" ry="6" fill="#d5e8d4" stroke="#82b366" stroke-width="2"/>
    <text x="100" y="1290" text-anchor="middle" dominant-baseline="middle" font-family="Helvetica,Inter,Segoe UI,Arial" font-size="16" font-weight="normal" fill="#009900">bob@example.</text>
    <text x="100" y="1310" text-anchor="middle" dominant-baseline="middle" font-family="Helvetica,Inter,Segoe UI,Arial" font-size="16" font-weight="normal" fill="#009900">com</text>
    <rect x="40" y="1370" width="120" height="60" rx="6" ry="6" fill="#d5e8d4" stroke="#82b366" stroke-width="2"/>
    <text x="100" y="1400" text-anchor="middle" dominant-baseline="middle" font-family="Helvetica,Inter,Segoe UI,Arial" font-size="16" font-weight="normal" fill="#009900">clarice</text>
    <rect x="40" y="1470" width="120" height="60" rx="6" ry="6" fill="#d5e8d4" stroke="#82b366" stroke-width="2"/>
    <text x="100" y="1490" text-anchor="middle" dominant-baseline="middle" font-family="Helvetica,Inter,Segoe UI,Arial" font-size="16" font-weight="normal" fill="#009900">clarice@exam</text>
    <text x="100" y="1510" text-anchor="middle" dominant-baseline="middle" font-family="Helvetica,Inter,Segoe UI,Arial" font-size="16" font-weight="normal" fill="#009900">ple.com</text>
    <rect x="40" y="1570" width="120" height="60" rx="6" ry="6" fill="#d5e8d4" stroke="#82b366" stroke-width="2"/>
    <text x="100" y="1600" text-anchor="middle" dominant-baseline="middle" font-family="Helvetica,Inter,Segoe UI,Arial" font-size="16" font-weight="normal" fill="#009900">inactive</text>
    <rect x="40" y="1670" width="120" height="60" rx="6" ry="6" fill="#d5e8d4" stroke="#82b366" stroke-width="2"/>
    <text x="100" y="1700" text-anchor="middle" dominant-baseline="middle" font-family="Helvetica,Inter,Segoe UI,Arial" font-size="16" font-weight="normal" fill="#009900">scared</text>
    <rect x="40" y="1770" width="120" height="60" rx="6" ry="6" fill="#d5e8d4" stroke="#82b366" stroke-width="2"/>
    <text x="100" y="1800" text-anchor="middle" dominant-baseline="middle" font-family="Helvetica,Inter,Segoe UI,Arial" font-size="16" font-weight="normal" fill="#009900">user</text>
    <rect x="40" y="1870" width="120" height="60" rx="6" ry="6" fill="#d5e8d4" stroke="#82b366" stroke-width="2"/>
    <text x="100" y="1900" text-anchor="middle" dominant-baseline="middle" font-family="Helvetica,Inter,Segoe UI,Arial" font-size="16" font-weight="normal" fill="#009900">victim</text>
    <rect x="40" y="570" width="120" height="60" rx="6" ry="6" fill="#d5e8d4" stroke="#82b366" stroke-width="2"/>
    <text x="100" y="600" text-anchor="middle" dominant-baseline="middle" font-family="Helvetica,Inter,Segoe UI,Arial" font-size="16" font-weight="normal" fill="#009900">2</text>
    <rect x="260" y="40" width="40" height="40" rx="4" ry="4" fill="#ffe6cc" stroke="#ff8000" stroke-width="2"/>
    <text x="280" y="60" text-anchor="middle" dominant-baseline="middle" font-family="Helvetica,Inter,Segoe UI,Arial" font-size="16" font-weight="bold" fill="#ff8000">S</text>
    <rect x="260" y="1970" width="40" height="40" rx="4" ry="4" fill="#ffe6cc" stroke="#ff8000" stroke-width="2"/>
    <text x="280" y="1990" text-anchor="middle" dominant-baseline="middle" font-family="Helvetica,Inter,Segoe UI,Arial" font-size="16" font-weight="bold" fill="#ff8000">E</text>
    <rect x="40" y="670" width="120" height="60" rx="6" ry="6" fill="#d5e8d4" stroke="#82b366" stroke-width="2"/>
    <text x="100" y="700" text-anchor="middle" dominant-baseline="middle" font-family="Helvetica,Inter,Segoe UI,Arial" font-size="16" font-weight="normal" fill="#009900">3</text>
    <rect x="220" y="130" width="120" height="60" rx="6" ry="6" fill="#ffe6cc" stroke="#ff8000" stroke-width="2"/>
    <text x="280" y="160" text-anchor="middle" dominant-baseline="middle" font-family="Helvetica,Inter,Segoe UI,Arial" font-size="16" font-weight="bold" fill="#ff8000">User 1</text>
    <rect x="220" y="260" width="120" height="60" rx="6" ry="6" fill="#ffe6cc" stroke="#ff8000" stroke-width="2"/>
    <text x="280" y="290" text-anchor="middle" dominant-baseline="middle" font-family="Helvetica,Inter,Segoe UI,Arial" font-size="16" font-weight="bold" fill="#ff8000">User 2</text>
    <rect x="220" y="380" width="120" height="60" rx="6" ry="6" fill="#ffe6cc" stroke="#ff8000" stroke-width="2"/>
    <text x="280" y="410" text-anchor="middle" dominant-baseline="middle" font-family="Helvetica,Inter,Segoe UI,Arial" font-size="16" font-weight="bold" fill="#ff8000">User 3</text>
    <rect x="400" y="120" width="120" height="80" rx="6" ry="6" fill="#ececec" stroke="#9e9e9e" stroke-width="2"/>
    <text x="460" y="135" text-anchor="middle" dominant-baseline="middle" font-family="Helvetica,Inter,Segoe UI,Arial" font-size="14" font-weight="normal" fill="#616161">User array for</text>
    <text x="460" y="152" text-anchor="middle" dominant-baseline="middle" font-family="Helvetica,Inter,Segoe UI,Arial" font-size="14" font-weight="normal" fill="#616161">&#34;Example</text>
    <text x="460" y="168" text-anchor="middle" dominant-baseline="middle" font-family="Helvetica,Inter,Segoe UI,Arial" font-size="14" font-weight="normal" fill="#616161">API</text>
    <text x="460" y="185" text-anchor="middle" dominant-baseline="middle" font-family="Helvetica,Inter,Segoe UI,Arial" font-size="14" font-weight="normal" fill="#616161">Response&#34;</text>
    <rect x="40" y="770" width="120" height="60" rx="6" ry="6" fill="#d5e8d4" stroke="#82b366" stroke-width="2"/>
    <text x="100" y="800" text-anchor="middle" dominant-baseline="middle" font-family="Helvetica,Inter,Segoe UI,Arial" font-size="16" font-weight="normal" fill="#009900">active</text>
    <rect x="40" y="870" width="120" height="60" rx="6" ry="6" fill="#d5e8d4" stroke="#82b366" stroke-width="2"/>
    <text x="100" y="900" text-anchor="middle" dominant-baseline="middle" font-family="Helvetica,Inter,Segoe UI,Arial" font-size="16" font-weight="normal" fill="#009900">admin</text>
  </g>
</svg>
