<?xml version="1.0" encoding="UTF-8"?>
<svg xmlns="http://www.w3.org/2000/svg" width="1100" height="1580" viewBox="0 0 1100 1580">
  <defs>
  </defs>
  <g id="container-shells">
  </g>
  <g id="node-shadows">
    <rect x="400" y="760" width="120" height="60" rx="6" ry="6" fill="#000000" stroke="#000000" stroke-width="2" opacity="0.25" transform="translate(2,3)"/>
    <rect x="940" y="1240" width="120" height="60" rx="6" ry="6" fill="#000000" stroke="#000000" stroke-width="2" opacity="0.25" transform="translate(2,3)"/>
    <rect x="940" y="560" width="120" height="60" rx="6" ry="6" fill="#000000" stroke="#000000" stroke-width="2" opacity="0.25" transform="translate(2,3)"/>
    <rect x="940" y="1320" width="120" height="60" rx="6" ry="6" fill="#000000" stroke="#000000" stroke-width="2" opacity="0.25" transform="translate(2,3)"/>
    <rect x="760" y="120" width="120" height="60" rx="6" ry="6" fill="#000000" stroke="#000000" stroke-width="2" opacity="0.25" transform="translate(2,3)"/>
    <rect x="760" y="220" width="120" height="60" rx="6" ry="6" fill="#000000" stroke="#000000" stroke-width="2" opacity="0.25" transform="translate(2,3)"/>
    <rect x="940" y="720" width="120" height="60" rx="6" ry="6" fill="#000000" stroke="#000000" stroke-width="2" opacity="0.25" transform="translate(2,3)"/>
    <rect x="940" y="890" width="120" height="60" rx="6" ry="6" fill="#000000" stroke="#000000" stroke-width="2" opacity="0.25" transform="translate(2,3)"/>
    <rect x="40" y="660" width="120" height="60" rx="6" ry="6" fill="#000000" stroke="#000000" stroke-width="2" opacity="0.25" transform="translate(2,3)"/>
    <rect x="40" y="760" width="120" height="60" rx="6" ry="6" fill="#000000" stroke="#000000" stroke-width="2" opacity="0.25" transform="translate(2,3)"/>
    <rect x="760" y="490" width="120" height="60" rx="6" ry="6" fill="#000000" stroke="#000000" stroke-width="2" opacity="0.25" transform="translate(2,3)"/>
    <rect x="220" y="760" width="120" height="60" rx="6" ry="6" fill="#000000" stroke="#000000" stroke-width="2" opacity="0.25" transform="translate(2,3)"/>
    <rect x="940" y="960" width="120" height="60" rx="6" ry="6" fill="#000000" stroke="#000000" stroke-width="2" opacity="0.25" transform="translate(2,3)"/>
    <rect x="940" y="1400" width="120" height="60" rx="6" ry="6" fill="#000000" stroke="#000000" stroke-width="2" opacity="0.25" transform="translate(2,3)"/>
    <rect x="40" y="860" width="120" height="60" rx="6" ry="6" fill="#000000" stroke="#000000" stroke-width="2" opacity="0.25" transform="translate(2,3)"/>
    <rect x="260" y="40" width="40" height="40" rx="4" ry="4" fill="#000000" stroke="#000000" stroke-width="2" opacity="0.25" transform="translate(2,3)"/>
    <rect x="260" y="1500" width="40" height="40" rx="4" ry="4" fill="#000000" stroke="#000000" stroke-width="2" opacity="0.25" transform="translate(2,3)"/>
    <rect x="580" y="220" width="120" height="60" rx="6" ry="6" fill="#000000" stroke="#000000" stroke-width="2" opacity="0.25" transform="translate(2,3)"/>
    <rect x="760" y="610" width="120" height="60" rx="6" ry="6" fill="#000000" stroke="#000000" stroke-width="2" opacity="0.25" transform="translate(2,3)"/>
    <rect x="760" y="1170" width="120" height="60" rx="6" ry="6" fill="#000000" stroke="#000000" stroke-width="2" opacity="0.25" transform="translate(2,3)"/>
    <rect x="580" y="870" width="120" height="80" rx="6" ry="6" fill="#000000" stroke="#000000" stroke-width="2" opacity="0.25" transform="translate(2,3)"/>
    <rect x="940" y="1080" width="120" height="60" rx="6" ry="6" fill="#000000" stroke="#000000" stroke-width="2" opacity="0.25" transform="translate(2,3)"/>
    <rect x="940" y="360" width="120" height="60" rx="6" ry="6" fill="#000000" stroke="#000000" stroke-width="2" opacity="0.25" transform="translate(2,3)"/>
    <rect x="940" y="460" width="120" height="60" rx="6" ry="6" fill="#000000" stroke="#000000" stroke-width="2" opacity="0.25" transform="translate(2,3)"/>
  </g>
  <g id="edges">
    <g class="edge" data-edge-idx="0" data-edge-base="partof" data-edge-from="1" data-edge-to="2">
    <line x1="395.00" y1="790.00" x2="351.75" y2="790.00" stroke="#82b366" stroke-width="3" />
    <path d="M 345.00 790.00 L 354.00 785.50 L 351.75 790.00 L 354.00 794.50 Z" fill="#82b366" stroke="#82b366" stroke-width="3" stroke-miterlimit="10"/>
    </g>
    <g class="edge" data-edge-idx="1" data-edge-base="partof" data-edge-from="10" data-edge-to="5">
    <line x1="935.00" y1="1264.17" x2="889.39" y2="1210.96" stroke="#82b366" stroke-width="3" />
    <path d="M 885.00 1205.83 L 894.27 1209.74 L 889.39 1210.96 L 887.44 1215.60 Z" fill="#82b366" stroke="#82b366" stroke-width="3" stroke-miterlimit="10"/>
    </g>
    <g class="edge" data-edge-idx="2" data-edge-base="partof" data-edge-from="11" data-edge-to="4">
    <line x1="935.00" y1="593.83" x2="890.36" y2="628.06" stroke="#82b366" stroke-width="3" />
    <path d="M 885.00 632.17 L 889.40 623.12 L 890.36 628.06 L 894.88 630.26 Z" fill="#82b366" stroke="#82b366" stroke-width="3" stroke-miterlimit="10"/>
    </g>
    <g class="edge" data-edge-idx="3" data-edge-base="partof" data-edge-from="12" data-edge-to="5">
    <line x1="935.00" y1="1338.17" x2="887.63" y2="1226.05" stroke="#82b366" stroke-width="3" />
    <path d="M 885.00 1219.83 L 892.65 1226.37 L 887.63 1226.05 L 884.36 1229.88 Z" fill="#82b366" stroke="#82b366" stroke-width="3" stroke-miterlimit="10"/>
    </g>
    <g class="edge" data-edge-idx="4" data-edge-base="partof" data-edge-from="13" data-edge-to="3">
    <line x1="755.00" y1="157.33" x2="708.80" y2="225.09" stroke="#82b366" stroke-width="3" />
    <path d="M 705.00 230.67 L 706.35 220.70 L 708.80 225.09 L 713.79 225.77 Z" fill="#82b366" stroke="#82b366" stroke-width="3" stroke-miterlimit="10"/>
    </g>
    <g class="edge" data-edge-idx="5" data-edge-base="partof" data-edge-from="14" data-edge-to="3">
    <line x1="755.00" y1="250.00" x2="711.75" y2="250.00" stroke="#82b366" stroke-width="3" />
    <path d="M 705.00 250.00 L 714.00 245.50 L 711.75 250.00 L 714.00 254.50 Z" fill="#82b366" stroke="#82b366" stroke-width="3" stroke-miterlimit="10"/>
    </g>
    <g class="edge" data-edge-idx="6" data-edge-base="partof" data-edge-from="15" data-edge-to="4">
    <line x1="935.00" y1="741.08" x2="888.30" y2="657.80" stroke="#82b366" stroke-width="3" />
    <path d="M 885.00 651.92 L 893.33 657.57 L 888.30 657.80 L 885.48 661.97 Z" fill="#82b366" stroke="#82b366" stroke-width="3" stroke-miterlimit="10"/>
    </g>
    <g class="edge" data-edge-idx="7" data-edge-base="partof" data-edge-from="16" data-edge-to="4">
    <line x1="936.42" y1="895.41" x2="885.10" y2="672.17" stroke="#82b366" stroke-width="3" />
    <path d="M 883.58 665.59 L 889.99 673.36 L 885.10 672.17 L 881.22 675.37 Z" fill="#82b366" stroke="#82b366" stroke-width="3" stroke-miterlimit="10"/>
    </g>
    <g class="edge" data-edge-idx="8" data-edge-base="partof" data-edge-from="16" data-edge-to="5">
    <line x1="936.31" y1="944.57" x2="885.25" y2="1159.86" stroke="#82b366" stroke-width="3" />
    <path d="M 883.69 1166.43 L 881.39 1156.64 L 885.25 1159.86 L 890.15 1158.71 Z" fill="#82b366" stroke="#82b366" stroke-width="3" stroke-miterlimit="10"/>
    </g>
    <g class="edge" data-edge-idx="9" data-edge-base="partof" data-edge-from="17" data-edge-to="2">
    <line x1="165.00" y1="697.33" x2="211.20" y2="765.09" stroke="#82b366" stroke-width="3" />
    <path d="M 215.00 770.67 L 206.21 765.77 L 211.20 765.09 L 213.65 760.70 Z" fill="#82b366" stroke="#82b366" stroke-width="3" stroke-miterlimit="10"/>
    </g>
    <g class="edge" data-edge-idx="10" data-edge-base="partof" data-edge-from="18" data-edge-to="2">
    <line x1="165.00" y1="790.00" x2="208.25" y2="790.00" stroke="#82b366" stroke-width="3" />
    <path d="M 215.00 790.00 L 206.00 794.50 L 208.25 790.00 L 206.00 785.50 Z" fill="#82b366" stroke="#82b366" stroke-width="3" stroke-miterlimit="10"/>
    </g>
    <g class="edge" data-edge-idx="11" data-edge-base="partof" data-edge-from="19" data-edge-to="3">
    <line x1="756.38" y1="504.42" x2="705.15" y2="284.16" stroke="#82b366" stroke-width="3" />
    <path d="M 703.62 277.58 L 710.05 285.33 L 705.15 284.16 L 701.28 287.37 Z" fill="#82b366" stroke="#82b366" stroke-width="3" stroke-miterlimit="10"/>
    </g>
    <g class="edge" data-edge-idx="12" data-edge-base="leadsto" data-edge-from="2" data-edge-to="24">
    <line x1="280.00" y1="825.00" x2="280.00" y2="1488.25" stroke="#ff8000" stroke-width="3" />
    <path d="M 280.00 1495.00 L 275.50 1486.00 L 280.00 1488.25 L 284.50 1486.00 Z" fill="#ff8000" stroke="#ff8000" stroke-width="3" stroke-miterlimit="10"/>
    </g>
    <g class="edge" data-edge-idx="13" data-edge-base="partof" data-edge-from="20" data-edge-to="4">
    <line x1="937.15" y1="974.26" x2="884.05" y2="680.39" stroke="#82b366" stroke-width="3" />
    <path d="M 882.85 673.74 L 888.87 681.80 L 884.05 680.39 L 880.02 683.40 Z" fill="#82b366" stroke="#82b366" stroke-width="3" stroke-miterlimit="10"/>
    </g>
    <g class="edge" data-edge-idx="14" data-edge-base="partof" data-edge-from="21" data-edge-to="5">
    <line x1="935.64" y1="1414.60" x2="886.20" y2="1239.89" stroke="#82b366" stroke-width="3" />
    <path d="M 884.36 1233.40 L 891.14 1240.83 L 886.20 1239.89 L 882.48 1243.28 Z" fill="#82b366" stroke="#82b366" stroke-width="3" stroke-miterlimit="10"/>
    </g>
    <g class="edge" data-edge-idx="15" data-edge-base="partof" data-edge-from="22" data-edge-to="2">
    <line x1="165.00" y1="882.67" x2="211.20" y2="814.91" stroke="#82b366" stroke-width="3" />
    <path d="M 215.00 809.33 L 213.65 819.30 L 211.20 814.91 L 206.21 814.23 Z" fill="#82b366" stroke="#82b366" stroke-width="3" stroke-miterlimit="10"/>
    </g>
    <g class="edge" data-edge-idx="16" data-edge-base="leadsto" data-edge-from="23" data-edge-to="2">
    <line x1="280.00" y1="85.00" x2="280.00" y2="748.25" stroke="#ff8000" stroke-width="3" />
    <path d="M 280.00 755.00 L 275.50 746.00 L 280.00 748.25 L 284.50 746.00 Z" fill="#ff8000" stroke="#ff8000" stroke-width="3" stroke-miterlimit="10"/>
    </g>
    <g class="edge" data-edge-idx="17" data-edge-base="partof" data-edge-from="3" data-edge-to="1">
    <line x1="578.20" y1="265.90" x2="522.55" y2="758.39" stroke="#82b366" stroke-width="3" />
    <path d="M 521.80 765.10 L 518.34 755.65 L 522.55 758.39 L 527.28 756.66 Z" fill="#82b366" stroke="#82b366" stroke-width="3" stroke-miterlimit="10"/>
    </g>
    <g class="edge" data-edge-idx="18" data-edge-base="partof" data-edge-from="4" data-edge-to="6">
    <line x1="756.38" y1="655.58" x2="705.15" y2="875.84" stroke="#82b366" stroke-width="3" />
    <path d="M 703.62 882.42 L 701.28 872.63 L 705.15 875.84 L 710.05 874.67 Z" fill="#82b366" stroke="#82b366" stroke-width="3" stroke-miterlimit="10"/>
    </g>
    <g class="edge" data-edge-idx="19" data-edge-base="partof" data-edge-from="5" data-edge-to="6">
    <line x1="756.62" y1="1184.36" x2="704.80" y2="944.24" stroke="#82b366" stroke-width="3" />
    <path d="M 703.38 937.64 L 709.67 945.49 L 704.80 944.24 L 700.88 947.39 Z" fill="#82b366" stroke="#82b366" stroke-width="3" stroke-miterlimit="10"/>
    </g>
    <g class="edge" data-edge-idx="20" data-edge-base="partof" data-edge-from="6" data-edge-to="1">
    <line x1="575.00" y1="900.75" x2="528.21" y2="814.19" stroke="#82b366" stroke-width="3" />
    <path d="M 525.00 808.25 L 533.24 814.03 L 528.21 814.19 L 525.32 818.31 Z" fill="#82b366" stroke="#82b366" stroke-width="3" stroke-miterlimit="10"/>
    </g>
    <g class="edge" data-edge-idx="21" data-edge-base="partof" data-edge-from="7" data-edge-to="5">
    <line x1="935.00" y1="1116.75" x2="889.02" y2="1178.83" stroke="#82b366" stroke-width="3" />
    <path d="M 885.00 1184.25 L 886.74 1174.34 L 889.02 1178.83 L 893.97 1179.70 Z" fill="#82b366" stroke="#82b366" stroke-width="3" stroke-miterlimit="10"/>
    </g>
    <g class="edge" data-edge-idx="22" data-edge-base="partof" data-edge-from="8" data-edge-to="4">
    <line x1="935.99" y1="405.49" x2="885.70" y2="599.97" stroke="#82b366" stroke-width="3" />
    <path d="M 884.01 606.51 L 881.90 596.67 L 885.70 599.97 L 890.62 598.92 Z" fill="#82b366" stroke="#82b366" stroke-width="3" stroke-miterlimit="10"/>
    </g>
    <g class="edge" data-edge-idx="23" data-edge-base="partof" data-edge-from="9" data-edge-to="4">
    <line x1="935.00" y1="501.58" x2="887.68" y2="611.22" stroke="#82b366" stroke-width="3" />
    <path d="M 885.00 617.42 L 884.44 607.37 L 887.68 611.22 L 892.70 610.94 Z" fill="#82b366" stroke="#82b366" stroke-width="3" stroke-miterlimit="10"/>
    </g>
  </g>
  <g id="nodes">
    <rect x="400" y="760" width="120" height="60" rx="6" ry="6" fill="#ececec" stroke="#9e9e9e" stroke-width="2" stroke-dasharray="6 4"/>
    <text x="460" y="765" text-anchor="middle" dominant-baseline="middle" font-family="Helvetica,Inter,Segoe UI,Arial" font-size="14" font-weight="normal" fill="#616161">Data for</text>
    <text x="460" y="782" text-anchor="middle" dominant-baseline="middle" font-family="Helvetica,Inter,Segoe UI,Arial" font-size="14" font-weight="normal" fill="#616161">&#34;Example</text>
    <text x="460" y="798" text-anchor="middle" dominant-baseline="middle" font-family="Helvetica,Inter,Segoe UI,Arial" font-size="14" font-weight="normal" fill="#616161">API</text>
    <text x="460" y="815" text-anchor="middle" dominant-baseline="middle" font-family="Helvetica,Inter,Segoe UI,Arial" font-size="14" font-weight="normal" fill="#616161">Response&#34;</text>
    <rect x="473" y="803" width="12" height="12" rx="2" ry="2" fill="#ffe6cc" stroke="#ff8000" stroke-width="2"/>
    <text x="479.0" y="809.0" text-anchor="middle" dominant-baseline="central" font-size="8" fill="#ff8000">e</text>
    <rect x="488" y="803" width="12" height="12" rx="2" ry="2" fill="#d5e8d4" stroke="#82b366" stroke-width="1"/>
    <text x="494.0" y="809.0" text-anchor="middle" dominant-baseline="central" font-size="8" fill="#009900">t</text>
    <rect x="503" y="803" width="12" height="12" rx="2" ry="2" fill="#dae8fc" stroke="#6c8ebf" stroke-width="1"/>
    <text x="509.0" y="809.0" text-anchor="middle" dominant-baseline="central" font-size="8" fill="#3399ff">c</text>
    <rect x="940" y="1240" width="120" height="60" rx="6" ry="6" fill="#d5e8d4" stroke="#82b366" stroke-width="2"/>
    <text x="1000" y="1251" text-anchor="middle" dominant-baseline="middle" font-family="Helvetica,Inter,Segoe UI,Arial" font-size="16" font-weight="normal" fill="#009900">email =</text>
    <text x="1000" y="1270" text-anchor="middle" dominant-baseline="middle" font-family="Helvetica,Inter,Segoe UI,Arial" font-size="16" font-weight="normal" fill="#009900">bob@example.</text>
    <text x="1000" y="1289" text-anchor="middle" dominant-baseline="middle" font-family="Helvetica,Inter,Segoe UI,Arial" font-size="16" font-weight="normal" fill="#009900">com</text>
    <rect x="940" y="560" width="120" height="60" rx="6" ry="6" fill="#d5e8d4" stroke="#82b366" stroke-width="2"/>
    <text x="1000" y="590" text-anchor="middle" dominant-baseline="middle" font-family="Helvetica,Inter,Segoe UI,Arial" font-size="16" font-weight="normal" fill="#009900">id = 1</text>
    <rect x="940" y="1320" width="120" height="60" rx="6" ry="6" fill="#d5e8d4" stroke="#82b366" stroke-width="2"/>
    <text x="1000" y="1350" text-anchor="middle" dominant-baseline="middle" font-family="Helvetica,Inter,Segoe UI,Arial" font-size="16" font-weight="normal" fill="#009900">id = 2</text>
    <rect x="760" y="120" width="120" height="60" rx="6" ry="6" fill="#d5e8d4" stroke="#82b366" stroke-width="2"/>
    <text x="820" y="150" text-anchor="middle" dominant-baseline="middle" font-family="Helvetica,Inter,Segoe UI,Arial" font-size="16" font-weight="normal" fill="#009900">limit = 10</text>
    <rect x="760" y="220" width="120" height="60" rx="6" ry="6" fill="#d5e8d4" stroke="#82b366" stroke-width="2"/>
    <text x="820" y="240" text-anchor="middle" dominant-baseline="middle" font-family="Helvetica,Inter,Segoe UI,Arial" font-size="16" font-weight="normal" fill="#009900">page number</text>
    <text x="820" y="260" text-anchor="middle" dominant-baseline="middle" font-family="Helvetica,Inter,Segoe UI,Arial" font-size="16" font-weight="normal" fill="#009900">= 1</text>
    <rect x="940" y="720" width="120" height="60" rx="6" ry="6" fill="#d5e8d4" stroke="#82b366" stroke-width="2"/>
    <text x="1000" y="750" text-anchor="middle" dominant-baseline="middle" font-family="Helvetica,Inter,Segoe UI,Arial" font-size="16" font-weight="normal" fill="#009900">role = admin</text>
    <rect x="940" y="890" width="120" height="60" rx="6" ry="6" fill="#d5e8d4" stroke="#82b366" stroke-width="2"/>
    <text x="1000" y="920" text-anchor="middle" dominant-baseline="middle" font-family="Helvetica,Inter,Segoe UI,Arial" font-size="16" font-weight="normal" fill="#009900">role = user</text>
    <rect x="40" y="660" width="120" height="60" rx="6" ry="6" fill="#d5e8d4" stroke="#82b366" stroke-width="2"/>
    <text x="100" y="680" text-anchor="middle" dominant-baseline="middle" font-family="Helvetica,Inter,Segoe UI,Arial" font-size="16" font-weight="normal" fill="#009900">status =</text>
    <text x="100" y="700" text-anchor="middle" dominant-baseline="middle" font-family="Helvetica,Inter,Segoe UI,Arial" font-size="16" font-weight="normal" fill="#009900">success</text>
    <rect x="40" y="760" width="120" height="60" rx="6" ry="6" fill="#d5e8d4" stroke="#82b366" stroke-width="2"/>
    <text x="100" y="773" text-anchor="middle" dominant-baseline="middle" font-family="Helvetica,Inter,Segoe UI,Arial" font-size="14" font-weight="normal" fill="#009900">timestamp =</text>
    <text x="100" y="790" text-anchor="middle" dominant-baseline="middle" font-family="Helvetica,Inter,Segoe UI,Arial" font-size="14" font-weight="normal" fill="#009900">&#34;2025-10-17T</text>
    <text x="100" y="807" text-anchor="middle" dominant-baseline="middle" font-family="Helvetica,Inter,Segoe UI,Arial" font-size="14" font-weight="normal" fill="#009900">14:30:00Z&#34;</text>
    <rect x="760" y="490" width="120" height="60" rx="6" ry="6" fill="#d5e8d4" stroke="#82b366" stroke-width="2"/>
    <text x="820" y="520" text-anchor="middle" dominant-baseline="middle" font-family="Helvetica,Inter,Segoe UI,Arial" font-size="16" font-weight="normal" fill="#009900">total = 2</text>
    <rect x="220" y="760" width="120" height="60" rx="6" ry="6" fill="#ececec" stroke="#9e9e9e" stroke-width="2" stroke-dasharray="6 4"/>
    <text x="280" y="780" text-anchor="middle" dominant-baseline="middle" font-family="Helvetica,Inter,Segoe UI,Arial" font-size="16" font-weight="normal" fill="#616161">Example API</text>
    <text x="280" y="800" text-anchor="middle" dominant-baseline="middle" font-family="Helvetica,Inter,Segoe UI,Arial" font-size="16" font-weight="normal" fill="#616161">Response</text>
    <rect x="293" y="803" width="12" height="12" rx="2" ry="2" fill="#ffe6cc" stroke="#ff8000" stroke-width="2"/>
    <text x="299.0" y="809.0" text-anchor="middle" dominant-baseline="central" font-size="8" fill="#ff8000">e</text>
    <rect x="308" y="803" width="12" height="12" rx="2" ry="2" fill="#d5e8d4" stroke="#82b366" stroke-width="1"/>
    <text x="314.0" y="809.0" text-anchor="middle" dominant-baseline="central" font-size="8" fill="#009900">t</text>
    <rect x="323" y="803" width="12" height="12" rx="2" ry="2" fill="#dae8fc" stroke="#6c8ebf" stroke-width="1"/>
    <text x="329.0" y="809.0" text-anchor="middle" dominant-baseline="central" font-size="8" fill="#3399ff">c</text>
    <rect x="940" y="960" width="120" height="60" rx="6" ry="6" fill="#d5e8d4" stroke="#82b366" stroke-width="2"/>
    <text x="1000" y="980" text-anchor="middle" dominant-baseline="middle" font-family="Helvetica,Inter,Segoe UI,Arial" font-size="16" font-weight="normal" fill="#009900">username =</text>
    <text x="1000" y="1000" text-anchor="middle" dominant-baseline="middle" font-family="Helvetica,Inter,Segoe UI,Arial" font-size="16" font-weight="normal" fill="#009900">alice</text>
    <rect x="940" y="1400" width="120" height="60" rx="6" ry="6" fill="#d5e8d4" stroke="#82b366" stroke-width="2"/>
    <text x="1000" y="1420" text-anchor="middle" dominant-baseline="middle" font-family="Helvetica,Inter,Segoe UI,Arial" font-size="16" font-weight="normal" fill="#009900">username =</text>
    <text x="1000" y="1440" text-anchor="middle" dominant-baseline="middle" font-family="Helvetica,Inter,Segoe UI,Arial" font-size="16" font-weight="normal" fill="#009900">bob</text>
    <rect x="40" y="860" width="120" height="60" rx="6" ry="6" fill="#d5e8d4" stroke="#82b366" stroke-width="2"/>
    <text x="100" y="880" text-anchor="middle" dominant-baseline="middle" font-family="Helvetica,Inter,Segoe UI,Arial" font-size="16" font-weight="normal" fill="#009900">version =</text>
    <text x="100" y="900" text-anchor="middle" dominant-baseline="middle" font-family="Helvetica,Inter,Segoe UI,Arial" font-size="16" font-weight="normal" fill="#009900">1.0.0</text>
    <rect x="260" y="40" width="40" height="40" rx="4" ry="4" fill="#ffe6cc" stroke="#ff8000" stroke-width="2"/>
    <text x="280" y="60" text-anchor="middle" dominant-baseline="middle" font-family="Helvetica,Inter,Segoe UI,Arial" font-size="16" font-weight="bold" fill="#ff8000">S</text>
    <rect x="260" y="1500" width="40" height="40" rx="4" ry="4" fill="#ffe6cc" stroke="#ff8000" stroke-width="2"/>
    <text x="280" y="1520" text-anchor="middle" dominant-baseline="middle" font-family="Helvetica,Inter,Segoe UI,Arial" font-size="16" font-weight="bold" fill="#ff8000">E</text>
    <rect x="580" y="220" width="120" height="60" rx="6" ry="6" fill="#ececec" stroke="#9e9e9e" stroke-width="2" stroke-dasharray="6 4"/>
    <text x="640" y="225" text-anchor="middle" dominant-baseline="middle" font-family="Helvetica,Inter,Segoe UI,Arial" font-size="14" font-weight="normal" fill="#616161">Metadata for</text>
    <text x="640" y="242" text-anchor="middle" dominant-baseline="middle" font-family="Helvetica,Inter,Segoe UI,Arial" font-size="14" font-weight="normal" fill="#616161">&#34;Example</text>
    <text x="640" y="258" text-anchor="middle" dominant-baseline="middle" font-family="Helvetica,Inter,Segoe UI,Arial" font-size="14" font-weight="normal" fill="#616161">API</text>
    <text x="640" y="275" text-anchor="middle" dominant-baseline="middle" font-family="Helvetica,Inter,Segoe UI,Arial" font-size="14" font-weight="normal" fill="#616161">Response&#34;</text>
    <rect x="653" y="263" width="12" height="12" rx="2" ry="2" fill="#ffe6cc" stroke="#ff8000" stroke-width="2"/>
    <text x="659.0" y="269.0" text-anchor="middle" dominant-baseline="central" font-size="8" fill="#ff8000">e</text>
    <rect x="668" y="263" width="12" height="12" rx="2" ry="2" fill="#d5e8d4" stroke="#82b366" stroke-width="1"/>
    <text x="674.0" y="269.0" text-anchor="middle" dominant-baseline="central" font-size="8" fill="#009900">t</text>
    <rect x="683" y="263" width="12" height="12" rx="2" ry="2" fill="#dae8fc" stroke="#6c8ebf" stroke-width="1"/>
    <text x="689.0" y="269.0" text-anchor="middle" dominant-baseline="central" font-size="8" fill="#3399ff">c</text>
    <rect x="760" y="610" width="120" height="60" rx="6" ry="6" fill="#ececec" stroke="#9e9e9e" stroke-width="2" stroke-dasharray="6 4"/>
    <text x="820" y="640" text-anchor="middle" dominant-baseline="middle" font-family="Helvetica,Inter,Segoe UI,Arial" font-size="16" font-weight="normal" fill="#616161">User 1</text>
    <rect x="833" y="653" width="12" height="12" rx="2" ry="2" fill="#ffe6cc" stroke="#ff8000" stroke-width="2"/>
    <text x="839.0" y="659.0" text-anchor="middle" dominant-baseline="central" font-size="8" fill="#ff8000">e</text>
    <rect x="848" y="653" width="12" height="12" rx="2" ry="2" fill="#d5e8d4" stroke="#82b366" stroke-width="1"/>
    <text x="854.0" y="659.0" text-anchor="middle" dominant-baseline="central" font-size="8" fill="#009900">t</text>
    <rect x="863" y="653" width="12" height="12" rx="2" ry="2" fill="#dae8fc" stroke="#6c8ebf" stroke-width="1"/>
    <text x="869.0" y="659.0" text-anchor="middle" dominant-baseline="central" font-size="8" fill="#3399ff">c</text>
    <rect x="760" y="1170" width="120" height="60" rx="6" ry="6" fill="#ececec" stroke="#9e9e9e" stroke-width="2" stroke-dasharray="6 4"/>
    <text x="820" y="1200" text-anchor="middle" dominant-baseline="middle" font-family="Helvetica,Inter,Segoe UI,Arial" font-size="16" font-weight="normal" fill="#616161">User 2</text>
    <rect x="833" y="1213" width="12" height="12" rx="2" ry="2" fill="#ffe6cc" stroke="#ff8000" stroke-width="2"/>
    <text x="839.0" y="1219.0" text-anchor="middle" dominant-baseline="central" font-size="8" fill="#ff8000">e</text>
    <rect x="848" y="1213" width="12" height="12" rx="2" ry="2" fill="#d5e8d4" stroke="#82b366" stroke-width="1"/>
    <text x="854.0" y="1219.0" text-anchor="middle" dominant-baseline="central" font-size="8" fill="#009900">t</text>
    <rect x="863" y="1213" width="12" height="12" rx="2" ry="2" fill="#dae8fc" stroke="#6c8ebf" stroke-width="1"/>
    <text x="869.0" y="1219.0" text-anchor="middle" dominant-baseline="central" font-size="8" fill="#3399ff">c</text>
    <rect x="580" y="870" width="120" height="80" rx="6" ry="6" fill="#ececec" stroke="#9e9e9e" stroke-width="2" stroke-dasharray="6 4"/>
    <text x="640" y="885" text-anchor="middle" dominant-baseline="middle" font-family="Helvetica,Inter,Segoe UI,Arial" font-size="14" font-weight="normal" fill="#616161">User array for</text>
    <text x="640" y="902" text-anchor="middle" dominant-baseline="middle" font-family="Helvetica,Inter,Segoe UI,Arial" font-size="14" font-weight="normal" fill="#616161">&#34;Example</text>
    <text x="640" y="918" text-anchor="middle" dominant-baseline="middle" font-family="Helvetica,Inter,Segoe UI,Arial" font-size="14" font-weight="normal" fill="#616161">API</text>
    <text x="640" y="935" text-anchor="middle" dominant-baseline="middle" font-family="Helvetica,Inter,Segoe UI,Arial" font-size="14" font-weight="normal" fill="#616161">Response&#34;</text>
    <rect x="653" y="933" width="12" height="12" rx="2" ry="2" fill="#ffe6cc" stroke="#ff8000" stroke-width="2"/>
    <text x="659.0" y="939.0" text-anchor="middle" dominant-baseline="central" font-size="8" fill="#ff8000">e</text>
    <rect x="668" y="933" width="12" height="12" rx="2" ry="2" fill="#d5e8d4" stroke="#82b366" stroke-width="1"/>
    <text x="674.0" y="939.0" text-anchor="middle" dominant-baseline="central" font-size="8" fill="#009900">t</text>
    <rect x="683" y="933" width="12" height="12" rx="2" ry="2" fill="#dae8fc" stroke="#6c8ebf" stroke-width="1"/>
    <text x="689.0" y="939.0" text-anchor="middle" dominant-baseline="central" font-size="8" fill="#3399ff">c</text>
    <rect x="940" y="1080" width="120" height="60" rx="6" ry="6" fill="#d5e8d4" stroke="#82b366" stroke-width="2"/>
    <text x="1000" y="1100" text-anchor="middle" dominant-baseline="middle" font-family="Helvetica,Inter,Segoe UI,Arial" font-size="16" font-weight="normal" fill="#009900">active =</text>
    <text x="1000" y="1120" text-anchor="middle" dominant-baseline="middle" font-family="Helvetica,Inter,Segoe UI,Arial" font-size="16" font-weight="normal" fill="#009900">false</text>
    <rect x="940" y="360" width="120" height="60" rx="6" ry="6" fill="#d5e8d4" stroke="#82b366" stroke-width="2"/>
    <text x="1000" y="380" text-anchor="middle" dominant-baseline="middle" font-family="Helvetica,Inter,Segoe UI,Arial" font-size="16" font-weight="normal" fill="#009900">active =</text>
    <text x="1000" y="400" text-anchor="middle" dominant-baseline="middle" font-family="Helvetica,Inter,Segoe UI,Arial" font-size="16" font-weight="normal" fill="#009900">true</text>
    <rect x="940" y="460" width="120" height="60" rx="6" ry="6" fill="#d5e8d4" stroke="#82b366" stroke-width="2"/>
    <text x="1000" y="471" text-anchor="middle" dominant-baseline="middle" font-family="Helvetica,Inter,Segoe UI,Arial" font-size="16" font-weight="normal" fill="#009900">email =</text>
    <text x="1000" y="490" text-anchor="middle" dominant-baseline="middle" font-family="Helvetica,Inter,Segoe UI,Arial" font-size="16" font-weight="normal" fill="#009900">alice@exampl</text>
    <text x="1000" y="509" text-anchor="middle" dominant-baseline="middle" font-family="Helvetica,Inter,Segoe UI,Arial" font-size="16" font-weight="normal" fill="#009900">e.com</text>
  </g>
</svg>
