<?xml version="1.0" encoding="UTF-8"?>
<svg xmlns="http://www.w3.org/2000/svg" width="680" height="840" viewBox="0 0 680 840">
  <defs>
  </defs>
  <g id="container-shells">
  </g>
  <g id="node-shadows">
    <rect x="40" y="120" width="120" height="100" rx="6" ry="6" fill="#000000" stroke="#000000" stroke-width="2" opacity="0.25" transform="translate(2,3)"/>
    <rect x="320" y="40" width="40" height="40" rx="4" ry="4" fill="#000000" stroke="#000000" stroke-width="2" opacity="0.25" transform="translate(2,3)"/>
    <rect x="320" y="220" width="40" height="40" rx="4" ry="4" fill="#000000" stroke="#000000" stroke-width="2" opacity="0.25" transform="translate(2,3)"/>
    <rect x="560" y="40" width="40" height="40" rx="4" ry="4" fill="#000000" stroke="#000000" stroke-width="2" opacity="0.25" transform="translate(2,3)"/>
    <rect x="560" y="220" width="40" height="40" rx="4" ry="4" fill="#000000" stroke="#000000" stroke-width="2" opacity="0.25" transform="translate(2,3)"/>
    <rect x="40" y="520" width="120" height="80" rx="6" ry="6" fill="#000000" stroke="#000000" stroke-width="2" opacity="0.25" transform="translate(2,3)"/>
    <rect x="40" y="280" width="120" height="60" rx="6" ry="6" fill="#000000" stroke="#000000" stroke-width="2" opacity="0.25" transform="translate(2,3)"/>
    <rect x="280" y="120" width="120" height="60" rx="6" ry="6" fill="#000000" stroke="#000000" stroke-width="2" opacity="0.25" transform="translate(2,3)"/>
    <rect x="520" y="120" width="120" height="60" rx="6" ry="6" fill="#000000" stroke="#000000" stroke-width="2" opacity="0.25" transform="translate(2,3)"/>
    <rect x="40" y="660" width="120" height="60" rx="6" ry="6" fill="#000000" stroke="#000000" stroke-width="2" opacity="0.25" transform="translate(2,3)"/>
    <rect x="40" y="400" width="120" height="60" rx="6" ry="6" fill="#000000" stroke="#000000" stroke-width="2" opacity="0.25" transform="translate(2,3)"/>
    <rect x="80" y="40" width="40" height="40" rx="4" ry="4" fill="#000000" stroke="#000000" stroke-width="2" opacity="0.25" transform="translate(2,3)"/>
    <rect x="80" y="760" width="40" height="40" rx="4" ry="4" fill="#000000" stroke="#000000" stroke-width="2" opacity="0.25" transform="translate(2,3)"/>
  </g>
  <g id="edges">
    <g class="edge" data-edge-idx="0" data-edge-base="leadsto" data-edge-from="1" data-edge-to="3">
    <line x1="100.00" y1="224.00" x2="100.00" y2="269.25" stroke="#ff8000" stroke-width="3" />
    <path d="M 100.00 276.00 L 95.50 267.00 L 100.00 269.25 L 104.50 267.00 Z" fill="#ff8000" stroke="#ff8000" stroke-width="3" stroke-miterlimit="10"/>
    <text x="100" y="246" text-anchor="middle" dominant-baseline="middle" font-family="Helvetica,Inter,Segoe UI,Arial" font-size="11" paint-order="stroke" stroke="#ffffff" stroke-width="3" stroke-linejoin="round" fill="#ff8000">
      <title>then followed by</title>then...
    </text>
    </g>
    <g class="edge" data-edge-idx="1" data-edge-base="leadsto" data-edge-from="10" data-edge-to="4">
    <line x1="340.00" y1="84.00" x2="340.00" y2="109.25" stroke="#ff8000" stroke-width="3" />
    <path d="M 340.00 116.00 L 335.50 107.00 L 340.00 109.25 L 344.50 107.00 Z" fill="#ff8000" stroke="#ff8000" stroke-width="3" stroke-miterlimit="10"/>
    </g>
    <g class="edge" data-edge-idx="2" data-edge-base="leadsto" data-edge-from="12" data-edge-to="5">
    <line x1="580.00" y1="84.00" x2="580.00" y2="109.25" stroke="#ff8000" stroke-width="3" />
    <path d="M 580.00 116.00 L 575.50 107.00 L 580.00 109.25 L 584.50 107.00 Z" fill="#ff8000" stroke="#ff8000" stroke-width="3" stroke-miterlimit="10"/>
    </g>
    <g class="edge" data-edge-idx="3" data-edge-base="leadsto" data-edge-from="2" data-edge-to="6">
    <line x1="100.00" y1="604.00" x2="100.00" y2="649.25" stroke="#ff8000" stroke-width="3" />
    <path d="M 100.00 656.00 L 95.50 647.00 L 100.00 649.25 L 104.50 647.00 Z" fill="#ff8000" stroke="#ff8000" stroke-width="3" stroke-miterlimit="10"/>
    <text x="100" y="626" text-anchor="middle" dominant-baseline="middle" font-family="Helvetica,Inter,Segoe UI,Arial" font-size="11" paint-order="stroke" stroke="#ffffff" stroke-width="3" stroke-linejoin="round" fill="#ff8000">
      <title>then followed by</title>then...
    </text>
    </g>
    <g class="edge" data-edge-idx="4" data-edge-base="leadsto" data-edge-from="3" data-edge-to="7">
    <line x1="100.00" y1="344.00" x2="100.00" y2="389.25" stroke="#ff8000" stroke-width="3" />
    <path d="M 100.00 396.00 L 95.50 387.00 L 100.00 389.25 L 104.50 387.00 Z" fill="#ff8000" stroke="#ff8000" stroke-width="3" stroke-miterlimit="10"/>
    <text x="100" y="366" text-anchor="middle" dominant-baseline="middle" font-family="Helvetica,Inter,Segoe UI,Arial" font-size="11" paint-order="stroke" stroke="#ffffff" stroke-width="3" stroke-linejoin="round" fill="#ff8000">
      <title>then followed by</title>then...
    </text>
    </g>
    <g class="edge" data-edge-idx="5" data-edge-base="leadsto" data-edge-from="4" data-edge-to="11">
    <line x1="340.00" y1="184.00" x2="340.00" y2="209.25" stroke="#ff8000" stroke-width="3" />
    <path d="M 340.00 216.00 L 335.50 207.00 L 340.00 209.25 L 344.50 207.00 Z" fill="#ff8000" stroke="#ff8000" stroke-width="3" stroke-miterlimit="10"/>
    </g>
    <g class="edge" data-edge-idx="6" data-edge-base="expresses" data-edge-from="4" data-edge-to="3">
    <line x1="277.51" y1="153.13" x2="166.69" y2="292.58" stroke="#6c8ebf" stroke-width="3" stroke-dasharray="9 6" />
    <path d="M 162.49 297.87 L 164.57 288.02 L 166.69 292.58 L 171.61 293.62 Z" fill="#6c8ebf" stroke="#6c8ebf" stroke-width="3" stroke-miterlimit="10"/>
    <text x="221" y="222" text-anchor="middle" dominant-baseline="middle" font-family="Helvetica,Inter,Segoe UI,Arial" font-size="11" paint-order="stroke" stroke="#ffffff" stroke-width="3" stroke-linejoin="round" fill="#6c8ebf">wrote</text>
    </g>
    <g class="edge" data-edge-idx="7" data-edge-base="leadsto" data-edge-from="5" data-edge-to="13">
    <line x1="580.00" y1="184.00" x2="580.00" y2="209.25" stroke="#ff8000" stroke-width="3" />
    <path d="M 580.00 216.00 L 575.50 207.00 L 580.00 209.25 L 584.50 207.00 Z" fill="#ff8000" stroke="#ff8000" stroke-width="3" stroke-miterlimit="10"/>
    </g>
    <g class="edge" data-edge-idx="8" data-edge-base="expresses" data-edge-from="5" data-edge-to="3">
      <line class="edge-ghost" x1="500.00" y1="188.00" x2="194.00" y2="320.00" stroke="#6c8ebf" stroke-width="1" stroke-opacity="0.22" />
      <g class="edge-full" opacity="0">
        <line x1="500.00" y1="188.00" x2="194.00" y2="320.00" stroke="#6c8ebf" stroke-width="3" stroke-dasharray="9 6" />
    <text x="347" y="254" text-anchor="middle" dominant-baseline="middle" font-family="Helvetica,Inter,Segoe UI,Arial" font-size="11" paint-order="stroke" stroke="#ffffff" stroke-width="3" stroke-linejoin="round" fill="#6c8ebf">
      <title>has example</title>has...
    </text>
      </g>
      <g class="edge-stub" data-stub-end="source">
        <line x1="520.00" y1="150.00" x2="509.41" y2="170.12" stroke="#6c8ebf" stroke-width="3" stroke-dasharray="9 6" />
        <line x1="509.41" y1="170.12" x2="500.00" y2="188.00" stroke="#6c8ebf" stroke-width="3" stroke-dasharray="9 6" stroke-opacity="0.35" />
        <g class="edge-badge"><title>Expresses (has example): Nursery rhyme → Mary had a little lamb</title><rect x="493.00" y="181.00" width="14.00" height="14.00" rx="3" fill="#ffffff" stroke="#6c8ebf" stroke-width="1.5" /><text x="500.00" y="188.00" text-anchor="middle" dominant-baseline="central" font-size="11" font-family="Helvetica,Arial,sans-serif" fill="#6c8ebf">1</text></g>
      </g>
      <g class="edge-stub" data-stub-end="target">
        <line x1="178.00" y1="319.53" x2="166.75" y2="319.20" stroke="#6c8ebf" stroke-width="3" stroke-dasharray="9 6" />
        <line x1="194.00" y1="320.00" x2="178.00" y2="319.53" stroke="#6c8ebf" stroke-width="3" stroke-dasharray="9 6" stroke-opacity="0.35" />
    <path d="M 160.00 319.00 L 169.13 314.77 L 166.75 319.20 L 168.86 323.76 Z" fill="#6c8ebf" stroke="#6c8ebf" stroke-width="3" stroke-miterlimit="10"/>
        <g class="edge-badge"><title>Expresses (has example): Nursery rhyme → Mary had a little lamb</title><rect x="187.00" y="313.00" width="14.00" height="14.00" rx="3" fill="#ffffff" stroke="#6c8ebf" stroke-width="1.5" /><text x="194.00" y="320.00" text-anchor="middle" dominant-baseline="central" font-size="11" font-family="Helvetica,Arial,sans-serif" fill="#6c8ebf">1</text></g>
      </g>
    </g>
    <g class="edge" data-edge-idx="9" data-edge-base="leadsto" data-edge-from="6" data-edge-to="9">
    <line x1="100.00" y1="724.00" x2="100.00" y2="749.25" stroke="#ff8000" stroke-width="3" />
    <path d="M 100.00 756.00 L 95.50 747.00 L 100.00 749.25 L 104.50 747.00 Z" fill="#ff8000" stroke="#ff8000" stroke-width="3" stroke-miterlimit="10"/>
    </g>
    <g class="edge" data-edge-idx="10" data-edge-base="leadsto" data-edge-from="7" data-edge-to="2">
    <line x1="100.00" y1="464.00" x2="100.00" y2="509.25" stroke="#ff8000" stroke-width="3" />
    <path d="M 100.00 516.00 L 95.50 507.00 L 100.00 509.25 L 104.50 507.00 Z" fill="#ff8000" stroke="#ff8000" stroke-width="3" stroke-miterlimit="10"/>
    <text x="100" y="486" text-anchor="middle" dominant-baseline="middle" font-family="Helvetica,Inter,Segoe UI,Arial" font-size="11" paint-order="stroke" stroke="#ffffff" stroke-width="3" stroke-linejoin="round" fill="#ff8000">
      <title>then followed by</title>then...
    </text>
    </g>
    <g class="edge" data-edge-idx="11" data-edge-base="leadsto" data-edge-from="8" data-edge-to="1">
    <line x1="100.00" y1="84.00" x2="100.00" y2="109.25" stroke="#ff8000" stroke-width="3" />
    <path d="M 100.00 116.00 L 95.50 107.00 L 100.00 109.25 L 104.50 107.00 Z" fill="#ff8000" stroke="#ff8000" stroke-width="3" stroke-miterlimit="10"/>
    </g>
  </g>
  <g id="nodes">
    <rect x="40" y="120" width="120" height="100" rx="6" ry="6" fill="#ffe6cc" stroke="#ff8000" stroke-width="2"/>
    <text x="100" y="153" text-anchor="middle" dominant-baseline="middle" font-family="Helvetica,Inter,Segoe UI,Arial" font-size="14" font-weight="bold" fill="#ff8000">-:: _sequence_</text>
    <text x="100" y="170" text-anchor="middle" dominant-baseline="middle" font-family="Helvetica,Inter,Segoe UI,Arial" font-size="14" font-weight="bold" fill="#ff8000">:: // ending</text>
    <text x="100" y="187" text-anchor="middle" dominant-baseline="middle" font-family="Helvetica,Inter,Segoe UI,Arial" font-size="14" font-weight="bold" fill="#ff8000">sequence mode</text>
    <rect x="320" y="40" width="40" height="40" rx="4" ry="4" fill="#ffe6cc" stroke="#ff8000" stroke-width="2"/>
    <text x="340" y="60" text-anchor="middle" dominant-baseline="middle" font-family="Helvetica,Inter,Segoe UI,Arial" font-size="16" font-weight="bold" fill="#ff8000">S</text>
    <rect x="320" y="220" width="40" height="40" rx="4" ry="4" fill="#ffe6cc" stroke="#ff8000" stroke-width="2"/>
    <text x="340" y="240" text-anchor="middle" dominant-baseline="middle" font-family="Helvetica,Inter,Segoe UI,Arial" font-size="16" font-weight="bold" fill="#ff8000">E</text>
    <rect x="560" y="40" width="40" height="40" rx="4" ry="4" fill="#ffe6cc" stroke="#ff8000" stroke-width="2"/>
    <text x="580" y="60" text-anchor="middle" dominant-baseline="middle" font-family="Helvetica,Inter,Segoe UI,Arial" font-size="16" font-weight="bold" fill="#ff8000">S</text>
    <rect x="560" y="220" width="40" height="40" rx="4" ry="4" fill="#ffe6cc" stroke="#ff8000" stroke-width="2"/>
    <text x="580" y="240" text-anchor="middle" dominant-baseline="middle" font-family="Helvetica,Inter,Segoe UI,Arial" font-size="16" font-weight="bold" fill="#ff8000">E</text>
    <rect x="40" y="520" width="120" height="80" rx="6" ry="6" fill="#ffe6cc" stroke="#ff8000" stroke-width="2"/>
    <text x="100" y="531" text-anchor="middle" dominant-baseline="middle" font-family="Helvetica,Inter,Segoe UI,Arial" font-size="16" font-weight="bold" fill="#ff8000">And</text>
    <text x="100" y="550" text-anchor="middle" dominant-baseline="middle" font-family="Helvetica,Inter,Segoe UI,Arial" font-size="16" font-weight="bold" fill="#ff8000">everywhere</text>
    <text x="100" y="570" text-anchor="middle" dominant-baseline="middle" font-family="Helvetica,Inter,Segoe UI,Arial" font-size="16" font-weight="bold" fill="#ff8000">that Mary</text>
    <text x="100" y="589" text-anchor="middle" dominant-baseline="middle" font-family="Helvetica,Inter,Segoe UI,Arial" font-size="16" font-weight="bold" fill="#ff8000">went</text>
    <g>
      <title>Had means possessed not gave birth to</title>
    <rect x="40" y="280" width="120" height="60" rx="6" ry="6" fill="#ffe6cc" stroke="#ff8000" stroke-width="2"/>
    <text x="100" y="300" text-anchor="middle" dominant-baseline="middle" font-family="Helvetica,Inter,Segoe UI,Arial" font-size="16" font-weight="bold" fill="#ff8000">Mary had a</text>
    <text x="100" y="320" text-anchor="middle" dominant-baseline="middle" font-family="Helvetica,Inter,Segoe UI,Arial" font-size="16" font-weight="bold" fill="#ff8000">little lamb</text>
    </g>
    <rect x="280" y="120" width="120" height="60" rx="6" ry="6" fill="#ffe6cc" stroke="#ff8000" stroke-width="2"/>
    <text x="340" y="140" text-anchor="middle" dominant-baseline="middle" font-family="Helvetica,Inter,Segoe UI,Arial" font-size="16" font-weight="bold" fill="#ff8000">Mary&#39;s</text>
    <text x="340" y="160" text-anchor="middle" dominant-baseline="middle" font-family="Helvetica,Inter,Segoe UI,Arial" font-size="16" font-weight="bold" fill="#ff8000">mum</text>
    <rect x="520" y="120" width="120" height="60" rx="6" ry="6" fill="#ffe6cc" stroke="#ff8000" stroke-width="2"/>
    <text x="580" y="140" text-anchor="middle" dominant-baseline="middle" font-family="Helvetica,Inter,Segoe UI,Arial" font-size="16" font-weight="bold" fill="#ff8000">Nursery</text>
    <text x="580" y="160" text-anchor="middle" dominant-baseline="middle" font-family="Helvetica,Inter,Segoe UI,Arial" font-size="16" font-weight="bold" fill="#ff8000">rhyme</text>
    <g>
      <title>SatNav invented later</title>
    <rect x="40" y="660" width="120" height="60" rx="6" ry="6" fill="#ffe6cc" stroke="#ff8000" stroke-width="2"/>
    <text x="100" y="680" text-anchor="middle" dominant-baseline="middle" font-family="Helvetica,Inter,Segoe UI,Arial" font-size="16" font-weight="bold" fill="#ff8000">The lamb was</text>
    <text x="100" y="700" text-anchor="middle" dominant-baseline="middle" font-family="Helvetica,Inter,Segoe UI,Arial" font-size="16" font-weight="bold" fill="#ff8000">sure to go</text>
    </g>
    <rect x="40" y="400" width="120" height="60" rx="6" ry="6" fill="#ffe6cc" stroke="#ff8000" stroke-width="2"/>
    <text x="100" y="411" text-anchor="middle" dominant-baseline="middle" font-family="Helvetica,Inter,Segoe UI,Arial" font-size="16" font-weight="bold" fill="#ff8000">Whose fleece</text>
    <text x="100" y="430" text-anchor="middle" dominant-baseline="middle" font-family="Helvetica,Inter,Segoe UI,Arial" font-size="16" font-weight="bold" fill="#ff8000">was white as</text>
    <text x="100" y="449" text-anchor="middle" dominant-baseline="middle" font-family="Helvetica,Inter,Segoe UI,Arial" font-size="16" font-weight="bold" fill="#ff8000">snow</text>
    <rect x="80" y="40" width="40" height="40" rx="4" ry="4" fill="#ffe6cc" stroke="#ff8000" stroke-width="2"/>
    <text x="100" y="60" text-anchor="middle" dominant-baseline="middle" font-family="Helvetica,Inter,Segoe UI,Arial" font-size="16" font-weight="bold" fill="#ff8000">S</text>
    <rect x="80" y="760" width="40" height="40" rx="4" ry="4" fill="#ffe6cc" stroke="#ff8000" stroke-width="2"/>
    <text x="100" y="780" text-anchor="middle" dominant-baseline="middle" font-family="Helvetica,Inter,Segoe UI,Arial" font-size="16" font-weight="bold" fill="#ff8000">E</text>
  </g>
</svg>
