<?xml version="1.0" encoding="UTF-8"?>
<svg xmlns="http://www.w3.org/2000/svg" width="850" height="929" viewBox="0 0 850 929">
  <defs>
  </defs>
  <g id="container-shells">
  </g>
  <g id="node-shadows">
    <rect x="280" y="120" width="120" height="60" rx="6" ry="6" fill="#000000" stroke="#000000" stroke-width="2" opacity="0.25" transform="translate(2,3)"/>
    <rect x="690" y="604" width="120" height="60" rx="6" ry="6" fill="#000000" stroke="#000000" stroke-width="2" opacity="0.25" transform="translate(2,3)"/>
    <rect x="40" y="364" width="120" height="60" rx="6" ry="6" fill="#000000" stroke="#000000" stroke-width="2" opacity="0.25" transform="translate(2,3)"/>
    <rect x="420" y="364" width="120" height="60" rx="6" ry="6" fill="#000000" stroke="#000000" stroke-width="2" opacity="0.25" transform="translate(2,3)"/>
    <rect x="415" y="724" width="120" height="60" rx="6" ry="6" fill="#000000" stroke="#000000" stroke-width="2" opacity="0.25" transform="translate(2,3)"/>
    <rect x="460" y="120" width="120" height="60" rx="6" ry="6" fill="#000000" stroke="#000000" stroke-width="2" opacity="0.25" transform="translate(2,3)"/>
    <rect x="240" y="244" width="120" height="60" rx="6" ry="6" fill="#000000" stroke="#000000" stroke-width="2" opacity="0.25" transform="translate(2,3)"/>
    <rect x="600" y="244" width="120" height="60" rx="6" ry="6" fill="#000000" stroke="#000000" stroke-width="2" opacity="0.25" transform="translate(2,3)"/>
    <rect x="510" y="604" width="120" height="60" rx="6" ry="6" fill="#000000" stroke="#000000" stroke-width="2" opacity="0.25" transform="translate(2,3)"/>
    <rect x="410" y="40" width="40" height="40" rx="4" ry="4" fill="#000000" stroke="#000000" stroke-width="2" opacity="0.25" transform="translate(2,3)"/>
    <rect x="405" y="849" width="40" height="40" rx="4" ry="4" fill="#000000" stroke="#000000" stroke-width="2" opacity="0.25" transform="translate(2,3)"/>
    <rect x="40" y="604" width="120" height="60" rx="6" ry="6" fill="#000000" stroke="#000000" stroke-width="2" opacity="0.25" transform="translate(2,3)"/>
    <rect x="690" y="724" width="120" height="60" rx="6" ry="6" fill="#000000" stroke="#000000" stroke-width="2" opacity="0.25" transform="translate(2,3)"/>
    <rect x="40" y="484" width="120" height="60" rx="6" ry="6" fill="#000000" stroke="#000000" stroke-width="2" opacity="0.25" transform="translate(2,3)"/>
    <rect x="600" y="364" width="120" height="60" rx="6" ry="6" fill="#000000" stroke="#000000" stroke-width="2" opacity="0.25" transform="translate(2,3)"/>
    <rect x="510" y="484" width="120" height="60" rx="6" ry="6" fill="#000000" stroke="#000000" stroke-width="2" opacity="0.25" transform="translate(2,3)"/>
    <rect x="690" y="484" width="120" height="60" rx="6" ry="6" fill="#000000" stroke="#000000" stroke-width="2" opacity="0.25" transform="translate(2,3)"/>
    <rect x="420" y="244" width="120" height="60" rx="6" ry="6" fill="#000000" stroke="#000000" stroke-width="2" opacity="0.25" transform="translate(2,3)"/>
    <rect x="40" y="244" width="120" height="60" rx="6" ry="6" fill="#000000" stroke="#000000" stroke-width="2" opacity="0.25" transform="translate(2,3)"/>
  </g>
  <g id="edges">
    <g class="edge" data-edge-idx="0" data-edge-base="leadsto" data-edge-from="1" data-edge-to="15">
    <line x1="336.88" y1="185.00" x2="306.70" y2="233.28" stroke="#ff8000" stroke-width="3" />
    <path d="M 303.12 239.00 L 304.08 228.98 L 306.70 233.28 L 311.71 233.75 Z" fill="#ff8000" stroke="#ff8000" stroke-width="3" stroke-miterlimit="10"/>
    <text x="321" y="209" text-anchor="middle" dominant-baseline="middle" font-family="Helvetica,Inter,Segoe UI,Arial" font-size="11" paint-order="stroke" stroke="#ffffff" stroke-width="3" stroke-linejoin="round" fill="#ff8000">
      <title>develops into</title>deve...
    </text>
    </g>
    <g class="edge" data-edge-idx="1" data-edge-base="leadsto" data-edge-from="1" data-edge-to="16">
    <line x1="391.61" y1="183.52" x2="637.81" y2="239.00" stroke="#ff8000" stroke-width="3" />
    <path d="M 644.39 240.48 L 634.62 242.89 L 637.81 239.00 L 636.60 234.11 Z" fill="#ff8000" stroke="#ff8000" stroke-width="3" stroke-miterlimit="10"/>
    <text x="514" y="210" text-anchor="middle" dominant-baseline="middle" font-family="Helvetica,Inter,Segoe UI,Arial" font-size="11" paint-order="stroke" stroke="#ffffff" stroke-width="3" stroke-linejoin="round" fill="#ff8000">
      <title>develops into</title>deve...
    </text>
    </g>
    <g class="edge" data-edge-idx="2" data-edge-base="leadsto" data-edge-from="1" data-edge-to="9">
    <line x1="288.73" y1="184.79" x2="121.71" y2="237.19" stroke="#ff8000" stroke-width="3" />
    <path d="M 115.27 239.21 L 122.51 232.22 L 121.71 237.19 L 125.20 240.81 Z" fill="#ff8000" stroke="#ff8000" stroke-width="3" stroke-miterlimit="10"/>
    <text x="204" y="210" text-anchor="middle" dominant-baseline="middle" font-family="Helvetica,Inter,Segoe UI,Arial" font-size="11" paint-order="stroke" stroke="#ffffff" stroke-width="3" stroke-linejoin="round" fill="#ff8000">
      <title>develops into</title>deve...
    </text>
    </g>
    <g class="edge" data-edge-idx="3" data-edge-base="leadsto" data-edge-from="10" data-edge-to="13">
    <line x1="716.56" y1="668.19" x2="532.96" y2="718.04" stroke="#ff8000" stroke-width="3" />
    <path d="M 526.44 719.81 L 533.95 713.11 L 532.96 718.04 L 536.31 721.79 Z" fill="#ff8000" stroke="#ff8000" stroke-width="3" stroke-miterlimit="10"/>
    <text x="624" y="693" text-anchor="middle" dominant-baseline="middle" font-family="Helvetica,Inter,Segoe UI,Arial" font-size="11" paint-order="stroke" stroke="#ffffff" stroke-width="3" stroke-linejoin="round" fill="#ff8000">
      <title>matures into</title>matu...
    </text>
    </g>
    <g class="edge" data-edge-idx="4" data-edge-base="leadsto" data-edge-from="10" data-edge-to="3">
    <line x1="766.50" y1="669.00" x2="753.44" y2="712.53" stroke="#ff8000" stroke-width="3" />
    <path d="M 751.50 719.00 L 749.78 709.09 L 753.44 712.53 L 758.40 711.67 Z" fill="#ff8000" stroke="#ff8000" stroke-width="3" stroke-miterlimit="10"/>
    <text x="759" y="690" text-anchor="middle" dominant-baseline="middle" font-family="Helvetica,Inter,Segoe UI,Arial" font-size="11" paint-order="stroke" stroke="#ffffff" stroke-width="3" stroke-linejoin="round" fill="#ff8000">
      <title>approximates to</title>appr...
    </text>
    </g>
    <g class="edge" data-edge-idx="5" data-edge-base="leadsto" data-edge-from="11" data-edge-to="4">
    <line x1="100.00" y1="429.00" x2="100.00" y2="472.25" stroke="#ff8000" stroke-width="3" />
    <path d="M 100.00 479.00 L 95.50 470.00 L 100.00 472.25 L 104.50 470.00 Z" fill="#ff8000" stroke="#ff8000" stroke-width="3" stroke-miterlimit="10"/>
    <text x="100" y="450" text-anchor="middle" dominant-baseline="middle" font-family="Helvetica,Inter,Segoe UI,Arial" font-size="11" paint-order="stroke" stroke="#ffffff" stroke-width="3" stroke-linejoin="round" fill="#ff8000">
      <title>develops into</title>deve...
    </text>
    </g>
    <g class="edge" data-edge-idx="6" data-edge-base="leadsto" data-edge-from="12" data-edge-to="13">
    <line x1="479.72" y1="429.00" x2="463.67" y2="712.26" stroke="#ff8000" stroke-width="3" />
    <path d="M 463.28 719.00 L 459.30 709.76 L 463.67 712.26 L 468.29 710.27 Z" fill="#ff8000" stroke="#ff8000" stroke-width="3" stroke-miterlimit="10"/>
    <text x="471" y="570" text-anchor="middle" dominant-baseline="middle" font-family="Helvetica,Inter,Segoe UI,Arial" font-size="11" paint-order="stroke" stroke="#ffffff" stroke-width="3" stroke-linejoin="round" fill="#ff8000">
      <title>matures into</title>matu...
    </text>
    </g>
    <g class="edge" data-edge-idx="7" data-edge-base="leadsto" data-edge-from="13" data-edge-to="19">
    <line x1="471.46" y1="789.00" x2="436.44" y2="838.49" stroke="#ff8000" stroke-width="3" />
    <path d="M 432.54 844.00 L 434.06 834.05 L 436.44 838.49 L 441.41 839.25 Z" fill="#ff8000" stroke="#ff8000" stroke-width="3" stroke-miterlimit="10"/>
    </g>
    <g class="edge" data-edge-idx="8" data-edge-base="leadsto" data-edge-from="14" data-edge-to="8">
    <line x1="516.88" y1="185.00" x2="486.70" y2="233.28" stroke="#ff8000" stroke-width="3" />
    <path d="M 483.12 239.00 L 484.08 228.98 L 486.70 233.28 L 491.71 233.75 Z" fill="#ff8000" stroke="#ff8000" stroke-width="3" stroke-miterlimit="10"/>
    <text x="501" y="209" text-anchor="middle" dominant-baseline="middle" font-family="Helvetica,Inter,Segoe UI,Arial" font-size="11" paint-order="stroke" stroke="#ffffff" stroke-width="3" stroke-linejoin="round" fill="#ff8000">
      <title>matures into</title>matu...
    </text>
    </g>
    <g class="edge" data-edge-idx="9" data-edge-base="leadsto" data-edge-from="15" data-edge-to="19">
    <line x1="301.11" y1="309.00" x2="418.43" y2="837.41" stroke="#ff8000" stroke-width="3" />
    <path d="M 419.89 844.00 L 413.55 836.19 L 418.43 837.41 L 422.33 834.24 Z" fill="#ff8000" stroke="#ff8000" stroke-width="3" stroke-miterlimit="10"/>
    </g>
    <g class="edge" data-edge-idx="10" data-edge-base="leadsto" data-edge-from="16" data-edge-to="5">
    <line x1="660.00" y1="309.00" x2="660.00" y2="352.25" stroke="#ff8000" stroke-width="3" />
    <path d="M 660.00 359.00 L 655.50 350.00 L 660.00 352.25 L 664.50 350.00 Z" fill="#ff8000" stroke="#ff8000" stroke-width="3" stroke-miterlimit="10"/>
    <text x="660" y="330" text-anchor="middle" dominant-baseline="middle" font-family="Helvetica,Inter,Segoe UI,Arial" font-size="11" paint-order="stroke" stroke="#ffffff" stroke-width="3" stroke-linejoin="round" fill="#ff8000">
      <title>develops into</title>deve...
    </text>
    </g>
    <g class="edge" data-edge-idx="11" data-edge-base="leadsto" data-edge-from="17" data-edge-to="13">
    <line x1="563.08" y1="669.00" x2="499.39" y2="715.05" stroke="#ff8000" stroke-width="3" />
    <path d="M 493.92 719.00 L 498.57 710.08 L 499.39 715.05 L 503.85 717.37 Z" fill="#ff8000" stroke="#ff8000" stroke-width="3" stroke-miterlimit="10"/>
    <text x="531" y="692" text-anchor="middle" dominant-baseline="middle" font-family="Helvetica,Inter,Segoe UI,Arial" font-size="11" paint-order="stroke" stroke="#ffffff" stroke-width="3" stroke-linejoin="round" fill="#ff8000">
      <title>matures into</title>matu...
    </text>
    </g>
    <g class="edge" data-edge-idx="12" data-edge-base="leadsto" data-edge-from="18" data-edge-to="1">
    <line x1="413.50" y1="85.00" x2="356.59" y2="112.10" stroke="#ff8000" stroke-width="3" />
    <path d="M 350.50 115.00 L 356.69 107.07 L 356.59 112.10 L 360.56 115.19 Z" fill="#ff8000" stroke="#ff8000" stroke-width="3" stroke-miterlimit="10"/>
    </g>
    <g class="edge" data-edge-idx="13" data-edge-base="leadsto" data-edge-from="18" data-edge-to="14">
    <line x1="446.50" y1="85.00" x2="503.41" y2="112.10" stroke="#ff8000" stroke-width="3" />
    <path d="M 509.50 115.00 L 499.44 115.19 L 503.41 112.10 L 503.31 107.07 Z" fill="#ff8000" stroke="#ff8000" stroke-width="3" stroke-miterlimit="10"/>
    </g>
    <g class="edge" data-edge-idx="14" data-edge-base="leadsto" data-edge-from="2" data-edge-to="19">
    <line x1="108.46" y1="669.00" x2="398.73" y2="840.57" stroke="#ff8000" stroke-width="3" />
    <path d="M 404.54 844.00 L 394.50 843.29 L 398.73 840.57 L 399.08 835.55 Z" fill="#ff8000" stroke="#ff8000" stroke-width="3" stroke-miterlimit="10"/>
    </g>
    <g class="edge" data-edge-idx="15" data-edge-base="leadsto" data-edge-from="3" data-edge-to="19">
    <line x1="734.33" y1="787.25" x2="459.27" y2="844.37" stroke="#ff8000" stroke-width="3" />
    <path d="M 452.67 845.75 L 460.56 839.51 L 459.27 844.37 L 462.39 848.32 Z" fill="#ff8000" stroke="#ff8000" stroke-width="3" stroke-miterlimit="10"/>
    </g>
    <g class="edge" data-edge-idx="16" data-edge-base="leadsto" data-edge-from="4" data-edge-to="13">
    <line x1="126.92" y1="549.00" x2="424.20" y2="715.70" stroke="#ff8000" stroke-width="3" />
    <path d="M 430.08 719.00 L 420.03 718.52 L 424.20 715.70 L 424.43 710.67 Z" fill="#ff8000" stroke="#ff8000" stroke-width="3" stroke-miterlimit="10"/>
    <text x="275" y="632" text-anchor="middle" dominant-baseline="middle" font-family="Helvetica,Inter,Segoe UI,Arial" font-size="11" paint-order="stroke" stroke="#ffffff" stroke-width="3" stroke-linejoin="round" fill="#ff8000">
      <title>develops into</title>deve...
    </text>
    </g>
    <g class="edge" data-edge-idx="17" data-edge-base="leadsto" data-edge-from="4" data-edge-to="2">
    <line x1="83.50" y1="549.00" x2="96.56" y2="592.53" stroke="#ff8000" stroke-width="3" />
    <path d="M 98.50 599.00 L 91.60 591.67 L 96.56 592.53 L 100.22 589.09 Z" fill="#ff8000" stroke="#ff8000" stroke-width="3" stroke-miterlimit="10"/>
    <text x="89" y="570" text-anchor="middle" dominant-baseline="middle" font-family="Helvetica,Inter,Segoe UI,Arial" font-size="11" paint-order="stroke" stroke="#ffffff" stroke-width="3" stroke-linejoin="round" fill="#ff8000">
      <title>approximates to</title>appr...
    </text>
    </g>
    <g class="edge" data-edge-idx="18" data-edge-base="leadsto" data-edge-from="5" data-edge-to="6">
    <line x1="636.00" y1="429.00" x2="581.19" y2="474.68" stroke="#ff8000" stroke-width="3" />
    <path d="M 576.00 479.00 L 580.03 469.78 L 581.19 474.68 L 585.79 476.70 Z" fill="#ff8000" stroke="#ff8000" stroke-width="3" stroke-miterlimit="10"/>
    <text x="608" y="451" text-anchor="middle" dominant-baseline="middle" font-family="Helvetica,Inter,Segoe UI,Arial" font-size="11" paint-order="stroke" stroke="#ffffff" stroke-width="3" stroke-linejoin="round" fill="#ff8000">
      <title>matures into</title>matu...
    </text>
    </g>
    <g class="edge" data-edge-idx="19" data-edge-base="leadsto" data-edge-from="5" data-edge-to="7">
    <line x1="684.00" y1="429.00" x2="738.81" y2="474.68" stroke="#ff8000" stroke-width="3" />
    <path d="M 744.00 479.00 L 734.21 476.70 L 738.81 474.68 L 739.97 469.78 Z" fill="#ff8000" stroke="#ff8000" stroke-width="3" stroke-miterlimit="10"/>
    <text x="711" y="451" text-anchor="middle" dominant-baseline="middle" font-family="Helvetica,Inter,Segoe UI,Arial" font-size="11" paint-order="stroke" stroke="#ffffff" stroke-width="3" stroke-linejoin="round" fill="#ff8000">
      <title>develops into</title>deve...
    </text>
    </g>
    <g class="edge" data-edge-idx="20" data-edge-base="leadsto" data-edge-from="6" data-edge-to="17">
    <line x1="570.00" y1="549.00" x2="570.00" y2="592.25" stroke="#ff8000" stroke-width="3" />
    <path d="M 570.00 599.00 L 565.50 590.00 L 570.00 592.25 L 574.50 590.00 Z" fill="#ff8000" stroke="#ff8000" stroke-width="3" stroke-miterlimit="10"/>
    <text x="570" y="570" text-anchor="middle" dominant-baseline="middle" font-family="Helvetica,Inter,Segoe UI,Arial" font-size="11" paint-order="stroke" stroke="#ffffff" stroke-width="3" stroke-linejoin="round" fill="#ff8000">
      <title>develops into</title>deve...
    </text>
    </g>
    <g class="edge" data-edge-idx="21" data-edge-base="leadsto" data-edge-from="7" data-edge-to="10">
    <line x1="750.00" y1="549.00" x2="750.00" y2="592.25" stroke="#ff8000" stroke-width="3" />
    <path d="M 750.00 599.00 L 745.50 590.00 L 750.00 592.25 L 754.50 590.00 Z" fill="#ff8000" stroke="#ff8000" stroke-width="3" stroke-miterlimit="10"/>
    <text x="750" y="570" text-anchor="middle" dominant-baseline="middle" font-family="Helvetica,Inter,Segoe UI,Arial" font-size="11" paint-order="stroke" stroke="#ffffff" stroke-width="3" stroke-linejoin="round" fill="#ff8000">
      <title>develops into</title>deve...
    </text>
    </g>
    <g class="edge" data-edge-idx="22" data-edge-base="leadsto" data-edge-from="8" data-edge-to="12">
    <line x1="480.00" y1="309.00" x2="480.00" y2="352.25" stroke="#ff8000" stroke-width="3" />
    <path d="M 480.00 359.00 L 475.50 350.00 L 480.00 352.25 L 484.50 350.00 Z" fill="#ff8000" stroke="#ff8000" stroke-width="3" stroke-miterlimit="10"/>
    <text x="480" y="330" text-anchor="middle" dominant-baseline="middle" font-family="Helvetica,Inter,Segoe UI,Arial" font-size="11" paint-order="stroke" stroke="#ffffff" stroke-width="3" stroke-linejoin="round" fill="#ff8000">
      <title>develops into</title>deve...
    </text>
    </g>
    <g class="edge" data-edge-idx="23" data-edge-base="leadsto" data-edge-from="9" data-edge-to="11">
    <line x1="100.00" y1="309.00" x2="100.00" y2="352.25" stroke="#ff8000" stroke-width="3" />
    <path d="M 100.00 359.00 L 95.50 350.00 L 100.00 352.25 L 104.50 350.00 Z" fill="#ff8000" stroke="#ff8000" stroke-width="3" stroke-miterlimit="10"/>
    <text x="100" y="330" text-anchor="middle" dominant-baseline="middle" font-family="Helvetica,Inter,Segoe UI,Arial" font-size="11" paint-order="stroke" stroke="#ffffff" stroke-width="3" stroke-linejoin="round" fill="#ff8000">
      <title>matures into</title>matu...
    </text>
    </g>
  </g>
  <g id="nodes">
    <rect x="280" y="120" width="120" height="60" rx="6" ry="6" fill="#ffe6cc" stroke="#ff8000" stroke-width="2"/>
    <text x="340" y="150" text-anchor="middle" dominant-baseline="middle" font-family="Helvetica,Inter,Segoe UI,Arial" font-size="16" font-weight="bold" fill="#ff8000">Internet</text>
    <rect x="690" y="604" width="120" height="60" rx="6" ry="6" fill="#ffe6cc" stroke="#ff8000" stroke-width="2"/>
    <text x="750" y="624" text-anchor="middle" dominant-baseline="middle" font-family="Helvetica,Inter,Segoe UI,Arial" font-size="16" font-weight="bold" fill="#ff8000">individual</text>
    <text x="750" y="644" text-anchor="middle" dominant-baseline="middle" font-family="Helvetica,Inter,Segoe UI,Arial" font-size="16" font-weight="bold" fill="#ff8000">sovereignty</text>
    <rect x="40" y="364" width="120" height="60" rx="6" ry="6" fill="#ffe6cc" stroke="#ff8000" stroke-width="2"/>
    <text x="100" y="394" text-anchor="middle" dominant-baseline="middle" font-family="Helvetica,Inter,Segoe UI,Arial" font-size="16" font-weight="bold" fill="#ff8000">nation state</text>
    <rect x="420" y="364" width="120" height="60" rx="6" ry="6" fill="#ffe6cc" stroke="#ff8000" stroke-width="2"/>
    <text x="480" y="384" text-anchor="middle" dominant-baseline="middle" font-family="Helvetica,Inter,Segoe UI,Arial" font-size="16" font-weight="bold" fill="#ff8000">personal</text>
    <text x="480" y="404" text-anchor="middle" dominant-baseline="middle" font-family="Helvetica,Inter,Segoe UI,Arial" font-size="16" font-weight="bold" fill="#ff8000">security</text>
    <rect x="415" y="724" width="120" height="60" rx="6" ry="6" fill="#ffe6cc" stroke="#ff8000" stroke-width="2"/>
    <text x="475" y="744" text-anchor="middle" dominant-baseline="middle" font-family="Helvetica,Inter,Segoe UI,Arial" font-size="16" font-weight="bold" fill="#ff8000">sovereign</text>
    <text x="475" y="764" text-anchor="middle" dominant-baseline="middle" font-family="Helvetica,Inter,Segoe UI,Arial" font-size="16" font-weight="bold" fill="#ff8000">individual</text>
    <rect x="460" y="120" width="120" height="60" rx="6" ry="6" fill="#ffe6cc" stroke="#ff8000" stroke-width="2"/>
    <text x="520" y="150" text-anchor="middle" dominant-baseline="middle" font-family="Helvetica,Inter,Segoe UI,Arial" font-size="16" font-weight="bold" fill="#ff8000">tax system</text>
    <rect x="240" y="244" width="120" height="60" rx="6" ry="6" fill="#ffe6cc" stroke="#ff8000" stroke-width="2"/>
    <text x="300" y="264" text-anchor="middle" dominant-baseline="middle" font-family="Helvetica,Inter,Segoe UI,Arial" font-size="16" font-weight="bold" fill="#ff8000">territorial</text>
    <text x="300" y="284" text-anchor="middle" dominant-baseline="middle" font-family="Helvetica,Inter,Segoe UI,Arial" font-size="16" font-weight="bold" fill="#ff8000">control</text>
    <rect x="600" y="244" width="120" height="60" rx="6" ry="6" fill="#ffe6cc" stroke="#ff8000" stroke-width="2"/>
    <text x="660" y="274" text-anchor="middle" dominant-baseline="middle" font-family="Helvetica,Inter,Segoe UI,Arial" font-size="16" font-weight="bold" fill="#ff8000">unknown</text>
    <rect x="510" y="604" width="120" height="60" rx="6" ry="6" fill="#ffe6cc" stroke="#ff8000" stroke-width="2"/>
    <text x="570" y="624" text-anchor="middle" dominant-baseline="middle" font-family="Helvetica,Inter,Segoe UI,Arial" font-size="16" font-weight="bold" fill="#ff8000">wealth</text>
    <text x="570" y="644" text-anchor="middle" dominant-baseline="middle" font-family="Helvetica,Inter,Segoe UI,Arial" font-size="16" font-weight="bold" fill="#ff8000">presentation</text>
    <rect x="410" y="40" width="40" height="40" rx="4" ry="4" fill="#ffe6cc" stroke="#ff8000" stroke-width="2"/>
    <text x="430" y="60" text-anchor="middle" dominant-baseline="middle" font-family="Helvetica,Inter,Segoe UI,Arial" font-size="16" font-weight="bold" fill="#ff8000">S</text>
    <rect x="405" y="849" width="40" height="40" rx="4" ry="4" fill="#ffe6cc" stroke="#ff8000" stroke-width="2"/>
    <text x="425" y="869" text-anchor="middle" dominant-baseline="middle" font-family="Helvetica,Inter,Segoe UI,Arial" font-size="16" font-weight="bold" fill="#ff8000">E</text>
    <rect x="40" y="604" width="120" height="60" rx="6" ry="6" fill="#ffe6cc" stroke="#ff8000" stroke-width="2"/>
    <text x="100" y="615" text-anchor="middle" dominant-baseline="middle" font-family="Helvetica,Inter,Segoe UI,Arial" font-size="16" font-weight="bold" fill="#ff8000">The</text>
    <text x="100" y="634" text-anchor="middle" dominant-baseline="middle" font-family="Helvetica,Inter,Segoe UI,Arial" font-size="16" font-weight="bold" fill="#ff8000">Industrializ</text>
    <text x="100" y="653" text-anchor="middle" dominant-baseline="middle" font-family="Helvetica,Inter,Segoe UI,Arial" font-size="16" font-weight="bold" fill="#ff8000">ed</text>
    <rect x="690" y="724" width="120" height="60" rx="6" ry="6" fill="#ffe6cc" stroke="#ff8000" stroke-width="2"/>
    <text x="750" y="744" text-anchor="middle" dominant-baseline="middle" font-family="Helvetica,Inter,Segoe UI,Arial" font-size="16" font-weight="bold" fill="#ff8000">The</text>
    <text x="750" y="764" text-anchor="middle" dominant-baseline="middle" font-family="Helvetica,Inter,Segoe UI,Arial" font-size="16" font-weight="bold" fill="#ff8000">Uncharted</text>
    <rect x="40" y="484" width="120" height="60" rx="6" ry="6" fill="#ffe6cc" stroke="#ff8000" stroke-width="2"/>
    <text x="100" y="514" text-anchor="middle" dominant-baseline="middle" font-family="Helvetica,Inter,Segoe UI,Arial" font-size="16" font-weight="bold" fill="#ff8000">citizenship</text>
    <g>
      <title>de facto starting point</title>
    <rect x="600" y="364" width="120" height="60" rx="6" ry="6" fill="#ffe6cc" stroke="#ff8000" stroke-width="2"/>
    <text x="660" y="394" text-anchor="middle" dominant-baseline="middle" font-family="Helvetica,Inter,Segoe UI,Arial" font-size="16" font-weight="bold" fill="#ff8000">cryptography</text>
    </g>
    <rect x="510" y="484" width="120" height="60" rx="6" ry="6" fill="#ffe6cc" stroke="#ff8000" stroke-width="2"/>
    <text x="570" y="504" text-anchor="middle" dominant-baseline="middle" font-family="Helvetica,Inter,Segoe UI,Arial" font-size="16" font-weight="bold" fill="#ff8000">digital</text>
    <text x="570" y="524" text-anchor="middle" dominant-baseline="middle" font-family="Helvetica,Inter,Segoe UI,Arial" font-size="16" font-weight="bold" fill="#ff8000">currency</text>
    <rect x="690" y="484" width="120" height="60" rx="6" ry="6" fill="#ffe6cc" stroke="#ff8000" stroke-width="2"/>
    <text x="750" y="504" text-anchor="middle" dominant-baseline="middle" font-family="Helvetica,Inter,Segoe UI,Arial" font-size="16" font-weight="bold" fill="#ff8000">digital</text>
    <text x="750" y="524" text-anchor="middle" dominant-baseline="middle" font-family="Helvetica,Inter,Segoe UI,Arial" font-size="16" font-weight="bold" fill="#ff8000">identity</text>
    <rect x="420" y="244" width="120" height="60" rx="6" ry="6" fill="#ffe6cc" stroke="#ff8000" stroke-width="2"/>
    <text x="480" y="274" text-anchor="middle" dominant-baseline="middle" font-family="Helvetica,Inter,Segoe UI,Arial" font-size="16" font-weight="bold" fill="#ff8000">encryption</text>
    <rect x="40" y="244" width="120" height="60" rx="6" ry="6" fill="#ffe6cc" stroke="#ff8000" stroke-width="2"/>
    <text x="100" y="264" text-anchor="middle" dominant-baseline="middle" font-family="Helvetica,Inter,Segoe UI,Arial" font-size="16" font-weight="bold" fill="#ff8000">global</text>
    <text x="100" y="284" text-anchor="middle" dominant-baseline="middle" font-family="Helvetica,Inter,Segoe UI,Arial" font-size="16" font-weight="bold" fill="#ff8000">network</text>
  </g>
</svg>
