<?xml version="1.0" encoding="UTF-8"?>
<svg xmlns="http://www.w3.org/2000/svg" width="850" height="936" viewBox="0 0 850 936">
  <defs>
  </defs>
  <g id="container-shells">
  </g>
  <g id="node-shadows">
    <rect x="280" y="127" width="120" height="60" rx="6" ry="6" fill="#000000" stroke="#000000" stroke-width="2" opacity="0.25" transform="translate(2,3)"/>
    <rect x="690" y="611" width="120" height="60" rx="6" ry="6" fill="#000000" stroke="#000000" stroke-width="2" opacity="0.25" transform="translate(2,3)"/>
    <rect x="40" y="371" width="120" height="60" rx="6" ry="6" fill="#000000" stroke="#000000" stroke-width="2" opacity="0.25" transform="translate(2,3)"/>
    <rect x="420" y="371" width="120" height="60" rx="6" ry="6" fill="#000000" stroke="#000000" stroke-width="2" opacity="0.25" transform="translate(2,3)"/>
    <rect x="415" y="731" width="120" height="60" rx="6" ry="6" fill="#000000" stroke="#000000" stroke-width="2" opacity="0.25" transform="translate(2,3)"/>
    <rect x="460" y="127" width="120" height="60" rx="6" ry="6" fill="#000000" stroke="#000000" stroke-width="2" opacity="0.25" transform="translate(2,3)"/>
    <rect x="240" y="251" width="120" height="60" rx="6" ry="6" fill="#000000" stroke="#000000" stroke-width="2" opacity="0.25" transform="translate(2,3)"/>
    <rect x="600" y="251" width="120" height="60" rx="6" ry="6" fill="#000000" stroke="#000000" stroke-width="2" opacity="0.25" transform="translate(2,3)"/>
    <rect x="510" y="611" width="120" height="60" rx="6" ry="6" fill="#000000" stroke="#000000" stroke-width="2" opacity="0.25" transform="translate(2,3)"/>
    <rect x="410" y="40" width="40" height="40" rx="4" ry="4" fill="#000000" stroke="#000000" stroke-width="2" opacity="0.25" transform="translate(2,3)"/>
    <rect x="405" y="856" width="40" height="40" rx="4" ry="4" fill="#000000" stroke="#000000" stroke-width="2" opacity="0.25" transform="translate(2,3)"/>
    <rect x="40" y="611" width="120" height="60" rx="6" ry="6" fill="#000000" stroke="#000000" stroke-width="2" opacity="0.25" transform="translate(2,3)"/>
    <rect x="690" y="731" width="120" height="60" rx="6" ry="6" fill="#000000" stroke="#000000" stroke-width="2" opacity="0.25" transform="translate(2,3)"/>
    <rect x="40" y="491" width="120" height="60" rx="6" ry="6" fill="#000000" stroke="#000000" stroke-width="2" opacity="0.25" transform="translate(2,3)"/>
    <rect x="600" y="371" width="120" height="60" rx="6" ry="6" fill="#000000" stroke="#000000" stroke-width="2" opacity="0.25" transform="translate(2,3)"/>
    <rect x="510" y="491" width="120" height="60" rx="6" ry="6" fill="#000000" stroke="#000000" stroke-width="2" opacity="0.25" transform="translate(2,3)"/>
    <rect x="690" y="491" width="120" height="60" rx="6" ry="6" fill="#000000" stroke="#000000" stroke-width="2" opacity="0.25" transform="translate(2,3)"/>
    <rect x="420" y="251" width="120" height="60" rx="6" ry="6" fill="#000000" stroke="#000000" stroke-width="2" opacity="0.25" transform="translate(2,3)"/>
    <rect x="40" y="251" width="120" height="60" rx="6" ry="6" fill="#000000" stroke="#000000" stroke-width="2" opacity="0.25" transform="translate(2,3)"/>
  </g>
  <g id="edges">
    <g class="edge" data-edge-idx="0" data-edge-base="leadsto" data-edge-from="1" data-edge-to="15">
    <line x1="336.88" y1="192.00" x2="306.70" y2="240.28" stroke="#ff8000" stroke-width="3" />
    <path d="M 303.12 246.00 L 304.08 235.98 L 306.70 240.28 L 311.71 240.75 Z" fill="#ff8000" stroke="#ff8000" stroke-width="3" stroke-miterlimit="10"/>
    <text x="321" y="216" text-anchor="middle" dominant-baseline="middle" font-family="Helvetica,Inter,Segoe UI,Arial" font-size="11" paint-order="stroke" stroke="#ffffff" stroke-width="3" stroke-linejoin="round" fill="#ff8000">
      <title>develops into</title>deve...
    </text>
    </g>
    <g class="edge" data-edge-idx="1" data-edge-base="leadsto" data-edge-from="1" data-edge-to="16">
    <line x1="391.61" y1="190.52" x2="637.81" y2="246.00" stroke="#ff8000" stroke-width="3" />
    <path d="M 644.39 247.48 L 634.62 249.89 L 637.81 246.00 L 636.60 241.11 Z" fill="#ff8000" stroke="#ff8000" stroke-width="3" stroke-miterlimit="10"/>
    <text x="514" y="217" text-anchor="middle" dominant-baseline="middle" font-family="Helvetica,Inter,Segoe UI,Arial" font-size="11" paint-order="stroke" stroke="#ffffff" stroke-width="3" stroke-linejoin="round" fill="#ff8000">
      <title>develops into</title>deve...
    </text>
    </g>
    <g class="edge" data-edge-idx="2" data-edge-base="leadsto" data-edge-from="1" data-edge-to="9">
    <line x1="288.73" y1="191.79" x2="121.71" y2="244.19" stroke="#ff8000" stroke-width="3" />
    <path d="M 115.27 246.21 L 122.51 239.22 L 121.71 244.19 L 125.20 247.81 Z" fill="#ff8000" stroke="#ff8000" stroke-width="3" stroke-miterlimit="10"/>
    <text x="204" y="217" text-anchor="middle" dominant-baseline="middle" font-family="Helvetica,Inter,Segoe UI,Arial" font-size="11" paint-order="stroke" stroke="#ffffff" stroke-width="3" stroke-linejoin="round" fill="#ff8000">
      <title>develops into</title>deve...
    </text>
    </g>
    <g class="edge" data-edge-idx="3" data-edge-base="leadsto" data-edge-from="10" data-edge-to="13">
    <line x1="716.56" y1="675.19" x2="532.96" y2="725.04" stroke="#ff8000" stroke-width="3" />
    <path d="M 526.44 726.81 L 533.95 720.11 L 532.96 725.04 L 536.31 728.79 Z" fill="#ff8000" stroke="#ff8000" stroke-width="3" stroke-miterlimit="10"/>
    <text x="624" y="700" text-anchor="middle" dominant-baseline="middle" font-family="Helvetica,Inter,Segoe UI,Arial" font-size="11" paint-order="stroke" stroke="#ffffff" stroke-width="3" stroke-linejoin="round" fill="#ff8000">
      <title>matures into</title>matu...
    </text>
    </g>
    <g class="edge" data-edge-idx="4" data-edge-base="leadsto" data-edge-from="10" data-edge-to="3">
    <line x1="766.50" y1="676.00" x2="753.44" y2="719.53" stroke="#ff8000" stroke-width="3" />
    <path d="M 751.50 726.00 L 749.78 716.09 L 753.44 719.53 L 758.40 718.67 Z" fill="#ff8000" stroke="#ff8000" stroke-width="3" stroke-miterlimit="10"/>
    <text x="759" y="697" text-anchor="middle" dominant-baseline="middle" font-family="Helvetica,Inter,Segoe UI,Arial" font-size="11" paint-order="stroke" stroke="#ffffff" stroke-width="3" stroke-linejoin="round" fill="#ff8000">
      <title>approximates to</title>appr...
    </text>
    </g>
    <g class="edge" data-edge-idx="5" data-edge-base="leadsto" data-edge-from="11" data-edge-to="4">
    <line x1="100.00" y1="436.00" x2="100.00" y2="479.25" stroke="#ff8000" stroke-width="3" />
    <path d="M 100.00 486.00 L 95.50 477.00 L 100.00 479.25 L 104.50 477.00 Z" fill="#ff8000" stroke="#ff8000" stroke-width="3" stroke-miterlimit="10"/>
    <text x="100" y="457" text-anchor="middle" dominant-baseline="middle" font-family="Helvetica,Inter,Segoe UI,Arial" font-size="11" paint-order="stroke" stroke="#ffffff" stroke-width="3" stroke-linejoin="round" fill="#ff8000">
      <title>develops into</title>deve...
    </text>
    </g>
    <g class="edge" data-edge-idx="6" data-edge-base="leadsto" data-edge-from="12" data-edge-to="13">
    <line x1="479.72" y1="436.00" x2="463.67" y2="719.26" stroke="#ff8000" stroke-width="3" />
    <path d="M 463.28 726.00 L 459.30 716.76 L 463.67 719.26 L 468.29 717.27 Z" fill="#ff8000" stroke="#ff8000" stroke-width="3" stroke-miterlimit="10"/>
    <text x="471" y="577" text-anchor="middle" dominant-baseline="middle" font-family="Helvetica,Inter,Segoe UI,Arial" font-size="11" paint-order="stroke" stroke="#ffffff" stroke-width="3" stroke-linejoin="round" fill="#ff8000">
      <title>matures into</title>matu...
    </text>
    </g>
    <g class="edge" data-edge-idx="7" data-edge-base="leadsto" data-edge-from="13" data-edge-to="19">
    <line x1="471.46" y1="796.00" x2="436.44" y2="845.49" stroke="#ff8000" stroke-width="3" />
    <path d="M 432.54 851.00 L 434.06 841.05 L 436.44 845.49 L 441.41 846.25 Z" fill="#ff8000" stroke="#ff8000" stroke-width="3" stroke-miterlimit="10"/>
    </g>
    <g class="edge" data-edge-idx="8" data-edge-base="leadsto" data-edge-from="14" data-edge-to="8">
    <line x1="516.88" y1="192.00" x2="486.70" y2="240.28" stroke="#ff8000" stroke-width="3" />
    <path d="M 483.12 246.00 L 484.08 235.98 L 486.70 240.28 L 491.71 240.75 Z" fill="#ff8000" stroke="#ff8000" stroke-width="3" stroke-miterlimit="10"/>
    <text x="501" y="216" text-anchor="middle" dominant-baseline="middle" font-family="Helvetica,Inter,Segoe UI,Arial" font-size="11" paint-order="stroke" stroke="#ffffff" stroke-width="3" stroke-linejoin="round" fill="#ff8000">
      <title>matures into</title>matu...
    </text>
    </g>
    <g class="edge" data-edge-idx="9" data-edge-base="leadsto" data-edge-from="15" data-edge-to="19">
    <line x1="301.11" y1="316.00" x2="418.43" y2="844.41" stroke="#ff8000" stroke-width="3" />
    <path d="M 419.89 851.00 L 413.55 843.19 L 418.43 844.41 L 422.33 841.24 Z" fill="#ff8000" stroke="#ff8000" stroke-width="3" stroke-miterlimit="10"/>
    </g>
    <g class="edge" data-edge-idx="10" data-edge-base="leadsto" data-edge-from="16" data-edge-to="5">
    <line x1="660.00" y1="316.00" x2="660.00" y2="359.25" stroke="#ff8000" stroke-width="3" />
    <path d="M 660.00 366.00 L 655.50 357.00 L 660.00 359.25 L 664.50 357.00 Z" fill="#ff8000" stroke="#ff8000" stroke-width="3" stroke-miterlimit="10"/>
    <text x="660" y="337" text-anchor="middle" dominant-baseline="middle" font-family="Helvetica,Inter,Segoe UI,Arial" font-size="11" paint-order="stroke" stroke="#ffffff" stroke-width="3" stroke-linejoin="round" fill="#ff8000">
      <title>develops into</title>deve...
    </text>
    </g>
    <g class="edge" data-edge-idx="11" data-edge-base="leadsto" data-edge-from="17" data-edge-to="13">
    <line x1="563.08" y1="676.00" x2="499.39" y2="722.05" stroke="#ff8000" stroke-width="3" />
    <path d="M 493.92 726.00 L 498.57 717.08 L 499.39 722.05 L 503.85 724.37 Z" fill="#ff8000" stroke="#ff8000" stroke-width="3" stroke-miterlimit="10"/>
    <text x="531" y="699" text-anchor="middle" dominant-baseline="middle" font-family="Helvetica,Inter,Segoe UI,Arial" font-size="11" paint-order="stroke" stroke="#ffffff" stroke-width="3" stroke-linejoin="round" fill="#ff8000">
      <title>matures into</title>matu...
    </text>
    </g>
    <g class="edge" data-edge-idx="12" data-edge-base="leadsto" data-edge-from="18" data-edge-to="1">
    <line x1="415.06" y1="85.00" x2="354.83" y2="118.70" stroke="#ff8000" stroke-width="3" />
    <path d="M 348.94 122.00 L 354.59 113.68 L 354.83 118.70 L 358.99 121.53 Z" fill="#ff8000" stroke="#ff8000" stroke-width="3" stroke-miterlimit="10"/>
    </g>
    <g class="edge" data-edge-idx="13" data-edge-base="leadsto" data-edge-from="18" data-edge-to="14">
    <line x1="444.94" y1="85.00" x2="505.17" y2="118.70" stroke="#ff8000" stroke-width="3" />
    <path d="M 511.06 122.00 L 501.01 121.53 L 505.17 118.70 L 505.41 113.68 Z" fill="#ff8000" stroke="#ff8000" stroke-width="3" stroke-miterlimit="10"/>
    </g>
    <g class="edge" data-edge-idx="14" data-edge-base="leadsto" data-edge-from="2" data-edge-to="19">
    <line x1="108.46" y1="676.00" x2="398.73" y2="847.57" stroke="#ff8000" stroke-width="3" />
    <path d="M 404.54 851.00 L 394.50 850.29 L 398.73 847.57 L 399.08 842.55 Z" fill="#ff8000" stroke="#ff8000" stroke-width="3" stroke-miterlimit="10"/>
    </g>
    <g class="edge" data-edge-idx="15" data-edge-base="leadsto" data-edge-from="3" data-edge-to="19">
    <line x1="734.33" y1="794.25" x2="459.27" y2="851.37" stroke="#ff8000" stroke-width="3" />
    <path d="M 452.67 852.75 L 460.56 846.51 L 459.27 851.37 L 462.39 855.32 Z" fill="#ff8000" stroke="#ff8000" stroke-width="3" stroke-miterlimit="10"/>
    </g>
    <g class="edge" data-edge-idx="16" data-edge-base="leadsto" data-edge-from="4" data-edge-to="13">
    <line x1="126.92" y1="556.00" x2="424.20" y2="722.70" stroke="#ff8000" stroke-width="3" />
    <path d="M 430.08 726.00 L 420.03 725.52 L 424.20 722.70 L 424.43 717.67 Z" fill="#ff8000" stroke="#ff8000" stroke-width="3" stroke-miterlimit="10"/>
    <text x="275" y="639" text-anchor="middle" dominant-baseline="middle" font-family="Helvetica,Inter,Segoe UI,Arial" font-size="11" paint-order="stroke" stroke="#ffffff" stroke-width="3" stroke-linejoin="round" fill="#ff8000">
      <title>develops into</title>deve...
    </text>
    </g>
    <g class="edge" data-edge-idx="17" data-edge-base="leadsto" data-edge-from="4" data-edge-to="2">
    <line x1="83.50" y1="556.00" x2="96.56" y2="599.53" stroke="#ff8000" stroke-width="3" />
    <path d="M 98.50 606.00 L 91.60 598.67 L 96.56 599.53 L 100.22 596.09 Z" fill="#ff8000" stroke="#ff8000" stroke-width="3" stroke-miterlimit="10"/>
    <text x="89" y="577" text-anchor="middle" dominant-baseline="middle" font-family="Helvetica,Inter,Segoe UI,Arial" font-size="11" paint-order="stroke" stroke="#ffffff" stroke-width="3" stroke-linejoin="round" fill="#ff8000">
      <title>approximates to</title>appr...
    </text>
    </g>
    <g class="edge" data-edge-idx="18" data-edge-base="leadsto" data-edge-from="5" data-edge-to="6">
    <line x1="636.00" y1="436.00" x2="581.19" y2="481.68" stroke="#ff8000" stroke-width="3" />
    <path d="M 576.00 486.00 L 580.03 476.78 L 581.19 481.68 L 585.79 483.70 Z" fill="#ff8000" stroke="#ff8000" stroke-width="3" stroke-miterlimit="10"/>
    <text x="608" y="458" text-anchor="middle" dominant-baseline="middle" font-family="Helvetica,Inter,Segoe UI,Arial" font-size="11" paint-order="stroke" stroke="#ffffff" stroke-width="3" stroke-linejoin="round" fill="#ff8000">
      <title>matures into</title>matu...
    </text>
    </g>
    <g class="edge" data-edge-idx="19" data-edge-base="leadsto" data-edge-from="5" data-edge-to="7">
    <line x1="684.00" y1="436.00" x2="738.81" y2="481.68" stroke="#ff8000" stroke-width="3" />
    <path d="M 744.00 486.00 L 734.21 483.70 L 738.81 481.68 L 739.97 476.78 Z" fill="#ff8000" stroke="#ff8000" stroke-width="3" stroke-miterlimit="10"/>
    <text x="711" y="458" text-anchor="middle" dominant-baseline="middle" font-family="Helvetica,Inter,Segoe UI,Arial" font-size="11" paint-order="stroke" stroke="#ffffff" stroke-width="3" stroke-linejoin="round" fill="#ff8000">
      <title>develops into</title>deve...
    </text>
    </g>
    <g class="edge" data-edge-idx="20" data-edge-base="leadsto" data-edge-from="6" data-edge-to="17">
    <line x1="570.00" y1="556.00" x2="570.00" y2="599.25" stroke="#ff8000" stroke-width="3" />
    <path d="M 570.00 606.00 L 565.50 597.00 L 570.00 599.25 L 574.50 597.00 Z" fill="#ff8000" stroke="#ff8000" stroke-width="3" stroke-miterlimit="10"/>
    <text x="570" y="577" text-anchor="middle" dominant-baseline="middle" font-family="Helvetica,Inter,Segoe UI,Arial" font-size="11" paint-order="stroke" stroke="#ffffff" stroke-width="3" stroke-linejoin="round" fill="#ff8000">
      <title>develops into</title>deve...
    </text>
    </g>
    <g class="edge" data-edge-idx="21" data-edge-base="leadsto" data-edge-from="7" data-edge-to="10">
    <line x1="750.00" y1="556.00" x2="750.00" y2="599.25" stroke="#ff8000" stroke-width="3" />
    <path d="M 750.00 606.00 L 745.50 597.00 L 750.00 599.25 L 754.50 597.00 Z" fill="#ff8000" stroke="#ff8000" stroke-width="3" stroke-miterlimit="10"/>
    <text x="750" y="577" text-anchor="middle" dominant-baseline="middle" font-family="Helvetica,Inter,Segoe UI,Arial" font-size="11" paint-order="stroke" stroke="#ffffff" stroke-width="3" stroke-linejoin="round" fill="#ff8000">
      <title>develops into</title>deve...
    </text>
    </g>
    <g class="edge" data-edge-idx="22" data-edge-base="leadsto" data-edge-from="8" data-edge-to="12">
    <line x1="480.00" y1="316.00" x2="480.00" y2="359.25" stroke="#ff8000" stroke-width="3" />
    <path d="M 480.00 366.00 L 475.50 357.00 L 480.00 359.25 L 484.50 357.00 Z" fill="#ff8000" stroke="#ff8000" stroke-width="3" stroke-miterlimit="10"/>
    <text x="480" y="337" text-anchor="middle" dominant-baseline="middle" font-family="Helvetica,Inter,Segoe UI,Arial" font-size="11" paint-order="stroke" stroke="#ffffff" stroke-width="3" stroke-linejoin="round" fill="#ff8000">
      <title>develops into</title>deve...
    </text>
    </g>
    <g class="edge" data-edge-idx="23" data-edge-base="leadsto" data-edge-from="9" data-edge-to="11">
    <line x1="100.00" y1="316.00" x2="100.00" y2="359.25" stroke="#ff8000" stroke-width="3" />
    <path d="M 100.00 366.00 L 95.50 357.00 L 100.00 359.25 L 104.50 357.00 Z" fill="#ff8000" stroke="#ff8000" stroke-width="3" stroke-miterlimit="10"/>
    <text x="100" y="337" text-anchor="middle" dominant-baseline="middle" font-family="Helvetica,Inter,Segoe UI,Arial" font-size="11" paint-order="stroke" stroke="#ffffff" stroke-width="3" stroke-linejoin="round" fill="#ff8000">
      <title>matures into</title>matu...
    </text>
    </g>
  </g>
  <g id="nodes">
    <rect x="280" y="127" width="120" height="60" rx="6" ry="6" fill="#ffe6cc" stroke="#ff8000" stroke-width="2"/>
    <text x="340" y="157" text-anchor="middle" dominant-baseline="middle" font-family="Helvetica,Inter,Segoe UI,Arial" font-size="16" font-weight="bold" fill="#ff8000">Internet</text>
    <rect x="690" y="611" width="120" height="60" rx="6" ry="6" fill="#ffe6cc" stroke="#ff8000" stroke-width="2"/>
    <text x="750" y="631" text-anchor="middle" dominant-baseline="middle" font-family="Helvetica,Inter,Segoe UI,Arial" font-size="16" font-weight="bold" fill="#ff8000">individual</text>
    <text x="750" y="651" text-anchor="middle" dominant-baseline="middle" font-family="Helvetica,Inter,Segoe UI,Arial" font-size="16" font-weight="bold" fill="#ff8000">sovereignty</text>
    <rect x="40" y="371" width="120" height="60" rx="6" ry="6" fill="#ffe6cc" stroke="#ff8000" stroke-width="2"/>
    <text x="100" y="401" text-anchor="middle" dominant-baseline="middle" font-family="Helvetica,Inter,Segoe UI,Arial" font-size="16" font-weight="bold" fill="#ff8000">nation state</text>
    <rect x="420" y="371" width="120" height="60" rx="6" ry="6" fill="#ffe6cc" stroke="#ff8000" stroke-width="2"/>
    <text x="480" y="391" text-anchor="middle" dominant-baseline="middle" font-family="Helvetica,Inter,Segoe UI,Arial" font-size="16" font-weight="bold" fill="#ff8000">personal</text>
    <text x="480" y="411" text-anchor="middle" dominant-baseline="middle" font-family="Helvetica,Inter,Segoe UI,Arial" font-size="16" font-weight="bold" fill="#ff8000">security</text>
    <rect x="415" y="731" width="120" height="60" rx="6" ry="6" fill="#ffe6cc" stroke="#ff8000" stroke-width="2"/>
    <text x="475" y="751" text-anchor="middle" dominant-baseline="middle" font-family="Helvetica,Inter,Segoe UI,Arial" font-size="16" font-weight="bold" fill="#ff8000">sovereign</text>
    <text x="475" y="771" text-anchor="middle" dominant-baseline="middle" font-family="Helvetica,Inter,Segoe UI,Arial" font-size="16" font-weight="bold" fill="#ff8000">individual</text>
    <rect x="460" y="127" width="120" height="60" rx="6" ry="6" fill="#ffe6cc" stroke="#ff8000" stroke-width="2"/>
    <text x="520" y="157" text-anchor="middle" dominant-baseline="middle" font-family="Helvetica,Inter,Segoe UI,Arial" font-size="16" font-weight="bold" fill="#ff8000">tax system</text>
    <rect x="240" y="251" width="120" height="60" rx="6" ry="6" fill="#ffe6cc" stroke="#ff8000" stroke-width="2"/>
    <text x="300" y="271" text-anchor="middle" dominant-baseline="middle" font-family="Helvetica,Inter,Segoe UI,Arial" font-size="16" font-weight="bold" fill="#ff8000">territorial</text>
    <text x="300" y="291" text-anchor="middle" dominant-baseline="middle" font-family="Helvetica,Inter,Segoe UI,Arial" font-size="16" font-weight="bold" fill="#ff8000">control</text>
    <rect x="600" y="251" width="120" height="60" rx="6" ry="6" fill="#ffe6cc" stroke="#ff8000" stroke-width="2"/>
    <text x="660" y="281" text-anchor="middle" dominant-baseline="middle" font-family="Helvetica,Inter,Segoe UI,Arial" font-size="16" font-weight="bold" fill="#ff8000">unknown</text>
    <rect x="510" y="611" width="120" height="60" rx="6" ry="6" fill="#ffe6cc" stroke="#ff8000" stroke-width="2"/>
    <text x="570" y="631" text-anchor="middle" dominant-baseline="middle" font-family="Helvetica,Inter,Segoe UI,Arial" font-size="16" font-weight="bold" fill="#ff8000">wealth</text>
    <text x="570" y="651" text-anchor="middle" dominant-baseline="middle" font-family="Helvetica,Inter,Segoe UI,Arial" font-size="16" font-weight="bold" fill="#ff8000">presentation</text>
    <rect x="410" y="40" width="40" height="40" rx="4" ry="4" fill="#ffe6cc" stroke="#ff8000" stroke-width="2"/>
    <text x="430" y="60" text-anchor="middle" dominant-baseline="middle" font-family="Helvetica,Inter,Segoe UI,Arial" font-size="16" font-weight="bold" fill="#ff8000">S</text>
    <rect x="405" y="856" width="40" height="40" rx="4" ry="4" fill="#ffe6cc" stroke="#ff8000" stroke-width="2"/>
    <text x="425" y="876" text-anchor="middle" dominant-baseline="middle" font-family="Helvetica,Inter,Segoe UI,Arial" font-size="16" font-weight="bold" fill="#ff8000">E</text>
    <rect x="40" y="611" width="120" height="60" rx="6" ry="6" fill="#ffe6cc" stroke="#ff8000" stroke-width="2"/>
    <text x="100" y="622" text-anchor="middle" dominant-baseline="middle" font-family="Helvetica,Inter,Segoe UI,Arial" font-size="16" font-weight="bold" fill="#ff8000">The</text>
    <text x="100" y="641" text-anchor="middle" dominant-baseline="middle" font-family="Helvetica,Inter,Segoe UI,Arial" font-size="16" font-weight="bold" fill="#ff8000">Industrializ</text>
    <text x="100" y="660" text-anchor="middle" dominant-baseline="middle" font-family="Helvetica,Inter,Segoe UI,Arial" font-size="16" font-weight="bold" fill="#ff8000">ed</text>
    <rect x="690" y="731" width="120" height="60" rx="6" ry="6" fill="#ffe6cc" stroke="#ff8000" stroke-width="2"/>
    <text x="750" y="751" text-anchor="middle" dominant-baseline="middle" font-family="Helvetica,Inter,Segoe UI,Arial" font-size="16" font-weight="bold" fill="#ff8000">The</text>
    <text x="750" y="771" text-anchor="middle" dominant-baseline="middle" font-family="Helvetica,Inter,Segoe UI,Arial" font-size="16" font-weight="bold" fill="#ff8000">Uncharted</text>
    <rect x="40" y="491" width="120" height="60" rx="6" ry="6" fill="#ffe6cc" stroke="#ff8000" stroke-width="2"/>
    <text x="100" y="521" text-anchor="middle" dominant-baseline="middle" font-family="Helvetica,Inter,Segoe UI,Arial" font-size="16" font-weight="bold" fill="#ff8000">citizenship</text>
    <g>
      <title>de facto starting point</title>
    <rect x="600" y="371" width="120" height="60" rx="6" ry="6" fill="#ffe6cc" stroke="#ff8000" stroke-width="2"/>
    <text x="660" y="401" text-anchor="middle" dominant-baseline="middle" font-family="Helvetica,Inter,Segoe UI,Arial" font-size="16" font-weight="bold" fill="#ff8000">cryptography</text>
    </g>
    <rect x="510" y="491" width="120" height="60" rx="6" ry="6" fill="#ffe6cc" stroke="#ff8000" stroke-width="2"/>
    <text x="570" y="511" text-anchor="middle" dominant-baseline="middle" font-family="Helvetica,Inter,Segoe UI,Arial" font-size="16" font-weight="bold" fill="#ff8000">digital</text>
    <text x="570" y="531" text-anchor="middle" dominant-baseline="middle" font-family="Helvetica,Inter,Segoe UI,Arial" font-size="16" font-weight="bold" fill="#ff8000">currency</text>
    <rect x="690" y="491" width="120" height="60" rx="6" ry="6" fill="#ffe6cc" stroke="#ff8000" stroke-width="2"/>
    <text x="750" y="511" text-anchor="middle" dominant-baseline="middle" font-family="Helvetica,Inter,Segoe UI,Arial" font-size="16" font-weight="bold" fill="#ff8000">digital</text>
    <text x="750" y="531" text-anchor="middle" dominant-baseline="middle" font-family="Helvetica,Inter,Segoe UI,Arial" font-size="16" font-weight="bold" fill="#ff8000">identity</text>
    <rect x="420" y="251" width="120" height="60" rx="6" ry="6" fill="#ffe6cc" stroke="#ff8000" stroke-width="2"/>
    <text x="480" y="281" text-anchor="middle" dominant-baseline="middle" font-family="Helvetica,Inter,Segoe UI,Arial" font-size="16" font-weight="bold" fill="#ff8000">encryption</text>
    <rect x="40" y="251" width="120" height="60" rx="6" ry="6" fill="#ffe6cc" stroke="#ff8000" stroke-width="2"/>
    <text x="100" y="271" text-anchor="middle" dominant-baseline="middle" font-family="Helvetica,Inter,Segoe UI,Arial" font-size="16" font-weight="bold" fill="#ff8000">global</text>
    <text x="100" y="291" text-anchor="middle" dominant-baseline="middle" font-family="Helvetica,Inter,Segoe UI,Arial" font-size="16" font-weight="bold" fill="#ff8000">network</text>
  </g>
</svg>
