<?xml version="1.0" encoding="UTF-8"?>
<svg xmlns="http://www.w3.org/2000/svg" width="740" height="900" viewBox="0 0 740 900">
  <defs>
  </defs>
  <g id="container-shells">
  </g>
  <g id="node-shadows">
    <rect x="220" y="120" width="120" height="60" rx="6" ry="6" fill="#000000" stroke="#000000" stroke-width="2" opacity="0.25" transform="translate(2,3)"/>
    <rect x="490" y="600" width="120" height="60" rx="6" ry="6" fill="#000000" stroke="#000000" stroke-width="2" opacity="0.25" transform="translate(2,3)"/>
    <rect x="130" y="360" width="120" height="60" rx="6" ry="6" fill="#000000" stroke="#000000" stroke-width="2" opacity="0.25" transform="translate(2,3)"/>
    <rect x="490" y="360" width="120" height="60" rx="6" ry="6" fill="#000000" stroke="#000000" stroke-width="2" opacity="0.25" transform="translate(2,3)"/>
    <rect x="220" y="720" width="120" height="60" rx="6" ry="6" fill="#000000" stroke="#000000" stroke-width="2" opacity="0.25" transform="translate(2,3)"/>
    <rect x="400" y="120" width="120" height="60" rx="6" ry="6" fill="#000000" stroke="#000000" stroke-width="2" opacity="0.25" transform="translate(2,3)"/>
    <rect x="220" y="240" width="120" height="60" rx="6" ry="6" fill="#000000" stroke="#000000" stroke-width="2" opacity="0.25" transform="translate(2,3)"/>
    <rect x="400" y="240" width="120" height="60" rx="6" ry="6" fill="#000000" stroke="#000000" stroke-width="2" opacity="0.25" transform="translate(2,3)"/>
    <rect x="310" y="600" width="120" height="60" rx="6" ry="6" fill="#000000" stroke="#000000" stroke-width="2" opacity="0.25" transform="translate(2,3)"/>
    <rect x="350" y="40" width="40" height="40" rx="4" ry="4" fill="#000000" stroke="#000000" stroke-width="2" opacity="0.25" transform="translate(2,3)"/>
    <rect x="350" y="820" width="40" height="40" rx="4" ry="4" fill="#000000" stroke="#000000" stroke-width="2" opacity="0.25" transform="translate(2,3)"/>
    <rect x="130" y="600" width="120" height="60" rx="6" ry="6" fill="#000000" stroke="#000000" stroke-width="2" opacity="0.25" transform="translate(2,3)"/>
    <rect x="400" y="720" width="120" height="60" rx="6" ry="6" fill="#000000" stroke="#000000" stroke-width="2" opacity="0.25" transform="translate(2,3)"/>
    <rect x="130" y="480" width="120" height="60" rx="6" ry="6" fill="#000000" stroke="#000000" stroke-width="2" opacity="0.25" transform="translate(2,3)"/>
    <rect x="310" y="360" width="120" height="60" rx="6" ry="6" fill="#000000" stroke="#000000" stroke-width="2" opacity="0.25" transform="translate(2,3)"/>
    <rect x="310" y="480" width="120" height="60" rx="6" ry="6" fill="#000000" stroke="#000000" stroke-width="2" opacity="0.25" transform="translate(2,3)"/>
    <rect x="490" y="480" width="120" height="60" rx="6" ry="6" fill="#000000" stroke="#000000" stroke-width="2" opacity="0.25" transform="translate(2,3)"/>
    <rect x="580" y="240" width="120" height="60" rx="6" ry="6" fill="#000000" stroke="#000000" stroke-width="2" opacity="0.25" transform="translate(2,3)"/>
    <rect x="40" y="240" width="120" height="60" rx="6" ry="6" fill="#000000" stroke="#000000" stroke-width="2" opacity="0.25" transform="translate(2,3)"/>
  </g>
  <g id="edges">
    <g class="edge" data-edge-idx="0" data-edge-base="leadsto" data-edge-from="1" data-edge-to="15">
    <line x1="280.00" y1="184.00" x2="280.00" y2="229.25" stroke="#ff8000" stroke-width="3" />
    <path d="M 280.00 236.00 L 275.50 227.00 L 280.00 229.25 L 284.50 227.00 Z" fill="#ff8000" stroke="#ff8000" stroke-width="3" stroke-miterlimit="10"/>
    <text x="280" y="206" text-anchor="middle" dominant-baseline="middle" font-family="Helvetica,Inter,Segoe UI,Arial" font-size="11" paint-order="stroke" stroke="#ffffff" stroke-width="3" stroke-linejoin="round" fill="#ff8000">
      <title>develops into</title>deve...
    </text>
    </g>
    <g class="edge" data-edge-idx="1" data-edge-base="leadsto" data-edge-from="1" data-edge-to="16">
    <line x1="341.79" y1="153.58" x2="395.19" y2="260.38" stroke="#ff8000" stroke-width="3" />
    <path d="M 398.21 266.42 L 390.16 260.38 L 395.19 260.38 L 398.21 256.36 Z" fill="#ff8000" stroke="#ff8000" stroke-width="3" stroke-miterlimit="10"/>
    <text x="368" y="206" text-anchor="middle" dominant-baseline="middle" font-family="Helvetica,Inter,Segoe UI,Arial" font-size="11" paint-order="stroke" stroke="#ffffff" stroke-width="3" stroke-linejoin="round" fill="#ff8000">
      <title>develops into</title>deve...
    </text>
    </g>
    <g class="edge" data-edge-idx="2" data-edge-base="leadsto" data-edge-from="1" data-edge-to="9">
    <line x1="218.21" y1="153.58" x2="164.81" y2="260.38" stroke="#ff8000" stroke-width="3" />
    <path d="M 161.79 266.42 L 161.79 256.36 L 164.81 260.38 L 169.84 260.38 Z" fill="#ff8000" stroke="#ff8000" stroke-width="3" stroke-miterlimit="10"/>
    <text x="191" y="206" text-anchor="middle" dominant-baseline="middle" font-family="Helvetica,Inter,Segoe UI,Arial" font-size="11" paint-order="stroke" stroke="#ffffff" stroke-width="3" stroke-linejoin="round" fill="#ff8000">
      <title>develops into</title>deve...
    </text>
    </g>
    <g class="edge" data-edge-idx="3" data-edge-base="leadsto" data-edge-from="10" data-edge-to="13">
    <line x1="486.88" y1="632.50" x2="348.39" y2="743.28" stroke="#ff8000" stroke-width="3" />
    <path d="M 343.12 747.50 L 347.34 738.37 L 348.39 743.28 L 352.96 745.39 Z" fill="#ff8000" stroke="#ff8000" stroke-width="3" stroke-miterlimit="10"/>
    <text x="417" y="687" text-anchor="middle" dominant-baseline="middle" font-family="Helvetica,Inter,Segoe UI,Arial" font-size="11" paint-order="stroke" stroke="#ffffff" stroke-width="3" stroke-linejoin="round" fill="#ff8000">
      <title>matures into</title>matu...
    </text>
    </g>
    <g class="edge" data-edge-idx="4" data-edge-base="leadsto" data-edge-from="10" data-edge-to="3">
    <line x1="546.67" y1="662.22" x2="468.94" y2="714.04" stroke="#ff8000" stroke-width="3" />
    <path d="M 463.33 717.78 L 468.32 709.04 L 468.94 714.04 L 473.31 716.53 Z" fill="#ff8000" stroke="#ff8000" stroke-width="3" stroke-miterlimit="10"/>
    <text x="507" y="688" text-anchor="middle" dominant-baseline="middle" font-family="Helvetica,Inter,Segoe UI,Arial" font-size="11" paint-order="stroke" stroke="#ffffff" stroke-width="3" stroke-linejoin="round" fill="#ff8000">
      <title>approximates to</title>appr...
    </text>
    </g>
    <g class="edge" data-edge-idx="5" data-edge-base="leadsto" data-edge-from="11" data-edge-to="4">
    <line x1="190.00" y1="424.00" x2="190.00" y2="469.25" stroke="#ff8000" stroke-width="3" />
    <path d="M 190.00 476.00 L 185.50 467.00 L 190.00 469.25 L 194.50 467.00 Z" fill="#ff8000" stroke="#ff8000" stroke-width="3" stroke-miterlimit="10"/>
    <text x="190" y="446" text-anchor="middle" dominant-baseline="middle" font-family="Helvetica,Inter,Segoe UI,Arial" font-size="11" paint-order="stroke" stroke="#ffffff" stroke-width="3" stroke-linejoin="round" fill="#ff8000">
      <title>develops into</title>deve...
    </text>
    </g>
    <g class="edge" data-edge-idx="6" data-edge-base="leadsto" data-edge-from="12" data-edge-to="13">
    <line x1="488.39" y1="393.66" x2="344.32" y2="722.16" stroke="#ff8000" stroke-width="3" />
    <path d="M 341.61 728.34 L 341.10 718.29 L 344.32 722.16 L 349.34 721.90 Z" fill="#ff8000" stroke="#ff8000" stroke-width="3" stroke-miterlimit="10"/>
    <text x="416" y="557" text-anchor="middle" dominant-baseline="middle" font-family="Helvetica,Inter,Segoe UI,Arial" font-size="11" paint-order="stroke" stroke="#ffffff" stroke-width="3" stroke-linejoin="round" fill="#ff8000">
      <title>matures into</title>matu...
    </text>
    </g>
    <g class="edge" data-edge-idx="7" data-edge-base="leadsto" data-edge-from="13" data-edge-to="19">
    <line x1="341.79" y1="771.58" x2="361.19" y2="810.38" stroke="#ff8000" stroke-width="3" />
    <path d="M 364.21 816.42 L 356.16 810.38 L 361.19 810.38 L 364.21 806.36 Z" fill="#ff8000" stroke="#ff8000" stroke-width="3" stroke-miterlimit="10"/>
    </g>
    <g class="edge" data-edge-idx="8" data-edge-base="leadsto" data-edge-from="14" data-edge-to="8">
    <line x1="521.79" y1="153.58" x2="575.19" y2="260.38" stroke="#ff8000" stroke-width="3" />
    <path d="M 578.21 266.42 L 570.16 260.38 L 575.19 260.38 L 578.21 256.36 Z" fill="#ff8000" stroke="#ff8000" stroke-width="3" stroke-miterlimit="10"/>
    <text x="548" y="206" text-anchor="middle" dominant-baseline="middle" font-family="Helvetica,Inter,Segoe UI,Arial" font-size="11" paint-order="stroke" stroke="#ffffff" stroke-width="3" stroke-linejoin="round" fill="#ff8000">
      <title>matures into</title>matu...
    </text>
    </g>
    <g class="edge" data-edge-idx="9" data-edge-base="leadsto" data-edge-from="15" data-edge-to="19">
    <line x1="340.25" y1="273.99" x2="373.34" y2="809.27" stroke="#ff8000" stroke-width="3" />
    <path d="M 373.75 816.01 L 368.71 807.30 L 373.34 809.27 L 377.69 806.75 Z" fill="#ff8000" stroke="#ff8000" stroke-width="3" stroke-miterlimit="10"/>
    </g>
    <g class="edge" data-edge-idx="10" data-edge-base="leadsto" data-edge-from="16" data-edge-to="5">
    <line x1="456.67" y1="302.22" x2="378.94" y2="354.04" stroke="#ff8000" stroke-width="3" />
    <path d="M 373.33 357.78 L 378.32 349.04 L 378.94 354.04 L 383.31 356.53 Z" fill="#ff8000" stroke="#ff8000" stroke-width="3" stroke-miterlimit="10"/>
    <text x="417" y="328" text-anchor="middle" dominant-baseline="middle" font-family="Helvetica,Inter,Segoe UI,Arial" font-size="11" paint-order="stroke" stroke="#ffffff" stroke-width="3" stroke-linejoin="round" fill="#ff8000">
      <title>develops into</title>deve...
    </text>
    </g>
    <g class="edge" data-edge-idx="11" data-edge-base="leadsto" data-edge-from="17" data-edge-to="13">
    <line x1="366.93" y1="662.56" x2="306.26" y2="713.12" stroke="#ff8000" stroke-width="3" />
    <path d="M 301.07 717.44 L 305.11 708.22 L 306.26 713.12 L 310.87 715.13 Z" fill="#ff8000" stroke="#ff8000" stroke-width="3" stroke-miterlimit="10"/>
    <text x="336" y="687" text-anchor="middle" dominant-baseline="middle" font-family="Helvetica,Inter,Segoe UI,Arial" font-size="11" paint-order="stroke" stroke="#ffffff" stroke-width="3" stroke-linejoin="round" fill="#ff8000">
      <title>matures into</title>matu...
    </text>
    </g>
    <g class="edge" data-edge-idx="12" data-edge-base="leadsto" data-edge-from="18" data-edge-to="1">
    <line x1="360.39" y1="81.72" x2="289.71" y2="115.38" stroke="#ff8000" stroke-width="3" />
    <path d="M 283.61 118.28 L 289.80 110.35 L 289.71 115.38 L 293.67 118.47 Z" fill="#ff8000" stroke="#ff8000" stroke-width="3" stroke-miterlimit="10"/>
    </g>
    <g class="edge" data-edge-idx="13" data-edge-base="leadsto" data-edge-from="18" data-edge-to="14">
    <line x1="379.61" y1="81.72" x2="450.29" y2="115.38" stroke="#ff8000" stroke-width="3" />
    <path d="M 456.39 118.28 L 446.33 118.47 L 450.29 115.38 L 450.20 110.35 Z" fill="#ff8000" stroke="#ff8000" stroke-width="3" stroke-miterlimit="10"/>
    </g>
    <g class="edge" data-edge-idx="14" data-edge-base="leadsto" data-edge-from="2" data-edge-to="19">
    <line x1="251.98" y1="633.48" x2="352.69" y2="810.65" stroke="#ff8000" stroke-width="3" />
    <path d="M 356.02 816.52 L 347.66 810.92 L 352.69 810.65 L 355.49 806.47 Z" fill="#ff8000" stroke="#ff8000" stroke-width="3" stroke-miterlimit="10"/>
    </g>
    <g class="edge" data-edge-idx="15" data-edge-base="leadsto" data-edge-from="3" data-edge-to="19">
    <line x1="399.00" y1="753.87" x2="384.68" y2="809.59" stroke="#ff8000" stroke-width="3" />
    <path d="M 383.00 816.13 L 380.88 806.29 L 384.68 809.59 L 389.60 808.53 Z" fill="#ff8000" stroke="#ff8000" stroke-width="3" stroke-miterlimit="10"/>
    </g>
    <g class="edge" data-edge-idx="16" data-edge-base="leadsto" data-edge-from="4" data-edge-to="13">
    <line x1="209.15" y1="543.83" x2="258.91" y2="709.70" stroke="#ff8000" stroke-width="3" />
    <path d="M 260.85 716.17 L 253.95 708.84 L 258.91 709.70 L 262.57 706.26 Z" fill="#ff8000" stroke="#ff8000" stroke-width="3" stroke-miterlimit="10"/>
    <text x="233" y="626" text-anchor="middle" dominant-baseline="middle" font-family="Helvetica,Inter,Segoe UI,Arial" font-size="11" paint-order="stroke" stroke="#ffffff" stroke-width="3" stroke-linejoin="round" fill="#ff8000">
      <title>develops into</title>deve...
    </text>
    </g>
    <g class="edge" data-edge-idx="17" data-edge-base="leadsto" data-edge-from="4" data-edge-to="2">
    <line x1="173.15" y1="543.83" x2="186.91" y2="589.70" stroke="#ff8000" stroke-width="3" />
    <path d="M 188.85 596.17 L 181.95 588.84 L 186.91 589.70 L 190.57 586.26 Z" fill="#ff8000" stroke="#ff8000" stroke-width="3" stroke-miterlimit="10"/>
    <text x="179" y="566" text-anchor="middle" dominant-baseline="middle" font-family="Helvetica,Inter,Segoe UI,Arial" font-size="11" paint-order="stroke" stroke="#ffffff" stroke-width="3" stroke-linejoin="round" fill="#ff8000">
      <title>approximates to</title>appr...
    </text>
    </g>
    <g class="edge" data-edge-idx="18" data-edge-base="leadsto" data-edge-from="5" data-edge-to="6">
    <line x1="370.00" y1="424.00" x2="370.00" y2="469.25" stroke="#ff8000" stroke-width="3" />
    <path d="M 370.00 476.00 L 365.50 467.00 L 370.00 469.25 L 374.50 467.00 Z" fill="#ff8000" stroke="#ff8000" stroke-width="3" stroke-miterlimit="10"/>
    <text x="370" y="446" text-anchor="middle" dominant-baseline="middle" font-family="Helvetica,Inter,Segoe UI,Arial" font-size="11" paint-order="stroke" stroke="#ffffff" stroke-width="3" stroke-linejoin="round" fill="#ff8000">
      <title>matures into</title>matu...
    </text>
    </g>
    <g class="edge" data-edge-idx="19" data-edge-base="leadsto" data-edge-from="5" data-edge-to="7">
    <line x1="431.79" y1="393.58" x2="485.19" y2="500.38" stroke="#ff8000" stroke-width="3" />
    <path d="M 488.21 506.42 L 480.16 500.38 L 485.19 500.38 L 488.21 496.36 Z" fill="#ff8000" stroke="#ff8000" stroke-width="3" stroke-miterlimit="10"/>
    <text x="458" y="446" text-anchor="middle" dominant-baseline="middle" font-family="Helvetica,Inter,Segoe UI,Arial" font-size="11" paint-order="stroke" stroke="#ffffff" stroke-width="3" stroke-linejoin="round" fill="#ff8000">
      <title>develops into</title>deve...
    </text>
    </g>
    <g class="edge" data-edge-idx="20" data-edge-base="leadsto" data-edge-from="6" data-edge-to="17">
    <line x1="370.59" y1="543.96" x2="377.41" y2="589.37" stroke="#ff8000" stroke-width="3" />
    <path d="M 378.41 596.04 L 372.62 587.81 L 377.41 589.37 L 381.52 586.48 Z" fill="#ff8000" stroke="#ff8000" stroke-width="3" stroke-miterlimit="10"/>
    <text x="373" y="566" text-anchor="middle" dominant-baseline="middle" font-family="Helvetica,Inter,Segoe UI,Arial" font-size="11" paint-order="stroke" stroke="#ffffff" stroke-width="3" stroke-linejoin="round" fill="#ff8000">
      <title>develops into</title>deve...
    </text>
    </g>
    <g class="edge" data-edge-idx="21" data-edge-base="leadsto" data-edge-from="7" data-edge-to="10">
    <line x1="550.00" y1="544.00" x2="550.00" y2="589.25" stroke="#ff8000" stroke-width="3" />
    <path d="M 550.00 596.00 L 545.50 587.00 L 550.00 589.25 L 554.50 587.00 Z" fill="#ff8000" stroke="#ff8000" stroke-width="3" stroke-miterlimit="10"/>
    <text x="550" y="566" text-anchor="middle" dominant-baseline="middle" font-family="Helvetica,Inter,Segoe UI,Arial" font-size="11" paint-order="stroke" stroke="#ffffff" stroke-width="3" stroke-linejoin="round" fill="#ff8000">
      <title>develops into</title>deve...
    </text>
    </g>
    <g class="edge" data-edge-idx="22" data-edge-base="leadsto" data-edge-from="8" data-edge-to="12">
    <line x1="636.67" y1="302.22" x2="558.94" y2="354.04" stroke="#ff8000" stroke-width="3" />
    <path d="M 553.33 357.78 L 558.32 349.04 L 558.94 354.04 L 563.31 356.53 Z" fill="#ff8000" stroke="#ff8000" stroke-width="3" stroke-miterlimit="10"/>
    <text x="597" y="328" text-anchor="middle" dominant-baseline="middle" font-family="Helvetica,Inter,Segoe UI,Arial" font-size="11" paint-order="stroke" stroke="#ffffff" stroke-width="3" stroke-linejoin="round" fill="#ff8000">
      <title>develops into</title>deve...
    </text>
    </g>
    <g class="edge" data-edge-idx="23" data-edge-base="leadsto" data-edge-from="9" data-edge-to="11">
    <line x1="103.33" y1="302.22" x2="181.06" y2="354.04" stroke="#ff8000" stroke-width="3" />
    <path d="M 186.67 357.78 L 176.69 356.53 L 181.06 354.04 L 181.68 349.04 Z" fill="#ff8000" stroke="#ff8000" stroke-width="3" stroke-miterlimit="10"/>
    <text x="142" y="328" text-anchor="middle" dominant-baseline="middle" font-family="Helvetica,Inter,Segoe UI,Arial" font-size="11" paint-order="stroke" stroke="#ffffff" stroke-width="3" stroke-linejoin="round" fill="#ff8000">
      <title>matures into</title>matu...
    </text>
    </g>
  </g>
  <g id="nodes">
    <rect x="220" y="120" width="120" height="60" rx="6" ry="6" fill="#ffe6cc" stroke="#ff8000" stroke-width="2"/>
    <text x="280" y="150" text-anchor="middle" dominant-baseline="middle" font-family="Helvetica,Inter,Segoe UI,Arial" font-size="16" font-weight="bold" fill="#ff8000">Internet</text>
    <rect x="490" y="600" width="120" height="60" rx="6" ry="6" fill="#ffe6cc" stroke="#ff8000" stroke-width="2"/>
    <text x="550" y="620" text-anchor="middle" dominant-baseline="middle" font-family="Helvetica,Inter,Segoe UI,Arial" font-size="16" font-weight="bold" fill="#ff8000">individual</text>
    <text x="550" y="640" text-anchor="middle" dominant-baseline="middle" font-family="Helvetica,Inter,Segoe UI,Arial" font-size="16" font-weight="bold" fill="#ff8000">sovereignty</text>
    <rect x="130" y="360" width="120" height="60" rx="6" ry="6" fill="#ffe6cc" stroke="#ff8000" stroke-width="2"/>
    <text x="190" y="390" text-anchor="middle" dominant-baseline="middle" font-family="Helvetica,Inter,Segoe UI,Arial" font-size="16" font-weight="bold" fill="#ff8000">nation state</text>
    <rect x="490" y="360" width="120" height="60" rx="6" ry="6" fill="#ffe6cc" stroke="#ff8000" stroke-width="2"/>
    <text x="550" y="380" text-anchor="middle" dominant-baseline="middle" font-family="Helvetica,Inter,Segoe UI,Arial" font-size="16" font-weight="bold" fill="#ff8000">personal</text>
    <text x="550" y="400" text-anchor="middle" dominant-baseline="middle" font-family="Helvetica,Inter,Segoe UI,Arial" font-size="16" font-weight="bold" fill="#ff8000">security</text>
    <rect x="220" y="720" width="120" height="60" rx="6" ry="6" fill="#ffe6cc" stroke="#ff8000" stroke-width="2"/>
    <text x="280" y="740" text-anchor="middle" dominant-baseline="middle" font-family="Helvetica,Inter,Segoe UI,Arial" font-size="16" font-weight="bold" fill="#ff8000">sovereign</text>
    <text x="280" y="760" text-anchor="middle" dominant-baseline="middle" font-family="Helvetica,Inter,Segoe UI,Arial" font-size="16" font-weight="bold" fill="#ff8000">individual</text>
    <rect x="400" y="120" width="120" height="60" rx="6" ry="6" fill="#ffe6cc" stroke="#ff8000" stroke-width="2"/>
    <text x="460" y="150" text-anchor="middle" dominant-baseline="middle" font-family="Helvetica,Inter,Segoe UI,Arial" font-size="16" font-weight="bold" fill="#ff8000">tax system</text>
    <rect x="220" y="240" width="120" height="60" rx="6" ry="6" fill="#ffe6cc" stroke="#ff8000" stroke-width="2"/>
    <text x="280" y="260" text-anchor="middle" dominant-baseline="middle" font-family="Helvetica,Inter,Segoe UI,Arial" font-size="16" font-weight="bold" fill="#ff8000">territorial</text>
    <text x="280" y="280" text-anchor="middle" dominant-baseline="middle" font-family="Helvetica,Inter,Segoe UI,Arial" font-size="16" font-weight="bold" fill="#ff8000">control</text>
    <rect x="400" y="240" width="120" height="60" rx="6" ry="6" fill="#ffe6cc" stroke="#ff8000" stroke-width="2"/>
    <text x="460" y="270" text-anchor="middle" dominant-baseline="middle" font-family="Helvetica,Inter,Segoe UI,Arial" font-size="16" font-weight="bold" fill="#ff8000">unknown</text>
    <rect x="310" y="600" width="120" height="60" rx="6" ry="6" fill="#ffe6cc" stroke="#ff8000" stroke-width="2"/>
    <text x="370" y="620" text-anchor="middle" dominant-baseline="middle" font-family="Helvetica,Inter,Segoe UI,Arial" font-size="16" font-weight="bold" fill="#ff8000">wealth</text>
    <text x="370" y="640" text-anchor="middle" dominant-baseline="middle" font-family="Helvetica,Inter,Segoe UI,Arial" font-size="16" font-weight="bold" fill="#ff8000">presentation</text>
    <rect x="350" y="40" width="40" height="40" rx="4" ry="4" fill="#ffe6cc" stroke="#ff8000" stroke-width="2"/>
    <text x="370" y="60" text-anchor="middle" dominant-baseline="middle" font-family="Helvetica,Inter,Segoe UI,Arial" font-size="16" font-weight="bold" fill="#ff8000">S</text>
    <rect x="350" y="820" width="40" height="40" rx="4" ry="4" fill="#ffe6cc" stroke="#ff8000" stroke-width="2"/>
    <text x="370" y="840" text-anchor="middle" dominant-baseline="middle" font-family="Helvetica,Inter,Segoe UI,Arial" font-size="16" font-weight="bold" fill="#ff8000">E</text>
    <rect x="130" y="600" width="120" height="60" rx="6" ry="6" fill="#ffe6cc" stroke="#ff8000" stroke-width="2"/>
    <text x="190" y="611" text-anchor="middle" dominant-baseline="middle" font-family="Helvetica,Inter,Segoe UI,Arial" font-size="16" font-weight="bold" fill="#ff8000">The</text>
    <text x="190" y="630" text-anchor="middle" dominant-baseline="middle" font-family="Helvetica,Inter,Segoe UI,Arial" font-size="16" font-weight="bold" fill="#ff8000">Industrializ</text>
    <text x="190" y="649" text-anchor="middle" dominant-baseline="middle" font-family="Helvetica,Inter,Segoe UI,Arial" font-size="16" font-weight="bold" fill="#ff8000">ed</text>
    <rect x="400" y="720" width="120" height="60" rx="6" ry="6" fill="#ffe6cc" stroke="#ff8000" stroke-width="2"/>
    <text x="460" y="740" text-anchor="middle" dominant-baseline="middle" font-family="Helvetica,Inter,Segoe UI,Arial" font-size="16" font-weight="bold" fill="#ff8000">The</text>
    <text x="460" y="760" text-anchor="middle" dominant-baseline="middle" font-family="Helvetica,Inter,Segoe UI,Arial" font-size="16" font-weight="bold" fill="#ff8000">Uncharted</text>
    <rect x="130" y="480" width="120" height="60" rx="6" ry="6" fill="#ffe6cc" stroke="#ff8000" stroke-width="2"/>
    <text x="190" y="510" text-anchor="middle" dominant-baseline="middle" font-family="Helvetica,Inter,Segoe UI,Arial" font-size="16" font-weight="bold" fill="#ff8000">citizenship</text>
    <g>
      <title>de facto starting point</title>
    <rect x="310" y="360" width="120" height="60" rx="6" ry="6" fill="#ffe6cc" stroke="#ff8000" stroke-width="2"/>
    <text x="370" y="390" text-anchor="middle" dominant-baseline="middle" font-family="Helvetica,Inter,Segoe UI,Arial" font-size="16" font-weight="bold" fill="#ff8000">cryptography</text>
    </g>
    <rect x="310" y="480" width="120" height="60" rx="6" ry="6" fill="#ffe6cc" stroke="#ff8000" stroke-width="2"/>
    <text x="370" y="500" text-anchor="middle" dominant-baseline="middle" font-family="Helvetica,Inter,Segoe UI,Arial" font-size="16" font-weight="bold" fill="#ff8000">digital</text>
    <text x="370" y="520" text-anchor="middle" dominant-baseline="middle" font-family="Helvetica,Inter,Segoe UI,Arial" font-size="16" font-weight="bold" fill="#ff8000">currency</text>
    <rect x="490" y="480" width="120" height="60" rx="6" ry="6" fill="#ffe6cc" stroke="#ff8000" stroke-width="2"/>
    <text x="550" y="500" text-anchor="middle" dominant-baseline="middle" font-family="Helvetica,Inter,Segoe UI,Arial" font-size="16" font-weight="bold" fill="#ff8000">digital</text>
    <text x="550" y="520" text-anchor="middle" dominant-baseline="middle" font-family="Helvetica,Inter,Segoe UI,Arial" font-size="16" font-weight="bold" fill="#ff8000">identity</text>
    <rect x="580" y="240" width="120" height="60" rx="6" ry="6" fill="#ffe6cc" stroke="#ff8000" stroke-width="2"/>
    <text x="640" y="270" text-anchor="middle" dominant-baseline="middle" font-family="Helvetica,Inter,Segoe UI,Arial" font-size="16" font-weight="bold" fill="#ff8000">encryption</text>
    <rect x="40" y="240" width="120" height="60" rx="6" ry="6" fill="#ffe6cc" stroke="#ff8000" stroke-width="2"/>
    <text x="100" y="260" text-anchor="middle" dominant-baseline="middle" font-family="Helvetica,Inter,Segoe UI,Arial" font-size="16" font-weight="bold" fill="#ff8000">global</text>
    <text x="100" y="280" text-anchor="middle" dominant-baseline="middle" font-family="Helvetica,Inter,Segoe UI,Arial" font-size="16" font-weight="bold" fill="#ff8000">network</text>
  </g>
</svg>
